<svg width="20" height="20" viewBox="0 0 20 20" fill="none" xmlns="http://www.w3.org/2000/svg">
<g>
<path d="M10.2061 6.67285C9.26925 6.67285 8.37081 7.045 7.70839 7.70742C7.04597 8.36984 6.67383 9.26827 6.67383 10.2051C6.67383 11.1419 7.04597 12.0403 7.70839 12.7027C8.37081 13.3652 9.26925 13.7373 10.2061 13.7373C11.1429 13.7373 12.0413 13.3652 12.7037 12.7027C13.3661 12.0403 13.7383 11.1419 13.7383 10.2051C13.7383 9.26827 13.3661 8.36984 12.7037 7.70742C12.0413 7.045 11.1429 6.67285 10.2061 6.67285ZM10.2061 12.499C9.59745 12.499 9.01378 12.2573 8.58344 11.8269C8.15309 11.3966 7.91133 10.8129 7.91133 10.2043C7.91133 9.59571 8.15309 9.01204 8.58344 8.5817C9.01378 8.15135 9.59745 7.90959 10.2061 7.90959C10.8147 7.90959 11.3983 8.15135 11.8287 8.5817C12.259 9.01204 12.5008 9.59571 12.5008 10.2043C12.5008 10.8129 12.259 11.3966 11.8287 11.8269C11.3983 12.2573 10.8147 12.499 10.2061 12.499Z" fill="black"/>
<path d="M13.878 7.36667C14.3328 7.36667 14.7015 6.99799 14.7015 6.5432C14.7015 6.08841 14.3328 5.71973 13.878 5.71973C13.4232 5.71973 13.0546 6.08841 13.0546 6.5432C13.0546 6.99799 13.4232 7.36667 13.878 7.36667Z" fill="black"/>
<path d="M16.7251 5.70565C16.5483 5.24898 16.278 4.83426 15.9317 4.48805C15.5853 4.14184 15.1705 3.87176 14.7138 3.69509C14.1793 3.49446 13.6147 3.38598 13.0439 3.37426C12.3083 3.34217 12.0753 3.33301 10.2099 3.33301C8.34449 3.33301 8.10539 3.33301 7.37587 3.37426C6.80555 3.38538 6.24131 3.49388 5.70754 3.69509C5.25069 3.87155 4.83576 4.14156 4.48939 4.4878C4.14302 4.83404 3.87285 5.24886 3.69622 5.70565C3.49555 6.24007 3.38732 6.80476 3.37615 7.37551C3.3433 8.11037 3.33337 8.34335 3.33337 10.2095C3.33337 12.075 3.33337 12.3125 3.37615 13.0436C3.38761 13.615 3.49532 14.1787 3.69622 14.7142C3.87335 15.1708 4.14378 15.5855 4.49023 15.9317C4.83669 16.2778 5.25155 16.548 5.7083 16.7247C6.24107 16.9334 6.80553 17.0497 7.3774 17.0685C8.11303 17.1006 8.34601 17.1105 10.2114 17.1105C12.0768 17.1105 12.3159 17.1105 13.0455 17.0685C13.6162 17.0569 14.1808 16.9487 14.7153 16.7484C15.1719 16.5713 15.5866 16.301 15.9329 15.9547C16.2792 15.6084 16.5496 15.1937 16.7266 14.7371C16.9275 14.2024 17.0352 13.6386 17.0467 13.0672C17.0796 12.3324 17.0895 12.0994 17.0895 10.2332C17.0895 8.36703 17.0895 8.13023 17.0467 7.39919C17.0378 6.82037 16.929 6.24743 16.7251 5.70565ZM15.7947 12.987C15.7898 13.4273 15.7094 13.8634 15.5571 14.2765C15.4424 14.5735 15.2668 14.8433 15.0416 15.0684C14.8163 15.2935 14.5465 15.4689 14.2493 15.5835C13.8408 15.7351 13.4093 15.8154 12.9737 15.8211C12.248 15.8547 12.0432 15.8631 10.1824 15.8631C8.32004 15.8631 8.12983 15.8631 7.39039 15.8211C6.95492 15.8157 6.52362 15.7354 6.11546 15.5835C5.8173 15.4697 5.54636 15.2945 5.32016 15.0694C5.09397 14.8442 4.91755 14.5741 4.80233 14.2765C4.65219 13.8678 4.57188 13.4368 4.56476 13.0015C4.53192 12.2759 4.52428 12.0711 4.52428 10.2103C4.52428 8.3487 4.52428 8.15849 4.56476 7.41828C4.5697 6.9783 4.65006 6.54242 4.80233 6.1296C5.03532 5.5269 5.51275 5.05252 6.11546 4.82183C6.52382 4.67068 6.95499 4.59034 7.39039 4.58426C8.11685 4.55141 8.32081 4.54224 10.1824 4.54224C12.044 4.54224 12.235 4.54224 12.9737 4.58426C13.4094 4.5895 13.8409 4.66987 14.2493 4.82183C14.5464 4.93662 14.8163 5.11226 15.0415 5.33747C15.2667 5.56269 15.4423 5.83251 15.5571 6.1296C15.7073 6.53825 15.7876 6.96924 15.7947 7.40453C15.8275 8.13099 15.8359 8.33495 15.8359 10.1965C15.8359 12.0574 15.8359 12.2575 15.8031 12.9878H15.7947V12.987Z" fill="black"/>
</g>
</svg>
