<svg width="21" height="21" viewBox="0 0 21 21" fill="none" xmlns="http://www.w3.org/2000/svg">
<path d="M17.413 9.22601L16.387 6.18601C16.2381 5.7434 15.9519 5.35838 15.5688 5.08564C15.1858 4.81291 14.7254 4.66633 14.2532 4.66675H7.41473C6.94253 4.66633 6.48219 4.81291 6.09915 5.08564C5.7161 5.35838 5.42982 5.7434 5.28098 6.18601L4.25498 9.22601C3.98215 9.33876 3.74915 9.52865 3.58528 9.77182C3.42141 10.015 3.33398 10.3006 3.33398 10.5927V14.2964C3.33398 14.843 3.63698 15.3156 4.08398 15.5727V17.2593C4.08398 17.4558 4.163 17.6442 4.30365 17.7831C4.44431 17.922 4.63507 18.0001 4.83398 18.0001H5.58398C5.7829 18.0001 5.97366 17.922 6.11431 17.7831C6.25497 17.6442 6.33398 17.4558 6.33398 17.2593V15.7779H15.334V17.2593C15.334 17.4558 15.413 17.6442 15.5537 17.7831C15.6943 17.922 15.8851 18.0001 16.084 18.0001H16.834C17.0329 18.0001 17.2237 17.922 17.3643 17.7831C17.505 17.6442 17.584 17.4558 17.584 17.2593V15.5727C17.8115 15.4438 18.0007 15.258 18.1323 15.0339C18.264 14.8098 18.3336 14.5554 18.334 14.2964V10.5927C18.334 10.3006 18.2466 10.015 18.0827 9.77182C17.9188 9.52865 17.6858 9.33876 17.413 9.22601ZM7.41473 6.14823H14.2525C14.5757 6.14823 14.8622 6.35119 14.9642 6.6549L15.7937 9.11119H5.87423L6.70298 6.6549C6.75275 6.50734 6.84827 6.37899 6.97602 6.28805C7.10377 6.19711 7.25726 6.14819 7.41473 6.14823ZM5.95898 13.5556C5.8112 13.5556 5.66487 13.5268 5.52835 13.4709C5.39183 13.415 5.2678 13.3331 5.16333 13.2298C5.05887 13.1266 4.97601 13.004 4.91951 12.8692C4.863 12.7343 4.83394 12.5897 4.83398 12.4438C4.83403 12.2978 4.86319 12.1533 4.91979 12.0185C4.97639 11.8836 5.05933 11.7611 5.16386 11.658C5.2684 11.5548 5.39249 11.473 5.52904 11.4171C5.6656 11.3613 5.81195 11.3326 5.95973 11.3327C6.2582 11.3328 6.54441 11.45 6.75538 11.6585C6.96636 11.867 7.08483 12.1497 7.08473 12.4445C7.08463 12.7393 6.96597 13.022 6.75485 13.2304C6.54374 13.4387 6.25745 13.5557 5.95898 13.5556ZM15.709 13.5556C15.5612 13.5556 15.4149 13.5268 15.2784 13.4709C15.1418 13.415 15.0178 13.3331 14.9133 13.2298C14.8089 13.1266 14.726 13.004 14.6695 12.8692C14.613 12.7343 14.5839 12.5897 14.584 12.4438C14.584 12.2978 14.6132 12.1533 14.6698 12.0185C14.7264 11.8836 14.8093 11.7611 14.9139 11.658C15.0184 11.5548 15.1425 11.473 15.279 11.4171C15.4156 11.3613 15.5619 11.3326 15.7097 11.3327C16.0082 11.3328 16.2944 11.45 16.5054 11.6585C16.7164 11.867 16.8348 12.1497 16.8347 12.4445C16.8346 12.7393 16.716 13.022 16.5049 13.2304C16.2937 13.4387 16.0075 13.5557 15.709 13.5556Z" fill="black"/>
</svg>
