<svg width="21" height="21" viewBox="0 0 21 21" fill="none" xmlns="http://www.w3.org/2000/svg">
<g clip-path="url(#clip0)">
<path d="M6.10546 5.99951H5.05245L1.2373 17.4996H2.29031L6.10546 5.99951Z" fill="#040000"/>
<path d="M17.9475 10.499H16.8945L19.2157 17.4996H20.2705L17.9475 10.499Z" fill="#040000"/>
<path d="M4.75079 16.2331H5.384V17.4996H6.65043V16.2331H12.3493V17.4996H13.6158V16.2331H14.249V13.6985C14.248 13.409 14.1479 13.1286 13.9653 12.9039C13.7827 12.6792 13.5286 12.5239 13.2454 12.4639L12.7162 11.0404C12.6251 10.7995 12.463 10.592 12.2514 10.4452C12.0397 10.2984 11.7885 10.2194 11.5309 10.2185H7.45297C7.1954 10.2194 6.94417 10.2984 6.73252 10.4452C6.52087 10.592 6.35877 10.7995 6.26768 11.0404L5.73853 12.4656C5.45777 12.5282 5.20673 12.6846 5.02684 12.9091C4.84695 13.1336 4.74895 13.4126 4.74902 13.7003L4.75079 16.2331ZM6.65043 14.9632C6.52482 14.9646 6.40164 14.9286 6.29655 14.8598C6.19145 14.791 6.1092 14.6925 6.06024 14.5768C6.01128 14.4611 5.99783 14.3335 6.0216 14.2102C6.04538 14.0868 6.1053 13.9734 6.19374 13.8842C6.28219 13.795 6.39517 13.7341 6.5183 13.7093C6.64144 13.6845 6.76917 13.6968 6.88526 13.7448C7.00134 13.7928 7.10054 13.8742 7.17022 13.9787C7.2399 14.0833 7.27693 14.2061 7.27658 14.3317C7.27613 14.4982 7.21018 14.6577 7.093 14.7759C6.97582 14.8941 6.81683 14.9613 6.65043 14.9632ZM7.1002 11.2821C7.1473 11.1554 7.23201 11.0461 7.34298 10.9688C7.45395 10.8916 7.58587 10.8501 7.72107 10.85H11.2769C11.4121 10.8501 11.5441 10.8916 11.655 10.9688C11.766 11.0461 11.8507 11.1554 11.8978 11.2821L12.3282 12.4321H6.67159L7.1002 11.2821ZM12.3493 14.9632C12.2241 14.9632 12.1017 14.9261 11.9975 14.8565C11.8934 14.7869 11.8123 14.688 11.7643 14.5723C11.7164 14.4566 11.7039 14.3293 11.7283 14.2064C11.7527 14.0836 11.813 13.9708 11.9016 13.8822C11.9901 13.7937 12.103 13.7334 12.2258 13.7089C12.3486 13.6845 12.476 13.697 12.5917 13.745C12.7074 13.7929 12.8063 13.8741 12.8758 13.9782C12.9454 14.0823 12.9826 14.2047 12.9826 14.33C12.9826 14.4979 12.9158 14.659 12.7971 14.7777C12.6783 14.8965 12.5173 14.9632 12.3493 14.9632Z" fill="#040000"/>
<path d="M9.25079 7.99973H9.74642V8.99982H10.7465V7.99973H15.2496V8.99982H16.2496V7.99973H16.7488V5.99956C16.7486 5.77064 16.6698 5.54873 16.5257 5.37089C16.3815 5.19305 16.1808 5.07004 15.9568 5.0224L15.5353 3.89884C15.4632 3.70859 15.3351 3.54469 15.1678 3.42879C15.0006 3.3129 14.8022 3.25047 14.5987 3.24976H11.3903C11.1865 3.25012 10.9877 3.31238 10.8201 3.42829C10.6526 3.54421 10.5242 3.70831 10.452 3.89884L10.0304 5.02416C9.80859 5.07354 9.61027 5.19712 9.4682 5.37447C9.32613 5.55181 9.24881 5.77232 9.24902 5.99956L9.25079 7.99973ZM10.75 6.99965C10.6515 6.99929 10.5553 6.96981 10.4736 6.91491C10.3918 6.86 10.3281 6.78213 10.2905 6.69109C10.2529 6.60006 10.243 6.49993 10.2622 6.40331C10.2814 6.3067 10.3287 6.21792 10.3982 6.14815C10.4678 6.07837 10.5564 6.03073 10.6529 6.01122C10.7495 5.9917 10.8496 6.00119 10.9408 6.03848C11.032 6.07577 11.1101 6.1392 11.1653 6.22079C11.2204 6.30237 11.2503 6.39846 11.251 6.49696C11.2514 6.56295 11.2388 6.62838 11.2138 6.68947C11.1888 6.75055 11.152 6.80608 11.1054 6.85283C11.0588 6.89958 11.0034 6.93662 10.9424 6.96182C10.8814 6.98703 10.816 6.99988 10.75 6.99965ZM10.7659 4.99947L10.81 4.88129L11.1046 4.0911C11.1425 3.9916 11.2097 3.90588 11.2972 3.84515C11.3846 3.78441 11.4884 3.75149 11.5949 3.75068H14.4029C14.5094 3.75149 14.6132 3.78441 14.7007 3.84515C14.7882 3.90588 14.8553 3.9916 14.8933 4.0911L15.2319 4.99947H10.7659ZM15.2496 6.99965C15.1508 7.00069 15.0539 6.97239 14.9712 6.91834C14.8885 6.86429 14.8237 6.78691 14.785 6.696C14.7463 6.6051 14.7354 6.50475 14.7538 6.40768C14.7722 6.3106 14.819 6.22116 14.8882 6.15069C14.9574 6.08021 15.046 6.03187 15.1428 6.01178C15.2395 5.99169 15.34 6.00076 15.4316 6.03783C15.5232 6.07491 15.6017 6.13833 15.6572 6.22006C15.7127 6.3018 15.7427 6.39816 15.7434 6.49696C15.7444 6.62904 15.6929 6.75611 15.6003 6.85033C15.5078 6.94456 15.3816 6.99825 15.2496 6.99965Z" fill="#040000"/>
</g>
<defs>
<clipPath id="clip0">
<rect width="20" height="20" fill="white" transform="translate(0.75 0.5)"/>
</clipPath>
</defs>
</svg>
