<svg width="21" height="21" viewBox="0 0 21 21" fill="none" xmlns="http://www.w3.org/2000/svg">
<g clip-path="url(#clip0)">
<path d="M16.1647 4.00122C13.8718 4.00122 11.2754 4.94839 8.65967 6.74044C7.49602 7.50582 6.2841 8.19515 5.03148 8.80411C2.68912 10.0017 0.666016 11.0354 0.666016 13.0003C0.666016 15.3162 2.51627 16.4997 6.16386 16.4997H19.1632V15.4925H6.16386C2.13175 15.4925 1.6661 14.0815 1.6661 13.0003C1.6661 11.6474 3.35232 10.7867 5.48655 9.69661C5.9275 9.47084 6.39139 9.23449 6.86586 8.9805H9.59802C12.5101 8.9805 14.4397 8.12504 15.5351 7.41951C15.6277 7.36169 15.6988 7.2751 15.7374 7.173C15.7761 7.07091 15.7803 6.95895 15.7493 6.85427C15.7182 6.7496 15.6538 6.65798 15.5657 6.59346C15.4776 6.52893 15.3708 6.49506 15.2617 6.49703H10.9685C13.2209 5.28705 14.9936 4.99778 16.1647 4.99778H19.1632V4.00122H16.1647Z" fill="black"/>
<path d="M12.166 13.0003H19.1649V11.4993H13.1643L12.166 13.0003Z" fill="black"/>
</g>
<defs>
<clipPath id="clip0">
<rect width="20" height="20" fill="white" transform="translate(0.166992 0.5)"/>
</clipPath>
</defs>
</svg>
