<svg width="21" height="21" viewBox="0 0 21 21" fill="none" xmlns="http://www.w3.org/2000/svg">
<path d="M14.8918 16.7888C15.2251 16.6233 15.5055 16.368 15.7015 16.0517C15.8975 15.7354 16.0013 15.3707 16.0012 14.9986V4.99944C16.0012 4.46896 15.7905 3.96021 15.4154 3.58511C15.0403 3.21 14.5316 2.99927 14.0011 2.99927H5.99684C5.46771 3.00206 4.96112 3.21385 4.58746 3.58851C4.2138 3.96316 4.00334 4.47031 4.00195 4.99944V14.9986C4.00219 15.371 4.10652 15.7361 4.30318 16.0524C4.49984 16.3687 4.781 16.6238 5.11493 16.7888L4.00372 18.4998H5.82046L6.78703 17.0005H13.2162L14.1792 18.4998H15.9995L14.8918 16.7888ZM6.50129 4.50028H13.5019V5.50037H6.50129V4.50028ZM14.0011 6.99962C14.1335 6.99962 14.2604 7.05221 14.354 7.14582C14.4476 7.23943 14.5002 7.3664 14.5002 7.49878V11C14.5002 11.1324 14.4476 11.2593 14.354 11.3529C14.2604 11.4465 14.1335 11.4991 14.0011 11.4991H5.99684C5.86445 11.4991 5.73749 11.4465 5.64388 11.3529C5.55027 11.2593 5.49768 11.1324 5.49768 11V7.49878C5.49768 7.3664 5.55027 7.23943 5.64388 7.14582C5.73749 7.05221 5.86445 6.99962 5.99684 6.99962H14.0011ZM6.50129 14.9986C6.30399 14.9982 6.11122 14.9394 5.94732 14.8296C5.78341 14.7197 5.65573 14.5638 5.58039 14.3815C5.50505 14.1991 5.48542 13.9985 5.524 13.805C5.56258 13.6116 5.65762 13.4338 5.79713 13.2943C5.93665 13.1548 6.11437 13.0598 6.30786 13.0212C6.50135 12.9826 6.70194 13.0022 6.88428 13.0776C7.06663 13.1529 7.22257 13.2806 7.3324 13.4445C7.44223 13.6084 7.50103 13.8012 7.50138 13.9985C7.50091 14.2636 7.3954 14.5177 7.20795 14.7051C7.02049 14.8926 6.76639 14.9981 6.50129 14.9986ZM12.4983 13.9985C12.4981 13.807 12.5528 13.6196 12.656 13.4583C12.7592 13.2971 12.9065 13.1688 13.0805 13.0888C13.2544 13.0088 13.4476 12.9804 13.6372 13.007C13.8268 13.0336 14.0048 13.114 14.15 13.2388C14.2952 13.3635 14.4016 13.5273 14.4565 13.7107C14.5114 13.8941 14.5125 14.0894 14.4596 14.2734C14.4068 14.4574 14.3023 14.6224 14.1585 14.7487C14.0146 14.8751 13.8376 14.9575 13.6483 14.9862C13.5058 15.009 13.3601 15.0005 13.2212 14.9613C13.0824 14.922 12.9537 14.853 12.8443 14.759C12.7348 14.665 12.6472 14.5482 12.5874 14.4169C12.5277 14.2855 12.4972 14.1428 12.4983 13.9985Z" fill="#040000"/>
</svg>
