<svg xmlns="http://www.w3.org/2000/svg" viewBox="0 0 98.9 64.27"><defs><style>.cls-1{fill:#fff;}</style></defs><g id="レイヤー_2" data-name="レイヤー 2"><g id="design"><path class="cls-1" d="M2.48,28.87a3.3,3.3,0,0,0,2.14.78c2.8,0,4.29-3.87,5.15-8.29l4-20.58L11.08.49l.1-.2h8.33l-.09.18L17.24.78l-4,20.71c-1.16,6.06-4.91,8.41-8.7,8.41A10.1,10.1,0,0,1,0,28.75Z"/><path class="cls-1" d="M24,28.21l0,.12a5,5,0,0,1-3.71,1.57c-1.9,0-2.48-1.53-2.11-3.51L21.4,9.86l-2-.3.1-.2,5.08-.16L21.07,27.47c-.25,1.23.12,1.85.74,1.85A4.1,4.1,0,0,0,24,28.21ZM26.51,1.77a2.8,2.8,0,0,1-2.64,2.6A1.73,1.73,0,0,1,22.1,2.6,2.77,2.77,0,0,1,24.74,0,1.75,1.75,0,0,1,26.51,1.77Z"/><path class="cls-1" d="M78.64,28.21l0,.12A5,5,0,0,1,75,29.9c-1.9,0-2.47-1.53-2.1-3.51L76,9.86l-2-.3.1-.2,5.07-.16L75.71,27.47c-.24,1.23.13,1.85.75,1.85A4,4,0,0,0,78.64,28.21ZM81.16,1.77a2.8,2.8,0,0,1-2.64,2.6A1.74,1.74,0,0,1,76.74,2.6,2.77,2.77,0,0,1,79.38,0,1.76,1.76,0,0,1,81.16,1.77Z"/><path class="cls-1" d="M62.1,28.21l0,.12a5,5,0,0,1-3.71,1.57c-1.9,0-2.48-1.53-2.11-3.51l1-4.9C55,26.56,52.08,29.9,48.82,29.9s-4.7-2.43-4-6.1L47.5,9.86l-2-.3.1-.2,5.28-.16-3,14.6c-.62,3.13-.41,5.73,1.61,5.73,3.13,0,6.39-5.24,7.92-8.91L59.5,9.86l-2-.3.1-.2,5.08-.16L59.17,27.47c-.25,1.23.12,1.85.74,1.85A4.1,4.1,0,0,0,62.1,28.21Z"/><path class="cls-1" d="M66,9.36l5.61-.16-4,20.45c-1.07,5.45-4.16,8.58-8.5,9.28l0-.12c3.13-1.28,4.41-4.21,5.48-9.69L68.39,10,65.9,9.56Zm7.26-7.59a2.8,2.8,0,0,1-2.64,2.6A1.73,1.73,0,0,1,68.85,2.6,2.77,2.77,0,0,1,71.49,0,1.73,1.73,0,0,1,73.26,1.77Z"/><path class="cls-1" d="M78.64,28.21l0,.12A5,5,0,0,1,75,29.9c-1.9,0-2.47-1.53-2.1-3.51L76,9.86l-2-.3.1-.2,5.07-.16L75.71,27.47c-.24,1.23.13,1.85.75,1.85A4,4,0,0,0,78.64,28.21ZM81.16,1.77a2.8,2.8,0,0,1-2.64,2.6A1.74,1.74,0,0,1,76.74,2.6,2.77,2.77,0,0,1,79.38,0,1.76,1.76,0,0,1,81.16,1.77Z"/><path class="cls-1" d="M98.9,28.33a5,5,0,0,1-3.71,1.57c-1.9,0-2.6-1.61-2.19-3.63l2.44-11.55C96.1,11.59,95.85,9,93.83,9c-3.22,0-6.1,5.44-7.59,9.12L84.06,29.16H81l3.76-19.3-2-.3.1-.2L88,9.2l-1.56,8c2.31-5.2,4.82-8.62,8.12-8.62s4.7,2.43,4,6l-2.6,12.87c-.24,1.23.13,1.85.75,1.85a4.08,4.08,0,0,0,2.18-1.11Z"/><path class="cls-1" d="M19.22,62.7a5.08,5.08,0,0,1-3.71,1.57c-1.9,0-2.6-1.61-2.19-3.63l2.43-11.55c.66-3.14.42-5.73-1.6-5.73-3.22,0-6.11,5.44-7.59,9.11L4.37,63.52h-3L6.88,35.15l-1.95-.3.1-.2,5.07-.2L6.72,51.6C9,46.41,11.55,43,14.85,43s4.7,2.44,4,6l-2.6,12.87c-.25,1.24.12,1.86.74,1.86a4.13,4.13,0,0,0,2.19-1.12Z"/><path class="cls-1" d="M39.11,50.9c0,7.1-4.9,13.37-11.09,13.37-4.95,0-7-3.63-7-7.92C21.05,49.25,26,43,32.15,43,37.09,43,39.11,46.61,39.11,50.9Zm-3.5,0c0-3.67-1.24-7.75-4-7.75-4.29,0-7.09,7.3-7.09,13.2,0,3.67,1.19,7.75,4,7.75C32.85,64.1,35.61,56.8,35.61,50.9Z"/><path class="cls-1" d="M44.07,61.3c-.24,1.36.25,2.39,1.41,2.39A4.22,4.22,0,0,0,48,62.49l0,.13a5.17,5.17,0,0,1-3.58,1.65c-2.48,0-3.72-1.49-3.18-4.17l3.26-16v0H41.27l0-.21,3.3-.12,1-5.41,3-.57-1.15,6h4l-.05.29H47.42Z"/><path class="cls-1" d="M53.82,55.44V56c0,4.57,1.86,7.54,4.5,7.54,2.39,0,4.62-1.56,6.14-3.38l.17.17a9.18,9.18,0,0,1-7.47,4c-4.12,0-6.8-3.1-6.8-8.38C50.36,49.34,55.43,43,61.7,43c3.55,0,5.69,1.65,5.69,4.21C67.39,53.38,60.05,55.4,53.82,55.44Zm0-.21c5.41-.12,10.48-3.83,10.48-8.33,0-2-.91-3.71-3-3.71C57.41,43.19,54.11,49.79,53.82,55.23Z"/><path class="cls-1" d="M74.31,62.57l0,.13a5.09,5.09,0,0,1-3.72,1.57c-1.89,0-2.55-1.65-2.18-3.63l5-25.49-2-.3.1-.2,5.08-.16L71.38,61.83c-.25,1.24.12,1.86.74,1.86A4.13,4.13,0,0,0,74.31,62.57Z"/><path class="cls-1" d="M91.41,46.18c.08-1.86-3-2.93-4.75-2.94a3.92,3.92,0,0,0-4,4c0,1.9,1.07,3.34,3,4.62,3.06,2,4.75,3.59,4.75,6.15,0,4.25-3.72,6.23-8,6.23-2.39,0-6-1.2-5.8-3.26h1.18c-.12,1.83,2.76,2.92,4.74,2.94C85.19,64,87,61.34,87,59.07c0-1.53-.45-2.76-3.34-4.62-2.23-1.44-4.21-3.26-4.21-5.57,0-3.05,2.41-6,7.44-5.94a8.09,8.09,0,0,1,5.06,1.67,1.93,1.93,0,0,1,.67,1.59"/><path class="cls-1" d="M44,9.21l-4.59.15-.11.2,3.86.23A62.68,62.68,0,0,1,33.5,27.13L31.37,9.36h-4.7l-.1.2,1.76.33L31.11,30c-4.5,5.23-5.89,6.14-5.89,6.14a9.39,9.39,0,0,1-5.93,2v.09a8.5,8.5,0,0,0,6.19-1.7s1.1-.62,5.5-5.65h0A67.69,67.69,0,0,0,44,9.21Z"/></g></g></svg>