<svg width="120" height="120" viewBox="0 0 120 120" fill="none" xmlns="http://www.w3.org/2000/svg">
<path d="M4.72645 91.7743C4.85199 91.9466 5.00152 92.0985 5.18337 92.2392C5.35967 92.3782 5.57013 92.4921 5.81013 92.5792C6.05013 92.6681 6.31689 92.7116 6.61135 92.7116C6.91688 92.7116 7.19103 92.6551 7.43472 92.5523C7.67841 92.4439 7.88518 92.3022 8.05594 92.1235C8.22763 91.9429 8.35686 91.7289 8.45194 91.4853C8.54332 91.2408 8.58671 90.9768 8.58671 90.6999C8.58671 90.2747 8.48055 89.9385 8.26548 89.6903C8.04764 89.4374 7.78087 89.229 7.45595 89.0642C7.13196 88.8956 6.78488 88.7474 6.41197 88.6066C6.03997 88.4677 5.69013 88.2954 5.3689 88.0861C5.04399 87.8777 4.77445 87.6137 4.56215 87.2905C4.3443 86.9682 4.23538 86.5319 4.23538 85.9854C4.23538 85.5983 4.30369 85.2454 4.44307 84.924C4.58153 84.6072 4.77907 84.3359 5.04306 84.1024C5.30706 83.87 5.6209 83.6903 5.99013 83.5615C6.35658 83.4291 6.77565 83.3643 7.23442 83.3643C7.6738 83.3643 8.05779 83.4217 8.37809 83.5254C8.70301 83.6338 9.02701 83.8746 9.30393 84.0913C9.22178 84.2506 9.15347 84.4155 9.09808 84.5906C9.04085 84.7675 8.98732 84.9879 8.93101 85.2565H8.76486C8.71871 85.1278 8.63009 84.912 8.55348 84.7591C8.47409 84.6072 8.37071 84.4683 8.23594 84.3359C8.10302 84.2071 7.94241 84.0987 7.75872 84.0098C7.57503 83.9218 7.35165 83.8774 7.09503 83.8774C6.83842 83.8774 6.60027 83.9172 6.38427 84.0024C6.16551 84.0858 5.9772 84.2071 5.81567 84.3553C5.65505 84.5072 5.53044 84.6915 5.44367 84.9045C5.3569 85.1167 5.3126 85.3491 5.3126 85.5983C5.3126 86.0308 5.41967 86.3754 5.63659 86.6245C5.85351 86.8728 6.12305 87.0858 6.44427 87.2581C6.76919 87.4266 7.11627 87.5785 7.48918 87.7138C7.86118 87.8462 8.20917 88.0101 8.53225 88.2019C8.85439 88.3992 9.12855 88.6483 9.34177 88.9521C9.555 89.2615 9.66485 89.6653 9.66485 90.1747C9.66485 90.5998 9.59008 91.0037 9.43685 91.376C9.28547 91.7613 9.06762 92.0855 8.77686 92.3708C8.48332 92.6551 8.12979 92.8719 7.7098 93.0238C7.29349 93.1757 6.81442 93.2516 6.28181 93.2516C5.70859 93.2516 5.24798 93.1757 4.89076 93.0238C4.5363 92.8719 4.24092 92.6949 4 92.5032C4.08492 92.292 4.14215 92.0975 4.17354 91.9299C4.20492 91.7576 4.23538 91.5372 4.26123 91.2676H4.4283C4.5003 91.4325 4.60184 91.6057 4.72645 91.7743Z" fill="#F8F5F0"/>
<path d="M17.0097 88.7603L15.4755 85.2361L13.9719 88.7603L13.7014 89.4133C13.4097 90.1293 13.1448 90.8119 12.9094 91.4575C12.6694 92.1067 12.4894 92.6421 12.3667 93.0728C12.2097 93.0533 12.0408 93.0441 11.8562 93.0441C11.6707 93.0441 11.5027 93.0533 11.3467 93.0728C12.0907 91.4519 12.8208 89.8459 13.5297 88.2463C14.2386 86.6476 14.954 85.0203 15.6703 83.3633H15.9315C16.1549 83.9005 16.3958 84.4821 16.6497 85.1036C16.9091 85.7298 17.1712 86.3614 17.4389 86.9996C17.7066 87.6368 17.9715 88.2657 18.2392 88.8956C18.505 89.5254 18.757 90.1089 18.9924 90.6517C19.226 91.1926 19.4392 91.6714 19.6256 92.0966C19.8176 92.5217 19.9718 92.8477 20.0909 93.0719C19.9616 93.0524 19.8407 93.0431 19.7253 93.0431H19.3598H18.9915C18.877 93.0431 18.7533 93.0524 18.626 93.0719C18.5623 92.8588 18.4755 92.6013 18.362 92.3012C18.2512 92.0012 18.1284 91.6844 17.9964 91.3602L17.0097 88.7603ZM13.2094 89.3966C13.2076 89.4041 13.203 89.4096 13.203 89.4133L13.2094 89.3966Z" fill="#F8F5F0"/>
<path d="M76.3036 88.7603L74.7714 85.2361L73.2649 88.7603L72.9954 89.4133C72.7018 90.1293 72.4378 90.8119 72.2006 91.4575C71.9615 92.1067 71.7843 92.6421 71.6634 93.0728C71.5037 93.0533 71.3329 93.0441 71.1511 93.0441C70.9656 93.0441 70.7966 93.0533 70.6388 93.0728C71.3837 91.4519 72.1148 89.8459 72.8218 88.2463C73.5317 86.6476 74.2434 85.0203 74.9643 83.3633H75.2255C75.447 83.9005 75.6852 84.4821 75.9446 85.1036C76.2039 85.7298 76.4652 86.3614 76.7319 86.9996C76.9987 87.6368 77.2664 88.2657 77.535 88.8956C77.7981 89.5254 78.0528 90.1089 78.2873 90.6517C78.5208 91.1926 78.7313 91.6714 78.9224 92.0966C79.1125 92.5217 79.2658 92.8477 79.3857 93.0719C79.2556 93.0524 79.1328 93.0431 79.0184 93.0431H78.6538H78.2882C78.1728 93.0431 78.0501 93.0524 77.9227 93.0719C77.8572 92.8588 77.7676 92.6013 77.6587 92.3012C77.5479 92.0012 77.427 91.6844 77.2922 91.3602L76.3036 88.7603ZM73.0018 89.3966C73.0018 89.4041 72.9954 89.4096 72.9954 89.4133L73.0018 89.3966Z" fill="#F8F5F0"/>
<path d="M52.5236 88.7603L50.9913 85.2361L49.484 88.7603L49.2144 89.4133C48.9228 90.1293 48.6588 90.8119 48.4206 91.4575C48.1815 92.1067 47.9997 92.6421 47.8825 93.0728C47.7246 93.0533 47.5529 93.0441 47.3683 93.0441C47.1846 93.0441 47.0148 93.0533 46.8569 93.0728C47.6046 91.4519 48.3311 89.8459 49.0391 88.2463C49.7489 86.6476 50.4643 85.0203 51.1824 83.3633H51.4455C51.667 83.9005 51.9042 84.4821 52.1655 85.1036C52.4202 85.7298 52.6824 86.3614 52.9501 86.9996C53.2196 87.6368 53.4855 88.2657 53.7531 88.8956C54.019 89.5254 54.2701 90.1089 54.5036 90.6517C54.7417 91.1926 54.9531 91.6714 55.1405 92.0966C55.327 92.5217 55.4839 92.8477 55.603 93.0719C55.4737 93.0524 55.3519 93.0431 55.2365 93.0431H54.8728H54.5036C54.3891 93.0431 54.2673 93.0524 54.1381 93.0719C54.0744 92.8588 53.9867 92.6013 53.8778 92.3012C53.7679 92.0012 53.6451 91.6844 53.5122 91.3602L52.5236 88.7603ZM49.2218 89.3966C49.2172 89.4041 49.2163 89.4096 49.2144 89.4133L49.2218 89.3966Z" fill="#F8F5F0"/>
<path d="M23.2146 84.2664C22.9737 84.2664 22.7235 84.2664 22.4595 84.2738C22.1983 84.2784 21.9361 84.2905 21.6749 84.3025C21.4128 84.3146 21.1543 84.3294 20.9134 84.3507C20.6678 84.3711 20.258 84.3896 20.0632 84.4183C20.1075 84.2497 20.1315 84.1062 20.1315 83.9765C20.1315 83.8737 20.1075 83.7283 20.0632 83.5439C20.6715 83.5634 21.4589 83.5801 22.0386 83.593C22.621 83.6097 23.2146 83.6162 23.822 83.6162C24.4312 83.6162 25.0238 83.6088 25.6035 83.593C26.1841 83.5801 26.9419 83.5643 27.5511 83.5439C27.5041 83.7283 27.4828 83.8765 27.4828 83.9885C27.4828 84.1089 27.505 84.2488 27.5511 84.4174C27.3573 84.3887 26.9751 84.3701 26.7305 84.3497C26.4868 84.3284 26.2348 84.3136 25.9708 84.3016C25.7078 84.2895 25.4447 84.2775 25.1816 84.2729C24.9186 84.2655 24.6693 84.2655 24.4321 84.2655C24.4026 85.2185 24.3896 86.1744 24.3896 87.1349V89.5208C24.3896 90.134 24.4026 90.7314 24.4256 91.3242C24.4459 91.9123 24.4709 92.4986 24.5004 93.0719C24.2872 93.0525 24.0619 93.0432 23.8229 93.0432C23.581 93.0432 23.3576 93.0525 23.1463 93.0719C23.174 92.4986 23.2007 91.9123 23.222 91.3242C23.2441 90.7304 23.2552 90.134 23.2552 89.5208V87.1349C23.2533 86.1744 23.2432 85.2195 23.2146 84.2664Z" fill="#F8F5F0"/>
<path d="M36.43 86.3383C36.2583 85.7779 36.0201 85.3194 35.7127 84.9517C35.4063 84.5859 35.05 84.3182 34.6374 84.1413C34.2229 83.9662 33.7752 83.8773 33.2952 83.8773C32.8208 83.8773 32.3786 83.9662 31.9651 84.1413C31.5553 84.3182 31.1916 84.5859 30.8879 84.9517C30.5823 85.3194 30.3405 85.7779 30.1716 86.3383C29.999 86.8949 29.914 87.5609 29.914 88.3315C29.914 89.0965 29.9999 89.7606 30.1716 90.3191C30.3414 90.8795 30.5823 91.3398 30.8879 91.7048C31.1916 92.0706 31.5553 92.342 31.9651 92.5134C32.3786 92.6903 32.8217 92.7792 33.2952 92.7792C33.7761 92.7792 34.2229 92.6903 34.6374 92.5134C35.05 92.3411 35.4063 92.0697 35.7127 91.7048C36.0201 91.3389 36.2592 90.8795 36.43 90.3191C36.6026 89.7597 36.6884 89.0965 36.6884 88.3315C36.6884 87.5609 36.6016 86.8949 36.43 86.3383ZM29.0501 86.229C29.2734 85.614 29.5873 85.0907 29.9934 84.6665C30.3968 84.2413 30.8814 83.9209 31.4454 83.6958C32.0085 83.4772 32.626 83.3633 33.2952 83.3633C33.9709 83.3633 34.5949 83.4772 35.1598 83.6958C35.7192 83.9209 36.2047 84.2413 36.6081 84.6665C37.0143 85.0907 37.3272 85.6131 37.5506 86.229C37.7767 86.8431 37.8884 87.5442 37.8884 88.3315C37.8884 89.1169 37.7767 89.8134 37.5506 90.4303C37.3272 91.0435 37.0143 91.5668 36.6081 91.99C36.2038 92.4207 35.7192 92.7319 35.1598 92.9413C34.5958 93.1497 33.9718 93.2525 33.2952 93.2525C32.626 93.2525 32.0085 93.1497 31.4454 92.9413C30.8814 92.731 30.3968 92.4207 29.9934 91.99C29.5873 91.5668 29.2744 91.0444 29.0501 90.4303C28.823 89.8134 28.7131 89.1169 28.7131 88.3315C28.7122 87.5442 28.823 86.8431 29.0501 86.229Z" fill="#F8F5F0"/>
<path d="M41.914 88.4871C41.7368 88.1908 41.5364 87.8573 41.3186 87.4887C41.1017 87.1247 40.8765 86.7431 40.6355 86.3383C40.3955 85.9336 40.1694 85.552 39.9506 85.187C39.7355 84.823 39.5389 84.4942 39.3682 84.2062C39.1909 83.9135 39.0562 83.6931 38.9639 83.5439C39.094 83.5634 39.2196 83.5801 39.3432 83.593C39.4697 83.6097 39.5943 83.6162 39.7217 83.6162C39.8537 83.6162 39.9802 83.6088 40.1048 83.593C40.2303 83.5801 40.354 83.5643 40.4832 83.5439C40.8968 84.3498 41.3177 85.1398 41.7497 85.9169C42.1771 86.6931 42.6303 87.5035 43.1093 88.3417C43.3189 88.0092 43.5432 87.6452 43.774 87.2432C44.002 86.8505 44.2327 86.4411 44.4626 86.029C44.6924 85.6131 44.9158 85.1917 45.1272 84.7703C45.3385 84.3544 45.537 83.9413 45.7207 83.5439C45.9524 83.593 46.1324 83.6162 46.2616 83.6162C46.3881 83.6162 46.5671 83.593 46.7979 83.5439C46.3558 84.2219 45.9625 84.8305 45.6109 85.3769C45.2619 85.9215 44.9527 86.4134 44.685 86.8589C44.4192 87.3007 44.181 87.7054 43.9807 88.0583C43.7767 88.4149 43.6041 88.74 43.4536 89.0244C43.4536 89.3643 43.4583 89.7301 43.4601 90.1191C43.4693 90.5026 43.474 90.8879 43.4841 91.2658C43.4924 91.6363 43.5026 91.9818 43.5155 92.3022C43.5321 92.6245 43.546 92.8755 43.5663 93.0728C43.354 93.0534 43.1278 93.0441 42.8897 93.0441C42.6515 93.0441 42.4244 93.0534 42.2149 93.0728C42.2694 92.5912 42.3007 92.0058 42.31 91.3251C42.3192 90.6397 42.3229 89.9246 42.3229 89.1763C42.2297 89.0188 42.094 88.7872 41.914 88.4871Z" fill="#F8F5F0"/>
<path d="M61.0573 87.1914C61.709 88.4306 62.3875 89.7005 63.0964 91.0027C63.1905 90.8277 63.3225 90.5795 63.4979 90.2507C63.6742 89.9219 63.8791 89.5449 64.1053 89.1198C64.3379 88.6946 64.5834 88.2334 64.8465 87.7415C65.1059 87.2442 65.3763 86.7468 65.6459 86.2346C65.9173 85.7252 66.1886 85.2287 66.4545 84.7388C66.724 84.2506 66.9696 83.7894 67.204 83.3643H67.3822C67.4837 84.2553 67.5769 85.1083 67.6655 85.9382C67.7532 86.7635 67.8409 87.5776 67.9351 88.3788C68.0274 89.1763 68.1188 89.9709 68.2111 90.749C68.3025 91.5307 68.4049 92.3032 68.5166 93.0738C68.4049 93.0543 68.2951 93.045 68.1898 93.045H67.864H67.5409C67.4348 93.045 67.3249 93.0543 67.2142 93.0738C67.1135 91.8419 67.0129 90.6536 66.9105 89.4939C66.8099 88.3399 66.6862 87.1599 66.5376 85.9586H66.5089C65.8757 87.1256 65.2517 88.2834 64.637 89.4291C64.0259 90.585 63.4425 91.7863 62.8887 93.045H62.765C62.213 91.8799 61.6342 90.7128 61.0306 89.5467C60.4278 88.376 59.8204 87.1766 59.2112 85.9586H59.1863C59.1226 86.5319 59.0515 87.1534 58.9731 87.8221C58.8955 88.4955 58.8235 89.154 58.758 89.807C58.6961 90.46 58.638 91.0731 58.5946 91.6502C58.5475 92.2309 58.5244 92.6996 58.5244 93.0738C58.3749 93.0543 58.2171 93.045 58.0417 93.045C57.8654 93.045 57.7038 93.0543 57.5562 93.0738C57.6789 92.3226 57.8026 91.5344 57.9318 90.7008C58.0592 89.87 58.1829 89.0327 58.3048 88.1917C58.4238 87.3507 58.5328 86.5199 58.6361 85.702C58.7349 84.8842 58.8235 84.1071 58.8974 83.3643H59.1337C59.7669 84.6786 60.4103 85.953 61.0573 87.1914Z" fill="#F8F5F0"/>
<path d="M86.4925 94.339C86.7223 94.1584 86.8986 93.9046 87.0205 93.5851C87.1377 93.2609 87.2143 92.8793 87.2457 92.4347C87.278 91.9892 87.2983 91.4974 87.2983 90.9528V87.1359C87.2983 86.5273 87.2817 85.9253 87.2595 85.3399C87.2383 84.7546 87.2115 84.1544 87.1857 83.5449C87.3066 83.5644 87.4202 83.581 87.5291 83.594C87.6417 83.6107 87.7525 83.6135 87.8632 83.6135C87.9703 83.6135 88.0811 83.6098 88.1946 83.594C88.3017 83.581 88.4171 83.5653 88.5389 83.5449C88.5094 84.1544 88.4854 84.7555 88.4641 85.3399C88.4401 85.9253 88.4272 86.5273 88.4272 87.1359C88.4272 87.5536 88.4291 87.9824 88.4337 88.4279C88.4401 88.8725 88.4448 89.3088 88.4475 89.7376C88.4521 90.1664 88.4558 90.5842 88.4651 90.9769C88.466 91.377 88.4706 91.7419 88.4706 92.0754C88.4706 92.4875 88.406 92.8728 88.2703 93.2165C88.1374 93.5619 87.9445 93.8694 87.6952 94.139C87.4478 94.4066 87.1525 94.6206 86.8063 94.7688C86.4583 94.9244 86.0826 95.0003 85.6774 95.0003L85.5685 94.6113C85.9562 94.6104 86.2635 94.5187 86.4925 94.339Z" fill="#F8F5F0"/>
<path d="M98.8311 85.0148C98.8237 84.3016 98.8024 83.8125 98.7664 83.5439C98.8624 83.5634 98.9538 83.5801 99.0378 83.593C99.1283 83.6097 99.2114 83.6162 99.2991 83.6162C99.4107 83.6162 99.5409 83.593 99.6886 83.5439C99.6627 83.869 99.636 84.2544 99.6083 84.7036C99.5834 85.1519 99.5612 85.6316 99.5455 86.1466C99.5261 86.6597 99.5086 87.1849 99.4947 87.7258C99.4763 88.2667 99.4634 88.7909 99.4523 89.3013C99.4449 89.9181 99.3563 90.472 99.1874 90.9638C99.0184 91.452 98.7803 91.8706 98.4701 92.2105C98.1591 92.556 97.7751 92.8107 97.3209 92.9885C96.8695 93.1655 96.4422 93.2525 95.8542 93.2525C94.5582 93.2525 93.6176 92.9413 93.0296 92.3115C92.4416 91.6817 92.1481 90.6869 92.1481 89.3281C92.1481 88.8956 92.1176 87.4887 92.1176 87.1358C92.1176 86.3624 92.1084 85.6733 92.0945 85.0713C92.0788 84.4711 92.0604 83.9607 92.0428 83.5449C92.1462 83.5643 92.2579 83.581 92.3779 83.594C92.4998 83.6106 92.6115 83.6171 92.7158 83.6171C92.8118 83.6171 92.9059 83.6097 92.9945 83.594C93.0859 83.581 93.1782 83.5652 93.2751 83.5449C93.2558 83.7496 93.2391 84.0135 93.2225 84.3423C93.2022 84.6711 93.1865 85.0444 93.1708 85.4566C93.1514 85.8724 93.1385 86.3226 93.1302 86.8033C93.1219 87.2849 93.1164 87.786 93.1164 88.3028C93.1164 88.6196 93.1219 88.9401 93.1302 89.28C93.1385 89.6181 93.1708 89.9459 93.2225 90.2627C93.2751 90.585 93.3554 90.8888 93.4745 91.1778C93.5917 91.4686 93.756 91.7261 93.973 91.9429C94.189 92.1596 94.4604 92.33 94.788 92.455C95.1176 92.5801 95.5256 92.6431 96.0056 92.6431C96.4809 92.6431 96.8797 92.5671 97.2065 92.4208C97.5305 92.2707 97.7954 92.079 98.0012 91.8382C98.2117 91.5974 98.3751 91.3204 98.4877 91.0046C98.604 90.6878 98.6908 90.3646 98.7415 90.0237C98.7941 89.6783 98.8237 89.3383 98.8311 88.9984C98.8394 88.6529 98.8458 88.3399 98.8458 88.0527C98.8458 86.7394 98.8394 85.7252 98.8311 85.0148Z" fill="#F8F5F0"/>
<path d="M102.484 94.339C102.714 94.1584 102.889 93.9046 103.008 93.5851C103.128 93.2609 103.203 92.8793 103.234 92.4347C103.266 91.9892 103.286 91.4974 103.286 90.9528V87.1359C103.286 86.5273 103.274 85.9253 103.252 85.3399C103.226 84.7546 103.201 84.1544 103.173 83.5449C103.293 83.5644 103.409 83.581 103.518 83.594C103.628 83.6107 103.741 83.6135 103.85 83.6135C103.962 83.6135 104.071 83.6098 104.181 83.594C104.294 83.581 104.409 83.5653 104.527 83.5449C104.501 84.1544 104.473 84.7555 104.452 85.3399C104.429 85.9253 104.417 86.5273 104.417 87.1359C104.417 87.5536 104.419 87.9824 104.425 88.4279C104.429 88.8725 104.434 89.3088 104.44 89.7376C104.444 90.1664 104.448 90.5842 104.452 90.9769C104.455 91.377 104.46 91.7419 104.46 92.0754C104.46 92.4875 104.393 92.8728 104.26 93.2165C104.124 93.5619 103.933 93.8694 103.687 94.139C103.436 94.4066 103.14 94.6206 102.795 94.7688C102.448 94.9244 102.075 95.0003 101.668 95.0003L101.558 94.6113C101.946 94.6104 102.253 94.5187 102.484 94.339Z" fill="#F8F5F0"/>
<path d="M114.54 86.3383C114.366 85.7779 114.13 85.3194 113.824 84.9517C113.519 84.5859 113.159 84.3182 112.745 84.1413C112.333 83.9662 111.886 83.8773 111.405 83.8773C110.93 83.8773 110.486 83.9662 110.074 84.1413C109.664 84.3182 109.303 84.5859 108.998 84.9517C108.692 85.3194 108.451 85.7779 108.282 86.3383C108.11 86.8949 108.023 87.5609 108.023 88.3315C108.023 89.0965 108.111 89.7606 108.282 90.3191C108.452 90.8795 108.692 91.3398 108.998 91.7048C109.303 92.0706 109.664 92.342 110.074 92.5134C110.486 92.6903 110.931 92.7792 111.405 92.7792C111.886 92.7792 112.333 92.6903 112.745 92.5134C113.159 92.3411 113.519 92.0697 113.824 91.7048C114.13 91.3389 114.367 90.8795 114.54 90.3191C114.71 89.7597 114.795 89.0965 114.795 88.3315C114.795 87.5609 114.71 86.8949 114.54 86.3383ZM107.161 86.229C107.385 85.614 107.697 85.0907 108.102 84.6665C108.507 84.2413 108.988 83.9209 109.555 83.6958C110.116 83.4772 110.733 83.3633 111.405 83.3633C112.08 83.3633 112.702 83.4772 113.267 83.6958C113.83 83.9209 114.314 84.2413 114.719 84.6665C115.12 85.0907 115.436 85.6131 115.661 86.229C115.886 86.8431 116 87.5442 116 88.3315C116 89.1169 115.886 89.8134 115.661 90.4303C115.437 91.0435 115.12 91.5668 114.719 91.99C114.314 92.4207 113.83 92.7319 113.267 92.9413C112.703 93.1497 112.081 93.2525 111.405 93.2525C110.733 93.2525 110.116 93.1497 109.555 92.9413C108.988 92.731 108.507 92.4207 108.102 91.99C107.698 91.5668 107.386 91.0444 107.161 90.4303C106.935 89.8134 106.821 89.1169 106.821 88.3315C106.821 87.5442 106.934 86.8431 107.161 86.229Z" fill="#F8F5F0"/>
<path d="M41.2694 25.5641C39.9515 25.5884 38.8626 25.6456 37.6671 25.5884C37.3384 25.568 35.9397 25.5907 35.9428 25.5884C35.9467 25.5844 35.9569 26.3544 35.9428 26.6735C35.8887 28.0299 35.8134 29.0179 35.8134 30.1893C35.8134 33.5991 35.7867 36.6452 35.6879 39.5227C35.6392 40.8901 35.6063 43.3929 35.6063 44.8387C35.6063 46.7855 35.7498 48.4861 35.6879 50.709C35.5655 55.1499 35.8816 59.1329 35.7538 63.4257C35.7239 64.3352 35.7279 65.4784 35.7538 66.4961C35.7671 67.1711 35.6039 69.5563 35.8134 69.757C35.953 69.8864 37.2427 69.8213 38.0546 69.8213C42.8376 69.8213 46.2697 70.0753 50.3278 69.964C51.8301 69.9193 53.585 69.8511 55.0002 69.8824C58.3413 69.9538 61.3827 69.8244 64.7865 69.8824C65.9366 69.902 67.0906 69.8181 68.2398 69.8213C71.0632 69.8244 74.2795 70.0149 77.4504 69.757C77.8599 69.7225 77.8654 69.7499 78.664 69.6927C79.068 69.6621 80.2337 69.6582 80.2 69.6927C80.2557 69.6355 80.2635 68.2939 80.2628 67.9662C80.2486 63.7244 80.2926 59.1165 80.2628 55.4384C80.2275 50.6031 80.2651 43.8821 80.3271 40.1602C80.3561 38.3921 80.433 36.6311 80.3271 34.2162C80.2502 32.4309 80.2965 29.6859 80.3914 28.1428C80.4032 27.9178 80.5004 26.0353 80.4 25.9028C80.3137 25.7883 78.2106 25.7711 77.3217 25.713C76.0972 25.6346 74.8459 25.7021 74.1211 25.6934C71.7111 25.6566 69.6299 25.713 67.8562 25.713C66.9235 25.713 65.9609 25.6597 65.105 25.713C63.3517 25.8244 61.4047 25.6385 59.4764 25.713C57.5976 25.7883 55.6591 25.6315 54.1059 25.6487C50.6722 25.6895 46.6015 25.5233 43.1694 25.5884C42.4979 25.5986 41.9245 25.5539 41.2694 25.5641ZM57.8 24.8725C59.0865 24.8584 61.0022 24.8757 62.8042 24.8819C66.8081 24.9031 71.6131 24.7949 75.8501 24.7573C77.2951 24.7439 77.976 24.8082 79.6909 24.7573C80.1874 24.74 80.9256 24.798 81.0794 24.9196C81.3226 25.1203 81.2151 26.6367 81.2135 27.3321C81.2073 28.2252 81.161 30.1148 81.0974 31.3395C81.0519 32.2278 81.0574 33.476 81.1014 34.5384C81.1367 35.4652 81.0778 35.9811 81.0974 36.9C81.1351 38.872 81.1696 41.1308 81.0331 42.7805C80.9429 43.9072 81.121 45.9724 81.0974 46.8718C80.9602 51.8882 81.0857 55.7591 81.0331 59.9797C81.0151 61.558 81.1084 63.399 81.1084 65.5372C81.1084 66.3745 81.0739 67.2817 81.0974 68.1567C81.1123 68.7581 81.2575 70.4807 80.9955 70.7465C80.7703 70.966 77.8787 70.7763 77.3233 70.7794C74.2921 70.8006 71.8249 70.821 69.4558 70.8437C68.1174 70.8578 66.1162 70.8068 64.6697 70.8374C63.2733 70.868 61.8408 70.8986 60.4382 70.8437C55.0315 70.6336 50.5584 71.1636 45.0883 70.9088C42.5701 70.7904 40.3704 70.8954 37.4137 70.9088C36.5618 70.9127 35.1238 71.0209 34.9206 70.8437C34.7998 70.7394 34.7418 69.4732 34.7928 68.6695C34.9238 66.6262 34.7865 63.7495 34.7928 61.7031C34.803 58.4085 34.8351 55.7285 34.8555 52.5586C34.8775 49.4098 34.6531 45.7733 34.8555 42.8448C35.0877 39.5337 34.9042 38.1553 34.9591 35.448C34.9622 35.2276 34.9489 32.7806 34.9842 32.3611C35.0611 31.4438 34.9316 29.5879 34.9842 28.5905C35.0242 27.8237 34.945 26.7684 34.9842 25.6487C34.9952 25.3469 35.0101 24.8545 35.0477 24.8184C35.2611 24.6279 36.3915 24.7306 37.0568 24.7612C38.5802 24.8388 40.5516 24.8184 42.0194 24.8819C42.8211 24.9196 43.4071 24.8866 44.0339 24.8592C44.6905 24.8255 45.5903 24.9407 46.1128 24.9509C47.2707 24.9643 48.4176 24.8623 49.501 24.8819C51.5602 24.9266 53.1441 24.8074 55.0645 24.8184C55.9902 24.8247 56.3965 24.8858 57.8 24.8725Z" fill="#F8F5F0"/>
<path d="M67.8236 26.9282C67.9254 26.8448 69.6598 26.7197 69.8818 26.9948C70.0969 27.2651 69.9285 31.5408 69.9292 32.3774C69.9323 34.2061 69.917 34.4354 69.917 36.3347C69.917 37.1713 69.9193 37.6669 69.9438 38.8299C69.9698 39.9608 69.9223 40.8118 69.9438 41.7735C69.9514 42.1272 69.8504 43.9807 70.0012 44.178C70.1007 44.3104 70.9105 44.2406 71.1263 44.2478C72.0961 44.2687 73.0008 44.2646 74.0585 44.3104C74.3785 44.324 75.3758 44.4379 75.5572 44.3104C75.6574 44.2374 75.6215 41.6275 75.6215 40.9882C75.6215 39.5518 75.5663 38.2813 75.6215 37.1288C75.6406 36.7438 75.6704 36.5224 75.6505 36.1711C75.6375 35.8655 75.6192 35.2832 75.6291 34.9873C75.6505 33.7866 75.6505 32.6068 75.6215 31.3042C75.6123 30.9545 75.6215 30.4444 75.675 30.3819C75.8786 30.142 77.4706 30.1773 77.574 30.2816C77.5602 30.2672 77.6176 31.1149 77.6199 31.2457C77.6796 35.1437 77.6413 38.6663 77.6811 41.8392C77.7041 43.5572 77.7515 45.1886 77.6811 46.6123C77.6666 46.9162 77.6949 47.5795 77.6199 47.594C77.5479 47.6076 76.729 47.667 76.6846 47.667C76.4856 47.6565 75.9207 47.6325 75.747 47.4697C75.4439 47.1881 75.8694 45.7573 75.561 45.3691C75.4676 45.2512 74.8048 45.3234 74.3103 45.3033C70.8852 45.1678 67.9683 45.1613 64.7001 45.3033C64.1322 45.3314 63.0009 45.341 62.4651 45.3378C62.2164 45.3378 62.0243 45.2961 61.8934 45.4356C61.7173 45.6257 62.0426 46.917 61.7671 47.2018C61.6033 47.3686 60.0503 47.2956 59.9631 47.2018C59.6347 46.8585 59.8054 44.5021 59.8368 43.7345C59.9845 39.7643 59.8506 36.1334 59.898 32.3573C59.9026 31.909 59.8322 30.3786 59.9631 30.2648C60.1559 30.0907 61.9584 30.1781 62.0181 30.2648C62.1873 30.511 62.0266 32.5266 62.0181 33.0752C61.9768 36.5954 61.9852 39.3721 61.8306 43.145C61.8146 43.5869 61.7074 44.1195 61.8329 44.2278C61.9776 44.3489 62.5769 44.2839 62.4621 44.2903C63.4938 44.2245 65.0506 44.3047 66.7054 44.2245C67.0192 44.2101 67.8895 44.162 67.8895 44.162C67.9568 44.089 67.8856 42.8402 67.8856 42.4263C67.8711 39.5702 67.9117 36.6692 67.8229 33.469C67.7685 31.6018 67.6553 28.9879 67.6966 27.1279C67.7012 26.9916 67.7502 26.9916 67.8236 26.9282Z" fill="#F8F5F0"/>
<path d="M48.3858 34.6487C48.221 34.8127 48.2853 35.2391 48.2877 35.3416C48.3175 36.2078 48.3042 36.583 48.2657 37.2854C48.1684 39.1007 48.312 38.8422 50.5931 38.8114C51.5033 38.8004 52.3515 39.0841 52.7038 38.6814C52.8709 38.3093 52.7729 36.8566 52.7674 36.2386C52.7674 36.2283 52.9031 34.8915 52.7611 34.7236C52.5539 34.4784 49.0779 34.5636 49.0543 34.5683C48.848 34.5943 48.5113 34.5289 48.3858 34.6487ZM41.9554 34.5675C41.8299 34.7472 41.8409 36.0573 41.8519 36.4356C41.8707 36.9031 41.9013 36.9031 41.9138 37.3358C41.928 37.6874 41.9303 38.5923 41.9554 38.6191C42.1304 38.7972 43.0846 38.7381 43.2352 38.7452C43.7413 38.7657 46.1558 38.8477 46.2436 38.7452C46.4885 38.4685 46.4539 37.3744 46.4539 36.7092C46.4539 36.2283 46.5246 34.7756 46.3064 34.5675C46.2892 34.5494 44.5754 34.5052 44.5754 34.5052C43.8983 34.5289 42.8931 34.4509 42.2834 34.4643C42.2222 34.4674 41.9876 34.5265 41.9554 34.5675ZM42.1869 29.1641C41.9272 29.6244 42.0527 31.2309 42.0825 32.2572C42.0935 32.5709 42.0284 33.4112 42.0825 33.475C42.2356 33.6532 43.3584 33.5641 43.5679 33.5751C44.0018 33.5885 46.1338 33.7146 46.2429 33.6051C46.5402 33.3008 46.4398 31.7937 46.4327 31.275C46.4225 30.6034 46.4508 29.4881 46.2452 29.1783C46.2193 29.1365 45.7383 29.1239 45.6026 29.1058C45.0721 29.0482 42.9998 29.0545 42.4027 29.1058C42.3776 29.1089 42.1971 29.1428 42.1869 29.1641ZM48.3528 31.2884C48.3418 31.5753 48.3246 33.3355 48.3528 33.4104C48.4603 33.6792 49.7684 33.516 50.0924 33.5255C50.3726 33.5389 50.8645 33.5294 51.3612 33.5365C51.5872 33.5365 52.6677 33.639 52.8254 33.4821C52.9117 33.3938 52.8945 32.8405 52.8945 32.7695C52.8945 31.9742 52.8686 31.2072 52.8945 30.5869C52.907 30.3173 53.0138 29.4983 52.9157 29.3352C52.7595 29.1097 51.2749 29.198 50.7288 29.187C49.8782 29.1704 48.9343 29.0301 48.5207 29.321C48.2265 29.5291 48.3858 30.3922 48.3528 31.2884ZM40.4159 27.56C40.4944 27.5537 41.2579 27.4694 41.7004 27.6294C41.9335 27.7137 41.8118 27.9565 42.0182 28.0755C42.07 28.1094 42.4945 28.1339 42.7244 28.1433C44.9992 28.2324 48.21 28.0275 50.4628 28.1063C51.0097 28.126 52.5304 28.1812 52.7666 28.0141C52.8066 27.9865 52.878 27.6357 52.8937 27.6294C53.013 27.5782 53.3088 27.5916 53.3763 27.5947C53.6038 27.5987 54.7181 27.5403 54.875 27.7169C55.0923 27.9628 55.006 28.7377 55.006 28.7203C54.8915 31.7693 54.9582 35.4228 54.8789 38.2951C54.8624 38.8169 54.9401 40.0348 54.8146 40.1577C54.711 40.2641 53.2303 40.1577 53.0883 40.0962C52.8223 39.9812 53.0718 39.7865 52.8301 39.6454C52.7211 39.5807 50.9446 39.5776 50.721 39.5807C50.3726 39.5807 48.5992 39.5271 48.4807 39.6454C48.3787 39.7486 48.447 41.6065 48.4164 41.8296C48.3826 42.122 48.4862 42.1898 48.4862 42.1898C48.5576 42.2852 49.6318 42.2253 49.9536 42.2143C51.016 42.1898 52.9141 42.1599 54.1115 42.2143C55.1261 42.2623 56.4082 42.0267 56.3486 42.4736C56.3345 42.5824 56.3039 43.3099 56.2419 43.3115C55.702 43.3194 54.7377 43.2437 54.7691 43.2469C53.1087 43.1688 50.6087 43.2547 49.3329 43.2469C48.5215 43.2413 48.2814 43.0734 48.2751 43.7222C48.2736 44.0398 48.1614 45.3861 48.2877 45.5572C48.4321 45.7511 50.0532 45.7448 50.5052 45.7487C51.8132 45.7724 54.7691 45.7653 56.2427 45.718C56.3462 45.7141 57.8049 45.6297 57.9046 45.718C58.0874 45.8812 57.9807 46.8231 57.8873 46.9082C57.7579 47.0249 56.0543 46.9082 55.5835 46.9082C52.9643 46.9082 51.5292 46.8941 48.9303 46.8436C46.0404 46.7892 43.3474 46.9011 40.1664 46.8436C39.5222 46.8334 37.2851 46.9287 37.0316 46.7135C36.9375 46.6355 36.7845 45.9064 36.9697 45.6865C37.1721 45.4484 38.0917 45.543 38.6339 45.5572C40.5368 45.6061 43.3678 45.7141 45.6693 45.5572C46.5253 45.5028 46.3708 45.3593 46.3708 44.4008C46.3708 44.013 46.4994 43.4833 46.3708 43.3099C46.2075 43.0813 44.7292 43.1799 43.8127 43.1799C41.9107 43.1799 40.9267 42.9922 39.1432 43.1144C39.0388 43.1215 38.4331 43.0908 38.4252 43.0876C38.3067 43.0537 38.1584 42.1126 38.3766 41.9581C38.6536 41.7634 39.7599 42.0101 40.2315 42.0235C41.5827 42.0574 42.3839 42.1015 43.9916 42.1015C44.2318 42.1015 46.0114 42.1867 46.2452 42.0164C46.4382 41.8808 46.3331 41.3078 46.3598 40.8057C46.3668 40.6661 46.4288 39.9228 46.3237 39.7715C46.1856 39.5776 43.4173 39.6588 42.919 39.6454C42.6357 39.6391 42.1234 39.6052 42.0198 39.6454C41.7506 39.7557 41.7922 40.049 41.6023 40.1207C41.2445 40.257 39.9867 40.1522 39.9326 39.9504C39.8729 39.7376 39.8572 38.9296 39.8478 38.6191C39.7042 35.2312 39.909 32.4629 39.909 28.915C39.909 28.9631 39.851 27.6862 39.909 27.6294C39.9946 27.5435 40.3382 27.5671 40.4159 27.56Z" fill="#F8F5F0"/>
<path d="M64.1617 55.2392C64.1536 56.4252 64.1862 59.0267 64.224 61.0465C64.2329 61.5781 64.1328 63.0484 64.221 63.1838C64.2329 63.1979 65.185 63.2652 65.3117 63.1533C65.4265 63.0546 65.4473 62.1261 65.4421 61.7911C65.4095 59.8127 65.3117 57.8203 65.3117 55.3684C65.3117 54.8368 65.3613 53.704 65.2509 53.5787C65.1464 53.4574 64.3914 53.4675 64.284 53.5787C64.0743 53.8034 64.1654 54.9652 64.1617 55.2392ZM63.5608 47.3259C63.7424 47.3157 64.1929 47.3298 64.2847 47.3901C64.3551 47.4378 64.2218 48.0547 64.2247 48.4744C64.2321 49.5696 64.1566 49.9751 64.2247 51.2825C64.2425 51.5941 64.2388 52.3801 64.2847 52.431C64.347 52.4983 64.9286 52.503 65.1902 52.4968C65.3769 52.4889 65.3206 51.9668 65.3798 51.9206C65.4221 51.89 66.9573 51.8227 67.1321 51.9848C67.1899 52.038 67.1306 53.3705 67.1232 53.4511C66.9906 56.0706 67.0358 60.3521 67.0669 63.2629C67.0743 64.0927 67.1958 64.2078 66.2801 64.1741C66.1474 64.1702 64.3314 64.0309 64.1751 64.1577C64.0262 64.2751 64.1262 65.5395 64.1395 66.1932C64.158 67.0809 64.1662 67.6227 64.1625 68.0705C64.161 68.2662 64.2247 68.9708 64.1625 69.154C64.1625 69.154 62.605 69.2863 62.4732 69.1579C62.3961 69.0796 62.4828 68.3343 62.4702 67.8568C62.428 66.41 62.4761 64.4387 62.5354 63.1548C62.6436 60.7052 62.508 58.409 62.5932 55.5586C62.608 55.1045 62.6606 53.6914 62.4746 53.5169C62.3398 53.3916 61.3929 53.5129 61.447 53.4519C61.3944 53.509 61.4588 54.7084 61.447 54.984C61.3633 56.949 61.4788 60.6582 61.4047 62.3892C61.3336 64.0129 61.564 64.0692 60.9824 64.1138C60.6794 64.1334 59.6947 64.1976 59.5309 64.0497C59.3998 63.9275 59.4605 62.5176 59.4717 61.878C59.5176 59.1066 59.3368 56.9255 59.4509 54.2214C59.482 53.5811 59.5094 52.7817 59.4865 52.2032C59.4865 52.2032 59.4902 51.8853 59.5391 51.8509C59.6947 51.7382 61.0432 51.7828 61.1439 51.8572C61.1973 51.8987 61.2573 52.4545 61.3277 52.4983C61.4373 52.5688 62.4843 52.5516 62.5354 52.4983C62.6791 52.3425 62.5354 50.9318 62.5354 50.7087C62.5354 49.6823 62.4991 49.0005 62.4746 48.2223C62.4702 48.0868 62.3739 47.4864 62.4746 47.3916C62.6088 47.2546 63.2674 47.3431 63.5608 47.3259Z" fill="#F8F5F0"/>
<path d="M70.459 59.6954C70.3354 59.8284 70.424 60.8502 70.424 60.9308C70.3851 62.4835 70.3276 63.8752 70.2802 65.6125C70.2623 66.1785 70.2607 67.0784 70.3447 67.1426C70.5718 67.3208 71.4007 67.2481 71.6378 67.2403C72.389 67.2137 73.1051 67.2442 74.0289 67.2403C74.3322 67.2372 75.8438 67.3513 76.1121 67.0784C76.2334 66.9494 76.1657 66.4389 76.1735 66.1856C76.2505 64.2599 76.2419 62.9128 76.217 60.9409C76.217 60.9245 76.2365 59.8041 76.1696 59.7369C75.9449 59.5101 74.4278 59.6681 73.6347 59.6454C72.7436 59.6149 71.9598 59.618 71.7288 59.6313C71.4326 59.6524 70.6277 59.5273 70.459 59.6954ZM72.9411 47.3195C73.375 47.3023 74.2544 47.3094 74.3703 47.5095C74.4651 47.6745 74.4193 49.3359 74.4014 49.8676C74.3353 51.3124 74.3796 52.0763 74.3353 53.1826C74.3143 53.7784 74.1689 54.2624 74.5896 54.1404C75.2451 53.9473 76.1144 53.6697 76.7567 53.4336C76.8383 53.4031 77.5747 53.038 77.7271 53.0818C77.8228 53.1123 78.1377 53.64 78.0747 53.8198C77.9915 54.0732 76.4752 54.547 76.2396 54.6478C76.0911 54.7135 74.4426 55.2209 74.3353 55.414C74.2855 55.5125 74.277 56.0591 74.2653 56.267C74.2529 56.5368 74.2116 57.0622 74.2116 57.4547C74.2116 57.6165 74.186 58.4492 74.3353 58.6016C74.4294 58.6962 76.0281 58.7838 76.1121 58.7306C76.2785 58.6212 76.2093 58.3037 76.3057 58.2561C76.6144 58.1012 76.7917 58.1419 77.3772 58.1419C77.8772 58.1419 78.2605 58.0848 78.3935 58.2842C78.4588 58.3788 78.3919 60.3921 78.3935 61.1536C78.3958 63.3467 78.2947 65.5624 78.266 68.2927C78.266 68.3427 78.2948 68.8173 78.2636 69.0299C78.252 69.1277 76.3461 69.1113 76.2785 69.0604C76.0887 68.9119 76.2668 68.3427 76.1121 68.2285C75.9146 68.0823 75.0717 68.2121 74.4838 68.2348C73.8656 68.27 73.4333 68.2559 72.8143 68.2285C72.3353 68.2082 70.7008 68.1332 70.4691 68.2927C70.2079 68.4686 70.438 69.0104 70.2825 69.1183C70.0702 69.2676 69.7055 69.2027 69.2646 69.1824C69.0959 69.1793 68.3113 69.1183 68.3113 69.1183C68.1317 68.9565 68.2546 67.4772 68.2507 66.7626C68.2374 64.1176 68.3284 61.5461 68.3113 58.6634C68.3105 58.2412 68.0679 57.973 68.6931 57.9668C68.8836 57.9668 70.3533 57.8823 70.4683 57.9668C70.6277 58.0848 70.4831 58.5016 70.5313 58.5414C70.6915 58.6564 71.0189 58.6196 71.3563 58.6126C71.7786 58.6024 72.2475 58.6876 72.3695 58.5414C72.4885 58.3991 72.3859 57.2655 72.3695 56.6267C72.3027 54.1193 72.3781 52.296 72.3073 49.4227C72.3011 49.1733 72.3276 47.6299 72.4294 47.4509C72.5056 47.3156 72.5406 47.3328 72.9411 47.3195Z" fill="#F8F5F0"/>
<path d="M46.9854 48.0385C47.3858 48.0385 48.3393 47.9738 48.3764 48.0835C48.4615 48.3155 48.3701 49.7639 48.3764 50.0133C48.4111 51.0102 48.3992 53.214 48.4418 54.2621C48.4654 54.7681 48.3819 56.2433 48.4418 56.3214C48.6357 56.5914 49.8848 56.4588 50.2559 56.4509C52.7289 56.3893 54.1845 56.2985 56.3501 56.342C56.6701 56.3522 57.7947 56.2733 57.9192 56.3491C57.9759 56.383 58.0918 57.0831 57.8916 57.2939C57.6867 57.5093 56.0254 57.4478 55.7047 57.4422C53.93 57.4004 52.6698 57.5101 50.7564 57.5101C50.2489 57.5101 48.8705 57.3436 48.5671 57.5646C48.2984 57.7595 48.3764 58.8938 48.3764 59.5118C48.3764 63.0431 48.5624 65.3148 48.5608 67.0631C48.5608 67.498 48.6089 68.9037 48.4993 69.0718C48.4 69.2289 46.8184 69.3007 46.5551 69.0442C46.4598 68.9455 46.5079 68.1705 46.4929 67.8216C46.3983 65.5681 46.5354 62.5198 46.4929 59.5213C46.4795 58.747 46.5386 57.7485 46.3652 57.503C46.2186 57.301 43.1049 57.4754 42.4075 57.4864C41.1466 57.503 39.6067 57.462 37.9746 57.4209C37.4434 57.4067 36.9241 57.5267 36.8831 56.9702C36.8791 56.9363 36.8925 56.5361 36.9485 56.499C37.0951 56.4106 38.8627 56.4446 39.1236 56.4501C41.4208 56.4951 43.3926 56.2867 45.9294 56.4193C45.8467 56.4162 46.3684 56.4548 46.4157 56.3854C46.4598 56.3175 46.4243 55.1122 46.3849 54.3876C46.3045 52.8059 46.3983 51.6385 46.3203 50.0773C46.2848 49.3148 46.2249 48.1861 46.3203 48.0827C46.3384 48.0622 46.92 48.0385 46.9854 48.0385Z" fill="#F8F5F0"/>
<path d="M34.1164 67.9074C34.0391 68.4215 34.0633 69.2972 34.1071 70.0207C34.1329 70.4597 34.0656 71.2816 34.2548 71.498C34.4955 71.7753 36.0389 71.5558 36.5602 71.5183C37.7739 71.423 39.0587 71.5519 40.3677 71.5003C43.979 71.3628 47.9334 71.4261 51.7042 71.5316C54.9021 71.6222 58.025 71.5449 61.4355 71.5003C64.066 71.4667 66.8091 71.6058 69.5772 71.5644C72.6704 71.5245 75.1759 71.5917 78.2542 71.6488C78.5895 71.6558 81.3912 71.7949 81.6983 71.491C81.9413 71.2574 81.9179 69.1855 81.8976 68.6879C81.7749 65.9489 81.8249 63.8567 81.7405 61.0982C81.6655 58.6709 81.8655 55.2795 81.7624 52.389C81.6592 49.364 81.735 46.2766 81.7632 43.286C81.8179 37.7134 82.0031 31.1854 81.9226 25.7293C81.914 25.2887 81.8366 24.2809 81.6717 24.1496C81.5686 24.066 80.4362 24.0184 79.9516 24.0106C75.1102 23.9738 69.778 24.1692 64.9968 24.2035C61.2987 24.2332 57.9961 24.1246 54.4269 24.0106C53.5188 23.977 51.4877 24.1426 50.3686 24.1465C46.4751 24.1606 43.7985 23.9301 40.2552 24.0215C39.4361 24.041 38.1334 24.1567 37.1932 24.0957C36.6251 24.0621 34.6674 23.941 34.3829 24.241C34.211 24.4199 34.3657 25.4816 34.3564 25.9847C34.34 26.9386 34.2438 28.1761 34.2618 28.9089C34.3728 34.3893 34.422 39.8595 34.2313 45.6406C34.0821 50.0656 34.3728 54.6038 34.1969 58.9373C34.0758 62.0255 34.0578 64.845 34.1164 67.9074Z" stroke="#F8F5F0" stroke-width="0.4431" stroke-linecap="round"/>
</svg>
