<?xml version="1.0" encoding="utf-8"?>
<!-- Generator: Adobe Illustrator 25.4.1, SVG Export Plug-In . SVG Version: 6.00 Build 0)  -->
<svg version="1.1" id="jujo" xmlns="http://www.w3.org/2000/svg" xmlns:xlink="http://www.w3.org/1999/xlink" x="0px"
	 y="0px" viewBox="0 0 109 94" style="enable-background:new 0 0 109 94;" xml:space="preserve">
<style type="text/css">
	.st0{fill:none;}
</style>
<g>
	<g>
		<g>
			<path d="M5.6,71.5c0.1,0.2,0.2,0.3,0.4,0.4c0.2,0.1,0.3,0.2,0.6,0.3c0.2,0.1,0.4,0.1,0.7,0.1c0.3,0,0.5,0,0.7-0.1
				c0.2-0.1,0.4-0.2,0.6-0.4c0.2-0.2,0.3-0.3,0.4-0.6C8.9,71,9,70.8,9,70.5c0-0.4-0.1-0.7-0.3-0.9c-0.2-0.2-0.4-0.4-0.7-0.6
				c-0.3-0.1-0.6-0.3-0.9-0.4c-0.3-0.1-0.6-0.3-0.9-0.5c-0.3-0.2-0.5-0.4-0.7-0.7c-0.2-0.3-0.3-0.7-0.3-1.2c0-0.3,0.1-0.7,0.2-0.9
				c0.1-0.3,0.3-0.5,0.5-0.7c0.2-0.2,0.5-0.4,0.8-0.5c0.3-0.1,0.7-0.2,1.1-0.2c0.4,0,0.7,0.1,1,0.1c0.3,0.1,0.6,0.3,0.8,0.5
				c-0.1,0.1-0.1,0.3-0.2,0.4c-0.1,0.2-0.1,0.4-0.1,0.6H9.1c0-0.1-0.1-0.3-0.2-0.4c-0.1-0.1-0.2-0.3-0.3-0.4
				c-0.1-0.1-0.3-0.2-0.4-0.3c-0.2-0.1-0.4-0.1-0.6-0.1c-0.2,0-0.4,0-0.6,0.1c-0.2,0.1-0.4,0.2-0.5,0.3c-0.1,0.1-0.3,0.3-0.3,0.5
				c-0.1,0.2-0.1,0.4-0.1,0.6c0,0.4,0.1,0.7,0.3,0.9c0.2,0.2,0.4,0.4,0.7,0.6c0.3,0.1,0.6,0.3,0.9,0.4c0.3,0.1,0.6,0.3,0.9,0.4
				c0.3,0.2,0.5,0.4,0.7,0.7c0.2,0.3,0.3,0.6,0.3,1.1c0,0.4-0.1,0.7-0.2,1.1c-0.1,0.3-0.3,0.6-0.6,0.9c-0.3,0.3-0.6,0.4-0.9,0.6
				c-0.4,0.1-0.8,0.2-1.3,0.2c-0.5,0-0.9-0.1-1.2-0.2c-0.3-0.1-0.6-0.3-0.8-0.5C5,71.9,5,71.8,5.1,71.6c0-0.2,0.1-0.3,0.1-0.6h0.1
				C5.4,71.2,5.4,71.3,5.6,71.5z"/>
			<path d="M16.4,68.8l-1.4-3.1l-1.3,3.1l-0.2,0.6c-0.3,0.6-0.5,1.2-0.7,1.8c-0.2,0.6-0.4,1-0.5,1.4c-0.1,0-0.3,0-0.5,0
				c-0.2,0-0.3,0-0.5,0c0.7-1.4,1.3-2.8,1.9-4.3c0.6-1.4,1.3-2.8,1.9-4.3h0.2c0.2,0.5,0.4,1,0.6,1.5c0.2,0.6,0.5,1.1,0.7,1.7
				c0.2,0.6,0.5,1.1,0.7,1.7c0.2,0.6,0.5,1.1,0.7,1.5c0.2,0.5,0.4,0.9,0.6,1.3c0.2,0.4,0.3,0.7,0.4,0.9c-0.1,0-0.2,0-0.3,0h-0.3
				h-0.3c-0.1,0-0.2,0-0.3,0c-0.1-0.2-0.1-0.4-0.2-0.7c-0.1-0.3-0.2-0.5-0.3-0.8L16.4,68.8z M13.1,69.4
				C13.1,69.4,13.1,69.4,13.1,69.4L13.1,69.4z"/>
			<path d="M68.9,68.8l-1.4-3.1l-1.3,3.1L66,69.4c-0.3,0.6-0.5,1.2-0.7,1.8c-0.2,0.6-0.4,1-0.5,1.4c-0.1,0-0.3,0-0.5,0
				c-0.2,0-0.3,0-0.5,0c0.7-1.4,1.3-2.8,1.9-4.3c0.6-1.4,1.3-2.8,1.9-4.3H68c0.2,0.5,0.4,1,0.6,1.5c0.2,0.6,0.5,1.1,0.7,1.7
				c0.2,0.6,0.5,1.1,0.7,1.7c0.2,0.6,0.5,1.1,0.7,1.5c0.2,0.5,0.4,0.9,0.6,1.3c0.2,0.4,0.3,0.7,0.4,0.9c-0.1,0-0.2,0-0.3,0H71h-0.3
				c-0.1,0-0.2,0-0.3,0c-0.1-0.2-0.1-0.4-0.2-0.7c-0.1-0.3-0.2-0.5-0.3-0.8L68.9,68.8z M66,69.4C66,69.4,66,69.4,66,69.4L66,69.4z"
				/>
			<path d="M47.9,68.8l-1.4-3.1l-1.3,3.1L45,69.4c-0.3,0.6-0.5,1.2-0.7,1.8c-0.2,0.6-0.4,1-0.5,1.4c-0.1,0-0.3,0-0.5,0
				c-0.2,0-0.3,0-0.5,0c0.7-1.4,1.3-2.8,1.9-4.3c0.6-1.4,1.3-2.8,1.9-4.3h0.2c0.2,0.5,0.4,1,0.6,1.5c0.2,0.6,0.5,1.1,0.7,1.7
				c0.2,0.6,0.5,1.1,0.7,1.7c0.2,0.6,0.5,1.1,0.7,1.5c0.2,0.5,0.4,0.9,0.6,1.3c0.2,0.4,0.3,0.7,0.4,0.9c-0.1,0-0.2,0-0.3,0H50h-0.3
				c-0.1,0-0.2,0-0.3,0c-0.1-0.2-0.1-0.4-0.2-0.7c-0.1-0.3-0.2-0.5-0.3-0.8L47.9,68.8z M45,69.4C45,69.4,45,69.4,45,69.4L45,69.4z"
				/>
			<path d="M21.9,64.9c-0.2,0-0.4,0-0.7,0c-0.2,0-0.5,0-0.7,0c-0.2,0-0.5,0-0.7,0c-0.2,0-0.6,0-0.8,0.1c0-0.1,0.1-0.3,0.1-0.4
				c0-0.1,0-0.2-0.1-0.4c0.5,0,1.2,0,1.7,0c0.5,0,1,0,1.6,0c0.5,0,1.1,0,1.6,0c0.5,0,1.2,0,1.7,0c0,0.2-0.1,0.3-0.1,0.4
				c0,0.1,0,0.2,0.1,0.4c-0.2,0-0.5,0-0.7-0.1c-0.2,0-0.4,0-0.7,0c-0.2,0-0.5,0-0.7,0c-0.2,0-0.5,0-0.7,0c0,0.8,0,1.7,0,2.5v2.1
				c0,0.5,0,1.1,0,1.6c0,0.5,0,1,0.1,1.5c-0.2,0-0.4,0-0.6,0c-0.2,0-0.4,0-0.6,0c0-0.5,0-1,0.1-1.5c0-0.5,0-1.1,0-1.6v-2.1
				C22,66.5,21.9,65.7,21.9,64.9z"/>
			<path d="M33.6,66.7c-0.2-0.5-0.4-0.9-0.6-1.2c-0.3-0.3-0.6-0.6-1-0.7c-0.4-0.2-0.8-0.2-1.2-0.2c-0.4,0-0.8,0.1-1.2,0.2
				c-0.4,0.2-0.7,0.4-1,0.7c-0.3,0.3-0.5,0.7-0.6,1.2c-0.2,0.5-0.2,1.1-0.2,1.8c0,0.7,0.1,1.3,0.2,1.8c0.2,0.5,0.4,0.9,0.6,1.2
				c0.3,0.3,0.6,0.6,1,0.7c0.4,0.2,0.8,0.2,1.2,0.2c0.4,0,0.8-0.1,1.2-0.2c0.4-0.2,0.7-0.4,1-0.7c0.3-0.3,0.5-0.7,0.6-1.2
				c0.2-0.5,0.2-1.1,0.2-1.8C33.9,67.8,33.8,67.2,33.6,66.7z M27.1,66.6c0.2-0.5,0.5-1,0.8-1.4c0.4-0.4,0.8-0.7,1.3-0.9
				c0.5-0.2,1-0.3,1.6-0.3c0.6,0,1.2,0.1,1.7,0.3c0.5,0.2,0.9,0.5,1.3,0.9c0.4,0.4,0.6,0.8,0.8,1.4c0.2,0.5,0.3,1.2,0.3,1.9
				c0,0.7-0.1,1.3-0.3,1.9c-0.2,0.5-0.5,1-0.8,1.4c-0.4,0.4-0.8,0.7-1.3,0.8c-0.5,0.2-1.1,0.3-1.7,0.3c-0.6,0-1.1-0.1-1.6-0.3
				c-0.5-0.2-0.9-0.5-1.3-0.8c-0.4-0.4-0.6-0.8-0.8-1.4c-0.2-0.5-0.3-1.2-0.3-1.9C26.8,67.7,26.9,67.1,27.1,66.6z"/>
			<path d="M38.5,68.6c-0.2-0.3-0.3-0.6-0.5-0.9c-0.2-0.3-0.4-0.7-0.6-1c-0.2-0.4-0.4-0.7-0.6-1c-0.2-0.3-0.4-0.6-0.5-0.9
				c-0.2-0.3-0.3-0.5-0.4-0.6c0.1,0,0.2,0,0.3,0c0.1,0,0.2,0,0.3,0c0.1,0,0.2,0,0.3,0c0.1,0,0.2,0,0.3,0c0.4,0.7,0.7,1.4,1.1,2.1
				c0.4,0.7,0.8,1.4,1.2,2.1c0.2-0.3,0.4-0.6,0.6-1c0.2-0.3,0.4-0.7,0.6-1.1c0.2-0.4,0.4-0.7,0.6-1.1c0.2-0.4,0.4-0.7,0.5-1.1
				c0.2,0,0.4,0.1,0.5,0.1c0.1,0,0.3,0,0.5-0.1c-0.4,0.6-0.7,1.1-1.1,1.6c-0.3,0.5-0.6,0.9-0.8,1.3c-0.2,0.4-0.4,0.7-0.6,1.1
				c-0.2,0.3-0.3,0.6-0.5,0.9c0,0.3,0,0.6,0,1c0,0.3,0,0.7,0,1c0,0.3,0,0.6,0,0.9c0,0.3,0,0.5,0,0.7c-0.2,0-0.4,0-0.6,0
				s-0.4,0-0.6,0c0-0.4,0.1-0.9,0.1-1.5c0-0.6,0-1.2,0-1.9C38.8,69,38.6,68.8,38.5,68.6z"/>
			<path d="M55.4,67.4c0.6,1.1,1.2,2.2,1.8,3.4c0.1-0.2,0.2-0.4,0.4-0.7c0.2-0.3,0.3-0.6,0.5-1c0.2-0.4,0.4-0.8,0.7-1.2
				c0.2-0.4,0.5-0.9,0.7-1.3c0.2-0.4,0.5-0.9,0.7-1.3c0.2-0.4,0.5-0.8,0.7-1.2H61c0.1,0.8,0.2,1.5,0.3,2.3c0.1,0.7,0.2,1.4,0.2,2.2
				c0.1,0.7,0.2,1.4,0.2,2.1c0.1,0.7,0.2,1.4,0.3,2.1c-0.1,0-0.2,0-0.3,0h-0.3h-0.3c-0.1,0-0.2,0-0.3,0c-0.1-1.1-0.2-2.1-0.3-3.2
				c-0.1-1-0.2-2.1-0.3-3.1h0c-0.6,1-1.1,2.1-1.7,3.1c-0.5,1-1.1,2.1-1.5,3.2H57c-0.5-1-1-2.1-1.5-3.1c-0.5-1-1.1-2.1-1.6-3.2h0
				c-0.1,0.5-0.1,1.1-0.2,1.6c-0.1,0.6-0.1,1.2-0.2,1.8c-0.1,0.6-0.1,1.1-0.1,1.6c0,0.5-0.1,0.9-0.1,1.3c-0.1,0-0.3,0-0.4,0
				c-0.2,0-0.3,0-0.4,0c0.1-0.7,0.2-1.4,0.3-2.1c0.1-0.7,0.2-1.5,0.3-2.2c0.1-0.7,0.2-1.5,0.3-2.2c0.1-0.7,0.2-1.4,0.2-2.1h0.2
				C54.3,65.2,54.9,66.3,55.4,67.4z"/>
			<path d="M78,73.7c0.2-0.2,0.4-0.4,0.5-0.7c0.1-0.3,0.2-0.6,0.2-1c0-0.4,0-0.8,0-1.3v-3.4c0-0.5,0-1.1,0-1.6c0-0.5,0-1-0.1-1.6
				c0.1,0,0.2,0,0.3,0c0.1,0,0.2,0,0.3,0c0.1,0,0.2,0,0.3,0c0.1,0,0.2,0,0.3,0c0,0.5,0,1.1-0.1,1.6c0,0.5,0,1,0,1.6
				c0,0.4,0,0.7,0,1.1c0,0.4,0,0.8,0,1.2c0,0.4,0,0.7,0,1.1c0,0.4,0,0.7,0,1c0,0.4-0.1,0.7-0.2,1c-0.1,0.3-0.3,0.6-0.5,0.8
				c-0.2,0.2-0.5,0.4-0.8,0.6c-0.3,0.1-0.6,0.2-1,0.2L77.1,74C77.5,74,77.8,73.9,78,73.7z"/>
			<path d="M88.9,65.5c0-0.6,0-1.1-0.1-1.3c0.1,0,0.2,0,0.2,0c0.1,0,0.2,0,0.2,0c0.1,0,0.2,0,0.3-0.1c0,0.3,0,0.6-0.1,1
				c0,0.4,0,0.8-0.1,1.3c0,0.5,0,0.9,0,1.4c0,0.5,0,0.9,0,1.4c0,0.5-0.1,1-0.2,1.5c-0.1,0.4-0.4,0.8-0.6,1.1c-0.3,0.3-0.6,0.5-1,0.7
				c-0.4,0.2-0.8,0.2-1.3,0.2c-1.1,0-2-0.3-2.5-0.8c-0.5-0.6-0.8-1.4-0.8-2.6c0-0.4,0-1.6,0-1.9c0-0.7,0-1.3,0-1.8c0-0.5,0-1,0-1.3
				c0.1,0,0.2,0,0.3,0c0.1,0,0.2,0,0.3,0c0.1,0,0.2,0,0.2,0c0.1,0,0.2,0,0.2,0c0,0.2,0,0.4,0,0.7c0,0.3,0,0.6,0,1c0,0.4,0,0.8,0,1.2
				c0,0.4,0,0.9,0,1.3c0,0.3,0,0.6,0,0.9c0,0.3,0,0.6,0.1,0.9c0,0.3,0.1,0.6,0.2,0.8c0.1,0.3,0.2,0.5,0.4,0.7
				c0.2,0.2,0.4,0.3,0.7,0.5c0.3,0.1,0.7,0.2,1.1,0.2c0.4,0,0.8-0.1,1.1-0.2c0.3-0.1,0.5-0.3,0.7-0.5c0.2-0.2,0.3-0.5,0.4-0.7
				c0.1-0.3,0.2-0.6,0.2-0.9c0-0.3,0.1-0.6,0.1-0.9c0-0.3,0-0.6,0-0.8C88.9,67,88.9,66.1,88.9,65.5z"/>
			<path d="M92.1,73.7c0.2-0.2,0.4-0.4,0.5-0.7c0.1-0.3,0.2-0.6,0.2-1c0-0.4,0-0.8,0-1.3v-3.4c0-0.5,0-1.1,0-1.6c0-0.5,0-1-0.1-1.6
				c0.1,0,0.2,0,0.3,0c0.1,0,0.2,0,0.3,0c0.1,0,0.2,0,0.3,0c0.1,0,0.2,0,0.3,0c0,0.5,0,1.1-0.1,1.6c0,0.5,0,1,0,1.6
				c0,0.4,0,0.7,0,1.1c0,0.4,0,0.8,0,1.2c0,0.4,0,0.7,0,1.1c0,0.4,0,0.7,0,1c0,0.4-0.1,0.7-0.2,1c-0.1,0.3-0.3,0.6-0.5,0.8
				c-0.2,0.2-0.5,0.4-0.8,0.6c-0.3,0.1-0.6,0.2-1,0.2L91.3,74C91.7,74,91.9,73.9,92.1,73.7z"/>
			<path d="M102.8,66.7c-0.2-0.5-0.4-0.9-0.6-1.2c-0.3-0.3-0.6-0.6-1-0.7c-0.4-0.2-0.8-0.2-1.2-0.2c-0.4,0-0.8,0.1-1.2,0.2
				c-0.4,0.2-0.7,0.4-1,0.7c-0.3,0.3-0.5,0.7-0.6,1.2c-0.2,0.5-0.2,1.1-0.2,1.8c0,0.7,0.1,1.3,0.2,1.8c0.2,0.5,0.4,0.9,0.6,1.2
				c0.3,0.3,0.6,0.6,1,0.7c0.4,0.2,0.8,0.2,1.2,0.2c0.4,0,0.8-0.1,1.2-0.2c0.4-0.2,0.7-0.4,1-0.7c0.3-0.3,0.5-0.7,0.6-1.2
				c0.2-0.5,0.2-1.1,0.2-1.8C103,67.8,103,67.2,102.8,66.7z M96.3,66.6c0.2-0.5,0.5-1,0.8-1.4c0.4-0.4,0.8-0.7,1.3-0.9
				c0.5-0.2,1-0.3,1.6-0.3c0.6,0,1.1,0.1,1.6,0.3c0.5,0.2,0.9,0.5,1.3,0.9c0.4,0.4,0.6,0.8,0.8,1.4c0.2,0.5,0.3,1.2,0.3,1.9
				c0,0.7-0.1,1.3-0.3,1.9c-0.2,0.5-0.5,1-0.8,1.4c-0.4,0.4-0.8,0.7-1.3,0.8c-0.5,0.2-1.1,0.3-1.6,0.3c-0.6,0-1.1-0.1-1.6-0.3
				c-0.5-0.2-0.9-0.5-1.3-0.8c-0.4-0.4-0.6-0.8-0.8-1.4c-0.2-0.5-0.3-1.2-0.3-1.9C96,67.7,96.1,67.1,96.3,66.6z"/>
		</g>
	</g>
	<rect class="st0" width="109" height="94"/>
</g>
</svg>
