<svg width="571" height="648" viewBox="0 0 571 648" fill="none" xmlns="http://www.w3.org/2000/svg">
<g opacity="0.5" clip-path="url(#clip0)">
<mask id="path-1-inside-1" fill="white">
<path d="M439.755 277.321C437.555 278.619 436.464 282.957 437.584 278.288C438.742 278.116 438.066 276.837 438.307 275.87C437.28 275.761 438.995 274.571 437.825 273.935C439.362 273.534 438.79 268.104 437.343 266.924C437.14 266.546 436.561 263.78 437.343 264.747C438.204 260.823 433.876 260.7 433 257.252C431.794 256.234 435.343 255.748 434.448 254.834C433.712 253.746 432.072 253.514 431.794 252.416C428.965 232.043 409.568 237.469 419.974 197.53C421.282 194.428 417.446 198.833 415.391 199.706C410.907 199.747 409.874 196.432 407.431 194.145C405.26 193.316 402.452 193.589 401.4 190.76C400.5 192.119 390.663 215.763 399.47 208.411C402.271 208.633 402.915 206.145 406.225 207.685C406.948 205.751 409.103 206.703 409.843 204.3C407.778 205.947 410.034 202.235 410.567 203.575C415.736 207.129 412.497 215.995 409.361 221.467C404.133 221.603 404.324 216.092 399.47 215.181C400.575 217.149 397.058 218.435 399.47 218.566C399.159 220.657 398.867 222.255 396.576 223.401C388.336 224.156 395.495 208.241 389.339 205.751C388.109 205.057 387.269 206.196 386.444 207.443C383.728 207.763 381.35 201.316 381.138 205.025C380.366 206.96 381.379 210.874 377.76 209.861C382.037 211.312 380.136 217.971 379.208 221.467C379.596 224.705 373.988 229.088 371.971 226.787C369.679 226.061 368.922 229.258 367.629 231.139C364.011 233.765 363.598 234.04 367.388 236.7C368.932 246.064 371.894 254.389 364.734 262.571C362.636 265.886 356.021 258.717 359.669 263.78C358.342 264.97 360.026 266.522 360.634 268.133C361.186 268.788 362.274 267.448 363.287 268.616C374.928 260.453 372.28 291.61 366.182 295.697C366.025 296.69 365.472 297.585 365.94 299.565C363.2 305.9 363.082 315.823 356.774 320.843C352.079 324.996 352.079 327.253 350.95 331.767C352.46 349.925 338.212 350.307 328.31 360.254C323.794 380.908 304.248 390.439 285.613 396.039C277.293 396.09 281.768 406.124 274.034 405.227C264.82 404.649 265.109 401.978 267.28 395.072C267.898 392.758 267.068 387.485 265.592 392.412C261.862 392.707 264.489 389.654 267.28 389.994C267.229 388.075 267.352 386.409 265.833 389.027C263.334 387.311 259.913 390.478 262.456 386.368C263.729 386.542 262.509 385.318 263.662 384.917C267.611 391.128 267.579 380.284 274.276 381.774C275.614 379.772 272.669 378.147 274.517 376.454C275.692 375.335 276.929 376.696 278.135 375.487C277.221 372.827 277.894 371.761 274.758 371.618C271.157 373.176 266.723 375.161 263.662 377.421C262.214 377.213 256.83 377.835 256.908 379.839C255.349 379.276 256.722 379.822 255.701 380.565C257.296 383.507 250.978 388.904 255.943 389.027C256.008 390.558 254.995 392.308 256.184 392.896C260.364 405.878 246.718 418.896 236.886 427.472C234.334 426.778 235.094 431.797 232.303 434.242C231.355 434.201 231.338 437.68 230.614 438.111C229.726 438.183 229.408 439.025 229.167 439.803C230.855 443.253 234.141 447.299 234.233 450.684C232.913 453.883 232.18 454.574 232.303 450.2C232.122 446.481 227.437 452.707 229.89 451.409C228.834 454.228 231.606 455.087 228.926 454.31C228.947 456.842 226.875 453.602 226.513 455.519C224.873 453.135 222.794 454.115 225.548 455.761C226.894 457.911 222.022 456.581 224.825 457.937C225.336 458.859 224.412 458.602 223.86 458.663C223.136 458.518 222.171 456.1 220.724 457.454C218.312 459.516 225.177 458.356 220.724 460.597C219.684 459.823 218.268 461.644 217.106 460.597C222.509 457.106 216.997 458.871 214.935 460.597C213.632 460.418 214.061 459.233 214.452 458.179C214.061 457.616 212.923 457.783 213.487 458.904C212.356 458.663 213.07 458.351 213.246 457.454C212.421 457.268 211.246 457.173 212.281 456.245C214.165 455.911 211.155 455.002 210.834 457.212C209.107 457.696 206.704 457.797 208.18 460.113C209.131 460.152 210.163 459.768 209.869 461.081C209.039 460.994 209.449 461.064 209.628 460.597C207.589 460.597 208.513 460.853 207.457 461.564C206.564 462.439 208.699 459.598 207.457 459.146C207.138 458.875 206.251 460.471 205.768 458.663C202.316 457.872 206.188 458.307 205.768 457.212C204.154 457.314 205.375 456.499 205.286 455.761C203.838 456.322 203.616 457.889 202.873 458.421C202.377 457.355 203.838 455.447 204.803 455.278C204.941 452.906 205.742 453.145 206.733 453.343C207.165 449.156 203.356 447.611 200.461 449.475C197.733 450.739 195.497 453.343 192.26 453.827C192.419 452.649 187.676 453.856 188.159 452.618C186.726 453.815 186.576 452.18 185.747 453.585C185.662 451.593 182.529 455.021 182.611 453.343C175.736 452.778 172.516 457.364 167.414 458.663C161.866 458.832 158.942 459.644 152.94 460.113C149.901 459.872 146.603 457.642 143.774 459.872C140.638 464.376 131.529 458.933 138.226 457.696C135.198 455.106 133.042 458.078 130.989 456.728C132.084 455.933 130.82 455.892 129.783 455.519C130.526 457.282 128.171 455.674 128.818 457.454C127.31 458.005 128.114 458.624 125.682 458.179C126.369 459.847 123.562 459.446 122.064 459.388C105.492 466.971 120.843 460.609 113.38 469.543C108.109 470.958 105.747 474.863 102.766 478.973C99.2729 480.286 93.8405 485.238 93.8405 486.468C90.0099 488.495 89.2404 492.956 84.1916 494.689C82.4451 495.947 76.5858 494.416 78.4022 497.349C75.5365 496.849 77.652 500.009 75.0251 500.734C71.525 501.701 74.7984 501.597 72.1304 504.603C69.9763 503.275 73.0712 506.078 69.9594 506.053C67.6919 506.228 69.9136 506.767 68.0296 507.262C67.2288 507.69 65.6415 506.254 65.1349 507.746C63.4247 505.212 68.4542 506.75 66.5823 506.053C67.6485 504.479 61.0583 505.251 64.1701 507.021C63.2438 508.955 62.7685 507.071 62.2403 506.295C60.5107 505.403 58.3469 506.315 56.4509 505.086C54.9336 507.2 57.6763 506.491 58.8631 507.504C57.329 507.78 55.2134 509.521 54.0387 508.23C51.9256 512.371 56.0264 513.455 54.7623 516.45C53.3295 518.733 52.9411 516.209 52.5913 519.352C54.4608 519.835 55.5946 526.625 53.0738 525.397C53.0014 526.574 53.8095 525.825 54.0387 527.331C55.6983 527.814 55.1049 525.278 56.2097 525.155C54.2268 531.284 51.9159 523.972 49.2142 525.88C43.379 526.635 48.0901 529.565 41.0126 528.056C41.5481 529.7 39.9705 529.976 39.0828 529.023C40.5712 531.874 37.6355 530.443 38.3592 532.65C40.9909 533.264 36.0507 537.771 34.2584 537.728C34.1064 540.216 37.5414 536.277 36.9118 538.211C37.0204 541.251 34.338 540.298 32.3286 541.113C33.1511 539.205 30.9295 540.557 30.8812 538.937C32.6132 538.453 29.3036 536.652 30.1576 537.97C29.3688 539.778 28.0855 538.49 28.2278 540.629C26.0037 540.368 24.9785 542.182 27.5041 541.838C25.1329 543.7 31.0911 541.572 27.2629 543.289C27.9335 545.122 23.6445 543.289 24.3682 546.674C21.2323 547.353 22.9763 545.642 21.4735 545.223C21.8788 546.072 20.2312 545.535 21.2323 545.465C22.8847 542.564 19.4304 543.202 18.5788 541.355C19.2012 544.22 16.9699 541.125 17.8552 543.531C17.5547 543.68 17.2255 543.763 16.8903 543.773C18.2242 546.93 13.5373 543.785 16.6491 548.367C15.1342 547.675 16.6491 549.52 16.1666 551.026C17.3727 549.967 18.5499 551.026 16.8903 551.268C16.8903 552.206 18.4341 551.993 16.6491 552.477C15.5322 548.865 15.5201 550.211 12.5483 550.784C12.4301 549.873 10.9562 551.246 12.307 549.334C10.9031 547.854 11.3663 550.216 9.89481 550.301C8.70075 548.964 10.042 549.186 7.7238 549.576C8.22313 547.934 5.97011 548.074 6.27646 549.576C9.32793 548.811 4.04997 551.05 3.38178 550.784C3.72673 553.256 2.7353 553.052 2.17566 555.137C3.95589 555.497 1.73664 555.204 1.21077 556.104C2.50855 558.386 2.06229 558.038 0.487099 556.587C0.303769 557.893 -0.752789 557.368 0.969546 558.522C4.65544 558.096 5.79401 554.286 5.79401 553.202C5.9098 552.903 7.87336 552.668 6.27646 551.993C7.5863 551.807 7.69003 550.431 7.96502 549.817C7.98191 550.531 8.40164 551.527 7.48257 551.51C8.43058 553.086 8.6501 552.741 8.68869 554.17C7.87818 552.122 6.2258 557.119 8.44747 556.587C8.42093 557.185 8.09046 558.28 8.20625 559.005C9.65359 559.271 8.22795 557.071 9.65359 557.071C9.54745 557.796 10.1963 557.492 10.6185 557.313C10.3483 558.442 10.2349 558.556 11.8246 558.764C12.2733 560.151 9.79832 559.905 11.5834 561.181C10.7922 564.82 11.1492 563.089 9.17114 562.632C9.38583 564.189 6.34883 563.989 7.96502 564.808C4.86289 565.775 9.31828 565.408 9.65359 564.083C10.6185 563.841 11.4603 565.268 10.136 565.775C9.62464 568.039 11.2529 568.435 8.68869 567.468C8.80448 570.674 11.2457 566.767 11.3421 570.128C12.2709 572.874 19.1747 577.253 17.1315 577.381C15.5177 578.81 15.8675 577.323 14.4781 577.14C14.8978 578.167 15.3754 579.052 16.6491 578.59C17.1001 580.849 10.9779 583.796 15.4429 582.943C20.8994 578.404 19.9104 576.269 26.298 573.996C26.7804 574.806 30.4567 573.542 29.1927 574.722C29.6172 575.993 31.1924 576.832 28.7102 577.623C28.4111 578.851 27.9866 578.469 27.2629 578.107C26.5054 580.508 29.4339 583.056 30.64 581.734C32.1718 580.169 32.7194 579.886 35.2233 579.074C35.8625 576.656 37.1169 569.852 32.3286 570.611C29.6751 570.959 29.0624 572.654 26.0568 571.095C30.2613 568.37 32.2852 567.768 28.469 563.116C26.1919 559.798 30.5459 560.558 31.1225 557.555C32.0512 557.941 32.8713 558.546 32.811 559.489C34.3934 559.523 35.7057 559.518 36.1882 560.94C36.9118 561.213 36.4583 560.901 36.4294 561.665C39.505 562.352 34.982 565.875 37.6355 565.775C37.5776 571.45 43.5889 570.275 43.6661 574.722C41.7363 574.983 43.4562 575.447 43.9073 575.689C44.7998 578.59 33.0957 582.611 37.3943 582.701C37.2987 582.916 37.1268 583.089 36.9118 583.184C36.8563 584.393 36.9673 583.861 36.1882 584.151C36.2605 584.683 36.9118 584.587 37.6355 584.635C37.2206 586.446 35.3704 584.393 34.982 585.119C32.8303 585.711 31.9667 587.295 30.1576 588.02C30.3674 583.779 28.4425 582.524 25.3331 585.36C23.7362 585.885 24.9303 583.491 23.4033 584.635C26.3631 587.616 19.2205 592.476 23.6445 594.307C21.4928 595.757 21.2709 596.662 23.1621 597.208C22.009 597.716 23.6566 600.472 24.127 599.626C24.1463 600.917 25.5068 599.423 24.127 599.142C24.004 597.713 24.6094 598.577 25.8155 597.933C25.3331 597.02 27.7863 596.993 26.298 596.241C27.1254 596.316 26.7563 595.552 27.5041 595.274C29.8102 594.735 26.8504 592.677 29.4339 594.065C30.5001 593.098 29.885 591.739 31.3637 591.647C28.4883 589.05 32.1959 588.922 31.1225 590.922C32.4058 589.817 33.2935 590.399 34.8301 590.588C35.1099 593.066 35.1244 590.721 36.6682 590.68C36.7623 591.272 36.825 590.588 37.1506 590.68C36.7044 593.441 39.3578 589.713 36.9094 590.438C37.5583 588.789 39.5194 585.343 38.1155 584.877C38.3037 584.338 39.008 581.697 38.8392 584.635C42.7181 579.023 48.5774 579.33 41.4926 584.635C41.1115 586.881 44.3873 589.06 40.5278 590.438C40.5278 592.048 37.9491 593.185 39.8041 594.548C39.3216 594.846 39.2999 594.548 38.3567 594.548C38.598 595.639 36.948 596.103 38.1155 596.966C35.7925 596.657 35.4765 598.659 35.2208 601.077C32.2514 603.159 32.1959 599.595 29.1903 602.044C28.8429 600.463 32.1139 599.972 29.4315 599.626C30.4639 597.786 30.5339 595.482 29.1903 597.45C30.2251 593.777 28.1072 596.896 28.2254 597.692C26.6888 597.999 26.3824 596.838 26.778 598.659C26.4548 598.785 25.5719 599.353 26.5368 599.384C26.9855 600.683 26.5368 602.044 27.9841 602.286C27.6488 603.335 28.8188 602.745 28.949 603.495C29.1251 603.654 28.949 603.833 29.4315 603.736C29.3446 603.202 29.8271 603.942 30.1552 603.978C28.2543 606.679 30.1552 607.17 30.6376 610.023C29.2988 614.544 27.1616 615.48 30.8788 617.277C36.8901 620.536 34.157 634.49 28.2254 629.366C28.1699 630.29 24.4816 630.519 27.7429 630.817C28.3749 631.23 27.521 631.861 28.949 632.268C27.6102 632.889 28.8284 633.561 29.1903 632.751C29.1396 632.284 29.6245 632.584 29.4315 632.993C30.0876 633.177 29.9815 633.051 30.1552 633.718C28.2784 633.455 28.8525 634.908 30.3964 634.444C28.1675 640.348 39.9778 634.342 40.5278 639.279C40.3517 641.615 41.7556 640.247 42.4575 640.488C42.8218 640.708 44.0158 641.395 43.4224 640.488C45.9915 639.954 45.2654 638.702 46.0759 636.378C41.2514 635.237 41.1236 629.175 41.2514 627.674C41.7966 626.968 45.3667 613.93 47.5232 618.486C51.6506 619.022 51.969 620.224 49.453 624.53C46.5728 624.552 48.0949 619.039 43.4224 623.08C44.1943 626.757 48.5943 623.471 47.0408 628.641C55.5077 634.306 45.9336 642.423 45.5934 647.742C47.1517 647 47.4557 646.262 48.7293 645.082C49.6556 644.599 50.0392 645.421 50.4179 644.115C56.4823 643.745 56.7283 639.451 61.0317 637.103C61.478 636.804 63.1738 635.689 61.7554 635.653C61.6975 636.596 58.9789 635.732 60.5493 635.653C63.2293 632.867 54.3884 632.659 61.273 628.157C63.4995 628.805 65.8369 628.97 65.8562 631.784C67.4531 631.419 71.2644 634.274 69.2333 631.3C70.5046 631.233 68.705 630.909 69.957 630.575C70.3623 630.452 71.3706 628.3 70.4394 628.883C69.4263 628.179 72.3692 628.259 71.1631 626.706C70.5022 626.61 70.7482 626.409 71.1631 626.465C70.8375 625.401 70.864 624.366 72.128 624.288C71.1631 622.76 73.4813 622.717 73.8166 621.145C72.8517 614.3 75.6716 601.149 79.1235 591.647C80.7228 589.098 82.4114 589.739 80.3296 587.536C82.4861 588.042 79.4708 587.002 81.0533 587.053C81.4658 588.463 83.948 585.788 82.5006 585.844C78.7134 583.973 85.3253 582.232 84.4304 579.557C85.8367 579.026 85.7378 577.495 87.5663 578.349C86.5821 576.869 88.8158 576.545 88.0488 575.689C87.9378 574.219 88.4347 575.631 89.2549 574.238C88.3672 576.223 90.7384 574.468 90.461 573.513C91.011 573.365 90.9772 573.803 90.9434 574.238C91.5344 574.033 91.7925 574.02 91.4259 573.513C92.0724 572.77 92.4655 573.462 92.632 572.062C90.9434 571.552 92.1302 572.683 90.7022 572.062C90.9651 571.496 94.1734 569.402 91.9083 569.644C91.8939 568.919 93.0372 569.804 92.632 568.677C95.8644 569.025 95.3723 565.986 92.632 568.193C91.7901 567.879 93.2833 567.076 92.1495 566.984C92.193 567.785 91.052 567.952 91.6671 567.226C90.9265 566.373 90.4996 568.075 89.7373 566.501C88.7097 566.208 90.0123 566.259 90.2198 565.775C91.1171 564.75 89.4092 563.868 89.4961 565.534C88.372 564.956 89.4744 564.958 89.7373 563.841C89.5829 563.046 90.7022 563.706 91.6671 563.599C91.7684 562.939 92.2436 563.191 92.8732 563.358C91.7515 560.328 92.2509 562.337 90.461 562.632C90.116 560.026 89.6215 563.389 87.3251 561.665C89.9785 560.442 90.0726 559.433 86.6014 560.456C83.8876 560.062 89.4237 555.78 88.4588 555.62C89.7373 552.359 86.722 556.29 83.2243 554.895C80.9833 551.59 75.1144 558.493 75.0227 551.51C74.4076 549.394 76.7426 551.174 78.1586 551.268C81.2607 549.056 78.3661 547.283 81.7769 548.85C86.9053 540.958 78.0066 531.398 72.3692 540.388C70.9219 543.204 66.1577 540.008 63.9264 539.42C58.0382 541.096 59.2129 530.716 56.4485 531.441C55.6935 530.131 58.3783 530.266 57.8958 528.056C57.6377 526.415 60.0668 524.63 56.6897 524.913C58.5544 523.873 58.2142 520.384 60.0668 522.253C61.6999 522.326 60.9015 522.56 61.5142 523.462C62.8988 524.778 62.2716 522.805 62.7203 524.188C64.2086 528.446 63.6562 525.024 65.3738 526.606C65.8755 527.331 65.7163 526.385 66.0974 526.847C70.3381 526.905 70.6155 521.342 71.4043 522.737C71.0908 523.922 71.5081 525.329 72.128 523.22C72.7407 523.673 71.8217 524.33 73.0929 524.429C73.3655 523.716 73.0543 524.161 73.8166 524.188C74.2725 522.991 73.2907 521.929 75.2639 522.737C74.4534 525.128 78.0621 522.188 76.7113 524.188C78.1972 524.144 78.7978 523.187 77.9174 522.253C79.4057 523.482 78.8051 521.206 80.812 522.012C82.7684 520.747 83.9214 520.931 82.7418 522.737C86.8692 520.691 82.8504 523.274 85.3953 522.495C84.6451 521.625 87.4819 522.512 85.1541 522.979C85.1106 524.374 82.4837 524.594 84.6716 524.671C85.7837 526.647 86.119 521.204 88.29 524.671C91.2618 525.781 90.1643 526.717 91.4259 527.331C91.9469 525.44 99.8084 531.354 94.5618 529.507C95.4977 530.912 91.6261 533.958 94.3206 531.925C98.1994 530.218 97.7242 531.637 96.7328 525.638C100.402 525.88 99.9869 521.671 99.3862 518.385C101.198 519.018 101.885 516.801 100.351 515.967C100.124 515.154 101.741 515.012 100.351 514.033C100.436 512.437 101.053 512.168 102.04 511.856C99.97 515.108 103.258 513.472 104.452 511.856C104.276 509.784 102.964 511.201 102.04 511.615C104.512 507.161 108.673 508.508 110.241 511.615C110.241 511.615 109.378 513.365 110.483 512.824C112.063 515.183 107.265 518.723 109.759 512.582C109.682 510.916 106.09 510.952 107.588 512.582C107.436 512.906 104.717 512.098 104.934 513.065C106.485 515.212 109.824 518.769 105.417 515.967C104.618 519.325 112.83 516.579 107.829 518.626C107.158 521.673 110.162 518.984 111.206 519.835C108.193 524.463 113.544 519.03 112.412 518.385C112.477 517.497 111.11 519.127 110.965 518.868C112.038 516.915 109.428 516.523 111.689 516.45C110.468 514.973 112.926 515.597 112.895 514.033C113.278 514.63 114.694 515.802 115.307 514.758C114.446 514.315 117.886 515.06 116.272 514.033C117.268 513.844 121.371 512.674 118.684 512.582C117.828 510.722 120.197 513.145 120.373 512.098C121.072 511.97 120.066 511.503 119.649 511.856C120.131 508.416 121.755 512.911 122.544 510.406C124.232 509.366 126.613 509.854 127.851 509.68C130.06 509.997 129.826 506.537 130.745 507.746C131.585 507.811 131.505 507.42 131.951 507.262C132.827 506.576 131.295 508.304 132.916 507.988C133.076 509.385 130.697 506.89 131.71 508.713C131.619 508.213 132.193 508.544 131.951 508.955C130.842 508.774 132.147 509.458 131.469 509.439C131.836 510.592 132.164 510.125 130.987 510.406C131.667 506.341 128.885 509.124 130.745 510.647C128.258 508.493 129.517 511.058 129.298 512.824C131.095 513.273 132.115 510.091 132.916 511.615C132.897 511.639 132.077 511.503 132.434 511.856C133.317 511.823 129.766 512.698 131.951 513.549C132.226 512.983 131.98 513.505 132.193 514.033C130.359 515.2 131.295 513.077 129.78 513.549C128.174 514.635 129.008 509.564 126.162 511.373C127.26 513.829 123.304 514.552 124.473 516.209C125.166 516.233 124.498 515.416 124.473 515.241C125.94 516.238 128.468 513.38 129.78 515.725C127.894 514.758 127.219 515.648 128.333 517.176C125.648 516.711 127.81 517.376 127.127 519.11C128.922 519.275 129.759 517.239 130.987 516.45C131.324 515.616 128.671 516.692 130.263 515.967C130.118 515.483 130.297 515.759 130.022 515.483C130.048 515 130.987 515.706 131.469 515.483C130.68 514.296 132.834 514.937 132.434 513.791C133.792 514.714 134.033 513.085 135.087 512.098C135.729 510.831 133.541 511.515 133.64 512.824C132.653 512.724 135.309 510.355 133.64 511.131C135.727 508.786 131.035 510.338 135.329 507.021C135.087 507.731 140.346 507.449 137.982 508.23C134.774 508.389 135.271 511.071 139.671 508.23C140.72 507.722 139.671 505.505 141.118 505.812C141.313 504.832 141.304 506.114 142.083 505.812C142.027 504.18 144.736 503.931 143.048 504.844C143.53 505.522 144.343 505.405 144.254 504.603C144.736 504.857 145.474 505.086 145.219 504.119C148.159 504.513 147.245 502.91 150.043 501.943C149.684 504.494 150.986 502.24 151.249 501.701C151.249 506.929 152.484 501.29 153.662 504.603C153.317 505.328 156.001 505.894 155.109 505.086C155.02 502.296 157.936 505.609 159.692 504.603C158.749 503.041 161.127 502.373 161.139 503.636C159.417 503.07 160.008 503.478 159.933 504.603C160.845 504.134 161.214 505.526 162.104 505.57C162.534 502.34 158.867 502.427 160.898 501.218C161.354 502.62 162.268 502.076 161.381 500.976C162.56 500.734 162.399 500.28 163.069 499.525C163.487 497.027 157.458 499.786 161.139 498.316C163.431 497.221 164.505 501.089 167.17 497.833C166.738 498.892 168.883 498.916 168.617 498.074C166.606 497.107 169.218 497.349 167.652 496.624C167.235 495.279 172.253 495.92 170.547 494.448C171.464 493.904 171.5 493.964 172.959 494.689C173.801 493.272 172.236 492.755 174.407 492.513C175.183 494.223 176.735 492.354 176.819 491.304C179.547 492.832 185.829 489.29 189.363 492.997C190.996 494.958 197.113 498.316 202.63 496.382C202.717 495.098 203.216 494.334 203.112 496.14C204.603 496.786 205.283 495.927 203.836 494.931C204.222 494.387 205.011 493.618 204.801 495.173C206.832 495.555 206.458 492.832 208.419 494.206C208.759 496.365 212.322 493.35 208.902 496.14C210.33 496.486 211.227 501.716 208.902 501.459C208.858 502.717 209.43 503.227 208.178 503.636C207.903 508.188 194.074 511.936 198.529 511.373C197.436 513.324 200.584 512.855 200.218 513.791C197.747 513.119 206.125 518.09 200.218 517.901C200.408 518.868 200.678 517.466 200.941 518.868C199.282 517.596 198.348 521.39 201.182 521.286C201.199 521.417 201.043 522.287 201.424 522.012C200.975 524.891 198.565 522.012 198.77 526.364C197.603 526.286 198.811 527.038 199.011 527.331C199.081 527.931 198.17 527.5 198.047 527.331C197.697 529.826 201.303 526.925 201.665 529.991C204.113 533.431 206.95 532.892 209.384 535.552C211.02 536.635 205.382 535.972 208.419 538.453C211.406 543.383 216.621 545.371 222.651 545.465C223.568 546.367 220.902 547.385 222.893 547.399C223.165 546.686 222.854 547.131 223.616 547.158C222.987 543.935 227.517 542.97 229.647 541.113C230.086 539.904 227.391 540.54 229.164 539.42C230.269 539.551 227.519 537.745 230.612 538.211C230.322 534.534 234.693 526.47 237.848 527.089C237.552 524.413 238.599 528.54 238.813 524.913C238.741 524.891 237.523 524.328 238.331 524.429C238.712 523.254 238.488 525.689 240.502 524.913C240.772 521.997 239.696 521.528 238.09 520.319C239.872 520.198 238.413 519.724 239.296 519.11C239.296 520.583 240.357 519.712 241.226 520.077C242.092 517.877 239.482 518.167 241.226 516.209C242.075 515.295 250.414 514.968 248.462 512.34C249.91 513.856 250.31 513.522 250.151 511.856C250.875 511.91 251.053 513.576 253.046 512.098C253.757 511.387 254.155 510.793 254.975 509.439C256.483 509.044 252.824 512.485 255.217 511.373C256.782 510.725 256.905 511.752 257.629 510.647C257.46 511.997 258.328 511.45 259.05 511.172C258.717 511.639 259.1 511.818 259.317 511.373C259.78 511.373 259.534 511.107 259.233 511.107C259.474 511.032 259.674 511.01 259.8 511.131C259.689 512.688 258.09 511.813 256.905 511.856C257.228 513.111 260.135 513.684 260.282 512.824C263.642 512.284 260.753 510.594 261.73 508.955C263.232 508.868 261.898 507.531 261.247 508.471C261.698 507.374 263.901 507.18 262.453 504.361C261.042 504.603 261.674 504.869 260.765 503.394C261.563 503.021 261.346 503.856 262.453 503.152C262.161 501.943 258.42 503.459 259.076 502.185C254.963 501.88 253.909 497.692 249.427 497.833C250.633 496.962 249.369 496.21 250.392 495.415C246.68 492.772 252.937 487.366 254.01 484.292C252.184 482.157 255.067 483.376 254.252 481.149C254.835 481.432 255.342 481.543 255.217 480.666C255.668 480.465 255.94 480.404 256.181 480.666C256.423 480.518 256.309 480.015 256.905 480.182C258.111 481.826 258.487 479.875 260.041 480.424C261.674 476.964 260.282 481.874 259.076 482.842C258.333 485.141 261.455 487.622 260.282 489.854C258.181 492.255 264.52 495.492 264.624 493.722C262.033 492.187 263.768 484.803 263.659 488.161C266.494 492.462 268.542 490.202 271.62 490.337C270.363 492.332 273.291 489.43 273.067 488.886C278.022 488.103 276.123 497.552 275.72 492.513C275.677 491.761 275.035 492.629 274.997 492.755C273.371 493.364 273.012 495.528 270.655 495.415C269.864 495.594 269.772 497.946 268.484 495.656C267.574 495.105 266.028 498.78 265.83 499.525C267.087 499.303 268.047 499.003 270.172 499.042C285.833 488.161 310.372 503.394 307.562 493.48C313.05 489.987 310.186 484 317.211 482.6C320.545 480.349 316.632 480.784 318.176 478.973C320.535 474.759 328.09 474.478 330.719 478.731C332.509 480.235 328.954 480.361 327.101 479.94C325.596 481.669 328.367 484.657 326.136 485.743C326.184 487.378 327.263 487.339 325.895 488.645C326.175 489.01 326.681 489.261 326.136 489.37C327.972 491.856 323.584 493.572 326.86 494.689C326.486 497.767 329.272 498.181 330.961 497.107C331.233 496.394 330.922 496.839 331.684 496.865C332.085 494.689 333.228 496.193 334.338 495.656C332.874 491.464 344.127 484.101 338.197 482.358C338.021 481.657 338.13 481.618 337.715 480.907C339.765 480.424 336.977 478.453 337.474 478.006C337.377 476.913 338.624 475.895 338.921 474.863C339.927 474.928 340.429 475.9 340.368 474.621C336.793 468.298 350.102 466.884 351.947 468.334C357.57 467.125 354.046 479.377 358.46 474.379C356.434 474.229 358.248 471.765 359.907 472.203C359.642 471.383 361.955 469.502 358.701 469.785C358.19 468.91 358.846 468.008 357.254 468.092C357.351 467.878 357.522 467.706 357.736 467.609C357.527 462.592 356.065 465.179 358.46 463.498C358.786 462.713 358.566 462.306 358.219 461.806C358.554 462.019 359.582 462.205 358.943 461.564C358.783 460.718 359.907 461.453 360.631 461.081C360.916 460.302 360.991 460.012 361.837 460.113C362.51 459.081 362.99 457.212 361.355 455.278C361.676 453.97 362.122 457.391 363.767 456.245C363.695 454.516 362.004 455.157 362.802 454.552C362.452 453.902 362.913 453.878 363.285 454.31C364.192 456.525 363.832 452.05 365.214 454.794C366.806 454.516 367.779 454.265 366.903 452.86H367.627C367.627 450.993 375.242 457.067 371.245 457.937C370.135 460.994 367.641 461.322 365.697 463.015C365.649 464.354 367.173 465.005 365.456 465.191C362.561 464.86 364.58 467.553 361.837 467.609C362.662 468.494 363.198 467.96 364.249 468.818C363.555 471.961 363.943 477.133 362.802 479.215C363.253 479.94 365.752 481.696 363.285 481.391C363.029 482.871 358.125 481.391 362.078 483.325C369.67 490.876 366.621 474.928 379.447 475.588C379.63 474.93 379.504 475.037 380.17 474.863C380.773 476.63 381.046 473.267 382.1 473.412C384.237 473.436 382.734 469.084 384.03 467.851C379.866 460.215 392.255 448.309 399.468 451.651C392.275 439.774 384.358 424.258 394.407 409.821C394.545 407.887 394.687 403.121 397.543 402.568C395.35 397.703 402.435 398.738 403.574 395.556C410.458 375.487 394.685 349.475 406.951 337.768C406.449 335.8 404.734 338.757 406.71 334.625C408.384 335.108 408.531 333.928 408.881 336.075C408.454 336.131 407.8 335.988 408.639 335.834C408.497 335.29 407.88 335.652 407.674 336.075C405.87 336.61 408.024 337.504 408.157 336.559C407.962 337.555 408.914 336.506 409.363 337.043C410.854 337.616 409.122 333.36 413.705 333.174C414.359 333.955 415.377 332.792 416.841 333.174C416.043 334.538 418.008 334.953 418.047 333.658C418.397 333.974 419.031 333.914 418.53 334.383C418.45 334.782 418.701 335.128 418.771 334.625C419.654 335.21 418.599 334.811 418.53 336.075C419.154 336.581 420.218 335.592 419.977 336.559C420.872 336.716 420.119 336.926 419.736 337.043C419.772 338.382 421.605 337.122 420.942 338.493C421.424 338.348 421.149 338.527 421.424 338.251C422.78 341.574 423.627 334.591 420.942 334.625C424.705 334.574 422.01 332.485 420.459 333.658C421.05 332.77 420.201 332.427 419.977 331.723C422.148 333.174 421.931 329.375 420.701 328.338C422.437 328.935 422.758 331.67 423.113 327.855C422.664 327.55 422.5 327.659 422.872 326.887C421.571 327.591 419.95 327.028 420.459 325.437C426.401 322.68 419.036 323.261 419.736 321.568C422.428 321.948 422.08 318.239 423.595 320.843C425.088 317.436 419.535 317.825 423.836 315.523C424.302 315.48 424.193 315.214 424.319 314.798C425.653 315.074 423.836 309.667 425.284 314.314C426.972 314.513 425.653 312.054 425.766 311.896C431.1 317.112 422.667 305.296 427.455 306.819C426.685 308.405 428.987 311.045 429.385 308.511C428.251 308.185 428.589 308.323 428.902 307.061C430.61 307.803 429.363 304.469 433.727 305.852C433.968 304.142 430.832 304.781 434.209 304.401C434.868 302.897 431.471 303.847 432.52 302.225C431.821 301.768 435.246 302.588 434.209 303.192C437.494 302.181 434.802 301.369 433.485 300.532C432.981 299.468 436.226 300.549 436.139 298.356C435.003 298.804 434.981 298.247 434.209 298.114C434.894 298.23 439.873 295.399 436.621 295.697C436.028 296.103 435.755 295.861 434.933 294.971C436.38 294.848 436.932 294.282 435.174 293.52C437.07 292.817 438.04 293.329 438.792 291.103C437.381 291.175 435.975 292.626 435.174 291.828C435.883 291.944 435.939 290.655 436.38 291.344C437.417 291.625 438.43 289.572 437.104 289.894C436.817 289.925 437.757 287.079 438.551 288.685C438.681 289.652 438.882 288.556 439.275 288.201C440.322 290.232 442.075 281.854 438.792 286.509C436.802 287.502 436.744 284.669 439.275 285.541C439.516 284.61 439.668 282.64 440.963 283.607C441.646 280.478 439.142 281.25 439.755 277.321Z"/>
</mask>
<path d="M439.755 277.321C437.555 278.619 436.464 282.957 437.584 278.288C438.742 278.116 438.066 276.837 438.307 275.87C437.28 275.761 438.995 274.571 437.825 273.935C439.362 273.534 438.79 268.104 437.343 266.924C437.14 266.546 436.561 263.78 437.343 264.747C438.204 260.823 433.876 260.7 433 257.252C431.794 256.234 435.343 255.748 434.448 254.834C433.712 253.746 432.072 253.514 431.794 252.416C428.965 232.043 409.568 237.469 419.974 197.53C421.282 194.428 417.446 198.833 415.391 199.706C410.907 199.747 409.874 196.432 407.431 194.145C405.26 193.316 402.452 193.589 401.4 190.76C400.5 192.119 390.663 215.763 399.47 208.411C402.271 208.633 402.915 206.145 406.225 207.685C406.948 205.751 409.103 206.703 409.843 204.3C407.778 205.947 410.034 202.235 410.567 203.575C415.736 207.129 412.497 215.995 409.361 221.467C404.133 221.603 404.324 216.092 399.47 215.181C400.575 217.149 397.058 218.435 399.47 218.566C399.159 220.657 398.867 222.255 396.576 223.401C388.336 224.156 395.495 208.241 389.339 205.751C388.109 205.057 387.269 206.196 386.444 207.443C383.728 207.763 381.35 201.316 381.138 205.025C380.366 206.96 381.379 210.874 377.76 209.861C382.037 211.312 380.136 217.971 379.208 221.467C379.596 224.705 373.988 229.088 371.971 226.787C369.679 226.061 368.922 229.258 367.629 231.139C364.011 233.765 363.598 234.04 367.388 236.7C368.932 246.064 371.894 254.389 364.734 262.571C362.636 265.886 356.021 258.717 359.669 263.78C358.342 264.97 360.026 266.522 360.634 268.133C361.186 268.788 362.274 267.448 363.287 268.616C374.928 260.453 372.28 291.61 366.182 295.697C366.025 296.69 365.472 297.585 365.94 299.565C363.2 305.9 363.082 315.823 356.774 320.843C352.079 324.996 352.079 327.253 350.95 331.767C352.46 349.925 338.212 350.307 328.31 360.254C323.794 380.908 304.248 390.439 285.613 396.039C277.293 396.09 281.768 406.124 274.034 405.227C264.82 404.649 265.109 401.978 267.28 395.072C267.898 392.758 267.068 387.485 265.592 392.412C261.862 392.707 264.489 389.654 267.28 389.994C267.229 388.075 267.352 386.409 265.833 389.027C263.334 387.311 259.913 390.478 262.456 386.368C263.729 386.542 262.509 385.318 263.662 384.917C267.611 391.128 267.579 380.284 274.276 381.774C275.614 379.772 272.669 378.147 274.517 376.454C275.692 375.335 276.929 376.696 278.135 375.487C277.221 372.827 277.894 371.761 274.758 371.618C271.157 373.176 266.723 375.161 263.662 377.421C262.214 377.213 256.83 377.835 256.908 379.839C255.349 379.276 256.722 379.822 255.701 380.565C257.296 383.507 250.978 388.904 255.943 389.027C256.008 390.558 254.995 392.308 256.184 392.896C260.364 405.878 246.718 418.896 236.886 427.472C234.334 426.778 235.094 431.797 232.303 434.242C231.355 434.201 231.338 437.68 230.614 438.111C229.726 438.183 229.408 439.025 229.167 439.803C230.855 443.253 234.141 447.299 234.233 450.684C232.913 453.883 232.18 454.574 232.303 450.2C232.122 446.481 227.437 452.707 229.89 451.409C228.834 454.228 231.606 455.087 228.926 454.31C228.947 456.842 226.875 453.602 226.513 455.519C224.873 453.135 222.794 454.115 225.548 455.761C226.894 457.911 222.022 456.581 224.825 457.937C225.336 458.859 224.412 458.602 223.86 458.663C223.136 458.518 222.171 456.1 220.724 457.454C218.312 459.516 225.177 458.356 220.724 460.597C219.684 459.823 218.268 461.644 217.106 460.597C222.509 457.106 216.997 458.871 214.935 460.597C213.632 460.418 214.061 459.233 214.452 458.179C214.061 457.616 212.923 457.783 213.487 458.904C212.356 458.663 213.07 458.351 213.246 457.454C212.421 457.268 211.246 457.173 212.281 456.245C214.165 455.911 211.155 455.002 210.834 457.212C209.107 457.696 206.704 457.797 208.18 460.113C209.131 460.152 210.163 459.768 209.869 461.081C209.039 460.994 209.449 461.064 209.628 460.597C207.589 460.597 208.513 460.853 207.457 461.564C206.564 462.439 208.699 459.598 207.457 459.146C207.138 458.875 206.251 460.471 205.768 458.663C202.316 457.872 206.188 458.307 205.768 457.212C204.154 457.314 205.375 456.499 205.286 455.761C203.838 456.322 203.616 457.889 202.873 458.421C202.377 457.355 203.838 455.447 204.803 455.278C204.941 452.906 205.742 453.145 206.733 453.343C207.165 449.156 203.356 447.611 200.461 449.475C197.733 450.739 195.497 453.343 192.26 453.827C192.419 452.649 187.676 453.856 188.159 452.618C186.726 453.815 186.576 452.18 185.747 453.585C185.662 451.593 182.529 455.021 182.611 453.343C175.736 452.778 172.516 457.364 167.414 458.663C161.866 458.832 158.942 459.644 152.94 460.113C149.901 459.872 146.603 457.642 143.774 459.872C140.638 464.376 131.529 458.933 138.226 457.696C135.198 455.106 133.042 458.078 130.989 456.728C132.084 455.933 130.82 455.892 129.783 455.519C130.526 457.282 128.171 455.674 128.818 457.454C127.31 458.005 128.114 458.624 125.682 458.179C126.369 459.847 123.562 459.446 122.064 459.388C105.492 466.971 120.843 460.609 113.38 469.543C108.109 470.958 105.747 474.863 102.766 478.973C99.2729 480.286 93.8405 485.238 93.8405 486.468C90.0099 488.495 89.2404 492.956 84.1916 494.689C82.4451 495.947 76.5858 494.416 78.4022 497.349C75.5365 496.849 77.652 500.009 75.0251 500.734C71.525 501.701 74.7984 501.597 72.1304 504.603C69.9763 503.275 73.0712 506.078 69.9594 506.053C67.6919 506.228 69.9136 506.767 68.0296 507.262C67.2288 507.69 65.6415 506.254 65.1349 507.746C63.4247 505.212 68.4542 506.75 66.5823 506.053C67.6485 504.479 61.0583 505.251 64.1701 507.021C63.2438 508.955 62.7685 507.071 62.2403 506.295C60.5107 505.403 58.3469 506.315 56.4509 505.086C54.9336 507.2 57.6763 506.491 58.8631 507.504C57.329 507.78 55.2134 509.521 54.0387 508.23C51.9256 512.371 56.0264 513.455 54.7623 516.45C53.3295 518.733 52.9411 516.209 52.5913 519.352C54.4608 519.835 55.5946 526.625 53.0738 525.397C53.0014 526.574 53.8095 525.825 54.0387 527.331C55.6983 527.814 55.1049 525.278 56.2097 525.155C54.2268 531.284 51.9159 523.972 49.2142 525.88C43.379 526.635 48.0901 529.565 41.0126 528.056C41.5481 529.7 39.9705 529.976 39.0828 529.023C40.5712 531.874 37.6355 530.443 38.3592 532.65C40.9909 533.264 36.0507 537.771 34.2584 537.728C34.1064 540.216 37.5414 536.277 36.9118 538.211C37.0204 541.251 34.338 540.298 32.3286 541.113C33.1511 539.205 30.9295 540.557 30.8812 538.937C32.6132 538.453 29.3036 536.652 30.1576 537.97C29.3688 539.778 28.0855 538.49 28.2278 540.629C26.0037 540.368 24.9785 542.182 27.5041 541.838C25.1329 543.7 31.0911 541.572 27.2629 543.289C27.9335 545.122 23.6445 543.289 24.3682 546.674C21.2323 547.353 22.9763 545.642 21.4735 545.223C21.8788 546.072 20.2312 545.535 21.2323 545.465C22.8847 542.564 19.4304 543.202 18.5788 541.355C19.2012 544.22 16.9699 541.125 17.8552 543.531C17.5547 543.68 17.2255 543.763 16.8903 543.773C18.2242 546.93 13.5373 543.785 16.6491 548.367C15.1342 547.675 16.6491 549.52 16.1666 551.026C17.3727 549.967 18.5499 551.026 16.8903 551.268C16.8903 552.206 18.4341 551.993 16.6491 552.477C15.5322 548.865 15.5201 550.211 12.5483 550.784C12.4301 549.873 10.9562 551.246 12.307 549.334C10.9031 547.854 11.3663 550.216 9.89481 550.301C8.70075 548.964 10.042 549.186 7.7238 549.576C8.22313 547.934 5.97011 548.074 6.27646 549.576C9.32793 548.811 4.04997 551.05 3.38178 550.784C3.72673 553.256 2.7353 553.052 2.17566 555.137C3.95589 555.497 1.73664 555.204 1.21077 556.104C2.50855 558.386 2.06229 558.038 0.487099 556.587C0.303769 557.893 -0.752789 557.368 0.969546 558.522C4.65544 558.096 5.79401 554.286 5.79401 553.202C5.9098 552.903 7.87336 552.668 6.27646 551.993C7.5863 551.807 7.69003 550.431 7.96502 549.817C7.98191 550.531 8.40164 551.527 7.48257 551.51C8.43058 553.086 8.6501 552.741 8.68869 554.17C7.87818 552.122 6.2258 557.119 8.44747 556.587C8.42093 557.185 8.09046 558.28 8.20625 559.005C9.65359 559.271 8.22795 557.071 9.65359 557.071C9.54745 557.796 10.1963 557.492 10.6185 557.313C10.3483 558.442 10.2349 558.556 11.8246 558.764C12.2733 560.151 9.79832 559.905 11.5834 561.181C10.7922 564.82 11.1492 563.089 9.17114 562.632C9.38583 564.189 6.34883 563.989 7.96502 564.808C4.86289 565.775 9.31828 565.408 9.65359 564.083C10.6185 563.841 11.4603 565.268 10.136 565.775C9.62464 568.039 11.2529 568.435 8.68869 567.468C8.80448 570.674 11.2457 566.767 11.3421 570.128C12.2709 572.874 19.1747 577.253 17.1315 577.381C15.5177 578.81 15.8675 577.323 14.4781 577.14C14.8978 578.167 15.3754 579.052 16.6491 578.59C17.1001 580.849 10.9779 583.796 15.4429 582.943C20.8994 578.404 19.9104 576.269 26.298 573.996C26.7804 574.806 30.4567 573.542 29.1927 574.722C29.6172 575.993 31.1924 576.832 28.7102 577.623C28.4111 578.851 27.9866 578.469 27.2629 578.107C26.5054 580.508 29.4339 583.056 30.64 581.734C32.1718 580.169 32.7194 579.886 35.2233 579.074C35.8625 576.656 37.1169 569.852 32.3286 570.611C29.6751 570.959 29.0624 572.654 26.0568 571.095C30.2613 568.37 32.2852 567.768 28.469 563.116C26.1919 559.798 30.5459 560.558 31.1225 557.555C32.0512 557.941 32.8713 558.546 32.811 559.489C34.3934 559.523 35.7057 559.518 36.1882 560.94C36.9118 561.213 36.4583 560.901 36.4294 561.665C39.505 562.352 34.982 565.875 37.6355 565.775C37.5776 571.45 43.5889 570.275 43.6661 574.722C41.7363 574.983 43.4562 575.447 43.9073 575.689C44.7998 578.59 33.0957 582.611 37.3943 582.701C37.2987 582.916 37.1268 583.089 36.9118 583.184C36.8563 584.393 36.9673 583.861 36.1882 584.151C36.2605 584.683 36.9118 584.587 37.6355 584.635C37.2206 586.446 35.3704 584.393 34.982 585.119C32.8303 585.711 31.9667 587.295 30.1576 588.02C30.3674 583.779 28.4425 582.524 25.3331 585.36C23.7362 585.885 24.9303 583.491 23.4033 584.635C26.3631 587.616 19.2205 592.476 23.6445 594.307C21.4928 595.757 21.2709 596.662 23.1621 597.208C22.009 597.716 23.6566 600.472 24.127 599.626C24.1463 600.917 25.5068 599.423 24.127 599.142C24.004 597.713 24.6094 598.577 25.8155 597.933C25.3331 597.02 27.7863 596.993 26.298 596.241C27.1254 596.316 26.7563 595.552 27.5041 595.274C29.8102 594.735 26.8504 592.677 29.4339 594.065C30.5001 593.098 29.885 591.739 31.3637 591.647C28.4883 589.05 32.1959 588.922 31.1225 590.922C32.4058 589.817 33.2935 590.399 34.8301 590.588C35.1099 593.066 35.1244 590.721 36.6682 590.68C36.7623 591.272 36.825 590.588 37.1506 590.68C36.7044 593.441 39.3578 589.713 36.9094 590.438C37.5583 588.789 39.5194 585.343 38.1155 584.877C38.3037 584.338 39.008 581.697 38.8392 584.635C42.7181 579.023 48.5774 579.33 41.4926 584.635C41.1115 586.881 44.3873 589.06 40.5278 590.438C40.5278 592.048 37.9491 593.185 39.8041 594.548C39.3216 594.846 39.2999 594.548 38.3567 594.548C38.598 595.639 36.948 596.103 38.1155 596.966C35.7925 596.657 35.4765 598.659 35.2208 601.077C32.2514 603.159 32.1959 599.595 29.1903 602.044C28.8429 600.463 32.1139 599.972 29.4315 599.626C30.4639 597.786 30.5339 595.482 29.1903 597.45C30.2251 593.777 28.1072 596.896 28.2254 597.692C26.6888 597.999 26.3824 596.838 26.778 598.659C26.4548 598.785 25.5719 599.353 26.5368 599.384C26.9855 600.683 26.5368 602.044 27.9841 602.286C27.6488 603.335 28.8188 602.745 28.949 603.495C29.1251 603.654 28.949 603.833 29.4315 603.736C29.3446 603.202 29.8271 603.942 30.1552 603.978C28.2543 606.679 30.1552 607.17 30.6376 610.023C29.2988 614.544 27.1616 615.48 30.8788 617.277C36.8901 620.536 34.157 634.49 28.2254 629.366C28.1699 630.29 24.4816 630.519 27.7429 630.817C28.3749 631.23 27.521 631.861 28.949 632.268C27.6102 632.889 28.8284 633.561 29.1903 632.751C29.1396 632.284 29.6245 632.584 29.4315 632.993C30.0876 633.177 29.9815 633.051 30.1552 633.718C28.2784 633.455 28.8525 634.908 30.3964 634.444C28.1675 640.348 39.9778 634.342 40.5278 639.279C40.3517 641.615 41.7556 640.247 42.4575 640.488C42.8218 640.708 44.0158 641.395 43.4224 640.488C45.9915 639.954 45.2654 638.702 46.0759 636.378C41.2514 635.237 41.1236 629.175 41.2514 627.674C41.7966 626.968 45.3667 613.93 47.5232 618.486C51.6506 619.022 51.969 620.224 49.453 624.53C46.5728 624.552 48.0949 619.039 43.4224 623.08C44.1943 626.757 48.5943 623.471 47.0408 628.641C55.5077 634.306 45.9336 642.423 45.5934 647.742C47.1517 647 47.4557 646.262 48.7293 645.082C49.6556 644.599 50.0392 645.421 50.4179 644.115C56.4823 643.745 56.7283 639.451 61.0317 637.103C61.478 636.804 63.1738 635.689 61.7554 635.653C61.6975 636.596 58.9789 635.732 60.5493 635.653C63.2293 632.867 54.3884 632.659 61.273 628.157C63.4995 628.805 65.8369 628.97 65.8562 631.784C67.4531 631.419 71.2644 634.274 69.2333 631.3C70.5046 631.233 68.705 630.909 69.957 630.575C70.3623 630.452 71.3706 628.3 70.4394 628.883C69.4263 628.179 72.3692 628.259 71.1631 626.706C70.5022 626.61 70.7482 626.409 71.1631 626.465C70.8375 625.401 70.864 624.366 72.128 624.288C71.1631 622.76 73.4813 622.717 73.8166 621.145C72.8517 614.3 75.6716 601.149 79.1235 591.647C80.7228 589.098 82.4114 589.739 80.3296 587.536C82.4861 588.042 79.4708 587.002 81.0533 587.053C81.4658 588.463 83.948 585.788 82.5006 585.844C78.7134 583.973 85.3253 582.232 84.4304 579.557C85.8367 579.026 85.7378 577.495 87.5663 578.349C86.5821 576.869 88.8158 576.545 88.0488 575.689C87.9378 574.219 88.4347 575.631 89.2549 574.238C88.3672 576.223 90.7384 574.468 90.461 573.513C91.011 573.365 90.9772 573.803 90.9434 574.238C91.5344 574.033 91.7925 574.02 91.4259 573.513C92.0724 572.77 92.4655 573.462 92.632 572.062C90.9434 571.552 92.1302 572.683 90.7022 572.062C90.9651 571.496 94.1734 569.402 91.9083 569.644C91.8939 568.919 93.0372 569.804 92.632 568.677C95.8644 569.025 95.3723 565.986 92.632 568.193C91.7901 567.879 93.2833 567.076 92.1495 566.984C92.193 567.785 91.052 567.952 91.6671 567.226C90.9265 566.373 90.4996 568.075 89.7373 566.501C88.7097 566.208 90.0123 566.259 90.2198 565.775C91.1171 564.75 89.4092 563.868 89.4961 565.534C88.372 564.956 89.4744 564.958 89.7373 563.841C89.5829 563.046 90.7022 563.706 91.6671 563.599C91.7684 562.939 92.2436 563.191 92.8732 563.358C91.7515 560.328 92.2509 562.337 90.461 562.632C90.116 560.026 89.6215 563.389 87.3251 561.665C89.9785 560.442 90.0726 559.433 86.6014 560.456C83.8876 560.062 89.4237 555.78 88.4588 555.62C89.7373 552.359 86.722 556.29 83.2243 554.895C80.9833 551.59 75.1144 558.493 75.0227 551.51C74.4076 549.394 76.7426 551.174 78.1586 551.268C81.2607 549.056 78.3661 547.283 81.7769 548.85C86.9053 540.958 78.0066 531.398 72.3692 540.388C70.9219 543.204 66.1577 540.008 63.9264 539.42C58.0382 541.096 59.2129 530.716 56.4485 531.441C55.6935 530.131 58.3783 530.266 57.8958 528.056C57.6377 526.415 60.0668 524.63 56.6897 524.913C58.5544 523.873 58.2142 520.384 60.0668 522.253C61.6999 522.326 60.9015 522.56 61.5142 523.462C62.8988 524.778 62.2716 522.805 62.7203 524.188C64.2086 528.446 63.6562 525.024 65.3738 526.606C65.8755 527.331 65.7163 526.385 66.0974 526.847C70.3381 526.905 70.6155 521.342 71.4043 522.737C71.0908 523.922 71.5081 525.329 72.128 523.22C72.7407 523.673 71.8217 524.33 73.0929 524.429C73.3655 523.716 73.0543 524.161 73.8166 524.188C74.2725 522.991 73.2907 521.929 75.2639 522.737C74.4534 525.128 78.0621 522.188 76.7113 524.188C78.1972 524.144 78.7978 523.187 77.9174 522.253C79.4057 523.482 78.8051 521.206 80.812 522.012C82.7684 520.747 83.9214 520.931 82.7418 522.737C86.8692 520.691 82.8504 523.274 85.3953 522.495C84.6451 521.625 87.4819 522.512 85.1541 522.979C85.1106 524.374 82.4837 524.594 84.6716 524.671C85.7837 526.647 86.119 521.204 88.29 524.671C91.2618 525.781 90.1643 526.717 91.4259 527.331C91.9469 525.44 99.8084 531.354 94.5618 529.507C95.4977 530.912 91.6261 533.958 94.3206 531.925C98.1994 530.218 97.7242 531.637 96.7328 525.638C100.402 525.88 99.9869 521.671 99.3862 518.385C101.198 519.018 101.885 516.801 100.351 515.967C100.124 515.154 101.741 515.012 100.351 514.033C100.436 512.437 101.053 512.168 102.04 511.856C99.97 515.108 103.258 513.472 104.452 511.856C104.276 509.784 102.964 511.201 102.04 511.615C104.512 507.161 108.673 508.508 110.241 511.615C110.241 511.615 109.378 513.365 110.483 512.824C112.063 515.183 107.265 518.723 109.759 512.582C109.682 510.916 106.09 510.952 107.588 512.582C107.436 512.906 104.717 512.098 104.934 513.065C106.485 515.212 109.824 518.769 105.417 515.967C104.618 519.325 112.83 516.579 107.829 518.626C107.158 521.673 110.162 518.984 111.206 519.835C108.193 524.463 113.544 519.03 112.412 518.385C112.477 517.497 111.11 519.127 110.965 518.868C112.038 516.915 109.428 516.523 111.689 516.45C110.468 514.973 112.926 515.597 112.895 514.033C113.278 514.63 114.694 515.802 115.307 514.758C114.446 514.315 117.886 515.06 116.272 514.033C117.268 513.844 121.371 512.674 118.684 512.582C117.828 510.722 120.197 513.145 120.373 512.098C121.072 511.97 120.066 511.503 119.649 511.856C120.131 508.416 121.755 512.911 122.544 510.406C124.232 509.366 126.613 509.854 127.851 509.68C130.06 509.997 129.826 506.537 130.745 507.746C131.585 507.811 131.505 507.42 131.951 507.262C132.827 506.576 131.295 508.304 132.916 507.988C133.076 509.385 130.697 506.89 131.71 508.713C131.619 508.213 132.193 508.544 131.951 508.955C130.842 508.774 132.147 509.458 131.469 509.439C131.836 510.592 132.164 510.125 130.987 510.406C131.667 506.341 128.885 509.124 130.745 510.647C128.258 508.493 129.517 511.058 129.298 512.824C131.095 513.273 132.115 510.091 132.916 511.615C132.897 511.639 132.077 511.503 132.434 511.856C133.317 511.823 129.766 512.698 131.951 513.549C132.226 512.983 131.98 513.505 132.193 514.033C130.359 515.2 131.295 513.077 129.78 513.549C128.174 514.635 129.008 509.564 126.162 511.373C127.26 513.829 123.304 514.552 124.473 516.209C125.166 516.233 124.498 515.416 124.473 515.241C125.94 516.238 128.468 513.38 129.78 515.725C127.894 514.758 127.219 515.648 128.333 517.176C125.648 516.711 127.81 517.376 127.127 519.11C128.922 519.275 129.759 517.239 130.987 516.45C131.324 515.616 128.671 516.692 130.263 515.967C130.118 515.483 130.297 515.759 130.022 515.483C130.048 515 130.987 515.706 131.469 515.483C130.68 514.296 132.834 514.937 132.434 513.791C133.792 514.714 134.033 513.085 135.087 512.098C135.729 510.831 133.541 511.515 133.64 512.824C132.653 512.724 135.309 510.355 133.64 511.131C135.727 508.786 131.035 510.338 135.329 507.021C135.087 507.731 140.346 507.449 137.982 508.23C134.774 508.389 135.271 511.071 139.671 508.23C140.72 507.722 139.671 505.505 141.118 505.812C141.313 504.832 141.304 506.114 142.083 505.812C142.027 504.18 144.736 503.931 143.048 504.844C143.53 505.522 144.343 505.405 144.254 504.603C144.736 504.857 145.474 505.086 145.219 504.119C148.159 504.513 147.245 502.91 150.043 501.943C149.684 504.494 150.986 502.24 151.249 501.701C151.249 506.929 152.484 501.29 153.662 504.603C153.317 505.328 156.001 505.894 155.109 505.086C155.02 502.296 157.936 505.609 159.692 504.603C158.749 503.041 161.127 502.373 161.139 503.636C159.417 503.07 160.008 503.478 159.933 504.603C160.845 504.134 161.214 505.526 162.104 505.57C162.534 502.34 158.867 502.427 160.898 501.218C161.354 502.62 162.268 502.076 161.381 500.976C162.56 500.734 162.399 500.28 163.069 499.525C163.487 497.027 157.458 499.786 161.139 498.316C163.431 497.221 164.505 501.089 167.17 497.833C166.738 498.892 168.883 498.916 168.617 498.074C166.606 497.107 169.218 497.349 167.652 496.624C167.235 495.279 172.253 495.92 170.547 494.448C171.464 493.904 171.5 493.964 172.959 494.689C173.801 493.272 172.236 492.755 174.407 492.513C175.183 494.223 176.735 492.354 176.819 491.304C179.547 492.832 185.829 489.29 189.363 492.997C190.996 494.958 197.113 498.316 202.63 496.382C202.717 495.098 203.216 494.334 203.112 496.14C204.603 496.786 205.283 495.927 203.836 494.931C204.222 494.387 205.011 493.618 204.801 495.173C206.832 495.555 206.458 492.832 208.419 494.206C208.759 496.365 212.322 493.35 208.902 496.14C210.33 496.486 211.227 501.716 208.902 501.459C208.858 502.717 209.43 503.227 208.178 503.636C207.903 508.188 194.074 511.936 198.529 511.373C197.436 513.324 200.584 512.855 200.218 513.791C197.747 513.119 206.125 518.09 200.218 517.901C200.408 518.868 200.678 517.466 200.941 518.868C199.282 517.596 198.348 521.39 201.182 521.286C201.199 521.417 201.043 522.287 201.424 522.012C200.975 524.891 198.565 522.012 198.77 526.364C197.603 526.286 198.811 527.038 199.011 527.331C199.081 527.931 198.17 527.5 198.047 527.331C197.697 529.826 201.303 526.925 201.665 529.991C204.113 533.431 206.95 532.892 209.384 535.552C211.02 536.635 205.382 535.972 208.419 538.453C211.406 543.383 216.621 545.371 222.651 545.465C223.568 546.367 220.902 547.385 222.893 547.399C223.165 546.686 222.854 547.131 223.616 547.158C222.987 543.935 227.517 542.97 229.647 541.113C230.086 539.904 227.391 540.54 229.164 539.42C230.269 539.551 227.519 537.745 230.612 538.211C230.322 534.534 234.693 526.47 237.848 527.089C237.552 524.413 238.599 528.54 238.813 524.913C238.741 524.891 237.523 524.328 238.331 524.429C238.712 523.254 238.488 525.689 240.502 524.913C240.772 521.997 239.696 521.528 238.09 520.319C239.872 520.198 238.413 519.724 239.296 519.11C239.296 520.583 240.357 519.712 241.226 520.077C242.092 517.877 239.482 518.167 241.226 516.209C242.075 515.295 250.414 514.968 248.462 512.34C249.91 513.856 250.31 513.522 250.151 511.856C250.875 511.91 251.053 513.576 253.046 512.098C253.757 511.387 254.155 510.793 254.975 509.439C256.483 509.044 252.824 512.485 255.217 511.373C256.782 510.725 256.905 511.752 257.629 510.647C257.46 511.997 258.328 511.45 259.05 511.172C258.717 511.639 259.1 511.818 259.317 511.373C259.78 511.373 259.534 511.107 259.233 511.107C259.474 511.032 259.674 511.01 259.8 511.131C259.689 512.688 258.09 511.813 256.905 511.856C257.228 513.111 260.135 513.684 260.282 512.824C263.642 512.284 260.753 510.594 261.73 508.955C263.232 508.868 261.898 507.531 261.247 508.471C261.698 507.374 263.901 507.18 262.453 504.361C261.042 504.603 261.674 504.869 260.765 503.394C261.563 503.021 261.346 503.856 262.453 503.152C262.161 501.943 258.42 503.459 259.076 502.185C254.963 501.88 253.909 497.692 249.427 497.833C250.633 496.962 249.369 496.21 250.392 495.415C246.68 492.772 252.937 487.366 254.01 484.292C252.184 482.157 255.067 483.376 254.252 481.149C254.835 481.432 255.342 481.543 255.217 480.666C255.668 480.465 255.94 480.404 256.181 480.666C256.423 480.518 256.309 480.015 256.905 480.182C258.111 481.826 258.487 479.875 260.041 480.424C261.674 476.964 260.282 481.874 259.076 482.842C258.333 485.141 261.455 487.622 260.282 489.854C258.181 492.255 264.52 495.492 264.624 493.722C262.033 492.187 263.768 484.803 263.659 488.161C266.494 492.462 268.542 490.202 271.62 490.337C270.363 492.332 273.291 489.43 273.067 488.886C278.022 488.103 276.123 497.552 275.72 492.513C275.677 491.761 275.035 492.629 274.997 492.755C273.371 493.364 273.012 495.528 270.655 495.415C269.864 495.594 269.772 497.946 268.484 495.656C267.574 495.105 266.028 498.78 265.83 499.525C267.087 499.303 268.047 499.003 270.172 499.042C285.833 488.161 310.372 503.394 307.562 493.48C313.05 489.987 310.186 484 317.211 482.6C320.545 480.349 316.632 480.784 318.176 478.973C320.535 474.759 328.09 474.478 330.719 478.731C332.509 480.235 328.954 480.361 327.101 479.94C325.596 481.669 328.367 484.657 326.136 485.743C326.184 487.378 327.263 487.339 325.895 488.645C326.175 489.01 326.681 489.261 326.136 489.37C327.972 491.856 323.584 493.572 326.86 494.689C326.486 497.767 329.272 498.181 330.961 497.107C331.233 496.394 330.922 496.839 331.684 496.865C332.085 494.689 333.228 496.193 334.338 495.656C332.874 491.464 344.127 484.101 338.197 482.358C338.021 481.657 338.13 481.618 337.715 480.907C339.765 480.424 336.977 478.453 337.474 478.006C337.377 476.913 338.624 475.895 338.921 474.863C339.927 474.928 340.429 475.9 340.368 474.621C336.793 468.298 350.102 466.884 351.947 468.334C357.57 467.125 354.046 479.377 358.46 474.379C356.434 474.229 358.248 471.765 359.907 472.203C359.642 471.383 361.955 469.502 358.701 469.785C358.19 468.91 358.846 468.008 357.254 468.092C357.351 467.878 357.522 467.706 357.736 467.609C357.527 462.592 356.065 465.179 358.46 463.498C358.786 462.713 358.566 462.306 358.219 461.806C358.554 462.019 359.582 462.205 358.943 461.564C358.783 460.718 359.907 461.453 360.631 461.081C360.916 460.302 360.991 460.012 361.837 460.113C362.51 459.081 362.99 457.212 361.355 455.278C361.676 453.97 362.122 457.391 363.767 456.245C363.695 454.516 362.004 455.157 362.802 454.552C362.452 453.902 362.913 453.878 363.285 454.31C364.192 456.525 363.832 452.05 365.214 454.794C366.806 454.516 367.779 454.265 366.903 452.86H367.627C367.627 450.993 375.242 457.067 371.245 457.937C370.135 460.994 367.641 461.322 365.697 463.015C365.649 464.354 367.173 465.005 365.456 465.191C362.561 464.86 364.58 467.553 361.837 467.609C362.662 468.494 363.198 467.96 364.249 468.818C363.555 471.961 363.943 477.133 362.802 479.215C363.253 479.94 365.752 481.696 363.285 481.391C363.029 482.871 358.125 481.391 362.078 483.325C369.67 490.876 366.621 474.928 379.447 475.588C379.63 474.93 379.504 475.037 380.17 474.863C380.773 476.63 381.046 473.267 382.1 473.412C384.237 473.436 382.734 469.084 384.03 467.851C379.866 460.215 392.255 448.309 399.468 451.651C392.275 439.774 384.358 424.258 394.407 409.821C394.545 407.887 394.687 403.121 397.543 402.568C395.35 397.703 402.435 398.738 403.574 395.556C410.458 375.487 394.685 349.475 406.951 337.768C406.449 335.8 404.734 338.757 406.71 334.625C408.384 335.108 408.531 333.928 408.881 336.075C408.454 336.131 407.8 335.988 408.639 335.834C408.497 335.29 407.88 335.652 407.674 336.075C405.87 336.61 408.024 337.504 408.157 336.559C407.962 337.555 408.914 336.506 409.363 337.043C410.854 337.616 409.122 333.36 413.705 333.174C414.359 333.955 415.377 332.792 416.841 333.174C416.043 334.538 418.008 334.953 418.047 333.658C418.397 333.974 419.031 333.914 418.53 334.383C418.45 334.782 418.701 335.128 418.771 334.625C419.654 335.21 418.599 334.811 418.53 336.075C419.154 336.581 420.218 335.592 419.977 336.559C420.872 336.716 420.119 336.926 419.736 337.043C419.772 338.382 421.605 337.122 420.942 338.493C421.424 338.348 421.149 338.527 421.424 338.251C422.78 341.574 423.627 334.591 420.942 334.625C424.705 334.574 422.01 332.485 420.459 333.658C421.05 332.77 420.201 332.427 419.977 331.723C422.148 333.174 421.931 329.375 420.701 328.338C422.437 328.935 422.758 331.67 423.113 327.855C422.664 327.55 422.5 327.659 422.872 326.887C421.571 327.591 419.95 327.028 420.459 325.437C426.401 322.68 419.036 323.261 419.736 321.568C422.428 321.948 422.08 318.239 423.595 320.843C425.088 317.436 419.535 317.825 423.836 315.523C424.302 315.48 424.193 315.214 424.319 314.798C425.653 315.074 423.836 309.667 425.284 314.314C426.972 314.513 425.653 312.054 425.766 311.896C431.1 317.112 422.667 305.296 427.455 306.819C426.685 308.405 428.987 311.045 429.385 308.511C428.251 308.185 428.589 308.323 428.902 307.061C430.61 307.803 429.363 304.469 433.727 305.852C433.968 304.142 430.832 304.781 434.209 304.401C434.868 302.897 431.471 303.847 432.52 302.225C431.821 301.768 435.246 302.588 434.209 303.192C437.494 302.181 434.802 301.369 433.485 300.532C432.981 299.468 436.226 300.549 436.139 298.356C435.003 298.804 434.981 298.247 434.209 298.114C434.894 298.23 439.873 295.399 436.621 295.697C436.028 296.103 435.755 295.861 434.933 294.971C436.38 294.848 436.932 294.282 435.174 293.52C437.07 292.817 438.04 293.329 438.792 291.103C437.381 291.175 435.975 292.626 435.174 291.828C435.883 291.944 435.939 290.655 436.38 291.344C437.417 291.625 438.43 289.572 437.104 289.894C436.817 289.925 437.757 287.079 438.551 288.685C438.681 289.652 438.882 288.556 439.275 288.201C440.322 290.232 442.075 281.854 438.792 286.509C436.802 287.502 436.744 284.669 439.275 285.541C439.516 284.61 439.668 282.64 440.963 283.607C441.646 280.478 439.142 281.25 439.755 277.321Z" stroke="#101315" mask="url(#path-1-inside-1)"/>
<path d="M566.082 107.396C565.317 107.077 564.662 107.092 564.16 107.403C563.65 107.72 563.367 108.302 563.279 108.969C563.111 108.944 562.954 108.949 562.808 108.986C562.574 109.045 562.391 109.179 562.251 109.355C561.983 109.689 561.853 110.195 561.756 110.697C561.718 110.893 561.685 111.089 561.651 111.285C561.595 111.619 561.539 111.95 561.461 112.272C561.341 112.764 561.181 113.167 560.935 113.43C560.681 113.573 560.543 113.616 560.486 113.629C560.474 113.632 560.466 113.633 560.462 113.634C560.461 113.634 560.46 113.634 560.458 113.634C560.452 113.633 560.445 113.633 560.439 113.634C560.405 113.637 560.217 113.795 560.236 114.01C560.273 114.057 560.329 114.096 560.358 114.113C560.362 114.115 560.377 114.128 560.4 114.161C560.166 114.052 559.895 113.974 559.605 113.917C558.941 113.786 558.106 113.755 557.189 113.798C555.351 113.884 553.137 114.267 551.202 114.786C550.234 115.046 549.332 115.34 548.579 115.651C547.832 115.959 547.211 116.291 546.823 116.632C546.63 116.802 546.474 116.991 546.402 117.202C546.326 117.426 546.354 117.656 546.495 117.861C546.626 118.054 546.847 118.212 547.129 118.346C547.409 118.478 547.772 118.597 548.222 118.702C548.227 118.705 548.232 118.707 548.236 118.71C548.196 118.742 548.14 118.779 548.066 118.822C547.821 118.962 547.463 119.116 547.038 119.299C546.831 119.388 546.607 119.484 546.373 119.588C545.678 119.899 544.912 120.278 544.314 120.75C543.751 121.195 543.299 121.753 543.237 122.449C542.616 122.917 541.698 123.202 540.773 123.251C539.802 123.302 538.885 123.09 538.335 122.626L538.297 122.594L538.251 122.579C537.497 122.336 537.263 122.042 537.191 121.802C537.113 121.543 537.188 121.264 537.276 120.932L537.287 120.892C537.329 120.735 537.376 120.552 537.375 120.381C537.374 120.196 537.317 120.003 537.138 119.857C536.974 119.724 536.74 119.658 536.449 119.631C536.152 119.604 535.762 119.615 535.253 119.667L535.156 119.677L535.091 119.75C534.322 120.624 533.795 121.279 533.477 121.812C533.158 122.349 533.031 122.795 533.11 123.24C533.186 123.67 533.449 124.055 533.785 124.479C533.895 124.618 534.013 124.762 534.14 124.916C534.287 125.094 534.445 125.286 534.613 125.499C533.62 125.256 532.473 125.171 531.283 125.147C530.529 125.132 529.751 125.14 528.977 125.151L528.832 125.152C528.106 125.162 527.386 125.172 526.689 125.163C525.197 125.143 523.839 125.038 522.792 124.68C521.756 124.325 521.056 123.737 520.807 122.756L520.756 122.555L520.549 122.568C509.527 123.244 500.49 130.086 494.003 139.118C487.52 148.142 483.559 159.384 482.687 168.952C482.411 169.89 482.173 170.615 481.959 171.16C481.741 171.715 481.557 172.064 481.397 172.263C481.239 172.46 481.15 172.458 481.107 172.449C481.025 172.432 480.895 172.343 480.704 172.107C480.522 171.881 480.322 171.569 480.086 171.188C480.045 171.122 480.003 171.054 479.96 170.985C479.757 170.657 479.532 170.293 479.279 169.914C478.666 168.993 477.88 167.97 476.819 167.112L476.781 167.082L476.735 167.068C469.076 164.715 462.418 160.669 456.295 156.447C454.464 155.183 452.678 153.903 450.927 152.647C446.837 149.714 442.937 146.917 439.09 144.8C433.585 141.769 428.136 140.097 422.305 141.383C416.509 142.662 410.389 146.852 403.486 155.408C403.124 155.268 402.804 155.017 402.551 154.729C402.26 154.399 402.078 154.042 402.022 153.794C402.001 153.701 402.002 153.645 402.006 153.616C402.068 153.621 402.193 153.662 402.397 153.796C402.595 153.927 402.846 154.131 403.156 154.43L403.355 154.622L403.526 154.404C403.652 154.244 403.731 154.074 403.745 153.895C403.759 153.714 403.704 153.551 403.611 153.412C403.437 153.15 403.114 152.948 402.787 152.782C402.515 152.644 402.205 152.515 401.91 152.392C401.841 152.364 401.773 152.335 401.707 152.307C401.405 152.18 401.136 152.061 400.931 151.94C400.97 150.616 400.711 149.689 400.273 148.987C399.823 148.263 399.198 147.803 398.592 147.394C398.511 147.34 398.431 147.286 398.351 147.233C397.825 146.883 397.334 146.556 396.938 146.101C396.493 145.59 396.164 144.91 396.101 143.838L396.094 143.707L395.981 143.639C391.394 140.878 386.958 141.575 383.76 144.36C380.576 147.132 378.642 151.951 378.958 157.408L378.964 157.513L379.043 157.582C380.216 158.604 381.366 159.222 382.49 159.825C382.641 159.907 382.792 159.988 382.942 160.069C384.202 160.754 385.444 161.495 386.72 162.858C387.29 163.959 388.019 164.449 388.852 164.567C389.661 164.682 390.533 164.437 391.363 164.182C391.441 164.158 391.519 164.134 391.596 164.111C392.365 163.873 393.104 163.644 393.81 163.625C394.546 163.605 395.237 163.813 395.86 164.518C396.182 166.123 397.428 167.312 398.641 168.469L398.726 168.551C400.009 169.775 401.251 170.99 401.639 172.682L401.656 172.756L401.712 172.808C403.137 174.142 404.506 174.584 405.754 174.987C406.027 175.075 406.295 175.161 406.556 175.255C407.284 175.515 407.971 175.831 408.634 176.389C409.261 176.917 409.878 177.671 410.481 178.823C409.565 179.399 408.784 179.898 408.111 180.327C406.975 181.053 406.148 181.581 405.503 181.952C404.451 182.558 403.952 182.7 403.452 182.627C403.191 182.589 402.914 182.49 402.542 182.332C402.419 182.28 402.285 182.222 402.139 182.158C401.853 182.032 401.521 181.886 401.134 181.73C399.952 181.254 398.22 180.665 395.417 180.118L395.299 180.095L395.207 180.173C394.625 180.671 394.222 180.994 393.949 181.183C393.904 181.215 393.862 181.242 393.826 181.266C393.853 181.169 393.887 181.063 393.926 180.943C393.959 180.839 393.995 180.726 394.033 180.601C394.119 180.316 394.204 179.991 394.238 179.67C394.271 179.35 394.255 179.011 394.118 178.711C393.975 178.401 393.715 178.159 393.314 178.022C392.922 177.889 392.401 177.856 391.721 177.939L391.569 177.957L391.516 178.102C390.681 180.397 389.796 181.597 388.961 182.283C388.233 182.883 387.53 183.105 386.861 183.317C386.762 183.348 386.664 183.379 386.567 183.411C386.193 183.534 385.822 183.674 385.488 183.907C385.15 184.143 384.859 184.467 384.629 184.943C384.176 185.88 383.956 187.408 384.023 190.041L384.024 190.075L384.034 190.108C384.154 190.496 384.129 190.799 384.018 191.051C383.903 191.31 383.685 191.543 383.369 191.763C382.805 192.156 382.003 192.462 381.121 192.799C380.996 192.847 380.87 192.895 380.742 192.944C379.736 193.332 378.673 193.775 377.901 194.439C377.173 195.065 376.703 195.89 376.762 197.028C374.021 196.904 372.235 196.185 371.111 195.098C369.95 193.977 369.455 192.425 369.387 190.609C369.319 188.791 369.68 186.735 370.203 184.64C370.571 183.166 371.016 181.686 371.444 180.265C371.6 179.746 371.754 179.235 371.901 178.735C372.551 178.892 373.038 178.829 373.375 178.531C373.734 178.213 373.842 177.693 373.888 177.197C373.912 176.941 373.921 176.669 373.929 176.405L373.929 176.398C373.937 176.133 373.945 175.873 373.966 175.627C374.011 175.118 374.11 174.726 374.327 174.486L374.405 174.4L374.39 174.285C373.789 169.811 372.393 167.104 370.732 165.215C369.517 163.833 368.154 162.89 366.907 162.026C366.466 161.721 366.039 161.425 365.639 161.124C364.098 159.965 362.884 158.69 362.473 156.346C362.056 153.977 362.455 150.489 364.248 144.896L364.275 144.814L364.245 144.733C363.364 142.355 363.322 140.894 363.712 139.959C364.096 139.039 364.931 138.557 366.016 138.218C366.557 138.049 367.144 137.92 367.751 137.787C368.353 137.655 368.973 137.519 369.56 137.337C370.689 136.988 371.743 136.454 372.362 135.394C373.17 135.344 373.718 134.892 374.121 134.331C374.439 133.887 374.683 133.348 374.901 132.867C374.968 132.719 375.033 132.578 375.096 132.446C375.235 132.154 375.369 131.909 375.514 131.727C375.657 131.545 375.795 131.447 375.938 131.414C376.078 131.381 376.268 131.4 376.541 131.55C376.8 131.691 377.115 131.941 377.502 132.339C377.466 132.829 377.518 133.248 377.825 133.502C377.987 133.636 378.193 133.7 378.421 133.725C378.649 133.75 378.921 133.738 379.234 133.705L379.44 133.682L379.457 133.476C379.583 131.917 380.314 130.501 381.305 129.195C382.225 127.984 383.353 126.885 384.404 125.861C384.488 125.779 384.571 125.698 384.654 125.617C385.759 124.539 386.771 123.524 387.249 122.568C387.492 122.083 387.61 121.589 387.515 121.095C387.423 120.614 387.136 120.171 386.646 119.759C385.188 116.691 383.836 115.478 382.858 114.599C382.568 114.339 382.311 114.109 382.094 113.868C381.634 113.36 381.324 112.786 381.222 111.705C381.123 110.653 381.22 109.132 381.575 106.747C382.39 107.112 383.042 107.195 383.582 107.081C384.192 106.953 384.612 106.584 384.935 106.2C385.09 106.016 385.226 105.822 385.35 105.647L385.365 105.626C385.496 105.441 385.61 105.282 385.726 105.154C385.841 105.026 385.942 104.948 386.037 104.911C386.121 104.878 386.217 104.87 386.347 104.914C387.168 105.327 387.815 106.01 388.498 106.731C388.628 106.869 388.76 107.009 388.895 107.148C389.643 107.921 390.468 108.671 391.594 108.964C391.5 109.161 391.459 109.353 391.486 109.541C391.528 109.836 391.724 110.049 391.955 110.204C392.185 110.358 392.484 110.479 392.8 110.583C393.079 110.675 393.386 110.759 393.694 110.843C393.738 110.855 393.782 110.867 393.826 110.879C394.545 111.077 395.231 111.28 395.684 111.591C395.904 111.744 396.05 111.91 396.122 112.097C396.193 112.28 396.204 112.512 396.098 112.823L396 113.11L396.3 113.151C397.295 113.29 398.069 113.258 398.74 113.121C399.409 112.985 399.964 112.748 400.513 112.491C400.606 112.448 400.7 112.404 400.794 112.359C401.756 111.904 402.791 111.414 404.55 111.241C404.775 113.493 405.743 114.753 407.145 115.198C408.563 115.647 410.338 115.231 412.038 114.362C413.747 113.488 415.429 112.133 416.684 110.625C417.923 109.135 418.773 107.461 418.777 105.929C419.143 104.713 419.191 103.795 419.049 102.979C418.913 102.198 418.605 101.524 418.273 100.799L418.228 100.701C417.535 99.1847 416.699 97.2859 416.847 93.3282L416.849 93.2666L416.823 93.211C415.672 90.8053 415.505 89.0284 415.905 87.6297C416.306 86.2279 417.289 85.1566 418.546 84.1904C419.174 83.7078 419.864 83.256 420.575 82.8039C420.737 82.7014 420.899 82.5988 421.062 82.4959C421.616 82.1465 422.176 81.7928 422.717 81.4247C424.116 80.4721 425.422 79.3982 426.223 77.9664L426.251 77.917L426.254 77.8605C426.277 77.5154 426.299 77.169 426.321 76.8213C426.949 67.0844 427.639 56.3834 431.543 46.7474L431.559 46.7099L431.561 46.6694C432.084 38.4806 429.926 32.4284 427.935 26.8442C427.652 26.0495 427.372 25.2644 427.104 24.4838C424.981 18.311 423.569 12.4073 426.821 4.29206C426.833 4.30581 426.845 4.32009 426.857 4.3349C426.964 4.46521 427.079 4.62236 427.202 4.79543C427.229 4.83372 427.257 4.87281 427.285 4.91248C427.507 5.22401 427.753 5.57133 428.009 5.84521C428.154 6.00064 428.31 6.14271 428.478 6.24434C428.646 6.34635 428.838 6.41567 429.046 6.40238C429.415 6.3788 429.716 6.11091 429.97 5.65288C430.528 5.94475 431.035 6.06265 431.499 6.02797C432.03 5.98832 432.474 5.75152 432.848 5.40845C433.58 4.73707 434.083 3.61853 434.515 2.62676C434.539 2.57083 434.563 2.51528 434.587 2.46015C434.78 2.016 434.961 1.59981 435.147 1.2442C435.359 0.839532 435.561 0.548268 435.765 0.389711C435.863 0.313567 435.954 0.273934 436.042 0.261775C436.129 0.249774 436.231 0.261944 436.355 0.318708C436.616 0.43732 436.953 0.740166 437.38 1.34181L437.388 1.35399L437.398 1.36506C442.753 7.26634 447.903 14.2089 453.161 21.3652C453.438 21.7428 453.716 22.1209 453.994 22.4995C458.984 29.2935 464.084 36.238 469.549 42.6112C481.083 56.0595 494.281 67.0102 511.593 68.6613C511.835 68.729 512.066 68.7932 512.285 68.8543C513.574 69.2134 514.48 69.4657 515.139 69.7038C515.911 69.9827 516.298 70.227 516.551 70.5597C516.814 70.9038 516.957 71.369 517.168 72.1674C517.189 72.2494 517.212 72.3344 517.235 72.4226C517.433 73.181 517.693 74.1773 518.157 75.5088L518.185 75.5897L518.257 75.6363C522.125 78.1411 525.807 79.0222 529.282 78.7361C532.753 78.4503 535.995 77.002 538.993 74.886C544.88 70.7305 549.871 63.9642 553.855 58.2121C554.835 59.6813 555.017 61.2727 554.7 62.9448C554.36 64.7365 553.449 66.6124 552.33 68.5043C551.674 69.6134 550.96 70.7082 550.254 71.7903C549.749 72.5639 549.249 73.331 548.777 74.0921C547.665 75.8852 546.728 77.6234 546.379 79.2125C544.991 82.0606 544.698 84.3819 545.017 86.2679C545.337 88.1592 546.268 89.5852 547.274 90.6462C548.17 91.5922 549.133 92.2548 549.775 92.6963C549.851 92.7485 549.923 92.7977 549.989 92.8439C550.111 92.9291 550.213 93.0017 550.293 93.0639C550.27 93.0659 550.246 93.0677 550.219 93.0694L549.984 93.0841L549.985 93.3196C549.989 94.8222 550.349 97.1305 551.024 99.518C551.699 101.906 552.696 104.398 553.989 106.26C555.276 108.113 556.904 109.405 558.845 109.234C560.752 109.065 562.838 107.492 565.088 103.964C565.85 103.953 566.788 103.957 567.688 104.001C568.647 104.049 569.542 104.143 570.136 104.312C570.44 104.398 570.622 104.492 570.705 104.576C570.741 104.612 570.746 104.635 570.747 104.645C570.748 104.656 570.748 104.688 570.711 104.747C570.631 104.878 570.425 105.068 570.01 105.312C569.602 105.551 569.023 105.827 568.234 106.143L568.043 106.22L568.081 106.421C568.089 106.465 568.087 106.491 568.085 106.504C568.083 106.516 568.08 106.519 568.079 106.52C568.076 106.525 568.054 106.548 567.973 106.569C567.893 106.59 567.787 106.6 567.655 106.606C567.577 106.61 567.511 106.611 567.441 106.613C567.378 106.614 567.312 106.616 567.232 106.619C567.086 106.625 566.93 106.636 566.783 106.665C566.638 106.695 566.485 106.746 566.357 106.844C566.221 106.948 566.128 107.095 566.094 107.284C566.088 107.32 566.083 107.357 566.082 107.396Z" stroke="#101315" stroke-width="0.5"/>
<path d="M310.695 358.795L310.528 358.799L310.467 358.955C310.455 358.986 310.406 359.052 310.275 359.138C310.152 359.219 309.984 359.299 309.784 359.37C309.384 359.511 308.893 359.604 308.46 359.604C308.244 359.604 308.051 359.582 307.896 359.536C307.74 359.49 307.639 359.426 307.581 359.357C307.499 359.259 307.434 359.043 307.698 358.581C308.542 358.633 309.112 358.466 309.486 358.096C309.871 357.713 309.989 357.165 310.056 356.634C310.078 356.458 310.094 356.284 310.11 356.111C310.146 355.733 310.181 355.362 310.271 354.997C310.394 354.493 310.614 354.047 311.059 353.709C311.419 353.586 311.689 353.418 311.87 353.209C312.062 352.987 312.141 352.732 312.128 352.476C312.101 351.979 311.735 351.528 311.299 351.262C310.859 350.993 310.273 350.867 309.754 351.121C309.336 351.324 309.019 351.745 308.857 352.405C308.299 351.588 308.118 350.623 308.219 349.583C308.338 348.351 308.854 347.023 309.597 345.75C310.339 344.478 311.299 343.274 312.291 342.29C313.286 341.304 314.3 340.552 315.145 340.172L315.248 340.126L315.281 340.018C315.377 339.709 315.455 339.389 315.529 339.083C315.557 338.967 315.585 338.852 315.613 338.741C315.716 338.33 315.827 337.957 315.99 337.638C316.15 337.324 316.358 337.068 316.656 336.885C316.918 336.725 317.264 336.611 317.737 336.577C318.213 338.961 317.493 340.745 316.69 342.445C316.619 342.595 316.547 342.746 316.475 342.896C315.717 344.475 314.96 346.055 315.278 347.964L315.321 348.224L315.579 348.167C316.77 347.904 317.636 347.884 318.241 348.027C318.834 348.168 319.164 348.462 319.325 348.843C319.491 349.239 319.493 349.772 319.329 350.414C319.166 351.053 318.846 351.771 318.407 352.517C317.529 354.008 316.196 355.573 314.774 356.77C313.341 357.977 311.863 358.77 310.695 358.795Z" stroke="#101315" stroke-width="0.5"/>
<path d="M183.814 530.045L183.873 530.313L184.135 530.228C184.614 530.073 184.957 530.012 185.225 530.007C185.489 530.001 185.692 530.048 185.893 530.122C185.999 530.161 186.111 530.212 186.234 530.268C186.477 530.378 186.766 530.508 187.143 530.612C186.827 530.858 186.442 531.089 186.015 531.309C185.414 531.619 184.749 531.899 184.112 532.163L183.994 532.212C183.404 532.457 182.84 532.691 182.397 532.922C182.16 533.045 181.948 533.172 181.782 533.305C181.62 533.434 181.477 533.588 181.411 533.772C181.274 534.118 180.905 534.572 180.376 535.063C179.852 535.549 179.197 536.048 178.527 536.484C177.857 536.92 177.179 537.289 176.611 537.519C176.326 537.634 176.077 537.711 175.874 537.747C175.663 537.784 175.537 537.769 175.476 537.741L175.124 537.584V537.97C175.124 538.16 175.027 538.333 174.863 538.501C174.716 538.651 174.541 538.772 174.385 538.88C174.365 538.894 174.345 538.908 174.325 538.921C174.252 538.973 174.16 539.037 174.102 539.103C174.076 539.132 174.017 539.203 174.011 539.307C174.004 539.444 174.089 539.533 174.155 539.574C174.213 539.61 174.279 539.627 174.33 539.637C174.386 539.648 174.451 539.655 174.524 539.66C174.605 539.666 174.703 539.669 174.818 539.67C174.553 540.523 173.845 540.805 173.192 541.066C173.152 541.082 173.112 541.097 173.073 541.113C172.892 541.186 172.707 541.265 172.557 541.363C172.404 541.462 172.259 541.598 172.195 541.796C172.13 541.996 172.162 542.211 172.258 542.435C172.299 542.528 172.352 542.627 172.418 542.731C172.252 542.753 172.098 542.812 171.954 542.902C171.659 543.086 171.428 543.392 171.224 543.716C171.105 543.904 170.983 544.122 170.861 544.34C170.777 544.49 170.692 544.64 170.609 544.781C170.394 545.145 170.164 545.49 169.888 545.774L169.831 545.832L169.82 545.912C169.405 548.719 168.965 550.628 168.487 551.85C168.001 553.092 167.515 553.53 167.072 553.59C166.846 553.621 166.589 553.562 166.289 553.399C165.989 553.236 165.662 552.978 165.306 552.638C164.644 552.006 163.915 551.126 163.097 550.138C163.033 550.06 162.968 549.981 162.902 549.902C161.122 547.753 158.942 545.182 156.255 543.824C154.905 543.142 153.422 542.763 151.794 542.898C150.178 543.032 148.439 543.671 146.563 544.992C144.98 545.377 144.04 545.746 143.474 546.104C143.186 546.286 142.988 546.469 142.852 546.657C142.715 546.847 142.649 547.03 142.611 547.197C142.593 547.278 142.581 547.356 142.57 547.424L142.567 547.445C142.558 547.507 142.551 547.558 142.54 547.608C142.518 547.714 142.489 547.791 142.43 547.861C142.303 548.013 141.985 548.199 141.076 548.362L140.942 548.386L140.889 548.512C140.842 548.625 140.753 548.693 140.589 548.73C140.414 548.77 140.189 548.764 139.932 548.743C139.867 548.738 139.799 548.732 139.73 548.725C139.542 548.707 139.346 548.689 139.179 548.69C139.061 548.691 138.938 548.7 138.826 548.733C138.712 548.766 138.593 548.828 138.507 548.943L138.447 549.024L138.46 549.124C138.481 549.291 138.439 549.527 138.336 549.778C138.235 550.026 138.086 550.259 137.928 550.419C137.76 550.589 137.631 550.631 137.559 550.62C137.523 550.615 137.454 550.589 137.377 550.473C137.536 550.431 137.665 550.388 137.767 550.345C137.847 550.311 137.919 550.273 137.978 550.228C138.033 550.187 138.104 550.119 138.132 550.017C138.165 549.895 138.122 549.788 138.06 549.717C138.006 549.656 137.937 549.619 137.882 549.595C137.768 549.547 137.622 549.518 137.472 549.504C137.168 549.474 136.773 549.493 136.424 549.586C136.093 549.675 135.714 549.854 135.579 550.213L135.537 550.326L135.599 550.43C135.761 550.698 135.844 551.015 135.793 551.224C135.771 551.316 135.724 551.384 135.638 551.432C135.545 551.485 135.383 551.525 135.111 551.502L134.969 551.971C135.346 552.177 135.478 552.327 135.52 552.414C135.548 552.474 135.544 552.524 135.494 552.616C135.469 552.661 135.439 552.705 135.402 552.76L135.388 552.78C135.349 552.837 135.298 552.913 135.262 552.994C135.225 553.077 135.194 553.187 135.216 553.311C135.238 553.437 135.308 553.542 135.404 553.629L135.404 553.63L135.414 553.638C135.522 553.727 135.607 553.898 135.64 554.176C135.672 554.448 135.651 554.785 135.586 555.151C135.463 555.84 135.197 556.583 134.922 557.098C134.583 557.2 134.372 557.384 134.289 557.653C134.248 557.787 134.245 557.922 134.253 558.044C134.26 558.15 134.277 558.26 134.292 558.358C134.294 558.37 134.296 558.383 134.298 558.395C134.334 558.63 134.349 558.792 134.3 558.92C134.279 558.974 134.24 559.037 134.155 559.099C134.153 558.98 134.141 558.876 134.119 558.787C134.073 558.604 133.963 558.418 133.74 558.376C133.552 558.341 133.376 558.433 133.251 558.522C133.114 558.619 132.977 558.757 132.847 558.913C132.587 559.226 132.33 559.646 132.154 560.057C132.066 560.263 131.996 560.472 131.957 560.67C131.932 560.798 131.918 560.929 131.925 561.055C131.342 561.429 130.799 561.908 130.457 562.482C130.159 562.98 130.016 563.549 130.13 564.165C129.402 563.928 128.697 563.82 128.098 564.017C127.335 564.269 126.838 564.975 126.641 566.22L126.633 566.273L126.647 566.325C127.037 567.746 127.099 568.673 127.003 569.3C126.91 569.914 126.663 570.252 126.398 570.5C126.282 570.608 126.163 570.699 126.039 570.793C126.015 570.811 125.991 570.829 125.967 570.848C125.823 570.958 125.67 571.08 125.55 571.232C125.424 571.39 125.335 571.579 125.313 571.819C125.295 572.015 125.324 572.235 125.399 572.486C125.351 572.555 125.318 572.632 125.3 572.716C125.272 572.853 125.289 572.991 125.327 573.118C125.402 573.367 125.572 573.632 125.768 573.887C125.967 574.147 126.211 574.42 126.454 574.687C126.501 574.739 126.547 574.789 126.593 574.84C126.791 575.056 126.983 575.267 127.154 575.468C127.365 575.719 127.528 575.939 127.619 576.119C127.716 576.313 127.689 576.378 127.681 576.391C127.665 576.416 127.578 576.498 127.233 576.524C126.931 576.547 126.492 576.522 125.875 576.432C125.548 575.392 125.148 574.736 124.658 574.382C124.127 573.999 123.541 574.003 122.961 574.166C122.451 574.308 121.911 574.583 121.375 574.855C121.314 574.886 121.252 574.918 121.191 574.949C120.609 575.243 120.026 575.522 119.436 575.668C118.815 575.377 118.402 575.061 118.085 574.78C117.98 574.688 117.891 574.604 117.805 574.523C117.749 574.471 117.695 574.42 117.638 574.369C117.503 574.246 117.364 574.129 117.213 574.043C117.056 573.955 116.885 573.899 116.686 573.896C116.492 573.894 116.286 573.942 116.058 574.037C115.645 574.208 115.117 574.55 114.384 575.103C114.072 574.638 114.17 574.023 114.53 573.273C114.819 572.673 115.24 572.06 115.643 571.473C115.804 571.239 115.961 571.01 116.107 570.786C116.355 570.406 116.571 570.037 116.677 569.715C116.782 569.397 116.806 569.031 116.517 568.775C116.386 568.659 116.212 568.588 116.011 568.548C115.809 568.508 115.564 568.496 115.274 568.51C114.74 568.534 114.023 568.647 113.084 568.861C113.041 568.728 112.981 568.592 112.912 568.464C112.794 568.243 112.64 568.024 112.47 567.849C112.307 567.682 112.1 567.525 111.874 567.486C111.753 567.465 111.624 567.477 111.503 567.543C111.385 567.607 111.295 567.71 111.229 567.834L111.091 568.093C111.034 568.073 110.981 568.051 110.932 568.025C110.907 567.957 110.882 567.897 110.855 567.849C110.836 567.815 110.809 567.774 110.772 567.739C110.736 567.704 110.666 567.653 110.567 567.653C110.464 567.653 110.393 567.706 110.356 567.745C110.319 567.783 110.297 567.825 110.283 567.855C110.254 567.916 110.232 567.991 110.215 568.06C110.193 568.15 110.169 568.264 110.145 568.384C110.132 568.448 110.119 568.513 110.105 568.577C110.064 568.768 110.018 568.961 109.958 569.127C109.895 569.299 109.829 569.411 109.767 569.469C109.739 569.494 109.717 569.504 109.701 569.508C109.685 569.511 109.658 569.513 109.612 569.497C109.511 569.463 109.348 569.352 109.117 569.078C108.908 568.83 108.659 568.467 108.364 567.957C108.765 567.936 109.055 567.903 109.243 567.842C109.338 567.811 109.447 567.761 109.521 567.665C109.61 567.55 109.611 567.419 109.577 567.313C109.547 567.221 109.489 567.139 109.436 567.074C109.38 567.005 109.311 566.932 109.239 566.859C109.209 566.829 109.178 566.798 109.147 566.766C109.097 566.715 109.045 566.663 108.992 566.608C109.105 566.559 109.203 566.509 109.287 566.455C109.452 566.35 109.576 566.225 109.644 566.07C109.781 565.758 109.634 565.447 109.518 565.227C109.488 565.17 109.457 565.115 109.427 565.06C109.188 564.624 108.976 564.236 109.257 563.719L109.541 563.196L108.969 563.359C108.897 563.379 108.832 563.398 108.771 563.416C108.562 563.476 108.411 563.519 108.285 563.547C108.129 563.582 108.033 563.589 107.939 563.578C107.839 563.565 107.723 563.53 107.529 563.454C107.441 563.419 107.342 563.379 107.222 563.33L107.188 563.316C107.055 563.261 106.9 563.197 106.717 563.125L106.328 562.971C106.431 562.919 106.568 562.887 106.737 562.876C106.927 562.863 107.14 562.877 107.357 562.904C107.556 562.929 107.75 562.964 107.929 562.996L107.977 563.005C108.16 563.038 108.342 563.07 108.474 563.073C108.531 563.074 108.631 563.073 108.719 563.025C108.772 562.997 108.83 562.946 108.86 562.864C108.888 562.786 108.878 562.714 108.863 562.665C108.836 562.576 108.775 562.498 108.721 562.437C108.673 562.383 108.612 562.323 108.538 562.255C108.477 562.001 108.47 561.835 108.48 561.712C108.489 561.608 108.51 561.534 108.535 561.442C108.544 561.409 108.554 561.373 108.564 561.333C108.602 561.182 108.629 561.012 108.595 560.773C108.576 560.64 108.539 560.489 108.478 560.312C108.755 560.36 108.967 560.375 109.117 560.367C109.175 560.364 109.23 560.357 109.28 560.345C109.325 560.333 109.39 560.312 109.446 560.264C109.514 560.207 109.572 560.103 109.541 559.978C109.517 559.882 109.452 559.824 109.416 559.797C109.339 559.738 109.234 559.7 109.129 559.673C109.018 559.644 108.881 559.623 108.725 559.613C108.486 559.598 108.193 559.609 107.858 559.664L107.637 559.611L107.676 559.698C107.676 559.698 107.676 559.698 107.676 559.698C107.453 559.439 107.395 559.2 107.401 558.983C107.408 558.728 107.503 558.487 107.601 558.237L107.609 558.218C107.656 558.099 107.707 557.966 107.733 557.842C107.759 557.718 107.769 557.559 107.684 557.411C107.598 557.26 107.447 557.177 107.28 557.13C107.113 557.083 106.896 557.063 106.625 557.063H106.023L106.448 557.489C106.496 557.537 106.532 557.571 106.559 557.595C106.56 557.596 106.56 557.597 106.56 557.598C106.563 557.615 106.567 557.635 106.571 557.657C106.36 557.742 106.273 557.727 106.245 557.716C106.211 557.703 106.175 557.665 106.101 557.497C106.096 557.484 106.09 557.471 106.084 557.457C106.025 557.321 105.937 557.116 105.767 556.973C105.714 556.929 105.657 556.893 105.594 556.864C105.985 556.872 106.403 556.905 106.77 556.965C106.991 557.001 107.189 557.047 107.348 557.1C107.513 557.155 107.614 557.211 107.662 557.255L107.896 557.469L107.967 557.342C107.972 557.36 107.978 557.379 107.985 557.398C108.035 557.535 108.125 557.688 108.294 557.781C108.464 557.874 108.669 557.883 108.895 557.827C109.334 557.717 109.961 557.335 110.889 556.535L111.358 556.131L110.74 556.096C110.403 556.077 110.213 556.028 110.114 555.977C110.068 555.954 110.052 555.935 110.049 555.93C110.046 555.926 110.045 555.925 110.045 555.918C110.045 555.89 110.063 555.824 110.138 555.713C110.209 555.609 110.307 555.498 110.414 555.384C110.441 555.355 110.47 555.324 110.499 555.294C110.575 555.214 110.652 555.134 110.71 555.065C110.749 555.018 110.793 554.961 110.823 554.903C110.845 554.86 110.905 554.733 110.837 554.597C110.766 554.453 110.62 554.428 110.558 554.422C110.482 554.414 110.393 554.422 110.3 554.437C110.161 554.46 109.976 554.504 109.735 554.571C109.73 554.541 109.724 554.513 109.717 554.488C109.703 554.437 109.685 554.385 109.657 554.337C109.629 554.289 109.583 554.232 109.509 554.195C109.34 554.113 109.195 554.21 109.143 554.251C109.08 554.301 109.023 554.37 108.978 554.428C108.939 554.478 108.904 554.526 108.87 554.572C108.812 554.65 108.759 554.723 108.697 554.791C108.651 554.608 108.653 554.444 108.688 554.295C108.739 554.08 108.864 553.876 109.05 553.68C109.429 553.283 110.022 552.964 110.589 552.704L110.473 552.227C109.886 552.255 109.321 552.296 108.804 552.333C108.459 552.358 108.135 552.382 107.84 552.399C107.08 552.442 106.501 552.444 106.114 552.35C105.925 552.303 105.808 552.239 105.739 552.169C105.677 552.106 105.636 552.018 105.635 551.874C105.635 551.721 105.68 551.511 105.798 551.227C105.905 550.968 106.068 550.659 106.293 550.292C106.314 550.259 106.336 550.224 106.358 550.187L105.931 549.926C105.91 549.96 105.89 549.992 105.87 550.025C105.827 550.091 105.79 550.139 105.76 550.173C105.755 550.162 105.75 550.15 105.745 550.136C105.696 550.012 105.655 549.844 105.607 549.649C105.603 549.632 105.599 549.614 105.595 549.597C105.576 549.523 105.557 549.445 105.536 549.368C105.57 549.367 105.602 549.366 105.632 549.364C105.755 549.354 105.887 549.325 105.987 549.242C106.106 549.143 106.136 549.01 106.127 548.897C106.12 548.798 106.082 548.702 106.049 548.63C106.024 548.575 105.993 548.514 105.965 548.459C105.955 548.441 105.946 548.423 105.938 548.406C105.901 548.334 105.871 548.27 105.851 548.212C105.82 548.125 105.824 548.087 105.832 548.069C105.969 547.977 106.078 547.9 106.161 547.835C106.246 547.768 106.323 547.701 106.372 547.631C106.398 547.595 106.429 547.542 106.439 547.475C106.451 547.398 106.434 547.32 106.39 547.256C106.351 547.2 106.301 547.168 106.268 547.15C106.234 547.131 106.198 547.118 106.17 547.109C106.135 547.097 106.088 547.084 106.047 547.073C106.029 547.068 106.013 547.064 105.998 547.06C105.992 547.058 105.985 547.056 105.978 547.054C106.069 547.034 106.147 547.016 106.212 547C106.294 546.98 106.361 546.962 106.414 546.945C106.456 546.931 106.521 546.909 106.572 546.87C106.594 546.854 106.668 546.794 106.681 546.684C106.695 546.553 106.614 546.474 106.58 546.446C106.544 546.418 106.507 546.404 106.489 546.397C106.467 546.389 106.445 546.383 106.426 546.378C106.386 546.368 106.325 546.356 106.267 546.345C106.235 546.339 106.203 546.333 106.176 546.328C106.084 546.309 106.002 546.288 105.94 546.261C105.927 546.256 105.917 546.251 105.909 546.247C105.911 546.244 105.913 546.241 105.915 546.237C105.963 546.169 106.071 546.062 106.286 545.912L106.074 545.466C105.96 545.499 105.896 545.512 105.86 545.518C105.845 545.521 105.834 545.522 105.823 545.524L105.816 545.525C105.809 545.526 105.774 545.53 105.739 545.543C105.689 545.561 105.653 545.589 105.629 545.614C105.613 545.63 105.596 545.651 105.592 545.656C105.576 545.675 105.547 545.709 105.485 545.771L105.453 545.802L105.434 545.842C105.346 546.029 105.276 546.142 105.224 546.207C105.194 546.149 105.165 546.07 105.134 545.977C105.121 545.94 105.107 545.894 105.092 545.848C105.072 545.785 105.052 545.72 105.035 545.671C105.018 545.623 104.999 545.573 104.979 545.528C104.959 545.487 104.93 545.431 104.886 545.384C104.841 545.336 104.743 545.26 104.605 545.287C104.487 545.31 104.42 545.394 104.389 545.439C104.338 545.512 104.295 545.618 104.253 545.747C103.5 545.97 102.538 546.263 101.568 546.666C101.567 546.587 101.565 546.513 101.563 546.445C101.559 546.307 101.556 546.187 101.559 546.078C101.563 545.913 101.582 545.82 101.609 545.767C101.626 545.733 101.649 545.706 101.726 545.688C101.82 545.667 101.978 545.665 102.24 545.711L102.314 545.724L102.383 545.694C104.121 544.935 105.42 543.669 106.72 542.403C106.872 542.254 107.025 542.106 107.178 541.958C108.646 540.542 110.199 539.177 112.49 538.45L112.532 538.436L112.568 538.409C114.158 537.179 115.086 536.216 115.614 535.405C116.148 534.584 116.269 533.924 116.258 533.321C116.253 533.07 116.225 532.83 116.199 532.604C116.195 532.566 116.19 532.528 116.186 532.491C116.157 532.228 116.135 531.981 116.149 531.724C116.178 531.224 116.347 530.656 116.951 529.906L117.023 529.817L117.003 529.705C116.829 528.727 116.899 528.311 117.02 528.107C117.077 528.012 117.155 527.946 117.265 527.886C117.344 527.843 117.422 527.81 117.515 527.771C117.568 527.749 117.627 527.724 117.694 527.694C118.045 527.537 118.438 527.299 118.728 526.692C119.003 526.117 119.178 525.228 119.178 523.795C119.673 523.22 120.333 522.76 121.022 522.357C121.369 522.154 121.719 521.968 122.056 521.788L122.088 521.771C122.434 521.587 122.768 521.409 123.062 521.23C123.355 521.052 123.62 520.866 123.825 520.663C124.029 520.461 124.188 520.226 124.237 519.95C124.305 519.566 124.155 519.18 123.807 518.776C123.856 518.775 123.902 518.771 123.946 518.765C124.216 518.725 124.387 518.599 124.518 518.458C124.578 518.394 124.627 518.333 124.672 518.277C124.766 518.161 124.843 518.064 124.971 517.995C124.987 518.025 125.006 518.053 125.027 518.078C125.129 518.203 125.287 518.281 125.429 518.336C125.703 518.44 126.072 518.507 126.378 518.563C126.398 518.567 126.418 518.57 126.438 518.574C126.506 518.586 126.57 518.598 126.629 518.61C126.609 518.617 126.588 518.624 126.567 518.631L126.324 518.713L126.412 518.954C127.233 521.208 127.983 522.879 128.76 524.049C129.539 525.221 130.364 525.916 131.341 526.17C132.312 526.423 133.384 526.227 134.628 525.736C135.837 525.259 137.242 524.489 138.921 523.525C141.809 525.925 145.589 524.711 147.679 522.155C148.747 520.849 149.398 519.172 149.284 517.401C149.183 515.825 148.478 514.198 146.964 512.709C147.519 512.873 147.939 513.199 148.126 513.645L148.163 513.732L148.247 513.773C148.971 514.127 149.547 513.745 149.865 513.535C149.879 513.525 149.893 513.516 149.907 513.507C149.948 513.48 149.981 513.459 150.009 513.442C150.023 513.518 150.033 513.631 150.037 513.796L150.042 514.044L150.29 514.041C150.797 514.035 151.157 513.88 151.43 513.636C151.692 513.402 151.858 513.098 151.999 512.835L152.007 512.819C152.152 512.55 152.273 512.325 152.446 512.156C152.609 511.995 152.829 511.877 153.19 511.864L153.473 511.854L153.428 511.575C153.399 511.395 153.386 511.264 153.384 511.17C153.383 511.126 153.384 511.093 153.387 511.068C153.406 511.07 153.434 511.071 153.463 511.071C153.522 511.07 153.617 511.062 153.707 511C153.801 510.937 153.854 510.842 153.882 510.742C153.882 510.742 153.882 510.741 153.882 510.741C154.366 510.876 154.732 510.849 154.995 510.631C155.145 510.506 155.233 510.34 155.292 510.18C155.349 510.025 155.387 509.853 155.421 509.698L155.423 509.685C155.499 509.342 155.565 509.075 155.731 508.9C155.847 508.778 156.047 508.67 156.446 508.686C156.247 509.14 156.032 509.416 155.927 509.551C155.916 509.566 155.906 509.579 155.897 509.591C155.885 509.606 155.865 509.632 155.85 509.659L155.85 509.66C155.845 509.669 155.823 509.708 155.816 509.76C155.812 509.79 155.81 509.847 155.842 509.909C155.878 509.979 155.937 510.018 155.989 510.035C156.065 510.059 156.13 510.04 156.141 510.037L156.142 510.037C156.163 510.031 156.181 510.024 156.192 510.019C156.216 510.009 156.243 509.996 156.269 509.982C156.289 509.972 156.312 509.96 156.339 509.946C156.455 509.885 156.634 509.791 156.905 509.665L156.989 509.626L157.027 509.541C157.541 508.405 158.138 507.987 158.755 507.876C159.405 507.759 160.135 507.967 160.955 508.232C161.017 508.252 161.079 508.272 161.142 508.293C161.884 508.535 162.688 508.797 163.471 508.786C164.35 508.774 165.192 508.42 165.927 507.409L166.037 507.259L165.924 507.111C165.767 506.905 165.561 506.826 165.383 506.793C165.297 506.777 165.213 506.772 165.146 506.769C165.128 506.768 165.111 506.767 165.096 506.766C165.079 506.766 165.063 506.765 165.048 506.764C165.051 506.757 165.054 506.75 165.057 506.742C165.075 506.696 165.101 506.64 165.135 506.572C165.828 506.702 166.226 506.896 166.461 507.108C166.706 507.329 166.801 507.594 166.844 507.908C166.865 508.067 166.873 508.233 166.881 508.412L166.881 508.419C166.889 508.597 166.898 508.789 166.925 508.979C166.981 509.367 167.115 509.767 167.486 510.106L167.773 510.369L167.893 509.999C168.001 509.664 168.124 509.334 168.259 509.063C168.4 508.784 168.537 508.603 168.659 508.523C168.713 508.487 168.756 508.477 168.792 508.479C168.828 508.481 168.884 508.496 168.963 508.557C169.13 508.686 169.345 508.979 169.598 509.541L169.967 510.362L170.074 509.468C170.095 509.297 170.124 509.18 170.153 509.105C170.159 509.09 170.165 509.077 170.17 509.067C170.181 509.077 170.193 509.091 170.207 509.108C170.294 509.216 170.388 509.405 170.456 509.643C170.51 509.835 170.543 510.045 170.545 510.25C170.341 510.359 170.183 510.468 170.074 510.583C169.937 510.727 169.852 510.913 169.912 511.119C169.964 511.298 170.109 511.423 170.243 511.51C170.384 511.601 170.561 511.682 170.746 511.754C170.998 511.851 171.295 511.944 171.581 512.034C171.713 512.075 171.842 512.116 171.963 512.156C172.16 512.221 172.339 512.284 172.487 512.349C172.639 512.416 172.739 512.475 172.793 512.524L172.819 512.548L172.851 512.564C173.871 513.068 174.64 513.484 175.257 513.818C175.513 513.956 175.743 514.081 175.954 514.191C176.664 514.564 177.174 514.791 177.715 514.831C178.258 514.872 178.802 514.723 179.573 514.427C179.936 514.288 180.367 514.109 180.886 513.894C181.403 513.68 182.006 513.43 182.714 513.147C182.747 513.251 182.762 513.344 182.771 513.424C182.776 513.471 182.778 513.509 182.781 513.547C182.782 513.568 182.783 513.589 182.785 513.612L182.785 513.614C182.789 513.661 182.796 513.749 182.834 513.827C182.858 513.874 182.898 513.926 182.961 513.962C183.023 513.998 183.086 514.006 183.137 514.005C183.227 514.003 183.318 513.969 183.394 513.936C183.468 513.903 183.562 513.857 183.678 513.796C183.398 514.941 183.198 515.945 183.008 516.896C182.966 517.109 182.924 517.319 182.881 517.527C182.621 518.814 182.351 520.039 181.89 521.45L181.881 521.478L181.879 521.507C181.804 522.404 182.018 522.975 182.425 523.379C182.745 523.696 183.177 523.896 183.583 524.083C183.662 524.12 183.74 524.156 183.815 524.192C184.301 524.424 184.76 524.688 185.11 525.17C185.449 525.637 185.704 526.337 185.736 527.474C185.435 527.784 185.192 527.985 185.008 528.127C184.945 528.176 184.897 528.211 184.852 528.245C184.819 528.269 184.787 528.293 184.752 528.319C184.686 528.37 184.613 528.428 184.559 528.494C184.498 528.57 184.45 528.672 184.464 528.798C184.476 528.905 184.53 528.995 184.577 529.064C184.586 529.078 184.597 529.092 184.608 529.107C184.571 529.121 184.54 529.142 184.515 529.167C184.479 529.201 184.459 529.239 184.45 529.257C184.44 529.278 184.432 529.3 184.426 529.317C184.416 529.346 184.406 529.373 184.396 529.405C184.387 529.432 184.378 529.461 184.366 529.496C184.364 529.496 184.363 529.496 184.362 529.496L184.356 529.496C184.299 529.493 184.216 529.488 184.139 529.499C184.056 529.511 183.926 529.55 183.849 529.683C183.779 529.803 183.79 529.938 183.814 530.045ZM108.063 567.516C108.068 567.552 108.071 567.604 108.066 567.676L107.962 567.727C107.854 567.78 107.765 567.818 107.691 567.845C107.691 567.845 107.691 567.845 107.691 567.845C107.707 567.823 107.725 567.8 107.745 567.777C107.81 567.701 107.884 567.63 107.956 567.578C107.992 567.553 108.024 567.533 108.052 567.52C108.056 567.518 108.059 567.516 108.063 567.515C108.063 567.515 108.063 567.516 108.063 567.516ZM110.514 554.92C110.514 554.92 110.512 554.92 110.51 554.919C110.513 554.92 110.514 554.92 110.514 554.92ZM110.379 554.674C110.378 554.674 110.378 554.674 110.378 554.675C110.38 554.668 110.382 554.667 110.379 554.674ZM104.801 545.722C104.803 545.719 104.803 545.72 104.8 545.723L104.801 545.722ZM101.117 546.823L101.139 546.851C100.965 546.929 100.793 547.011 100.622 547.097C99.3365 547.742 98.117 548.628 97.5127 549.87C97.1389 550.04 96.8608 550.133 96.6531 550.174C96.4307 550.219 96.3046 550.203 96.2323 550.177C96.1654 550.154 96.1205 550.113 96.0763 550.052C96.0526 550.019 96.0308 549.982 96.005 549.936C96.0023 549.932 95.9995 549.927 95.9966 549.922C95.9744 549.882 95.9471 549.835 95.9175 549.791C95.8472 549.686 95.7345 549.56 95.5392 549.524C95.3612 549.492 95.1664 549.546 94.9516 549.65C94.6191 549.811 94.1411 550.141 93.4241 550.725C93.87 549.934 94.683 549.397 95.5372 549.012C96.0941 548.762 96.6513 548.584 97.105 548.445C97.155 548.43 97.2041 548.415 97.2519 548.401C97.4183 548.35 97.5697 548.304 97.6944 548.262C97.7752 548.235 97.8498 548.208 97.9137 548.181C97.9744 548.155 98.0403 548.122 98.0941 548.081L98.5884 547.699L98.1993 547.658C98.2804 547.431 98.442 547.109 98.6548 546.931C98.7642 546.839 98.8694 546.799 98.9757 546.807C99.0848 546.816 99.2438 546.878 99.4507 547.09L99.6219 547.266L99.8007 547.098C99.9299 546.977 100.047 546.847 100.147 546.736C100.176 546.703 100.204 546.672 100.231 546.643C100.357 546.505 100.445 546.423 100.521 546.385C100.573 546.358 100.615 546.352 100.688 546.389C100.782 546.437 100.921 546.558 101.117 546.823ZM97.666 547.384C97.6792 547.416 97.6936 547.477 97.6929 547.58C97.6657 547.571 97.6426 547.562 97.6231 547.552C97.5575 547.521 97.5426 547.494 97.5409 547.491L97.5407 547.491C97.54 547.489 97.5385 547.487 97.5413 547.476C97.5452 547.462 97.5569 547.439 97.5805 547.415C97.604 547.391 97.63 547.376 97.6499 547.37C97.653 547.369 97.6557 547.368 97.6579 547.368C97.6601 547.371 97.6629 547.377 97.666 547.384ZM106.08 563.286C106.113 563.15 106.179 563.064 106.27 563.004L106.384 563.423C106.479 563.773 106.391 564.004 106.251 564.162C106.116 564.315 105.916 564.415 105.733 564.459C105.806 564.414 105.898 564.363 106.011 564.307L106.198 564.216L106.142 564.016C106.048 563.674 106.043 563.441 106.08 563.286ZM105.445 564.472C105.445 564.472 105.447 564.472 105.449 564.473C105.446 564.472 105.445 564.472 105.445 564.472ZM104.378 556.749C104.378 556.749 104.378 556.75 104.379 556.751C104.378 556.75 104.378 556.749 104.378 556.749ZM104.782 557.641C104.712 557.535 104.661 557.375 104.693 557.157L104.73 557.212C104.846 557.382 104.916 557.518 104.956 557.624C104.991 557.718 104.999 557.779 104.998 557.812C104.976 557.808 104.945 557.796 104.908 557.771C104.865 557.742 104.821 557.699 104.782 557.641ZM105.891 546.281C105.891 546.281 105.891 546.28 105.892 546.278C105.891 546.28 105.891 546.281 105.891 546.281ZM105.166 546.266C105.166 546.266 105.167 546.266 105.168 546.265C105.167 546.266 105.166 546.267 105.166 546.266ZM126.983 518.451C126.984 518.451 126.983 518.452 126.981 518.454C126.982 518.452 126.983 518.451 126.983 518.451ZM150.097 513.398C150.097 513.398 150.096 513.399 150.094 513.399C150.096 513.398 150.097 513.398 150.097 513.398Z" stroke="#101315" stroke-width="0.5"/>
</g>
<defs>
<clipPath id="clip0">
<rect width="571" height="647.735" fill="white"/>
</clipPath>
</defs>
</svg>
