<svg width="121" height="188" viewBox="0 0 121 188" fill="none" xmlns="http://www.w3.org/2000/svg">
<path d="M83 172V1H0" stroke="black"/>
<mask id="mask0" style="mask-type:alpha" maskUnits="userSpaceOnUse" x="41" y="103" width="80" height="85">
<path d="M120.993 114.519C119.987 114.057 120.528 113.171 119.446 112.638C119.353 112.039 118.593 112.401 118.433 111.864C117.402 111.489 115.467 112.15 115.235 110.448C114.989 109.89 114.881 109.673 114.527 110.205C113.905 109.226 115.159 107.865 114.665 106.545C114.286 105.84 115.781 104.995 114.315 104.908C113.678 104.391 112.754 104.817 112.033 104.414C111.787 103.789 111.207 103.724 110.633 103.812C107.928 100.609 107.069 107.899 105.589 109.877C105.289 113.873 105.707 117.562 104.113 121.036C101.818 125.667 97.9788 129.191 93.3178 130.226C90.2064 131.931 85.693 134.537 83.4942 137.888C81.4994 144.035 81.6667 147.605 76.4622 152.094C76.0121 155.679 73.5106 157.847 70.6181 159.342C68.2102 161.533 65.5735 164.395 63.2836 165.952C61.6873 166.947 59.791 166.492 58.1012 166.164C54.1659 170.635 48.558 172.363 43.0632 174.355C39.9494 175.026 44.5832 176.137 44.7087 177.271C44.0815 179.079 45.6433 180.177 45.0014 182.06C45.6581 182.269 45.7737 183.641 45.6458 184.054C47.0306 185.924 49.1999 181.102 50.1075 179.999C49.0425 177.113 50.0854 178.818 51.603 177.831C52.1514 177.811 52.8131 178.304 53.1451 178.648C53.6936 178.105 55.2112 178.255 55.1251 179.208C56.2762 179.149 55.4645 180.086 55.0661 180.758C55.2973 181.249 54.8521 181.856 54.6578 182.217C55.2259 182.651 55.9146 182.992 56.3992 183.411C57.5355 182.662 57.811 180.613 59.7541 181.435C61.2446 181.858 63.7214 178.981 64.1543 181.851C65.667 181.001 63.9083 178.376 66.0285 177.855C67.8855 178.725 67.3813 174.034 69.5728 174.29C70.4878 173.378 71.8824 173.887 72.8957 173.218C73.4688 173.329 74.0444 173.67 74.6863 173.644C75.7169 175.073 74.9667 177.261 75.7735 178.88C76.7868 178.65 76.2924 179.565 76.7893 180.061C78.0191 180.753 79.9868 181.135 78.6512 182.941C79.8687 183.597 78.6512 184.421 78.2454 185.085C78.816 185.433 79.2735 185.95 79.1677 186.764C79.9425 187.634 79.9843 185.976 80.2745 185.627C80.9952 185.692 82.4882 187.381 82.685 185.937C84.1189 185.599 83.8361 184.519 83.6442 183.147C84.815 183.406 86.1604 182.757 87.3582 182.372C87.0114 181.802 87.0434 181.236 86.9893 180.544C87.2844 178.531 89.8867 180.96 89.0357 178.322C86.822 173.226 92.8505 177.607 93.217 171.95C94.0016 172.208 94.1762 172.774 94.496 173.526C95.165 174.184 96.2497 174.755 95.9594 175.954C96.3579 177.222 98.1165 175.843 98.0624 177.336C98.087 177.336 98.3305 177.299 98.3698 177.206C98.665 176.023 98.9479 175.019 98.3698 173.952C98.8396 173.035 99.0315 172.237 98.5051 171.304C97.4819 169.902 98.847 168.114 98.3723 166.784C97.0589 162.651 97.7303 168.031 95.5782 163.71C96.0037 161.995 98.0944 160.995 97.4475 159.125C98.9454 157.764 97.5434 156.656 96.8031 155.561C97.2335 154.086 97.4623 153.585 99.0635 153.791C100.704 152.988 102.613 153.29 104.047 152.952C104.229 148.909 105.832 151.72 107.097 150.86C108.191 150.617 109.994 152.048 110.419 150.214C109.155 149.583 110.036 147.946 109.517 146.843C108.585 146.285 109.187 145.27 109.037 144.459C109.558 144.339 110.034 144.064 110.41 143.666C111.115 143.717 110.938 142.4 111.762 142.56C111.826 142.465 111.379 142.08 111.561 141.824C112.766 139.9 114.18 137.846 115.683 136.469C114.67 135.436 115.08 134.78 113.558 135.268C111.905 133.894 111.389 132.388 112.252 130.327C112.102 128.886 112.643 127.803 112.803 126.424C113.034 126.415 113.259 126.34 113.453 126.207C113.647 126.073 113.802 125.887 113.902 125.667C114.104 124.376 112.483 124.187 113.966 122.976C114.045 121.912 113.423 120.744 113.671 119.77C115.026 117.657 114.935 119.194 117.078 119.186C118.639 117.952 121.111 116.637 120.993 114.519Z" fill="#101315"/>
</mask>
<g mask="url(#mask0)">
<path d="M83 172V137.5" stroke="#F8F5F0"/>
</g>
</svg>
