<svg width="571" height="648" viewBox="0 0 571 648" fill="none" xmlns="http://www.w3.org/2000/svg">
<path d="M358 450.5C358 451.328 357.328 452 356.5 452C355.672 452 355 451.328 355 450.5C355 449.672 355.672 449 356.5 449C357.328 449 358 449.672 358 450.5Z" fill="black"/>
<path d="M369.701 443.182C369.132 443.182 368.637 443.047 368.217 442.776C367.807 442.505 367.489 442.146 367.265 441.698C367.041 441.241 366.929 440.751 366.929 440.228C366.929 439.743 367.018 439.323 367.195 438.968C367.382 438.613 367.625 438.324 367.923 438.1C368.222 437.867 368.549 437.694 368.903 437.582C369.258 437.47 369.608 437.414 369.953 437.414C370.532 437.414 371.027 437.554 371.437 437.834C371.848 438.114 372.161 438.473 372.375 438.912C372.599 439.351 372.711 439.813 372.711 440.298C372.711 440.886 372.571 441.399 372.291 441.838C372.011 442.267 371.643 442.599 371.185 442.832C370.737 443.065 370.243 443.182 369.701 443.182ZM370.107 442.916C370.565 442.916 370.919 442.739 371.171 442.384C371.433 442.02 371.563 441.469 371.563 440.732C371.563 440.107 371.47 439.57 371.283 439.122C371.097 438.665 370.845 438.315 370.527 438.072C370.219 437.82 369.869 437.694 369.477 437.694C369.02 437.694 368.665 437.871 368.413 438.226C368.171 438.571 368.049 439.085 368.049 439.766C368.049 440.354 368.138 440.891 368.315 441.376C368.493 441.852 368.735 442.23 369.043 442.51C369.351 442.781 369.706 442.916 370.107 442.916Z" fill="black"/>
<path d="M366.473 437.596C366.501 437.596 366.515 437.624 366.515 437.68C366.515 437.736 366.501 437.764 366.473 437.764C366.211 437.764 365.987 437.862 365.801 438.058C365.623 438.254 365.46 438.558 365.311 438.968L363.645 443.392C363.309 444.288 362.987 444.993 362.679 445.506C362.371 446.029 362.053 446.398 361.727 446.612C361.4 446.827 361.041 446.934 360.649 446.934C360.434 446.934 360.257 446.883 360.117 446.78C359.967 446.687 359.893 446.542 359.893 446.346C359.893 446.178 359.944 446.052 360.047 445.968C360.149 445.894 360.266 445.856 360.397 445.856C360.574 445.856 360.709 445.884 360.803 445.94C360.896 445.996 360.989 446.052 361.083 446.108C361.176 446.164 361.297 446.192 361.447 446.192C361.671 446.192 361.885 446.09 362.091 445.884C362.296 445.679 362.515 445.329 362.749 444.834C362.982 444.349 363.253 443.682 363.561 442.832L363.547 443.35L361.279 438.758C361.073 438.348 360.91 438.082 360.789 437.96C360.677 437.83 360.537 437.764 360.369 437.764C360.341 437.764 360.327 437.736 360.327 437.68C360.327 437.624 360.341 437.596 360.369 437.596C360.527 437.596 360.695 437.601 360.873 437.61C361.05 437.62 361.218 437.624 361.377 437.624C361.694 437.624 361.969 437.62 362.203 437.61C362.445 437.601 362.665 437.596 362.861 437.596C362.879 437.596 362.889 437.624 362.889 437.68C362.889 437.736 362.879 437.764 362.861 437.764C362.553 437.764 362.329 437.802 362.189 437.876C362.058 437.951 362.044 438.096 362.147 438.31L364.037 442.16L363.645 442.818L364.975 438.996C365.124 438.567 365.124 438.254 364.975 438.058C364.835 437.862 364.536 437.764 364.079 437.764C364.06 437.764 364.051 437.736 364.051 437.68C364.051 437.624 364.06 437.596 364.079 437.596C364.303 437.596 364.513 437.601 364.709 437.61C364.914 437.62 365.175 437.624 365.493 437.624C365.698 437.624 365.866 437.62 365.997 437.61C366.137 437.601 366.295 437.596 366.473 437.596Z" fill="black"/>
<path d="M353.856 443C353.837 443 353.828 442.972 353.828 442.916C353.828 442.86 353.837 442.832 353.856 442.832C354.201 442.832 354.425 442.771 354.528 442.65C354.64 442.519 354.696 442.258 354.696 441.866V434.67C354.696 434.343 354.663 434.105 354.598 433.956C354.542 433.807 354.434 433.732 354.276 433.732C354.136 433.732 353.93 433.793 353.66 433.914C353.632 433.933 353.604 433.914 353.576 433.858C353.548 433.802 353.548 433.769 353.576 433.76L355.424 432.864C355.452 432.855 355.475 432.85 355.494 432.85C355.522 432.85 355.554 432.864 355.592 432.892C355.629 432.92 355.648 432.953 355.648 432.99V441.866C355.648 442.258 355.704 442.519 355.816 442.65C355.928 442.771 356.156 442.832 356.502 442.832C356.53 442.832 356.544 442.86 356.544 442.916C356.544 442.972 356.53 443 356.502 443C356.324 443 356.124 442.995 355.9 442.986C355.676 442.977 355.438 442.972 355.186 442.972C354.934 442.972 354.691 442.977 354.458 442.986C354.234 442.995 354.033 443 353.856 443ZM357.384 443C357.356 443 357.342 442.972 357.342 442.916C357.342 442.86 357.356 442.832 357.384 442.832C357.692 442.832 357.888 442.785 357.972 442.692C358.056 442.589 358.032 442.445 357.902 442.258L356.152 439.92L356.894 439.36L358.756 441.866C359.017 442.221 359.278 442.473 359.54 442.622C359.81 442.762 360.081 442.832 360.352 442.832C360.37 442.832 360.38 442.86 360.38 442.916C360.38 442.972 360.37 443 360.352 443C360.174 443 359.974 442.995 359.75 442.986C359.526 442.977 359.283 442.972 359.022 442.972C358.667 442.972 358.359 442.977 358.098 442.986C357.836 442.995 357.598 443 357.384 443ZM355.326 440.732L355.256 440.564L357.356 438.772C357.682 438.501 357.818 438.268 357.762 438.072C357.706 437.867 357.468 437.764 357.048 437.764C357.029 437.764 357.02 437.736 357.02 437.68C357.02 437.624 357.029 437.596 357.048 437.596C357.281 437.596 357.514 437.601 357.748 437.61C357.981 437.619 358.298 437.624 358.7 437.624C359.064 437.624 359.353 437.619 359.568 437.61C359.782 437.601 359.988 437.596 360.184 437.596C360.202 437.596 360.212 437.624 360.212 437.68C360.212 437.736 360.202 437.764 360.184 437.764C359.96 437.764 359.708 437.801 359.428 437.876C359.148 437.941 358.854 438.053 358.546 438.212C358.247 438.371 357.948 438.576 357.65 438.828L355.326 440.732Z" fill="black"/>
<path d="M350.028 443.182C349.458 443.182 348.964 443.047 348.544 442.776C348.133 442.505 347.816 442.146 347.592 441.698C347.368 441.241 347.256 440.751 347.256 440.228C347.256 439.743 347.344 439.323 347.522 438.968C347.708 438.613 347.951 438.324 348.25 438.1C348.548 437.867 348.875 437.694 349.23 437.582C349.584 437.47 349.934 437.414 350.28 437.414C350.858 437.414 351.353 437.554 351.764 437.834C352.174 438.114 352.487 438.473 352.702 438.912C352.926 439.351 353.038 439.813 353.038 440.298C353.038 440.886 352.898 441.399 352.618 441.838C352.338 442.267 351.969 442.599 351.512 442.832C351.064 443.065 350.569 443.182 350.028 443.182ZM350.434 442.916C350.891 442.916 351.246 442.739 351.498 442.384C351.759 442.02 351.89 441.469 351.89 440.732C351.89 440.107 351.796 439.57 351.61 439.122C351.423 438.665 351.171 438.315 350.854 438.072C350.546 437.82 350.196 437.694 349.804 437.694C349.346 437.694 348.992 437.871 348.74 438.226C348.497 438.571 348.376 439.085 348.376 439.766C348.376 440.354 348.464 440.891 348.642 441.376C348.819 441.852 349.062 442.23 349.37 442.51C349.678 442.781 350.032 442.916 350.434 442.916Z" fill="black"/>
<path d="M341.786 434.53C341.207 434.53 340.755 434.693 340.428 435.02C340.101 435.337 339.859 435.851 339.7 436.56C339.691 436.579 339.658 436.588 339.602 436.588C339.555 436.588 339.532 436.574 339.532 436.546C339.551 436.425 339.569 436.252 339.588 436.028C339.616 435.804 339.639 435.561 339.658 435.3C339.677 435.039 339.691 434.787 339.7 434.544C339.719 434.301 339.728 434.101 339.728 433.942C339.728 433.895 339.756 433.872 339.812 433.872C339.868 433.872 339.896 433.895 339.896 433.942C339.896 434.035 339.943 434.105 340.036 434.152C340.129 434.189 340.237 434.217 340.358 434.236C340.479 434.245 340.582 434.25 340.666 434.25C341.469 434.278 342.407 434.292 343.48 434.292C344.133 434.292 344.656 434.287 345.048 434.278C345.44 434.259 345.818 434.25 346.182 434.25C346.499 434.25 346.742 434.231 346.91 434.194C347.087 434.147 347.199 434.049 347.246 433.9C347.255 433.863 347.283 433.844 347.33 433.844C347.386 433.844 347.414 433.863 347.414 433.9C347.395 434.04 347.377 434.236 347.358 434.488C347.349 434.74 347.335 435.001 347.316 435.272C347.307 435.543 347.297 435.795 347.288 436.028C347.279 436.261 347.274 436.434 347.274 436.546C347.274 436.574 347.246 436.588 347.19 436.588C347.143 436.588 347.12 436.574 347.12 436.546C347.055 435.818 346.868 435.3 346.56 434.992C346.252 434.684 345.795 434.53 345.188 434.53C344.861 434.53 344.614 434.553 344.446 434.6C344.287 434.637 344.18 434.717 344.124 434.838C344.077 434.959 344.054 435.151 344.054 435.412V441.866C344.054 442.137 344.082 442.342 344.138 442.482C344.203 442.622 344.325 442.715 344.502 442.762C344.689 442.809 344.973 442.832 345.356 442.832C345.375 442.832 345.384 442.86 345.384 442.916C345.384 442.972 345.375 443 345.356 443C345.104 443 344.819 442.995 344.502 442.986C344.194 442.977 343.853 442.972 343.48 442.972C343.125 442.972 342.789 442.977 342.472 442.986C342.164 442.995 341.879 443 341.618 443C341.59 443 341.576 442.972 341.576 442.916C341.576 442.86 341.59 442.832 341.618 442.832C341.982 442.832 342.257 442.809 342.444 442.762C342.64 442.715 342.771 442.622 342.836 442.482C342.901 442.342 342.934 442.137 342.934 441.866V435.384C342.934 435.132 342.906 434.945 342.85 434.824C342.794 434.693 342.682 434.614 342.514 434.586C342.346 434.549 342.103 434.53 341.786 434.53Z" fill="black"/>
<path d="M225 487.5C225 488.328 224.328 489 223.5 489C222.672 489 222 488.328 222 487.5C222 486.672 222.672 486 223.5 486C224.328 486 225 486.672 225 487.5Z" fill="black"/>
<path d="M235.184 480.182C234.615 480.182 234.12 480.047 233.7 479.776C233.289 479.505 232.972 479.146 232.748 478.698C232.524 478.241 232.412 477.751 232.412 477.228C232.412 476.743 232.501 476.323 232.678 475.968C232.865 475.613 233.107 475.324 233.406 475.1C233.705 474.867 234.031 474.694 234.386 474.582C234.741 474.47 235.091 474.414 235.436 474.414C236.015 474.414 236.509 474.554 236.92 474.834C237.331 475.114 237.643 475.473 237.858 475.912C238.082 476.351 238.194 476.813 238.194 477.298C238.194 477.886 238.054 478.399 237.774 478.838C237.494 479.267 237.125 479.599 236.668 479.832C236.22 480.065 235.725 480.182 235.184 480.182ZM235.59 479.916C236.047 479.916 236.402 479.739 236.654 479.384C236.915 479.02 237.046 478.469 237.046 477.732C237.046 477.107 236.953 476.57 236.766 476.122C236.579 475.665 236.327 475.315 236.01 475.072C235.702 474.82 235.352 474.694 234.96 474.694C234.503 474.694 234.148 474.871 233.896 475.226C233.653 475.571 233.532 476.085 233.532 476.766C233.532 477.354 233.621 477.891 233.798 478.376C233.975 478.852 234.218 479.23 234.526 479.51C234.834 479.781 235.189 479.916 235.59 479.916Z" fill="black"/>
<path d="M229.809 480.168C229.585 480.168 229.366 480.131 229.151 480.056C228.937 479.991 228.759 479.869 228.619 479.692C228.489 479.515 228.423 479.277 228.423 478.978V475.744C228.423 475.529 228.405 475.366 228.367 475.254C228.33 475.142 228.26 475.067 228.157 475.03C228.055 474.993 227.901 474.974 227.695 474.974C227.667 474.974 227.653 474.941 227.653 474.876C227.653 474.801 227.667 474.764 227.695 474.764C228.106 474.755 228.437 474.657 228.689 474.47C228.951 474.274 229.114 474.008 229.179 473.672C229.189 473.644 229.226 473.63 229.291 473.63C229.357 473.63 229.389 473.644 229.389 473.672V478.502C229.389 478.885 229.483 479.165 229.669 479.342C229.865 479.519 230.131 479.608 230.467 479.608C230.701 479.608 230.911 479.566 231.097 479.482C231.293 479.398 231.452 479.309 231.573 479.216C231.611 479.188 231.643 479.197 231.671 479.244C231.709 479.281 231.709 479.314 231.671 479.342C231.326 479.631 231.009 479.841 230.719 479.972C230.43 480.103 230.127 480.168 229.809 480.168ZM231.251 475.282C230.878 475.198 230.519 475.142 230.173 475.114C229.828 475.086 229.464 475.072 229.081 475.072V474.75C229.455 474.75 229.814 474.736 230.159 474.708C230.514 474.68 230.892 474.647 231.293 474.61C231.321 474.61 231.345 474.643 231.363 474.708C231.382 474.773 231.391 474.848 231.391 474.932C231.391 475.007 231.377 475.086 231.349 475.17C231.321 475.254 231.289 475.291 231.251 475.282Z" fill="black"/>
<path d="M223.7 480.182C223.13 480.182 222.636 480.047 222.216 479.776C221.805 479.505 221.488 479.146 221.264 478.698C221.04 478.241 220.928 477.751 220.928 477.228C220.928 476.743 221.016 476.323 221.194 475.968C221.38 475.613 221.623 475.324 221.922 475.1C222.22 474.867 222.547 474.694 222.902 474.582C223.256 474.47 223.606 474.414 223.952 474.414C224.53 474.414 225.025 474.554 225.436 474.834C225.846 475.114 226.159 475.473 226.374 475.912C226.598 476.351 226.71 476.813 226.71 477.298C226.71 477.886 226.57 478.399 226.29 478.838C226.01 479.267 225.641 479.599 225.184 479.832C224.736 480.065 224.241 480.182 223.7 480.182ZM224.106 479.916C224.563 479.916 224.918 479.739 225.17 479.384C225.431 479.02 225.562 478.469 225.562 477.732C225.562 477.107 225.468 476.57 225.282 476.122C225.095 475.665 224.843 475.315 224.526 475.072C224.218 474.82 223.868 474.694 223.476 474.694C223.018 474.694 222.664 474.871 222.412 475.226C222.169 475.571 222.048 476.085 222.048 476.766C222.048 477.354 222.136 477.891 222.314 478.376C222.491 478.852 222.734 479.23 223.042 479.51C223.35 479.781 223.704 479.916 224.106 479.916Z" fill="black"/>
<path d="M220.471 474.596C220.499 474.596 220.513 474.624 220.513 474.68C220.513 474.736 220.499 474.764 220.471 474.764C220.209 474.764 219.985 474.862 219.799 475.058C219.621 475.254 219.458 475.557 219.309 475.968L217.643 480.392C217.307 481.288 216.985 481.993 216.677 482.506C216.369 483.029 216.051 483.397 215.725 483.612C215.398 483.827 215.039 483.934 214.647 483.934C214.432 483.934 214.255 483.883 214.115 483.78C213.965 483.687 213.891 483.542 213.891 483.346C213.891 483.178 213.942 483.052 214.045 482.968C214.147 482.893 214.264 482.856 214.395 482.856C214.572 482.856 214.707 482.884 214.801 482.94C214.894 482.996 214.987 483.052 215.081 483.108C215.174 483.164 215.295 483.192 215.445 483.192C215.669 483.192 215.883 483.089 216.089 482.884C216.294 482.679 216.513 482.329 216.747 481.834C216.98 481.349 217.251 480.681 217.559 479.832L217.545 480.35L215.277 475.758C215.071 475.347 214.908 475.081 214.787 474.96C214.675 474.829 214.535 474.764 214.367 474.764C214.339 474.764 214.325 474.736 214.325 474.68C214.325 474.624 214.339 474.596 214.367 474.596C214.525 474.596 214.693 474.601 214.871 474.61C215.048 474.619 215.216 474.624 215.375 474.624C215.692 474.624 215.967 474.619 216.201 474.61C216.443 474.601 216.663 474.596 216.859 474.596C216.877 474.596 216.887 474.624 216.887 474.68C216.887 474.736 216.877 474.764 216.859 474.764C216.551 474.764 216.327 474.801 216.187 474.876C216.056 474.951 216.042 475.095 216.145 475.31L218.035 479.16L217.643 479.818L218.973 475.996C219.122 475.567 219.122 475.254 218.973 475.058C218.833 474.862 218.534 474.764 218.077 474.764C218.058 474.764 218.049 474.736 218.049 474.68C218.049 474.624 218.058 474.596 218.077 474.596C218.301 474.596 218.511 474.601 218.707 474.61C218.912 474.619 219.173 474.624 219.491 474.624C219.696 474.624 219.864 474.619 219.995 474.61C220.135 474.601 220.293 474.596 220.471 474.596Z" fill="black"/>
<path d="M207.624 478.866V472.384C207.624 472.113 207.596 471.913 207.54 471.782C207.484 471.642 207.372 471.549 207.204 471.502C207.045 471.446 206.807 471.418 206.49 471.418C206.462 471.418 206.448 471.39 206.448 471.334C206.448 471.278 206.462 471.25 206.49 471.25C206.723 471.25 206.98 471.259 207.26 471.278C207.549 471.287 207.853 471.292 208.17 471.292C208.506 471.292 208.814 471.287 209.094 471.278C209.383 471.259 209.64 471.25 209.864 471.25C209.883 471.25 209.892 471.278 209.892 471.334C209.892 471.39 209.883 471.418 209.864 471.418C209.537 471.418 209.295 471.446 209.136 471.502C208.977 471.558 208.87 471.656 208.814 471.796C208.758 471.936 208.73 472.141 208.73 472.412V478.866C208.73 479.137 208.753 479.342 208.8 479.482C208.856 479.622 208.963 479.715 209.122 479.762C209.29 479.809 209.537 479.832 209.864 479.832C209.892 479.832 209.906 479.86 209.906 479.916C209.906 479.972 209.892 480 209.864 480C209.631 480 209.374 479.995 209.094 479.986C208.814 479.977 208.506 479.972 208.17 479.972C207.853 479.972 207.545 479.977 207.246 479.986C206.957 479.995 206.695 480 206.462 480C206.443 480 206.434 479.972 206.434 479.916C206.434 479.86 206.443 479.832 206.462 479.832C206.789 479.832 207.036 479.809 207.204 479.762C207.372 479.715 207.484 479.622 207.54 479.482C207.596 479.342 207.624 479.137 207.624 478.866ZM211.18 477.97L209.052 475.24L209.892 474.512L211.964 477.214C212.365 477.746 212.706 478.18 212.986 478.516C213.266 478.852 213.499 479.113 213.686 479.3C213.882 479.477 214.05 479.608 214.19 479.692C214.339 479.767 214.479 479.809 214.61 479.818C214.75 479.827 214.904 479.832 215.072 479.832C215.1 479.832 215.114 479.86 215.114 479.916C215.114 479.972 215.1 480 215.072 480C214.661 480 214.33 480 214.078 480C213.826 480 213.635 480 213.504 480C213.299 480 213.14 480 213.028 480C212.916 480.009 212.823 479.991 212.748 479.944C212.673 479.897 212.58 479.809 212.468 479.678C212.356 479.538 212.202 479.333 212.006 479.062C211.81 478.791 211.535 478.427 211.18 477.97ZM208.002 476.108L211.6 472.482C211.955 472.127 212.099 471.861 212.034 471.684C211.969 471.507 211.698 471.418 211.222 471.418C211.194 471.418 211.18 471.39 211.18 471.334C211.18 471.278 211.194 471.25 211.222 471.25C211.455 471.25 211.693 471.259 211.936 471.278C212.179 471.287 212.501 471.292 212.902 471.292C213.294 471.292 213.602 471.287 213.826 471.278C214.059 471.259 214.279 471.25 214.484 471.25C214.512 471.25 214.526 471.278 214.526 471.334C214.526 471.39 214.512 471.418 214.484 471.418C214.12 471.418 213.705 471.511 213.238 471.698C212.781 471.875 212.351 472.165 211.95 472.566L208.352 476.122L208.002 476.108Z" fill="black"/>
<path d="M257 420.5C257 421.328 256.328 422 255.5 422C254.672 422 254 421.328 254 420.5C254 419.672 254.672 419 255.5 419C256.328 419 257 419.672 257 420.5Z" fill="black"/>
<path d="M261.164 415.084C261.127 415.103 261.085 415.112 261.038 415.112C260.898 415.112 260.763 415.009 260.632 414.804C260.511 414.589 260.45 414.286 260.45 413.894V411.43C260.45 411.019 260.413 410.693 260.338 410.45C260.273 410.207 260.175 410.035 260.044 409.932C259.923 409.82 259.778 409.764 259.61 409.764C259.405 409.764 259.232 409.815 259.092 409.918C258.952 410.021 258.845 410.161 258.77 410.338C258.705 410.506 258.658 410.693 258.63 410.898C258.612 411.075 258.556 411.225 258.462 411.346C258.378 411.458 258.229 411.514 258.014 411.514C257.846 411.514 257.716 411.472 257.622 411.388C257.529 411.304 257.482 411.187 257.482 411.038C257.482 410.861 257.571 410.683 257.748 410.506C257.926 410.319 258.15 410.147 258.42 409.988C258.691 409.829 258.971 409.703 259.26 409.61C259.559 409.517 259.834 409.47 260.086 409.47C260.46 409.47 260.772 409.596 261.024 409.848C261.276 410.091 261.402 410.478 261.402 411.01V413.488C261.402 413.796 261.444 414.025 261.528 414.174C261.612 414.323 261.748 414.398 261.934 414.398C262.093 414.398 262.298 414.347 262.55 414.244C262.588 414.225 262.616 414.244 262.634 414.3C262.662 414.347 262.653 414.379 262.606 414.398L261.164 415.084ZM258.35 415.098C258.052 415.098 257.823 415.019 257.664 414.86C257.506 414.701 257.426 414.501 257.426 414.258C257.426 413.969 257.538 413.749 257.762 413.6C257.986 413.451 258.346 413.292 258.84 413.124L260.59 412.522L260.632 412.69L259.204 413.236C258.98 413.32 258.822 413.413 258.728 413.516C258.635 413.619 258.588 413.749 258.588 413.908C258.588 414.104 258.644 414.258 258.756 414.37C258.868 414.482 259.013 414.538 259.19 414.538C259.284 414.538 259.382 414.524 259.484 414.496C259.587 414.468 259.694 414.431 259.806 414.384L260.87 413.824L260.884 414.02L259.68 414.678C259.41 414.818 259.167 414.925 258.952 415C258.747 415.065 258.546 415.098 258.35 415.098Z" fill="black"/>
<path d="M253.743 414.986L251.727 410.758C251.531 410.347 251.372 410.081 251.251 409.96C251.139 409.829 250.994 409.764 250.817 409.764C250.798 409.764 250.789 409.736 250.789 409.68C250.789 409.624 250.798 409.596 250.817 409.596C250.957 409.596 251.106 409.601 251.265 409.61C251.433 409.619 251.624 409.624 251.839 409.624C252.156 409.624 252.432 409.619 252.665 409.61C252.908 409.601 253.122 409.596 253.309 409.596C253.337 409.596 253.351 409.624 253.351 409.68C253.351 409.736 253.337 409.764 253.309 409.764C253.048 409.764 252.842 409.806 252.693 409.89C252.544 409.965 252.52 410.105 252.623 410.31L254.373 413.922L253.883 414.692L255.479 410.814C255.619 410.459 255.61 410.198 255.451 410.03C255.292 409.853 254.989 409.764 254.541 409.764C254.513 409.764 254.499 409.736 254.499 409.68C254.499 409.624 254.513 409.596 254.541 409.596C254.756 409.596 254.961 409.601 255.157 409.61C255.362 409.619 255.624 409.624 255.941 409.624C256.156 409.624 256.328 409.619 256.459 409.61C256.59 409.601 256.744 409.596 256.921 409.596C256.949 409.596 256.963 409.624 256.963 409.68C256.963 409.736 256.949 409.764 256.921 409.764C256.688 409.764 256.482 409.848 256.305 410.016C256.128 410.175 255.955 410.455 255.787 410.856L254.051 414.986C254.032 415.023 253.981 415.042 253.897 415.042C253.813 415.042 253.762 415.023 253.743 414.986ZM250.397 414.986L248.367 410.758C248.171 410.338 248.008 410.067 247.877 409.946C247.746 409.825 247.588 409.764 247.401 409.764C247.373 409.764 247.359 409.736 247.359 409.68C247.359 409.624 247.373 409.596 247.401 409.596C247.541 409.596 247.7 409.601 247.877 409.61C248.054 409.619 248.255 409.624 248.479 409.624C248.796 409.624 249.072 409.619 249.305 409.61C249.538 409.601 249.758 409.596 249.963 409.596C249.991 409.596 250.005 409.624 250.005 409.68C250.005 409.736 249.991 409.764 249.963 409.764C249.692 409.764 249.478 409.801 249.319 409.876C249.17 409.951 249.146 410.095 249.249 410.31L251.027 413.922L250.523 414.692L252.049 411.01L252.329 411.122L250.705 414.986C250.696 415.023 250.644 415.042 250.551 415.042C250.467 415.042 250.416 415.023 250.397 414.986Z" fill="black"/>
<path d="M246.166 415.084C246.129 415.103 246.087 415.112 246.04 415.112C245.9 415.112 245.765 415.009 245.634 414.804C245.513 414.589 245.452 414.286 245.452 413.894V411.43C245.452 411.019 245.415 410.693 245.34 410.45C245.275 410.207 245.177 410.035 245.046 409.932C244.925 409.82 244.78 409.764 244.612 409.764C244.407 409.764 244.234 409.815 244.094 409.918C243.954 410.021 243.847 410.161 243.772 410.338C243.707 410.506 243.66 410.693 243.632 410.898C243.614 411.075 243.558 411.225 243.464 411.346C243.38 411.458 243.231 411.514 243.016 411.514C242.848 411.514 242.718 411.472 242.624 411.388C242.531 411.304 242.484 411.187 242.484 411.038C242.484 410.861 242.573 410.683 242.75 410.506C242.928 410.319 243.152 410.147 243.422 409.988C243.693 409.829 243.973 409.703 244.262 409.61C244.561 409.517 244.836 409.47 245.088 409.47C245.462 409.47 245.774 409.596 246.026 409.848C246.278 410.091 246.404 410.478 246.404 411.01V413.488C246.404 413.796 246.446 414.025 246.53 414.174C246.614 414.323 246.75 414.398 246.936 414.398C247.095 414.398 247.3 414.347 247.552 414.244C247.59 414.225 247.618 414.244 247.636 414.3C247.664 414.347 247.655 414.379 247.608 414.398L246.166 415.084ZM243.352 415.098C243.054 415.098 242.825 415.019 242.666 414.86C242.508 414.701 242.428 414.501 242.428 414.258C242.428 413.969 242.54 413.749 242.764 413.6C242.988 413.451 243.348 413.292 243.842 413.124L245.592 412.522L245.634 412.69L244.206 413.236C243.982 413.32 243.824 413.413 243.73 413.516C243.637 413.619 243.59 413.749 243.59 413.908C243.59 414.104 243.646 414.258 243.758 414.37C243.87 414.482 244.015 414.538 244.192 414.538C244.286 414.538 244.384 414.524 244.486 414.496C244.589 414.468 244.696 414.431 244.808 414.384L245.872 413.824L245.886 414.02L244.682 414.678C244.412 414.818 244.169 414.925 243.954 415C243.749 415.065 243.548 415.098 243.352 415.098Z" fill="black"/>
<path d="M236.614 414.832L239.904 409.876C239.942 409.811 239.918 409.778 239.834 409.778C239.209 409.778 238.691 409.82 238.28 409.904C237.87 409.979 237.543 410.109 237.3 410.296C237.058 410.483 236.88 410.753 236.768 411.108C236.759 411.127 236.726 411.131 236.67 411.122C236.624 411.113 236.605 411.094 236.614 411.066L237.118 409.148C237.128 409.129 237.16 409.125 237.216 409.134C237.272 409.134 237.296 409.143 237.286 409.162C237.24 409.339 237.268 409.456 237.37 409.512C237.482 409.568 237.678 409.596 237.958 409.596C238.304 409.596 238.728 409.596 239.232 409.596C239.736 409.596 240.324 409.596 240.996 409.596C241.043 409.596 241.076 409.615 241.094 409.652C241.122 409.689 241.127 409.727 241.108 409.764L237.846 414.678C237.809 414.743 237.832 414.776 237.916 414.776C238.504 414.776 238.985 414.757 239.358 414.72C239.732 414.683 240.03 414.613 240.254 414.51C240.488 414.407 240.67 414.263 240.8 414.076C240.931 413.88 241.038 413.633 241.122 413.334C241.132 413.306 241.16 413.292 241.206 413.292C241.253 413.292 241.276 413.306 241.276 413.334L241.248 414.846C241.248 414.883 241.234 414.921 241.206 414.958C241.188 414.986 241.16 415 241.122 415C240.674 415 240.198 415 239.694 415C239.19 415 238.682 415 238.168 415C237.664 415 237.179 415 236.712 415C236.675 415 236.642 414.981 236.614 414.944C236.596 414.907 236.596 414.869 236.614 414.832Z" fill="black"/>
<path d="M234.613 415.084C234.576 415.103 234.534 415.112 234.487 415.112C234.347 415.112 234.212 415.009 234.081 414.804C233.96 414.589 233.899 414.286 233.899 413.894V411.43C233.899 411.019 233.862 410.693 233.787 410.45C233.722 410.207 233.624 410.035 233.493 409.932C233.372 409.82 233.227 409.764 233.059 409.764C232.854 409.764 232.681 409.815 232.541 409.918C232.401 410.021 232.294 410.161 232.219 410.338C232.154 410.506 232.107 410.693 232.079 410.898C232.061 411.075 232.005 411.225 231.911 411.346C231.827 411.458 231.678 411.514 231.463 411.514C231.295 411.514 231.165 411.472 231.071 411.388C230.978 411.304 230.931 411.187 230.931 411.038C230.931 410.861 231.02 410.683 231.197 410.506C231.375 410.319 231.599 410.147 231.869 409.988C232.14 409.829 232.42 409.703 232.709 409.61C233.008 409.517 233.283 409.47 233.535 409.47C233.909 409.47 234.221 409.596 234.473 409.848C234.725 410.091 234.851 410.478 234.851 411.01V413.488C234.851 413.796 234.893 414.025 234.977 414.174C235.061 414.323 235.197 414.398 235.383 414.398C235.542 414.398 235.747 414.347 235.999 414.244C236.037 414.225 236.065 414.244 236.083 414.3C236.111 414.347 236.102 414.379 236.055 414.398L234.613 415.084ZM231.799 415.098C231.501 415.098 231.272 415.019 231.113 414.86C230.955 414.701 230.875 414.501 230.875 414.258C230.875 413.969 230.987 413.749 231.211 413.6C231.435 413.451 231.795 413.292 232.289 413.124L234.039 412.522L234.081 412.69L232.653 413.236C232.429 413.32 232.271 413.413 232.177 413.516C232.084 413.619 232.037 413.749 232.037 413.908C232.037 414.104 232.093 414.258 232.205 414.37C232.317 414.482 232.462 414.538 232.639 414.538C232.733 414.538 232.831 414.524 232.933 414.496C233.036 414.468 233.143 414.431 233.255 414.384L234.319 413.824L234.333 414.02L233.129 414.678C232.859 414.818 232.616 414.925 232.401 415C232.196 415.065 231.995 415.098 231.799 415.098Z" fill="black"/>
<path d="M227.284 415C227.256 415 227.242 414.972 227.242 414.916C227.242 414.86 227.256 414.832 227.284 414.832C227.62 414.832 227.839 414.771 227.942 414.65C228.054 414.519 228.11 414.258 228.11 413.866V411.668C228.11 411.136 228.012 410.744 227.816 410.492C227.62 410.231 227.307 410.1 226.878 410.1C226.551 410.1 226.22 410.198 225.884 410.394C225.557 410.581 225.277 410.842 225.044 411.178L224.988 411.01C225.371 410.487 225.763 410.091 226.164 409.82C226.575 409.549 227.004 409.414 227.452 409.414C227.965 409.414 228.362 409.563 228.642 409.862C228.931 410.161 229.076 410.585 229.076 411.136V413.866C229.076 414.258 229.127 414.519 229.23 414.65C229.342 414.771 229.571 414.832 229.916 414.832C229.944 414.832 229.958 414.86 229.958 414.916C229.958 414.972 229.944 415 229.916 415C229.739 415 229.538 414.995 229.314 414.986C229.09 414.977 228.852 414.972 228.6 414.972C228.348 414.972 228.105 414.977 227.872 414.986C227.648 414.995 227.452 415 227.284 415ZM223.518 415C223.49 415 223.476 414.972 223.476 414.916C223.476 414.86 223.49 414.832 223.518 414.832C223.854 414.832 224.073 414.771 224.176 414.65C224.288 414.519 224.344 414.258 224.344 413.866V411.136C224.344 410.837 224.307 410.618 224.232 410.478C224.167 410.338 224.05 410.268 223.882 410.268C223.789 410.268 223.681 410.287 223.56 410.324C223.439 410.352 223.299 410.399 223.14 410.464C223.103 410.483 223.075 410.469 223.056 410.422C223.037 410.366 223.042 410.329 223.07 410.31L224.792 409.484C224.829 409.475 224.857 409.47 224.876 409.47C224.96 409.47 225.053 409.573 225.156 409.778C225.259 409.983 225.31 410.277 225.31 410.66V413.866C225.31 414.258 225.361 414.519 225.464 414.65C225.576 414.771 225.805 414.832 226.15 414.832C226.178 414.832 226.192 414.86 226.192 414.916C226.192 414.972 226.178 415 226.15 415C225.973 415 225.772 414.995 225.548 414.986C225.324 414.977 225.086 414.972 224.834 414.972C224.582 414.972 224.339 414.977 224.106 414.986C223.882 414.995 223.686 415 223.518 415Z" fill="black"/>
<path d="M221.461 415.084C221.424 415.103 221.382 415.112 221.335 415.112C221.195 415.112 221.06 415.009 220.929 414.804C220.808 414.589 220.747 414.286 220.747 413.894V411.43C220.747 411.019 220.71 410.693 220.635 410.45C220.57 410.207 220.472 410.035 220.341 409.932C220.22 409.82 220.075 409.764 219.907 409.764C219.702 409.764 219.529 409.815 219.389 409.918C219.249 410.021 219.142 410.161 219.067 410.338C219.002 410.506 218.955 410.693 218.927 410.898C218.908 411.075 218.852 411.225 218.759 411.346C218.675 411.458 218.526 411.514 218.311 411.514C218.143 411.514 218.012 411.472 217.919 411.388C217.826 411.304 217.779 411.187 217.779 411.038C217.779 410.861 217.868 410.683 218.045 410.506C218.222 410.319 218.446 410.147 218.717 409.988C218.988 409.829 219.268 409.703 219.557 409.61C219.856 409.517 220.131 409.47 220.383 409.47C220.756 409.47 221.069 409.596 221.321 409.848C221.573 410.091 221.699 410.478 221.699 411.01V413.488C221.699 413.796 221.741 414.025 221.825 414.174C221.909 414.323 222.044 414.398 222.231 414.398C222.39 414.398 222.595 414.347 222.847 414.244C222.884 414.225 222.912 414.244 222.931 414.3C222.959 414.347 222.95 414.379 222.903 414.398L221.461 415.084ZM218.647 415.098C218.348 415.098 218.12 415.019 217.961 414.86C217.802 414.701 217.723 414.501 217.723 414.258C217.723 413.969 217.835 413.749 218.059 413.6C218.283 413.451 218.642 413.292 219.137 413.124L220.887 412.522L220.929 412.69L219.501 413.236C219.277 413.32 219.118 413.413 219.025 413.516C218.932 413.619 218.885 413.749 218.885 413.908C218.885 414.104 218.941 414.258 219.053 414.37C219.165 414.482 219.31 414.538 219.487 414.538C219.58 414.538 219.678 414.524 219.781 414.496C219.884 414.468 219.991 414.431 220.103 414.384L221.167 413.824L221.181 414.02L219.977 414.678C219.706 414.818 219.464 414.925 219.249 415C219.044 415.065 218.843 415.098 218.647 415.098Z" fill="black"/>
<path d="M209.624 413.866V407.384C209.624 407.113 209.596 406.913 209.54 406.782C209.484 406.642 209.372 406.549 209.204 406.502C209.045 406.446 208.807 406.418 208.49 406.418C208.462 406.418 208.448 406.39 208.448 406.334C208.448 406.278 208.462 406.25 208.49 406.25C208.723 406.25 208.98 406.259 209.26 406.278C209.549 406.287 209.853 406.292 210.17 406.292C210.506 406.292 210.814 406.287 211.094 406.278C211.383 406.259 211.64 406.25 211.864 406.25C211.883 406.25 211.892 406.278 211.892 406.334C211.892 406.39 211.883 406.418 211.864 406.418C211.537 406.418 211.295 406.446 211.136 406.502C210.977 406.558 210.87 406.656 210.814 406.796C210.758 406.936 210.73 407.141 210.73 407.412V413.866C210.73 414.137 210.753 414.342 210.8 414.482C210.856 414.622 210.963 414.715 211.122 414.762C211.29 414.809 211.537 414.832 211.864 414.832C211.892 414.832 211.906 414.86 211.906 414.916C211.906 414.972 211.892 415 211.864 415C211.631 415 211.374 414.995 211.094 414.986C210.814 414.977 210.506 414.972 210.17 414.972C209.853 414.972 209.545 414.977 209.246 414.986C208.957 414.995 208.695 415 208.462 415C208.443 415 208.434 414.972 208.434 414.916C208.434 414.86 208.443 414.832 208.462 414.832C208.789 414.832 209.036 414.809 209.204 414.762C209.372 414.715 209.484 414.622 209.54 414.482C209.596 414.342 209.624 414.137 209.624 413.866ZM213.18 412.97L211.052 410.24L211.892 409.512L213.964 412.214C214.365 412.746 214.706 413.18 214.986 413.516C215.266 413.852 215.499 414.113 215.686 414.3C215.882 414.477 216.05 414.608 216.19 414.692C216.339 414.767 216.479 414.809 216.61 414.818C216.75 414.827 216.904 414.832 217.072 414.832C217.1 414.832 217.114 414.86 217.114 414.916C217.114 414.972 217.1 415 217.072 415C216.661 415 216.33 415 216.078 415C215.826 415 215.635 415 215.504 415C215.299 415 215.14 415 215.028 415C214.916 415.009 214.823 414.991 214.748 414.944C214.673 414.897 214.58 414.809 214.468 414.678C214.356 414.538 214.202 414.333 214.006 414.062C213.81 413.791 213.535 413.427 213.18 412.97ZM210.002 411.108L213.6 407.482C213.955 407.127 214.099 406.861 214.034 406.684C213.969 406.507 213.698 406.418 213.222 406.418C213.194 406.418 213.18 406.39 213.18 406.334C213.18 406.278 213.194 406.25 213.222 406.25C213.455 406.25 213.693 406.259 213.936 406.278C214.179 406.287 214.501 406.292 214.902 406.292C215.294 406.292 215.602 406.287 215.826 406.278C216.059 406.259 216.279 406.25 216.484 406.25C216.512 406.25 216.526 406.278 216.526 406.334C216.526 406.39 216.512 406.418 216.484 406.418C216.12 406.418 215.705 406.511 215.238 406.698C214.781 406.875 214.351 407.165 213.95 407.566L210.352 411.122L210.002 411.108Z" fill="black"/>
<path d="M311 436.5C311 437.328 310.328 438 309.5 438C308.672 438 308 437.328 308 436.5C308 435.672 308.672 435 309.5 435C310.328 435 311 435.672 311 436.5Z" fill="black"/>
<path d="M326.494 449.182C325.925 449.182 325.43 449.047 325.01 448.776C324.6 448.505 324.282 448.146 324.058 447.698C323.834 447.241 323.722 446.751 323.722 446.228C323.722 445.743 323.811 445.323 323.988 444.968C324.175 444.613 324.418 444.324 324.716 444.1C325.015 443.867 325.342 443.694 325.696 443.582C326.051 443.47 326.401 443.414 326.746 443.414C327.325 443.414 327.82 443.554 328.23 443.834C328.641 444.114 328.954 444.473 329.168 444.912C329.392 445.351 329.504 445.813 329.504 446.298C329.504 446.886 329.364 447.399 329.084 447.838C328.804 448.267 328.436 448.599 327.978 448.832C327.53 449.065 327.036 449.182 326.494 449.182ZM326.9 448.916C327.358 448.916 327.712 448.739 327.964 448.384C328.226 448.02 328.356 447.469 328.356 446.732C328.356 446.107 328.263 445.57 328.076 445.122C327.89 444.665 327.638 444.315 327.32 444.072C327.012 443.82 326.662 443.694 326.27 443.694C325.813 443.694 325.458 443.871 325.206 444.226C324.964 444.571 324.842 445.085 324.842 445.766C324.842 446.354 324.931 446.891 325.108 447.376C325.286 447.852 325.528 448.23 325.836 448.51C326.144 448.781 326.499 448.916 326.9 448.916Z" fill="black"/>
<path d="M320.327 449C320.299 449 320.285 448.972 320.285 448.916C320.285 448.86 320.299 448.832 320.327 448.832C320.663 448.832 320.882 448.771 320.985 448.65C321.097 448.519 321.153 448.258 321.153 447.866V445.668C321.153 445.136 321.055 444.744 320.859 444.492C320.663 444.231 320.35 444.1 319.921 444.1C319.594 444.1 319.263 444.198 318.927 444.394C318.6 444.581 318.32 444.842 318.087 445.178L318.031 445.01C318.414 444.487 318.806 444.091 319.207 443.82C319.618 443.549 320.047 443.414 320.495 443.414C321.008 443.414 321.405 443.563 321.685 443.862C321.974 444.161 322.119 444.585 322.119 445.136V447.866C322.119 448.258 322.17 448.519 322.273 448.65C322.385 448.771 322.614 448.832 322.959 448.832C322.987 448.832 323.001 448.86 323.001 448.916C323.001 448.972 322.987 449 322.959 449C322.782 449 322.581 448.995 322.357 448.986C322.133 448.977 321.895 448.972 321.643 448.972C321.391 448.972 321.148 448.977 320.915 448.986C320.691 448.995 320.495 449 320.327 449ZM316.561 449C316.533 449 316.519 448.972 316.519 448.916C316.519 448.86 316.533 448.832 316.561 448.832C316.897 448.832 317.116 448.771 317.219 448.65C317.331 448.519 317.387 448.258 317.387 447.866V445.136C317.387 444.837 317.35 444.618 317.275 444.478C317.21 444.338 317.093 444.268 316.925 444.268C316.832 444.268 316.724 444.287 316.603 444.324C316.482 444.352 316.342 444.399 316.183 444.464C316.146 444.483 316.118 444.469 316.099 444.422C316.08 444.366 316.085 444.329 316.113 444.31L317.835 443.484C317.872 443.475 317.9 443.47 317.919 443.47C318.003 443.47 318.096 443.573 318.199 443.778C318.302 443.983 318.353 444.277 318.353 444.66V447.866C318.353 448.258 318.404 448.519 318.507 448.65C318.619 448.771 318.848 448.832 319.193 448.832C319.221 448.832 319.235 448.86 319.235 448.916C319.235 448.972 319.221 449 319.193 449C319.016 449 318.815 448.995 318.591 448.986C318.367 448.977 318.129 448.972 317.877 448.972C317.625 448.972 317.382 448.977 317.149 448.986C316.925 448.995 316.729 449 316.561 449Z" fill="black"/>
<path d="M314.504 449.084C314.467 449.103 314.425 449.112 314.378 449.112C314.238 449.112 314.103 449.009 313.972 448.804C313.851 448.589 313.79 448.286 313.79 447.894V445.43C313.79 445.019 313.753 444.693 313.678 444.45C313.613 444.207 313.515 444.035 313.384 443.932C313.263 443.82 313.118 443.764 312.95 443.764C312.745 443.764 312.572 443.815 312.432 443.918C312.292 444.021 312.185 444.161 312.11 444.338C312.045 444.506 311.998 444.693 311.97 444.898C311.951 445.075 311.895 445.225 311.802 445.346C311.718 445.458 311.569 445.514 311.354 445.514C311.186 445.514 311.055 445.472 310.962 445.388C310.869 445.304 310.822 445.187 310.822 445.038C310.822 444.861 310.911 444.683 311.088 444.506C311.265 444.319 311.489 444.147 311.76 443.988C312.031 443.829 312.311 443.703 312.6 443.61C312.899 443.517 313.174 443.47 313.426 443.47C313.799 443.47 314.112 443.596 314.364 443.848C314.616 444.091 314.742 444.478 314.742 445.01V447.488C314.742 447.796 314.784 448.025 314.868 448.174C314.952 448.323 315.087 448.398 315.274 448.398C315.433 448.398 315.638 448.347 315.89 448.244C315.927 448.225 315.955 448.244 315.974 448.3C316.002 448.347 315.993 448.379 315.946 448.398L314.504 449.084ZM311.69 449.098C311.391 449.098 311.163 449.019 311.004 448.86C310.845 448.701 310.766 448.501 310.766 448.258C310.766 447.969 310.878 447.749 311.102 447.6C311.326 447.451 311.685 447.292 312.18 447.124L313.93 446.522L313.972 446.69L312.544 447.236C312.32 447.32 312.161 447.413 312.068 447.516C311.975 447.619 311.928 447.749 311.928 447.908C311.928 448.104 311.984 448.258 312.096 448.37C312.208 448.482 312.353 448.538 312.53 448.538C312.623 448.538 312.721 448.524 312.824 448.496C312.927 448.468 313.034 448.431 313.146 448.384L314.21 447.824L314.224 448.02L313.02 448.678C312.749 448.818 312.507 448.925 312.292 449C312.087 449.065 311.886 449.098 311.69 449.098Z" fill="black"/>
<path d="M306.569 452.948C305.897 452.948 305.351 452.789 304.931 452.472C304.521 452.164 304.315 451.767 304.315 451.282C304.315 451.011 304.385 450.745 304.525 450.484C304.665 450.223 304.885 449.952 305.183 449.672C305.482 449.392 305.869 449.107 306.345 448.818L306.485 448.972C306.299 449.103 306.112 449.243 305.925 449.392C305.748 449.551 305.599 449.737 305.477 449.952C305.365 450.167 305.309 450.437 305.309 450.764C305.309 451.315 305.477 451.744 305.813 452.052C306.159 452.369 306.616 452.528 307.185 452.528C307.615 452.528 307.979 452.449 308.277 452.29C308.576 452.131 308.805 451.917 308.963 451.646C309.122 451.375 309.201 451.091 309.201 450.792C309.201 450.493 309.131 450.255 308.991 450.078C308.851 449.91 308.665 449.775 308.431 449.672C308.198 449.579 307.937 449.504 307.647 449.448C307.367 449.401 307.087 449.359 306.807 449.322C306.509 449.275 306.215 449.215 305.925 449.14C305.636 449.075 305.398 448.967 305.211 448.818C305.025 448.669 304.931 448.454 304.931 448.174C304.931 447.885 305.043 447.605 305.267 447.334C305.491 447.054 305.795 446.816 306.177 446.62L306.289 446.704C306.103 446.807 305.958 446.937 305.855 447.096C305.762 447.245 305.715 447.409 305.715 447.586C305.715 447.801 305.795 447.969 305.953 448.09C306.112 448.202 306.317 448.286 306.569 448.342C306.821 448.398 307.083 448.449 307.353 448.496C307.68 448.543 308.002 448.599 308.319 448.664C308.637 448.72 308.926 448.804 309.187 448.916C309.449 449.019 309.659 449.168 309.817 449.364C309.985 449.569 310.069 449.845 310.069 450.19C310.069 450.526 309.976 450.857 309.789 451.184C309.612 451.511 309.36 451.805 309.033 452.066C308.716 452.337 308.343 452.551 307.913 452.71C307.493 452.869 307.045 452.948 306.569 452.948ZM306.877 446.872C306.429 446.872 306.051 446.793 305.743 446.634C305.435 446.475 305.197 446.265 305.029 446.004C304.871 445.743 304.791 445.467 304.791 445.178C304.791 444.833 304.894 444.534 305.099 444.282C305.314 444.03 305.594 443.839 305.939 443.708C306.285 443.568 306.653 443.498 307.045 443.498C307.503 443.498 307.881 443.577 308.179 443.736C308.487 443.895 308.716 444.1 308.865 444.352C309.015 444.595 309.089 444.851 309.089 445.122C309.089 445.458 308.991 445.757 308.795 446.018C308.599 446.279 308.333 446.489 307.997 446.648C307.661 446.797 307.288 446.872 306.877 446.872ZM307.199 446.662C307.414 446.662 307.61 446.569 307.787 446.382C307.965 446.195 308.053 445.878 308.053 445.43C308.053 444.917 307.909 444.506 307.619 444.198C307.339 443.881 307.017 443.722 306.653 443.722C306.411 443.722 306.21 443.815 306.051 444.002C305.893 444.179 305.813 444.464 305.813 444.856C305.813 445.211 305.879 445.523 306.009 445.794C306.14 446.065 306.308 446.279 306.513 446.438C306.728 446.587 306.957 446.662 307.199 446.662ZM308.221 444.576L308.235 444.114C308.525 443.909 308.809 443.75 309.089 443.638C309.369 443.526 309.677 443.47 310.013 443.47C310.041 443.47 310.06 443.507 310.069 443.582C310.088 443.647 310.097 443.722 310.097 443.806C310.097 443.918 310.083 444.039 310.055 444.17C310.027 444.301 309.995 444.357 309.957 444.338C309.836 444.282 309.691 444.231 309.523 444.184C309.365 444.137 309.187 444.114 308.991 444.114C308.879 444.114 308.767 444.123 308.655 444.142C308.553 444.161 308.445 444.189 308.333 444.226L308.221 444.576Z" fill="black"/>
<path d="M302.651 449.084C302.613 449.103 302.571 449.112 302.525 449.112C302.385 449.112 302.249 449.009 302.119 448.804C301.997 448.589 301.937 448.286 301.937 447.894V445.43C301.937 445.019 301.899 444.693 301.825 444.45C301.759 444.207 301.661 444.035 301.531 443.932C301.409 443.82 301.265 443.764 301.097 443.764C300.891 443.764 300.719 443.815 300.579 443.918C300.439 444.021 300.331 444.161 300.257 444.338C300.191 444.506 300.145 444.693 300.117 444.898C300.098 445.075 300.042 445.225 299.949 445.346C299.865 445.458 299.715 445.514 299.501 445.514C299.333 445.514 299.202 445.472 299.109 445.388C299.015 445.304 298.969 445.187 298.969 445.038C298.969 444.861 299.057 444.683 299.235 444.506C299.412 444.319 299.636 444.147 299.907 443.988C300.177 443.829 300.457 443.703 300.747 443.61C301.045 443.517 301.321 443.47 301.573 443.47C301.946 443.47 302.259 443.596 302.511 443.848C302.763 444.091 302.889 444.478 302.889 445.01V447.488C302.889 447.796 302.931 448.025 303.015 448.174C303.099 448.323 303.234 448.398 303.421 448.398C303.579 448.398 303.785 448.347 304.037 448.244C304.074 448.225 304.102 448.244 304.121 448.3C304.149 448.347 304.139 448.379 304.093 448.398L302.651 449.084ZM299.837 449.098C299.538 449.098 299.309 449.019 299.151 448.86C298.992 448.701 298.913 448.501 298.913 448.258C298.913 447.969 299.025 447.749 299.249 447.6C299.473 447.451 299.832 447.292 300.327 447.124L302.077 446.522L302.119 446.69L300.691 447.236C300.467 447.32 300.308 447.413 300.215 447.516C300.121 447.619 300.075 447.749 300.075 447.908C300.075 448.104 300.131 448.258 300.243 448.37C300.355 448.482 300.499 448.538 300.677 448.538C300.77 448.538 300.868 448.524 300.971 448.496C301.073 448.468 301.181 448.431 301.293 448.384L302.357 447.824L302.371 448.02L301.167 448.678C300.896 448.818 300.653 448.925 300.439 449C300.233 449.065 300.033 449.098 299.837 449.098Z" fill="black"/>
<path d="M289.708 447.404V440.572L290.072 440.6V447.404C290.072 447.889 290.161 448.249 290.338 448.482C290.515 448.715 290.795 448.832 291.178 448.832C291.197 448.832 291.206 448.86 291.206 448.916C291.206 448.972 291.197 449 291.178 449C290.982 449 290.781 448.995 290.576 448.986C290.38 448.977 290.156 448.972 289.904 448.972C289.661 448.972 289.423 448.977 289.19 448.986C288.957 448.995 288.737 449 288.532 449C288.513 449 288.504 448.972 288.504 448.916C288.504 448.86 288.513 448.832 288.532 448.832C288.943 448.832 289.241 448.715 289.428 448.482C289.615 448.249 289.708 447.889 289.708 447.404ZM296.792 449.182C296.792 449.201 296.769 449.21 296.722 449.21C296.685 449.219 296.657 449.219 296.638 449.21L290.044 441.398C289.717 441.015 289.433 440.759 289.19 440.628C288.957 440.488 288.723 440.418 288.49 440.418C288.471 440.418 288.462 440.39 288.462 440.334C288.462 440.278 288.471 440.25 288.49 440.25C288.667 440.25 288.845 440.255 289.022 440.264C289.199 440.273 289.363 440.278 289.512 440.278C289.736 440.278 289.941 440.273 290.128 440.264C290.315 440.255 290.455 440.25 290.548 440.25C290.669 440.25 290.758 440.306 290.814 440.418C290.87 440.521 291.005 440.707 291.22 440.978L296.68 447.558L296.792 449.182ZM296.792 441.86V449.182L296.442 448.748V441.86C296.442 441.375 296.353 441.015 296.176 440.782C296.008 440.539 295.733 440.418 295.35 440.418C295.331 440.418 295.322 440.39 295.322 440.334C295.322 440.278 295.331 440.25 295.35 440.25C295.546 440.25 295.747 440.259 295.952 440.278C296.157 440.287 296.381 440.292 296.624 440.292C296.857 440.292 297.086 440.287 297.31 440.278C297.534 440.259 297.744 440.25 297.94 440.25C297.959 440.25 297.968 440.278 297.968 440.334C297.968 440.39 297.959 440.418 297.94 440.418C297.548 440.418 297.259 440.539 297.072 440.782C296.885 441.015 296.792 441.375 296.792 441.86Z" fill="black"/>
<path d="M335 472.5C335 473.328 334.328 474 333.5 474C332.672 474 332 473.328 332 472.5C332 471.672 332.672 471 333.5 471C334.328 471 335 471.672 335 472.5Z" fill="black"/>
<path d="M333.716 469.132C333.261 469.132 332.872 469.033 332.55 468.835C332.234 468.629 331.996 468.365 331.835 468.043C331.681 467.72 331.604 467.379 331.604 467.02C331.604 466.572 331.71 466.173 331.923 465.821C332.135 465.461 332.421 465.179 332.781 464.974C333.147 464.761 333.558 464.655 334.013 464.655C334.431 464.655 334.75 464.754 334.97 464.952C335.197 465.142 335.311 465.406 335.311 465.744C335.311 465.824 335.303 465.89 335.289 465.942C335.274 465.993 335.241 466.019 335.19 466.019H334.409C334.438 465.667 334.383 465.388 334.244 465.183C334.104 464.977 333.899 464.875 333.628 464.875C333.254 464.875 332.964 465.029 332.759 465.337C332.553 465.645 332.451 466.059 332.451 466.58C332.451 466.99 332.517 467.357 332.649 467.68C332.781 467.995 332.975 468.244 333.232 468.428C333.488 468.604 333.796 468.692 334.156 468.692C334.346 468.692 334.541 468.666 334.739 468.615C334.937 468.556 335.12 468.468 335.289 468.351C335.303 468.336 335.322 468.347 335.344 468.384C335.373 468.413 335.38 468.439 335.366 468.461C335.102 468.703 334.834 468.875 334.563 468.978C334.291 469.08 334.009 469.132 333.716 469.132ZM332.198 466.041L332.187 465.876L334.662 465.821V466.019L332.198 466.041Z" fill="black"/>
<path d="M328.936 469C328.914 469 328.903 468.978 328.903 468.934C328.903 468.89 328.914 468.868 328.936 468.868C329.2 468.868 329.372 468.82 329.453 468.725C329.541 468.622 329.585 468.417 329.585 468.109V466.382C329.585 465.964 329.508 465.656 329.354 465.458C329.2 465.253 328.954 465.15 328.617 465.15C328.36 465.15 328.1 465.227 327.836 465.381C327.579 465.528 327.359 465.733 327.176 465.997L327.132 465.865C327.433 465.454 327.741 465.143 328.056 464.93C328.379 464.717 328.716 464.611 329.068 464.611C329.471 464.611 329.783 464.728 330.003 464.963C330.23 465.198 330.344 465.531 330.344 465.964V468.109C330.344 468.417 330.384 468.622 330.465 468.725C330.553 468.82 330.733 468.868 331.004 468.868C331.026 468.868 331.037 468.89 331.037 468.934C331.037 468.978 331.026 469 331.004 469C330.865 469 330.707 468.996 330.531 468.989C330.355 468.982 330.168 468.978 329.97 468.978C329.772 468.978 329.581 468.982 329.398 468.989C329.222 468.996 329.068 469 328.936 469ZM325.977 469C325.955 469 325.944 468.978 325.944 468.934C325.944 468.89 325.955 468.868 325.977 468.868C326.241 468.868 326.413 468.82 326.494 468.725C326.582 468.622 326.626 468.417 326.626 468.109V465.964C326.626 465.729 326.597 465.557 326.538 465.447C326.487 465.337 326.395 465.282 326.263 465.282C326.19 465.282 326.105 465.297 326.01 465.326C325.915 465.348 325.805 465.385 325.68 465.436C325.651 465.451 325.629 465.44 325.614 465.403C325.599 465.359 325.603 465.33 325.625 465.315L326.978 464.666C327.007 464.659 327.029 464.655 327.044 464.655C327.11 464.655 327.183 464.736 327.264 464.897C327.345 465.058 327.385 465.289 327.385 465.59V468.109C327.385 468.417 327.425 468.622 327.506 468.725C327.594 468.82 327.774 468.868 328.045 468.868C328.067 468.868 328.078 468.89 328.078 468.934C328.078 468.978 328.067 469 328.045 469C327.906 469 327.748 468.996 327.572 468.989C327.396 468.982 327.209 468.978 327.011 468.978C326.813 468.978 326.622 468.982 326.439 468.989C326.263 468.996 326.109 469 325.977 469Z" fill="black"/>
<path d="M322.76 469.143C322.313 469.143 321.924 469.037 321.594 468.824C321.272 468.611 321.022 468.329 320.846 467.977C320.67 467.618 320.582 467.233 320.582 466.822C320.582 466.441 320.652 466.111 320.791 465.832C320.938 465.553 321.129 465.326 321.363 465.15C321.598 464.967 321.855 464.831 322.133 464.743C322.412 464.655 322.687 464.611 322.958 464.611C323.413 464.611 323.802 464.721 324.124 464.941C324.447 465.161 324.693 465.443 324.861 465.788C325.037 466.133 325.125 466.496 325.125 466.877C325.125 467.339 325.015 467.742 324.795 468.087C324.575 468.424 324.286 468.685 323.926 468.868C323.574 469.051 323.186 469.143 322.76 469.143ZM323.079 468.934C323.439 468.934 323.717 468.795 323.915 468.516C324.121 468.23 324.223 467.797 324.223 467.218C324.223 466.727 324.15 466.305 324.003 465.953C323.857 465.594 323.659 465.319 323.409 465.128C323.167 464.93 322.892 464.831 322.584 464.831C322.225 464.831 321.946 464.97 321.748 465.249C321.558 465.52 321.462 465.924 321.462 466.459C321.462 466.921 321.532 467.343 321.671 467.724C321.811 468.098 322.001 468.395 322.243 468.615C322.485 468.828 322.764 468.934 323.079 468.934Z" fill="black"/>
<path d="M315.251 469C315.237 469 315.229 468.978 315.229 468.934C315.229 468.89 315.237 468.868 315.251 468.868C315.523 468.868 315.699 468.82 315.779 468.725C315.867 468.622 315.911 468.417 315.911 468.109V462.455C315.911 462.198 315.886 462.011 315.834 461.894C315.79 461.777 315.706 461.718 315.581 461.718C315.471 461.718 315.31 461.766 315.097 461.861C315.075 461.876 315.053 461.861 315.031 461.817C315.009 461.773 315.009 461.747 315.031 461.74L316.483 461.036C316.505 461.029 316.524 461.025 316.538 461.025C316.56 461.025 316.586 461.036 316.615 461.058C316.645 461.08 316.659 461.106 316.659 461.135V468.109C316.659 468.417 316.703 468.622 316.791 468.725C316.879 468.82 317.059 468.868 317.33 468.868C317.352 468.868 317.363 468.89 317.363 468.934C317.363 468.978 317.352 469 317.33 469C317.191 469 317.033 468.996 316.857 468.989C316.681 468.982 316.494 468.978 316.296 468.978C316.098 468.978 315.908 468.982 315.724 468.989C315.548 468.996 315.391 469 315.251 469ZM318.023 469C318.001 469 317.99 468.978 317.99 468.934C317.99 468.89 318.001 468.868 318.023 468.868C318.265 468.868 318.419 468.831 318.485 468.758C318.551 468.677 318.533 468.564 318.43 468.417L317.055 466.58L317.638 466.14L319.101 468.109C319.307 468.388 319.512 468.586 319.717 468.703C319.93 468.813 320.143 468.868 320.355 468.868C320.37 468.868 320.377 468.89 320.377 468.934C320.377 468.978 320.37 469 320.355 469C320.216 469 320.058 468.996 319.882 468.989C319.706 468.982 319.516 468.978 319.31 468.978C319.032 468.978 318.79 468.982 318.584 468.989C318.379 468.996 318.192 469 318.023 469ZM316.406 467.218L316.351 467.086L318.001 465.678C318.258 465.465 318.364 465.282 318.32 465.128C318.276 464.967 318.089 464.886 317.759 464.886C317.745 464.886 317.737 464.864 317.737 464.82C317.737 464.776 317.745 464.754 317.759 464.754C317.943 464.754 318.126 464.758 318.309 464.765C318.493 464.772 318.742 464.776 319.057 464.776C319.343 464.776 319.571 464.772 319.739 464.765C319.908 464.758 320.069 464.754 320.223 464.754C320.238 464.754 320.245 464.776 320.245 464.82C320.245 464.864 320.238 464.886 320.223 464.886C320.047 464.886 319.849 464.915 319.629 464.974C319.409 465.025 319.178 465.113 318.936 465.238C318.702 465.363 318.467 465.524 318.232 465.722L316.406 467.218Z" fill="black"/>
<path d="M313.844 469.066C313.815 469.08 313.782 469.088 313.745 469.088C313.635 469.088 313.529 469.007 313.426 468.846C313.331 468.677 313.283 468.439 313.283 468.131V466.195C313.283 465.872 313.254 465.615 313.195 465.425C313.144 465.234 313.067 465.098 312.964 465.018C312.869 464.93 312.755 464.886 312.623 464.886C312.462 464.886 312.326 464.926 312.216 465.007C312.106 465.087 312.022 465.197 311.963 465.337C311.912 465.469 311.875 465.615 311.853 465.777C311.838 465.916 311.794 466.033 311.721 466.129C311.655 466.217 311.538 466.261 311.369 466.261C311.237 466.261 311.134 466.228 311.061 466.162C310.988 466.096 310.951 466.004 310.951 465.887C310.951 465.747 311.021 465.608 311.16 465.469C311.299 465.322 311.475 465.186 311.688 465.062C311.901 464.937 312.121 464.838 312.348 464.765C312.583 464.691 312.799 464.655 312.997 464.655C313.29 464.655 313.536 464.754 313.734 464.952C313.932 465.142 314.031 465.447 314.031 465.865V467.812C314.031 468.054 314.064 468.233 314.13 468.351C314.196 468.468 314.302 468.527 314.449 468.527C314.574 468.527 314.735 468.486 314.933 468.406C314.963 468.391 314.984 468.406 314.999 468.45C315.021 468.486 315.014 468.512 314.977 468.527L313.844 469.066ZM311.633 469.077C311.398 469.077 311.219 469.014 311.094 468.89C310.969 468.765 310.907 468.607 310.907 468.417C310.907 468.189 310.995 468.017 311.171 467.9C311.347 467.782 311.629 467.658 312.018 467.526L313.393 467.053L313.426 467.185L312.304 467.614C312.128 467.68 312.003 467.753 311.93 467.834C311.857 467.914 311.82 468.017 311.82 468.142C311.82 468.296 311.864 468.417 311.952 468.505C312.04 468.593 312.154 468.637 312.293 468.637C312.366 468.637 312.443 468.626 312.524 468.604C312.605 468.582 312.689 468.552 312.777 468.516L313.613 468.076L313.624 468.23L312.678 468.747C312.465 468.857 312.275 468.941 312.106 469C311.945 469.051 311.787 469.077 311.633 469.077Z" fill="black"/>
<path d="M308.182 463.038C308.182 462.825 308.16 462.664 308.116 462.554C308.079 462.444 307.991 462.367 307.852 462.323C307.72 462.279 307.515 462.257 307.236 462.257C307.214 462.257 307.203 462.235 307.203 462.191C307.203 462.147 307.214 462.125 307.236 462.125C307.412 462.125 307.614 462.132 307.841 462.147C308.076 462.154 308.336 462.158 308.622 462.158C308.871 462.158 309.113 462.154 309.348 462.147C309.59 462.132 309.799 462.125 309.975 462.125C309.997 462.125 310.008 462.147 310.008 462.191C310.008 462.235 309.997 462.257 309.975 462.257C309.718 462.257 309.52 462.279 309.381 462.323C309.249 462.36 309.161 462.433 309.117 462.543C309.073 462.646 309.051 462.803 309.051 463.016V468.109C309.051 468.322 309.073 468.483 309.117 468.593C309.161 468.703 309.249 468.776 309.381 468.813C309.52 468.85 309.718 468.868 309.975 468.868C309.997 468.868 310.008 468.89 310.008 468.934C310.008 468.978 309.997 469 309.975 469C309.799 469 309.59 468.996 309.348 468.989C309.113 468.982 308.871 468.978 308.622 468.978C308.336 468.978 308.076 468.982 307.841 468.989C307.614 468.996 307.412 469 307.236 469C307.214 469 307.203 468.978 307.203 468.934C307.203 468.89 307.214 468.868 307.236 468.868C307.515 468.868 307.72 468.85 307.852 468.813C307.991 468.776 308.079 468.703 308.116 468.593C308.16 468.483 308.182 468.322 308.182 468.109V463.038ZM303.705 465.546V465.293H308.567V465.546H303.705ZM303.298 468.109V463.016C303.298 462.803 303.276 462.646 303.232 462.543C303.188 462.433 303.1 462.36 302.968 462.323C302.836 462.279 302.642 462.257 302.385 462.257C302.363 462.257 302.352 462.235 302.352 462.191C302.352 462.147 302.363 462.125 302.385 462.125C302.568 462.125 302.774 462.132 303.001 462.147C303.228 462.154 303.467 462.158 303.716 462.158C304.009 462.158 304.27 462.154 304.497 462.147C304.732 462.132 304.941 462.125 305.124 462.125C305.139 462.125 305.146 462.147 305.146 462.191C305.146 462.235 305.139 462.257 305.124 462.257C304.853 462.257 304.647 462.279 304.508 462.323C304.376 462.367 304.284 462.444 304.233 462.554C304.189 462.664 304.167 462.825 304.167 463.038V468.109C304.167 468.322 304.189 468.483 304.233 468.593C304.277 468.703 304.369 468.776 304.508 468.813C304.647 468.85 304.853 468.868 305.124 468.868C305.139 468.868 305.146 468.89 305.146 468.934C305.146 468.978 305.139 469 305.124 469C304.933 469 304.724 468.996 304.497 468.989C304.27 468.982 304.009 468.978 303.716 468.978C303.467 468.978 303.225 468.982 302.99 468.989C302.755 468.996 302.546 469 302.363 469C302.348 469 302.341 468.978 302.341 468.934C302.341 468.89 302.348 468.868 302.363 468.868C302.627 468.868 302.825 468.85 302.957 468.813C303.096 468.776 303.188 468.703 303.232 468.593C303.276 468.483 303.298 468.322 303.298 468.109Z" fill="black"/>
<path d="M268 450.5C268 451.328 267.328 452 266.5 452C265.672 452 265 451.328 265 450.5C265 449.672 265.672 449 266.5 449C267.328 449 268 449.672 268 450.5Z" fill="black"/>
<path d="M282.81 460.143C282.363 460.143 281.974 460.037 281.644 459.824C281.321 459.611 281.072 459.329 280.896 458.977C280.72 458.618 280.632 458.233 280.632 457.822C280.632 457.441 280.702 457.111 280.841 456.832C280.988 456.553 281.178 456.326 281.413 456.15C281.648 455.967 281.904 455.831 282.183 455.743C282.462 455.655 282.737 455.611 283.008 455.611C283.463 455.611 283.851 455.721 284.174 455.941C284.497 456.161 284.742 456.443 284.911 456.788C285.087 457.133 285.175 457.496 285.175 457.877C285.175 458.339 285.065 458.742 284.845 459.087C284.625 459.424 284.335 459.685 283.976 459.868C283.624 460.051 283.235 460.143 282.81 460.143ZM283.129 459.934C283.488 459.934 283.767 459.795 283.965 459.516C284.17 459.23 284.273 458.797 284.273 458.218C284.273 457.727 284.2 457.305 284.053 456.953C283.906 456.594 283.708 456.319 283.459 456.128C283.217 455.93 282.942 455.831 282.634 455.831C282.275 455.831 281.996 455.97 281.798 456.249C281.607 456.52 281.512 456.924 281.512 457.459C281.512 457.921 281.582 458.343 281.721 458.724C281.86 459.098 282.051 459.395 282.293 459.615C282.535 459.828 282.814 459.934 283.129 459.934Z" fill="black"/>
<path d="M278.587 460.132C278.411 460.132 278.239 460.103 278.07 460.044C277.902 459.993 277.762 459.897 277.652 459.758C277.55 459.619 277.498 459.432 277.498 459.197V456.656C277.498 456.487 277.484 456.359 277.454 456.271C277.425 456.183 277.37 456.124 277.289 456.095C277.209 456.066 277.088 456.051 276.926 456.051C276.904 456.051 276.893 456.025 276.893 455.974C276.893 455.915 276.904 455.886 276.926 455.886C277.249 455.879 277.509 455.802 277.707 455.655C277.913 455.501 278.041 455.292 278.092 455.028C278.1 455.006 278.129 454.995 278.18 454.995C278.232 454.995 278.257 455.006 278.257 455.028V458.823C278.257 459.124 278.331 459.344 278.477 459.483C278.631 459.622 278.84 459.692 279.104 459.692C279.288 459.692 279.453 459.659 279.599 459.593C279.753 459.527 279.878 459.457 279.973 459.384C280.003 459.362 280.028 459.369 280.05 459.406C280.08 459.435 280.08 459.461 280.05 459.483C279.779 459.71 279.53 459.875 279.302 459.978C279.075 460.081 278.837 460.132 278.587 460.132ZM279.72 456.293C279.427 456.227 279.145 456.183 278.873 456.161C278.602 456.139 278.316 456.128 278.015 456.128V455.875C278.309 455.875 278.591 455.864 278.862 455.842C279.141 455.82 279.438 455.794 279.753 455.765C279.775 455.765 279.794 455.791 279.808 455.842C279.823 455.893 279.83 455.952 279.83 456.018C279.83 456.077 279.819 456.139 279.797 456.205C279.775 456.271 279.75 456.3 279.72 456.293Z" fill="black"/>
<path d="M273.787 460.143C273.339 460.143 272.951 460.037 272.621 459.824C272.298 459.611 272.049 459.329 271.873 458.977C271.697 458.618 271.609 458.233 271.609 457.822C271.609 457.441 271.678 457.111 271.818 456.832C271.964 456.553 272.155 456.326 272.39 456.15C272.624 455.967 272.881 455.831 273.16 455.743C273.438 455.655 273.713 455.611 273.985 455.611C274.439 455.611 274.828 455.721 275.151 455.941C275.473 456.161 275.719 456.443 275.888 456.788C276.064 457.133 276.152 457.496 276.152 457.877C276.152 458.339 276.042 458.742 275.822 459.087C275.602 459.424 275.312 459.685 274.953 459.868C274.601 460.051 274.212 460.143 273.787 460.143ZM274.106 459.934C274.465 459.934 274.744 459.795 274.942 459.516C275.147 459.23 275.25 458.797 275.25 458.218C275.25 457.727 275.176 457.305 275.03 456.953C274.883 456.594 274.685 456.319 274.436 456.128C274.194 455.93 273.919 455.831 273.611 455.831C273.251 455.831 272.973 455.97 272.775 456.249C272.584 456.52 272.489 456.924 272.489 457.459C272.489 457.921 272.558 458.343 272.698 458.724C272.837 459.098 273.028 459.395 273.27 459.615C273.512 459.828 273.79 459.934 274.106 459.934Z" fill="black"/>
<path d="M268.929 460C268.915 460 268.907 459.978 268.907 459.934C268.907 459.89 268.915 459.868 268.929 459.868C269.201 459.868 269.38 459.82 269.468 459.725C269.556 459.622 269.6 459.417 269.6 459.109V457.415C269.6 456.579 269.296 456.161 268.687 456.161C268.438 456.161 268.189 456.238 267.939 456.392C267.69 456.546 267.477 456.751 267.301 457.008L267.257 456.876C267.551 456.465 267.851 456.157 268.159 455.952C268.467 455.739 268.794 455.633 269.138 455.633C269.52 455.633 269.813 455.743 270.018 455.963C270.231 456.183 270.337 456.524 270.337 456.986V459.109C270.337 459.417 270.378 459.622 270.458 459.725C270.546 459.82 270.726 459.868 270.997 459.868C271.027 459.868 271.041 459.89 271.041 459.934C271.041 459.978 271.027 460 270.997 460C270.865 460 270.708 459.996 270.524 459.989C270.348 459.982 270.161 459.978 269.963 459.978C269.773 459.978 269.586 459.982 269.402 459.989C269.226 459.996 269.069 460 268.929 460ZM266.08 460C266.058 460 266.047 459.978 266.047 459.934C266.047 459.89 266.058 459.868 266.08 459.868C266.344 459.868 266.52 459.82 266.608 459.725C266.696 459.622 266.74 459.417 266.74 459.109V457.415C266.74 456.579 266.44 456.161 265.838 456.161C265.582 456.161 265.329 456.238 265.079 456.392C264.837 456.546 264.628 456.751 264.452 457.008L264.408 456.876C264.702 456.465 265.002 456.157 265.31 455.952C265.618 455.739 265.941 455.633 266.278 455.633C266.66 455.633 266.957 455.743 267.169 455.963C267.382 456.176 267.488 456.498 267.488 456.931V459.109C267.488 459.417 267.529 459.622 267.609 459.725C267.697 459.82 267.877 459.868 268.148 459.868C268.17 459.868 268.181 459.89 268.181 459.934C268.181 459.978 268.17 460 268.148 460C268.009 460 267.851 459.996 267.675 459.989C267.499 459.982 267.312 459.978 267.114 459.978C266.916 459.978 266.726 459.982 266.542 459.989C266.366 459.996 266.212 460 266.08 460ZM263.253 460C263.231 460 263.22 459.978 263.22 459.934C263.22 459.89 263.231 459.868 263.253 459.868C263.517 459.868 263.69 459.82 263.77 459.725C263.858 459.622 263.902 459.417 263.902 459.109V456.964C263.902 456.729 263.873 456.557 263.814 456.447C263.763 456.337 263.671 456.282 263.539 456.282C263.466 456.282 263.382 456.297 263.286 456.326C263.191 456.348 263.081 456.385 262.956 456.436C262.927 456.451 262.905 456.44 262.89 456.403C262.876 456.359 262.879 456.33 262.901 456.315L264.254 455.666C264.284 455.659 264.306 455.655 264.32 455.655C264.386 455.655 264.46 455.736 264.54 455.897C264.621 456.058 264.661 456.289 264.661 456.59V459.109C264.661 459.417 264.702 459.622 264.782 459.725C264.87 459.82 265.05 459.868 265.321 459.868C265.343 459.868 265.354 459.89 265.354 459.934C265.354 459.978 265.343 460 265.321 460C265.182 460 265.024 459.996 264.848 459.989C264.672 459.982 264.485 459.978 264.287 459.978C264.089 459.978 263.899 459.982 263.715 459.989C263.539 459.996 263.385 460 263.253 460Z" fill="black"/>
<path d="M259.348 460.099C258.974 460.099 258.677 459.982 258.457 459.747C258.244 459.505 258.138 459.171 258.138 458.746V457.085C258.138 456.806 258.112 456.605 258.061 456.48C258.017 456.355 257.932 456.293 257.808 456.293C257.712 456.293 257.599 456.326 257.467 456.392C257.437 456.407 257.412 456.392 257.39 456.348C257.375 456.304 257.382 456.278 257.412 456.271L258.71 455.666C258.724 455.659 258.739 455.655 258.754 455.655C258.783 455.655 258.812 455.666 258.842 455.688C258.871 455.71 258.886 455.736 258.886 455.765V458.328C258.886 458.753 258.959 459.069 259.106 459.274C259.26 459.472 259.491 459.571 259.799 459.571C260.063 459.571 260.323 459.494 260.58 459.34C260.844 459.186 261.067 458.984 261.251 458.735L261.306 458.856C260.998 459.267 260.682 459.578 260.36 459.791C260.044 459.996 259.707 460.099 259.348 460.099ZM261.79 455.765V458.79C261.79 459.039 261.815 459.219 261.867 459.329C261.925 459.439 262.021 459.494 262.153 459.494C262.219 459.494 262.292 459.483 262.373 459.461C262.461 459.432 262.567 459.391 262.692 459.34C262.721 459.325 262.743 459.34 262.758 459.384C262.78 459.421 262.78 459.446 262.758 459.461L261.394 460.11C261.379 460.117 261.361 460.121 261.339 460.121C261.28 460.121 261.214 460.04 261.141 459.879C261.075 459.71 261.042 459.472 261.042 459.164V457.085C261.042 456.806 261.016 456.605 260.965 456.48C260.913 456.355 260.829 456.293 260.712 456.293C260.616 456.293 260.499 456.326 260.36 456.392C260.338 456.407 260.316 456.392 260.294 456.348C260.279 456.304 260.286 456.278 260.316 456.271L261.614 455.666C261.628 455.659 261.643 455.655 261.658 455.655C261.68 455.655 261.705 455.666 261.735 455.688C261.771 455.71 261.79 455.736 261.79 455.765Z" fill="black"/>
<path d="M254.762 456.381C254.762 456.557 254.806 456.711 254.894 456.843C254.989 456.968 255.11 457.078 255.257 457.173C255.403 457.268 255.557 457.364 255.719 457.459C255.909 457.554 256.089 457.657 256.258 457.767C256.434 457.87 256.577 457.998 256.687 458.152C256.797 458.306 256.852 458.508 256.852 458.757C256.852 458.992 256.793 459.215 256.676 459.428C256.558 459.633 256.382 459.802 256.148 459.934C255.913 460.059 255.62 460.121 255.268 460.121C255.092 460.121 254.916 460.099 254.74 460.055C254.564 460.011 254.38 459.927 254.19 459.802C254.175 459.787 254.16 459.769 254.146 459.747C254.131 459.725 254.124 459.699 254.124 459.67L254.102 458.746C254.102 458.724 254.12 458.713 254.157 458.713C254.201 458.706 254.226 458.709 254.234 458.724C254.322 458.966 254.432 459.179 254.564 459.362C254.703 459.538 254.857 459.674 255.026 459.769C255.202 459.864 255.389 459.912 255.587 459.912C255.792 459.912 255.953 459.857 256.071 459.747C256.188 459.637 256.243 459.472 256.236 459.252C256.236 459.047 256.184 458.878 256.082 458.746C255.986 458.607 255.865 458.493 255.719 458.405C255.572 458.31 255.418 458.222 255.257 458.141C255.081 458.053 254.908 457.958 254.74 457.855C254.571 457.752 254.432 457.624 254.322 457.47C254.219 457.316 254.168 457.114 254.168 456.865C254.168 456.572 254.241 456.333 254.388 456.15C254.542 455.967 254.736 455.835 254.971 455.754C255.205 455.666 255.447 455.622 255.697 455.622C255.843 455.622 255.983 455.637 256.115 455.666C256.247 455.688 256.386 455.728 256.533 455.787C256.599 455.816 256.632 455.857 256.632 455.908C256.632 456.04 256.628 456.176 256.621 456.315C256.613 456.454 256.61 456.605 256.61 456.766C256.61 456.788 256.588 456.799 256.544 456.799C256.5 456.799 256.478 456.788 256.478 456.766C256.478 456.612 256.419 456.465 256.302 456.326C256.184 456.187 256.038 456.073 255.862 455.985C255.686 455.89 255.502 455.842 255.312 455.842C255.158 455.842 255.026 455.882 254.916 455.963C254.813 456.044 254.762 456.183 254.762 456.381Z" fill="black"/>
<path d="M251.936 460.132C251.76 460.132 251.588 460.103 251.419 460.044C251.25 459.993 251.111 459.897 251.001 459.758C250.898 459.619 250.847 459.432 250.847 459.197V456.656C250.847 456.487 250.832 456.359 250.803 456.271C250.774 456.183 250.719 456.124 250.638 456.095C250.557 456.066 250.436 456.051 250.275 456.051C250.253 456.051 250.242 456.025 250.242 455.974C250.242 455.915 250.253 455.886 250.275 455.886C250.598 455.879 250.858 455.802 251.056 455.655C251.261 455.501 251.39 455.292 251.441 455.028C251.448 455.006 251.478 454.995 251.529 454.995C251.58 454.995 251.606 455.006 251.606 455.028V458.823C251.606 459.124 251.679 459.344 251.826 459.483C251.98 459.622 252.189 459.692 252.453 459.692C252.636 459.692 252.801 459.659 252.948 459.593C253.102 459.527 253.227 459.457 253.322 459.384C253.351 459.362 253.377 459.369 253.399 459.406C253.428 459.435 253.428 459.461 253.399 459.483C253.128 459.71 252.878 459.875 252.651 459.978C252.424 460.081 252.185 460.132 251.936 460.132ZM253.069 456.293C252.776 456.227 252.493 456.183 252.222 456.161C251.951 456.139 251.665 456.128 251.364 456.128V455.875C251.657 455.875 251.94 455.864 252.211 455.842C252.49 455.82 252.787 455.794 253.102 455.765C253.124 455.765 253.142 455.791 253.157 455.842C253.172 455.893 253.179 455.952 253.179 456.018C253.179 456.077 253.168 456.139 253.146 456.205C253.124 456.271 253.098 456.3 253.069 456.293Z" fill="black"/>
<path d="M248.736 460.066C248.706 460.081 248.673 460.088 248.637 460.088C248.527 460.088 248.42 460.007 248.318 459.846C248.222 459.677 248.175 459.439 248.175 459.131V457.195C248.175 456.872 248.145 456.616 248.087 456.425C248.035 456.234 247.958 456.099 247.856 456.018C247.76 455.93 247.647 455.886 247.515 455.886C247.353 455.886 247.218 455.926 247.108 456.007C246.998 456.088 246.913 456.198 246.855 456.337C246.803 456.469 246.767 456.616 246.745 456.777C246.73 456.916 246.686 457.034 246.613 457.129C246.547 457.217 246.429 457.261 246.261 457.261C246.129 457.261 246.026 457.228 245.953 457.162C245.879 457.096 245.843 457.004 245.843 456.887C245.843 456.748 245.912 456.608 246.052 456.469C246.191 456.322 246.367 456.187 246.58 456.062C246.792 455.937 247.012 455.838 247.24 455.765C247.474 455.692 247.691 455.655 247.889 455.655C248.182 455.655 248.428 455.754 248.626 455.952C248.824 456.143 248.923 456.447 248.923 456.865V458.812C248.923 459.054 248.956 459.234 249.022 459.351C249.088 459.468 249.194 459.527 249.341 459.527C249.465 459.527 249.627 459.487 249.825 459.406C249.854 459.391 249.876 459.406 249.891 459.45C249.913 459.487 249.905 459.512 249.869 459.527L248.736 460.066ZM246.525 460.077C246.29 460.077 246.11 460.015 245.986 459.89C245.861 459.765 245.799 459.608 245.799 459.417C245.799 459.19 245.887 459.017 246.063 458.9C246.239 458.783 246.521 458.658 246.91 458.526L248.285 458.053L248.318 458.185L247.196 458.614C247.02 458.68 246.895 458.753 246.822 458.834C246.748 458.915 246.712 459.017 246.712 459.142C246.712 459.296 246.756 459.417 246.844 459.505C246.932 459.593 247.045 459.637 247.185 459.637C247.258 459.637 247.335 459.626 247.416 459.604C247.496 459.582 247.581 459.553 247.669 459.516L248.505 459.076L248.516 459.23L247.57 459.747C247.357 459.857 247.166 459.941 246.998 460C246.836 460.051 246.679 460.077 246.525 460.077Z" fill="black"/>
<path d="M237.309 458.746L237.419 453.378L237.694 453.4L237.584 458.746C237.577 459.127 237.643 459.41 237.782 459.593C237.929 459.776 238.171 459.868 238.508 459.868C238.53 459.868 238.541 459.89 238.541 459.934C238.541 459.978 238.53 460 238.508 460C238.347 460 238.182 459.996 238.013 459.989C237.844 459.982 237.654 459.978 237.441 459.978C237.243 459.978 237.056 459.982 236.88 459.989C236.704 459.996 236.539 460 236.385 460C236.37 460 236.363 459.978 236.363 459.934C236.363 459.89 236.37 459.868 236.385 459.868C236.693 459.868 236.92 459.776 237.067 459.593C237.221 459.41 237.302 459.127 237.309 458.746ZM245.009 459.868C245.024 459.868 245.031 459.89 245.031 459.934C245.031 459.978 245.024 460 245.009 460C244.826 460 244.62 459.996 244.393 459.989C244.166 459.982 243.924 459.978 243.667 459.978C243.425 459.978 243.198 459.982 242.985 459.989C242.772 459.996 242.582 460 242.413 460C242.391 460 242.38 459.978 242.38 459.934C242.38 459.89 242.391 459.868 242.413 459.868C242.772 459.868 243.003 459.82 243.106 459.725C243.209 459.63 243.249 459.424 243.227 459.109L243.007 453.928L243.436 453.312L240.587 459.923C240.58 459.952 240.55 459.967 240.499 459.967C240.455 459.967 240.426 459.952 240.411 459.923L237.54 454.038C237.283 453.517 236.924 453.257 236.462 453.257C236.447 453.257 236.44 453.235 236.44 453.191C236.44 453.147 236.447 453.125 236.462 453.125C236.594 453.125 236.73 453.129 236.869 453.136C237.016 453.143 237.14 453.147 237.243 453.147C237.382 453.147 237.507 453.143 237.617 453.136C237.734 453.129 237.822 453.125 237.881 453.125C237.984 453.125 238.064 453.162 238.123 453.235C238.182 453.301 238.27 453.455 238.387 453.697L240.884 458.768L240.477 459.472L243.128 453.4C243.165 453.312 243.209 453.246 243.26 453.202C243.319 453.151 243.385 453.125 243.458 453.125C243.509 453.125 243.572 453.129 243.645 453.136C243.726 453.143 243.817 453.147 243.92 453.147C244.125 453.147 244.298 453.143 244.437 453.136C244.576 453.129 244.719 453.125 244.866 453.125C244.881 453.125 244.888 453.147 244.888 453.191C244.888 453.235 244.881 453.257 244.866 453.257C244.514 453.257 244.257 453.316 244.096 453.433C243.935 453.543 243.858 453.748 243.865 454.049L244.096 459.109C244.111 459.322 244.14 459.483 244.184 459.593C244.228 459.703 244.312 459.776 244.437 459.813C244.562 459.85 244.752 459.868 245.009 459.868Z" fill="black"/>
<path d="M276 427.5C276 428.328 275.328 429 274.5 429C273.672 429 273 428.328 273 427.5C273 426.672 273.672 426 274.5 426C275.328 426 276 426.672 276 427.5Z" fill="black"/>
<path d="M305.963 423.066C305.934 423.08 305.901 423.088 305.864 423.088C305.754 423.088 305.648 423.007 305.545 422.846C305.45 422.677 305.402 422.439 305.402 422.131V420.195C305.402 419.872 305.373 419.615 305.314 419.425C305.263 419.234 305.186 419.098 305.083 419.018C304.988 418.93 304.874 418.886 304.742 418.886C304.581 418.886 304.445 418.926 304.335 419.007C304.225 419.087 304.141 419.197 304.082 419.337C304.031 419.469 303.994 419.615 303.972 419.777C303.958 419.916 303.914 420.033 303.84 420.129C303.774 420.217 303.657 420.261 303.488 420.261C303.356 420.261 303.254 420.228 303.18 420.162C303.107 420.096 303.07 420.004 303.07 419.887C303.07 419.747 303.14 419.608 303.279 419.469C303.419 419.322 303.595 419.186 303.807 419.062C304.02 418.937 304.24 418.838 304.467 418.765C304.702 418.691 304.918 418.655 305.116 418.655C305.41 418.655 305.655 418.754 305.853 418.952C306.051 419.142 306.15 419.447 306.15 419.865V421.812C306.15 422.054 306.183 422.233 306.249 422.351C306.315 422.468 306.422 422.527 306.568 422.527C306.693 422.527 306.854 422.486 307.052 422.406C307.082 422.391 307.104 422.406 307.118 422.45C307.14 422.486 307.133 422.512 307.096 422.527L305.963 423.066ZM303.752 423.077C303.518 423.077 303.338 423.014 303.213 422.89C303.089 422.765 303.026 422.607 303.026 422.417C303.026 422.189 303.114 422.017 303.29 421.9C303.466 421.782 303.749 421.658 304.137 421.526L305.512 421.053L305.545 421.185L304.423 421.614C304.247 421.68 304.123 421.753 304.049 421.834C303.976 421.914 303.939 422.017 303.939 422.142C303.939 422.296 303.983 422.417 304.071 422.505C304.159 422.593 304.273 422.637 304.412 422.637C304.486 422.637 304.563 422.626 304.643 422.604C304.724 422.582 304.808 422.552 304.896 422.516L305.732 422.076L305.743 422.23L304.797 422.747C304.585 422.857 304.394 422.941 304.225 423C304.064 423.051 303.906 423.077 303.752 423.077Z" fill="black"/>
<path d="M299.696 423.143C299.396 423.143 299.102 423.095 298.816 423C298.538 422.897 298.27 422.736 298.013 422.516L298.596 421.438C298.596 421.805 298.673 422.098 298.827 422.318C298.989 422.538 299.179 422.696 299.399 422.791C299.627 422.886 299.832 422.934 300.015 422.934C300.404 422.934 300.705 422.769 300.917 422.439C301.137 422.109 301.247 421.643 301.247 421.042C301.247 420.367 301.119 419.865 300.862 419.535C300.613 419.205 300.29 419.04 299.894 419.04C299.616 419.04 299.355 419.121 299.113 419.282C298.879 419.436 298.659 419.616 298.453 419.821L298.365 419.744C298.519 419.575 298.688 419.403 298.871 419.227C299.055 419.051 299.264 418.904 299.498 418.787C299.74 418.67 300.012 418.611 300.312 418.611C300.628 418.611 300.917 418.688 301.181 418.842C301.453 418.989 301.673 419.212 301.841 419.513C302.01 419.814 302.094 420.191 302.094 420.646C302.094 421.203 301.977 421.669 301.742 422.043C301.508 422.41 301.207 422.685 300.84 422.868C300.474 423.051 300.092 423.143 299.696 423.143ZM297.287 423.055C297.258 423.062 297.236 423.051 297.221 423.022C297.207 422.993 297.214 422.971 297.243 422.956C297.441 422.824 297.592 422.685 297.694 422.538C297.797 422.384 297.848 422.16 297.848 421.867V416.466C297.848 416.202 297.823 416.011 297.771 415.894C297.72 415.777 297.628 415.718 297.496 415.718C297.386 415.718 297.229 415.766 297.023 415.861C296.994 415.876 296.972 415.861 296.957 415.817C296.943 415.773 296.946 415.747 296.968 415.74L298.409 415.036C298.431 415.029 298.45 415.025 298.464 415.025C298.494 415.025 298.523 415.036 298.552 415.058C298.582 415.08 298.596 415.106 298.596 415.135V422.461L297.287 423.055Z" fill="black"/>
<path d="M293.426 423.099C293.052 423.099 292.755 422.981 292.535 422.747C292.322 422.505 292.216 422.171 292.216 421.746V420.085C292.216 419.806 292.19 419.604 292.139 419.48C292.095 419.355 292.01 419.293 291.886 419.293C291.79 419.293 291.677 419.326 291.545 419.392C291.515 419.406 291.49 419.392 291.468 419.348C291.453 419.304 291.46 419.278 291.49 419.271L292.788 418.666C292.802 418.658 292.817 418.655 292.832 418.655C292.861 418.655 292.89 418.666 292.92 418.688C292.949 418.71 292.964 418.735 292.964 418.765V421.328C292.964 421.753 293.037 422.068 293.184 422.274C293.338 422.472 293.569 422.571 293.877 422.571C294.141 422.571 294.401 422.494 294.658 422.34C294.922 422.186 295.145 421.984 295.329 421.735L295.384 421.856C295.076 422.266 294.76 422.578 294.438 422.791C294.122 422.996 293.785 423.099 293.426 423.099ZM295.868 418.765V421.79C295.868 422.039 295.893 422.219 295.945 422.329C296.003 422.439 296.099 422.494 296.231 422.494C296.297 422.494 296.37 422.483 296.451 422.461C296.539 422.431 296.645 422.391 296.77 422.34C296.799 422.325 296.821 422.34 296.836 422.384C296.858 422.42 296.858 422.446 296.836 422.461L295.472 423.11C295.457 423.117 295.439 423.121 295.417 423.121C295.358 423.121 295.292 423.04 295.219 422.879C295.153 422.71 295.12 422.472 295.12 422.164V420.085C295.12 419.806 295.094 419.604 295.043 419.48C294.991 419.355 294.907 419.293 294.79 419.293C294.694 419.293 294.577 419.326 294.438 419.392C294.416 419.406 294.394 419.392 294.372 419.348C294.357 419.304 294.364 419.278 294.394 419.271L295.692 418.666C295.706 418.658 295.721 418.655 295.736 418.655C295.758 418.655 295.783 418.666 295.813 418.688C295.849 418.71 295.868 418.735 295.868 418.765Z" fill="black"/>
<path d="M286.251 423C286.237 423 286.229 422.978 286.229 422.934C286.229 422.89 286.237 422.868 286.251 422.868C286.523 422.868 286.699 422.82 286.779 422.725C286.867 422.622 286.911 422.417 286.911 422.109V416.455C286.911 416.198 286.886 416.011 286.834 415.894C286.79 415.777 286.706 415.718 286.581 415.718C286.471 415.718 286.31 415.766 286.097 415.861C286.075 415.876 286.053 415.861 286.031 415.817C286.009 415.773 286.009 415.747 286.031 415.74L287.483 415.036C287.505 415.029 287.524 415.025 287.538 415.025C287.56 415.025 287.586 415.036 287.615 415.058C287.645 415.08 287.659 415.106 287.659 415.135V422.109C287.659 422.417 287.703 422.622 287.791 422.725C287.879 422.82 288.059 422.868 288.33 422.868C288.352 422.868 288.363 422.89 288.363 422.934C288.363 422.978 288.352 423 288.33 423C288.191 423 288.033 422.996 287.857 422.989C287.681 422.982 287.494 422.978 287.296 422.978C287.098 422.978 286.908 422.982 286.724 422.989C286.548 422.996 286.391 423 286.251 423ZM289.023 423C289.001 423 288.99 422.978 288.99 422.934C288.99 422.89 289.001 422.868 289.023 422.868C289.265 422.868 289.419 422.831 289.485 422.758C289.551 422.677 289.533 422.564 289.43 422.417L288.055 420.58L288.638 420.14L290.101 422.109C290.307 422.388 290.512 422.586 290.717 422.703C290.93 422.813 291.143 422.868 291.355 422.868C291.37 422.868 291.377 422.89 291.377 422.934C291.377 422.978 291.37 423 291.355 423C291.216 423 291.058 422.996 290.882 422.989C290.706 422.982 290.516 422.978 290.31 422.978C290.032 422.978 289.79 422.982 289.584 422.989C289.379 422.996 289.192 423 289.023 423ZM287.406 421.218L287.351 421.086L289.001 419.678C289.258 419.465 289.364 419.282 289.32 419.128C289.276 418.967 289.089 418.886 288.759 418.886C288.745 418.886 288.737 418.864 288.737 418.82C288.737 418.776 288.745 418.754 288.759 418.754C288.943 418.754 289.126 418.758 289.309 418.765C289.493 418.772 289.742 418.776 290.057 418.776C290.343 418.776 290.571 418.772 290.739 418.765C290.908 418.758 291.069 418.754 291.223 418.754C291.238 418.754 291.245 418.776 291.245 418.82C291.245 418.864 291.238 418.886 291.223 418.886C291.047 418.886 290.849 418.915 290.629 418.974C290.409 419.025 290.178 419.113 289.936 419.238C289.702 419.363 289.467 419.524 289.232 419.722L287.406 421.218Z" fill="black"/>
<path d="M284.844 423.066C284.815 423.08 284.782 423.088 284.745 423.088C284.635 423.088 284.529 423.007 284.426 422.846C284.331 422.677 284.283 422.439 284.283 422.131V420.195C284.283 419.872 284.254 419.615 284.195 419.425C284.144 419.234 284.067 419.098 283.964 419.018C283.869 418.93 283.755 418.886 283.623 418.886C283.462 418.886 283.326 418.926 283.216 419.007C283.106 419.087 283.022 419.197 282.963 419.337C282.912 419.469 282.875 419.615 282.853 419.777C282.838 419.916 282.794 420.033 282.721 420.129C282.655 420.217 282.538 420.261 282.369 420.261C282.237 420.261 282.134 420.228 282.061 420.162C281.988 420.096 281.951 420.004 281.951 419.887C281.951 419.747 282.021 419.608 282.16 419.469C282.299 419.322 282.475 419.186 282.688 419.062C282.901 418.937 283.121 418.838 283.348 418.765C283.583 418.691 283.799 418.655 283.997 418.655C284.29 418.655 284.536 418.754 284.734 418.952C284.932 419.142 285.031 419.447 285.031 419.865V421.812C285.031 422.054 285.064 422.233 285.13 422.351C285.196 422.468 285.302 422.527 285.449 422.527C285.574 422.527 285.735 422.486 285.933 422.406C285.963 422.391 285.984 422.406 285.999 422.45C286.021 422.486 286.014 422.512 285.977 422.527L284.844 423.066ZM282.633 423.077C282.398 423.077 282.219 423.014 282.094 422.89C281.969 422.765 281.907 422.607 281.907 422.417C281.907 422.189 281.995 422.017 282.171 421.9C282.347 421.782 282.629 421.658 283.018 421.526L284.393 421.053L284.426 421.185L283.304 421.614C283.128 421.68 283.003 421.753 282.93 421.834C282.857 421.914 282.82 422.017 282.82 422.142C282.82 422.296 282.864 422.417 282.952 422.505C283.04 422.593 283.154 422.637 283.293 422.637C283.366 422.637 283.443 422.626 283.524 422.604C283.605 422.582 283.689 422.552 283.777 422.516L284.613 422.076L284.624 422.23L283.678 422.747C283.465 422.857 283.275 422.941 283.106 423C282.945 423.051 282.787 423.077 282.633 423.077Z" fill="black"/>
<path d="M279.182 417.038C279.182 416.825 279.16 416.664 279.116 416.554C279.079 416.444 278.991 416.367 278.852 416.323C278.72 416.279 278.515 416.257 278.236 416.257C278.214 416.257 278.203 416.235 278.203 416.191C278.203 416.147 278.214 416.125 278.236 416.125C278.412 416.125 278.614 416.132 278.841 416.147C279.076 416.154 279.336 416.158 279.622 416.158C279.871 416.158 280.113 416.154 280.348 416.147C280.59 416.132 280.799 416.125 280.975 416.125C280.997 416.125 281.008 416.147 281.008 416.191C281.008 416.235 280.997 416.257 280.975 416.257C280.718 416.257 280.52 416.279 280.381 416.323C280.249 416.36 280.161 416.433 280.117 416.543C280.073 416.646 280.051 416.803 280.051 417.016V422.109C280.051 422.322 280.073 422.483 280.117 422.593C280.161 422.703 280.249 422.776 280.381 422.813C280.52 422.85 280.718 422.868 280.975 422.868C280.997 422.868 281.008 422.89 281.008 422.934C281.008 422.978 280.997 423 280.975 423C280.799 423 280.59 422.996 280.348 422.989C280.113 422.982 279.871 422.978 279.622 422.978C279.336 422.978 279.076 422.982 278.841 422.989C278.614 422.996 278.412 423 278.236 423C278.214 423 278.203 422.978 278.203 422.934C278.203 422.89 278.214 422.868 278.236 422.868C278.515 422.868 278.72 422.85 278.852 422.813C278.991 422.776 279.079 422.703 279.116 422.593C279.16 422.483 279.182 422.322 279.182 422.109V417.038ZM274.705 419.546V419.293H279.567V419.546H274.705ZM274.298 422.109V417.016C274.298 416.803 274.276 416.646 274.232 416.543C274.188 416.433 274.1 416.36 273.968 416.323C273.836 416.279 273.642 416.257 273.385 416.257C273.363 416.257 273.352 416.235 273.352 416.191C273.352 416.147 273.363 416.125 273.385 416.125C273.568 416.125 273.774 416.132 274.001 416.147C274.228 416.154 274.467 416.158 274.716 416.158C275.009 416.158 275.27 416.154 275.497 416.147C275.732 416.132 275.941 416.125 276.124 416.125C276.139 416.125 276.146 416.147 276.146 416.191C276.146 416.235 276.139 416.257 276.124 416.257C275.853 416.257 275.647 416.279 275.508 416.323C275.376 416.367 275.284 416.444 275.233 416.554C275.189 416.664 275.167 416.825 275.167 417.038V422.109C275.167 422.322 275.189 422.483 275.233 422.593C275.277 422.703 275.369 422.776 275.508 422.813C275.647 422.85 275.853 422.868 276.124 422.868C276.139 422.868 276.146 422.89 276.146 422.934C276.146 422.978 276.139 423 276.124 423C275.933 423 275.724 422.996 275.497 422.989C275.27 422.982 275.009 422.978 274.716 422.978C274.467 422.978 274.225 422.982 273.99 422.989C273.755 422.996 273.546 423 273.363 423C273.348 423 273.341 422.978 273.341 422.934C273.341 422.89 273.348 422.868 273.363 422.868C273.627 422.868 273.825 422.85 273.957 422.813C274.096 422.776 274.188 422.703 274.232 422.593C274.276 422.483 274.298 422.322 274.298 422.109Z" fill="black"/>
<defs>
<clipPath id="clip0_4036_13740">
<rect width="571" height="647.735" fill="white"/>
</clipPath>
</defs>
</svg>
