<svg width="79" height="84" viewBox="0 0 79 84" fill="none" xmlns="http://www.w3.org/2000/svg">
<g clip-path="url(#clip0)">
<g clip-path="url(#clip1)">
<path d="M78.9933 11.5189C77.9873 11.0566 78.5284 10.1706 77.4462 9.63849C77.3527 9.03923 76.5927 9.40086 76.4328 8.86359C75.4023 8.48905 73.4666 9.1503 73.2354 7.44809C72.9894 6.89015 72.8812 6.67318 72.527 7.20529C71.9047 6.22632 73.1591 4.86506 72.6647 3.54514C72.2859 2.83997 73.7814 1.99532 72.3154 1.9075C71.6784 1.3909 70.7536 1.81709 70.0329 1.41414C69.787 0.78905 69.2065 0.724476 68.6334 0.812298C65.9279 -2.39065 65.0695 4.89864 63.5888 6.87724C63.2887 10.8732 63.7068 14.5617 62.113 18.0359C59.8182 22.6673 55.9788 26.1905 51.3178 27.2263C48.2064 28.9311 43.693 31.5374 41.4942 34.8876C39.4994 41.0352 39.6667 44.6049 34.4622 49.0942C34.0121 52.6794 31.5106 54.8466 28.6181 56.3422C26.2102 58.5326 23.5735 61.3946 21.2836 62.9521C19.6873 63.9466 17.791 63.492 16.1012 63.1639C12.1659 67.6352 6.55797 69.3632 1.06321 71.3547C-2.05064 72.0263 2.58325 73.137 2.70869 74.2709C2.08149 76.0791 3.64334 77.1768 3.00138 79.0599C3.65809 79.2691 3.77369 80.6407 3.6458 81.054C5.03055 82.9241 7.19992 78.1016 8.10751 76.9986C7.0425 74.1134 8.08538 75.8182 9.60295 74.8315C10.1514 74.8108 10.8131 75.3042 11.1451 75.6477C11.6936 75.1053 13.2112 75.2551 13.1251 76.2082C14.2762 76.1488 13.4645 77.0864 13.0661 77.758C13.2973 78.2488 12.8521 78.8558 12.6578 79.2174C13.2259 79.6514 13.9146 79.9923 14.3992 80.4108C15.5355 79.6617 15.811 77.6134 17.7541 78.4348C19.2446 78.8584 21.7214 75.9809 22.1543 78.8506C23.667 78.0008 21.9083 75.3765 24.0285 74.8547C25.8855 75.7252 25.3813 71.0344 27.5728 71.2901C28.4878 70.3783 29.8824 70.8872 30.8957 70.2182C31.4688 70.3292 32.0444 70.6702 32.6863 70.6444C33.7169 72.0728 32.9667 74.2606 33.7735 75.8802C34.7868 75.6503 34.2924 76.5647 34.7893 77.0606C36.0191 77.7529 37.9868 78.1351 36.6512 79.9407C37.8687 80.5968 36.6512 81.4208 36.2454 82.0846C36.816 82.4333 37.2735 82.9499 37.1677 83.7636C37.9425 84.634 37.9843 82.9757 38.2745 82.627C38.9952 82.6916 40.4882 84.3809 40.685 82.937C42.1189 82.5986 41.8361 81.5189 41.6442 80.1473C42.815 80.4056 44.1604 79.7573 45.3582 79.3724C45.0114 78.8016 45.0434 78.2359 44.9893 77.5436C45.2844 75.5315 47.8867 77.9595 47.0357 75.3222C44.822 70.2259 50.8505 74.6067 51.217 68.9499C52.0016 69.2082 52.1762 69.7739 52.496 70.5256C53.165 71.1842 54.2497 71.7551 53.9594 72.9536C54.3579 74.2219 56.1165 72.8425 56.0624 74.3355C56.087 74.3355 56.3305 74.2994 56.3698 74.2064C56.665 73.0233 56.9479 72.0185 56.3698 70.9518C56.8396 70.0348 57.0315 69.2366 56.5051 68.3042C55.4819 66.9016 56.847 65.1141 56.3723 63.7839C55.0589 59.651 55.7303 65.0315 53.5782 60.7101C54.0037 58.9949 56.0944 57.9953 55.4475 56.1252C56.9454 54.7639 55.5434 53.6558 54.8031 52.5606C55.2335 51.0857 55.4623 50.5846 57.0635 50.7912C58.704 49.9879 60.6127 50.2901 62.0466 49.9518C62.2286 45.9093 63.8323 48.7197 65.0965 47.8595C66.191 47.6167 67.9939 49.0477 68.4194 47.2138C67.1552 46.5835 68.0357 44.9459 67.5168 43.8429C66.5846 43.285 67.1872 42.2698 67.0371 41.4588C67.5579 41.3389 68.0345 41.0636 68.4096 40.6658C69.1155 40.7174 68.9384 39.4001 69.7624 39.5603C69.8263 39.4647 69.3787 39.0798 69.5607 38.8241C70.7659 36.8997 72.1802 34.8462 73.683 33.4695C72.6696 32.4363 73.0804 31.7802 71.5579 32.2684C69.905 30.8942 69.3885 29.3883 70.2518 27.327C70.1018 25.8857 70.6429 24.8034 70.8028 23.4241C71.0344 23.4154 71.2593 23.3402 71.4531 23.2068C71.6469 23.0734 71.8022 22.8868 71.9022 22.6673C72.1039 21.3758 70.483 21.1872 71.9662 19.9758C72.0449 18.9116 71.4226 17.744 71.671 16.7702C73.0263 14.6573 72.9353 16.1942 75.0776 16.1865C76.6394 14.9518 79.1113 13.637 78.9933 11.5189Z" fill="#101315"/>
</g>
</g>
<defs>
<clipPath id="clip0">
<rect width="79" height="84" fill="white"/>
</clipPath>
<clipPath id="clip1">
<rect width="79.0083" height="84.0032" fill="white" transform="translate(-0.0109863 0.0100098)"/>
</clipPath>
</defs>
</svg>
