<?xml version="1.0" encoding="utf-8"?>
<!-- Generator: Adobe Illustrator 25.4.1, SVG Export Plug-In . SVG Version: 6.00 Build 0)  -->
<svg version="1.1" id="house" xmlns="http://www.w3.org/2000/svg" xmlns:xlink="http://www.w3.org/1999/xlink" x="0px"
	 y="0px" viewBox="0 0 109 94" style="enable-background:new 0 0 109 94;" xml:space="preserve">
<style type="text/css">
	.st0{fill:none;stroke:#000000;stroke-width:0.3622;stroke-linecap:round;}
	.st1{fill:none;}
</style>
<g>
	<g>
		<g>
			<path d="M37.1,2.5c-1.4,0-2.5,0.1-3.8,0c-0.3,0-1.8,0-1.8,0c0,0,0,0.8,0,1.1c-0.1,1.4-0.1,2.4-0.1,3.7c0,3.6,0,6.7-0.1,9.7
				c-0.1,1.4-0.1,4-0.1,5.5c0,2,0.1,3.8,0.1,6.1c-0.1,4.6,0.2,8.8,0.1,13.3c0,0.9,0,2.1,0,3.2c0,0.7-0.2,3.2,0.1,3.4
				c0.1,0.1,1.5,0.1,2.3,0.1c5,0,8.6,0.3,12.8,0.1c1.6,0,3.4-0.1,4.9-0.1c3.5,0.1,6.7-0.1,10.2,0c1.2,0,2.4-0.1,3.6-0.1
				c2.9,0,6.3,0.2,9.6-0.1c0.4,0,0.4,0,1.3-0.1c0.4,0,1.6,0,1.6,0c0.1-0.1,0.1-1.5,0.1-1.8c0-4.4,0-9.2,0-13.1c0-5,0-12,0.1-15.9
				c0-1.8,0.1-3.7,0-6.2c-0.1-1.9,0-4.7,0.1-6.3c0-0.2,0.1-2.2,0-2.3c-0.1-0.1-2.3-0.1-3.2-0.2c-1.3-0.1-2.6,0-3.3,0
				c-2.5,0-4.7,0-6.5,0c-1,0-2-0.1-2.9,0c-1.8,0.1-3.9-0.1-5.9,0c-2,0.1-4-0.1-5.6-0.1c-3.6,0-7.8-0.1-11.4-0.1
				C38.4,2.6,37.8,2.5,37.1,2.5z M54.4,1.8c1.3,0,3.3,0,5.2,0c4.2,0,9.2-0.1,13.6-0.1c1.5,0,2.2,0.1,4,0c0.5,0,1.3,0,1.4,0.2
				c0.3,0.2,0.1,1.8,0.1,2.5c0,0.9-0.1,2.9-0.1,4.2c0,0.9,0,2.2,0,3.3c0,1,0,1.5,0,2.5c0,2.1,0.1,4.4-0.1,6.1
				c-0.1,1.2,0.1,3.3,0.1,4.3c-0.1,5.2,0,9.3-0.1,13.7c0,1.6,0.1,3.6,0.1,5.8c0,0.9,0,1.8,0,2.7c0,0.6,0.2,2.4-0.1,2.7
				c-0.2,0.2-3.2,0-3.8,0c-3.2,0-5.7,0-8.2,0.1c-1.4,0-3.5,0-5,0c-1.5,0-2.9,0.1-4.4,0c-5.6-0.2-10.3,0.3-16,0.1c-2.6-0.1-4.9,0-8,0
				c-0.9,0-2.4,0.1-2.6-0.1c-0.1-0.1-0.2-1.4-0.1-2.3c0.1-2.1,0-5.1,0-7.3c0-3.4,0-6.2,0.1-9.5c0-3.3-0.2-7.1,0-10.1
				c0.2-3.5,0.1-4.9,0.1-7.7c0-0.2,0-2.8,0-3.2c0.1-1-0.1-2.9,0-3.9c0-0.8,0-1.9,0-3.1c0-0.3,0-0.8,0.1-0.9c0.2-0.2,1.4-0.1,2.1-0.1
				c1.6,0.1,3.6,0.1,5.2,0.1c0.8,0,1.4,0,2.1,0c0.7,0,1.6,0.1,2.2,0.1c1.2,0,2.4-0.1,3.5-0.1c2.1,0,3.8-0.1,5.8-0.1
				C52.5,1.8,52.9,1.8,54.4,1.8z"/>
			<path d="M64.9,4.2c0.1-0.1,2-0.2,2.2,0.1c0.2,0.3,0,4.6,0.1,5.5c0,1.9,0,2.1,0,4c0,0.9,0,1.4,0,2.5c0,1.2,0,2,0,3
				c0,0.4-0.1,2.2,0.1,2.5c0.1,0.1,1,0.1,1.2,0.1c1,0,2,0,3.1,0.1c0.3,0,1.4,0.1,1.6,0c0.1-0.1,0.1-2.7,0.1-3.4c0-1.5-0.1-2.8,0-3.9
				c0-0.4,0.1-0.6,0-1c0-0.3,0-0.9,0-1.2c0-1.2,0-2.4,0-3.8c0-0.4,0-0.9,0.1-0.9c0.2-0.2,1.9-0.2,2-0.1c0,0,0,0.8,0,1
				c0.1,4,0,7.6,0.1,10.8c0,1.8,0.1,3.4,0,4.9c0,0.3,0,1-0.1,1c-0.1,0-1,0.1-1,0.1c-0.2,0-0.8,0-1-0.2c-0.3-0.3,0.1-1.7-0.2-2.1
				c-0.1-0.1-0.8,0-1.3-0.1c-3.7-0.1-6.8-0.1-10.3,0c-0.6,0-1.8,0-2.4,0c-0.3,0-0.5,0-0.6,0.1c-0.2,0.2,0.2,1.5-0.1,1.8
				c-0.2,0.2-1.8,0.1-1.9,0c-0.4-0.3-0.2-2.8-0.1-3.5c0.2-4,0-7.7,0.1-11.6c0-0.5-0.1-2,0.1-2.1c0.2-0.2,2.1-0.1,2.2,0
				c0.2,0.3,0,2.3,0,2.9c0,3.6,0,6.4-0.2,10.3c0,0.5-0.1,1,0,1.1c0.2,0.1,0.8,0.1,0.7,0.1c1.1-0.1,2.8,0,4.5-0.1
				c0.3,0,1.3-0.1,1.3-0.1c0.1-0.1,0-1.3,0-1.8c0-2.9,0-5.9-0.1-9.1c-0.1-1.9-0.2-4.6-0.1-6.5C64.8,4.2,64.8,4.2,64.9,4.2z"/>
			<path d="M44.8,11.6c-0.2,0.2-0.1,0.6-0.1,0.7c0,0.9,0,1.3,0,2c-0.1,1.9,0,1.6,2.4,1.6c0.9,0,1.8,0.3,2.2-0.1
				c0.2-0.4,0.1-1.9,0.1-2.5c0,0,0.1-1.4,0-1.6c-0.2-0.3-3.8-0.2-3.9-0.2C45.3,11.6,44.9,11.5,44.8,11.6z M38.1,11.6
				C38,11.7,38,13.1,38,13.5c0,0.5,0.1,0.5,0.1,0.9c0,0.4,0,1.3,0,1.3c0.2,0.2,1.2,0.1,1.3,0.1c0.5,0,3,0.1,3.1,0
				c0.3-0.3,0.2-1.4,0.2-2.1c0-0.5,0.1-2-0.2-2.2c0,0-1.8-0.1-1.8-0.1c-0.7,0-1.8-0.1-2.4,0C38.4,11.5,38.1,11.5,38.1,11.6z M38.3,6
				c-0.3,0.5-0.1,2.1-0.1,3.2c0,0.3-0.1,1.2,0,1.3c0.2,0.2,1.3,0.1,1.5,0.1c0.5,0,2.7,0.1,2.8,0c0.3-0.3,0.2-1.9,0.2-2.4
				c0-0.7,0-1.9-0.2-2.2c0,0-0.5-0.1-0.7-0.1c-0.6-0.1-2.7-0.1-3.3,0C38.5,5.9,38.4,5.9,38.3,6z M44.8,8.2c0,0.3,0,2.1,0,2.2
				c0.1,0.3,1.5,0.1,1.8,0.1c0.3,0,0.8,0,1.3,0c0.2,0,1.4,0.1,1.5-0.1c0.1-0.1,0.1-0.7,0.1-0.7c0-0.8,0-1.6,0-2.3
				c0-0.3,0.1-1.1,0-1.3C49.4,5.9,47.8,6,47.2,6c-0.9,0-1.9-0.2-2.3,0.1C44.6,6.3,44.8,7.2,44.8,8.2z M36.5,4.3
				c0.1,0,0.9-0.1,1.3,0.1c0.2,0.1,0.1,0.3,0.3,0.5c0.1,0,0.5,0.1,0.7,0.1c2.4,0.1,5.7-0.1,8.1,0c0.6,0,2.2,0.1,2.4-0.1
				c0,0,0.1-0.4,0.1-0.4c0.1-0.1,0.4,0,0.5,0c0.2,0,1.4-0.1,1.6,0.1c0.2,0.3,0.1,1.1,0.1,1c-0.1,3.2,0,7-0.1,9.9
				c0,0.5,0.1,1.8-0.1,1.9c-0.1,0.1-1.7,0-1.8-0.1c-0.3-0.1,0-0.3-0.3-0.5c-0.1-0.1-2-0.1-2.2-0.1c-0.4,0-2.2-0.1-2.3,0.1
				c-0.1,0.1,0,2-0.1,2.3c0,0.3,0.1,0.4,0.1,0.4c0.1,0.1,1.2,0,1.5,0c1.1,0,3.1-0.1,4.3,0c1.1,0,2.4-0.2,2.3,0.3
				c0,0.1,0,0.9-0.1,0.9c-0.6,0-1.6-0.1-1.5-0.1c-1.7-0.1-4.3,0-5.7,0c-0.8,0-1.1-0.2-1.1,0.5c0,0.3-0.1,1.7,0,1.9
				c0.2,0.2,1.8,0.2,2.3,0.2c1.4,0,4.4,0,6,0c0.1,0,1.6-0.1,1.7,0c0.2,0.2,0.1,1.1,0,1.2c-0.1,0.1-1.9,0-2.4,0c-2.7,0-4.2,0-6.9-0.1
				c-3-0.1-5.8,0.1-9.1,0c-0.7,0-3,0.1-3.3-0.1c-0.1-0.1-0.3-0.8-0.1-1.1c0.2-0.2,1.2-0.1,1.7-0.1c2,0.1,4.9,0.2,7.3,0
				c0.9-0.1,0.7-0.2,0.7-1.2c0-0.4,0.1-1,0-1.1c-0.2-0.2-1.7-0.1-2.7-0.1c-2,0-3-0.2-4.9-0.1c-0.1,0-0.7,0-0.7,0
				c-0.1,0-0.3-1-0.1-1.2c0.3-0.2,1.4,0.1,1.9,0.1c1.4,0,2.2,0.1,3.9,0.1c0.3,0,2.1,0.1,2.3-0.1c0.2-0.1,0.1-0.7,0.1-1.3
				c0-0.1,0.1-0.9,0-1.1c-0.1-0.2-3-0.1-3.5-0.1c-0.3,0-0.8,0-0.9,0c-0.3,0.1-0.2,0.4-0.4,0.5c-0.4,0.1-1.7,0-1.7-0.2
				c-0.1-0.2-0.1-1.1-0.1-1.4C35.8,12.3,36,9.4,36,5.7c0,0-0.1-1.3,0-1.3C36.1,4.3,36.4,4.3,36.5,4.3z"/>
			<path d="M61.1,33.4c0,1.2,0,4,0.1,6.1c0,0.6-0.1,2.1,0,2.2c0,0,1.1,0.1,1.2,0c0.1-0.1,0.1-1.1,0.1-1.4c0-2.1-0.1-4.1-0.1-6.7
				c0-0.6,0.1-1.7-0.1-1.9c-0.1-0.1-0.9-0.1-1.1,0C61,31.9,61.1,33.1,61.1,33.4z M60.4,25.2c0.2,0,0.7,0,0.8,0.1
				c0.1,0-0.1,0.7-0.1,1.1c0,1.1-0.1,1.6,0,2.9c0,0.3,0,1.1,0.1,1.2c0.1,0.1,0.7,0.1,1,0.1c0.2,0,0.1-0.6,0.2-0.6
				c0,0,1.7-0.1,1.9,0.1c0.1,0.1,0,1.4,0,1.5c-0.1,2.7-0.1,7.2-0.1,10.2c0,0.9,0.1,1-0.9,1c-0.1,0-2.2-0.1-2.3,0
				c-0.2,0.1-0.1,1.4,0,2.1c0,0.9,0,1.5,0,2c0,0.2,0.1,0.9,0,1.1c0,0-1.7,0.1-1.9,0c-0.1-0.1,0-0.9,0-1.4c0-1.5,0-3.6,0.1-4.9
				c0.1-2.6,0-5,0.1-7.9c0-0.5,0.1-1.9-0.1-2.1c-0.1-0.1-1.2,0-1.1-0.1c-0.1,0.1,0,1.3,0,1.6c-0.1,2.1,0,5.9,0,7.7
				c-0.1,1.7,0.2,1.8-0.5,1.8c-0.3,0-1.4,0.1-1.6-0.1c-0.1-0.1-0.1-1.6-0.1-2.3c0.1-2.9-0.1-5.2,0-8c0-0.7,0.1-1.5,0-2.1
				c0,0,0-0.3,0.1-0.4c0.2-0.1,1.7-0.1,1.8,0c0.1,0,0.1,0.6,0.2,0.7c0.1,0.1,1.3,0.1,1.3,0c0.2-0.2,0-1.6,0-1.9c0-1.1,0-1.8-0.1-2.6
				c0-0.1-0.1-0.8,0-0.9C59.4,25.1,60.1,25.2,60.4,25.2z"/>
			<path d="M67.5,38.2c-0.1,0.1,0,1.2,0,1.3c0,1.6-0.1,3.1-0.2,4.9c0,0.6,0,1.5,0.1,1.6c0.2,0.2,1.1,0.1,1.4,0.1c0.8,0,1.5,0,2.5,0
				c0.3,0,1.9,0.1,2.2-0.2c0.1-0.1,0.1-0.7,0.1-0.9c0.1-2,0.1-3.4,0-5.5c0,0,0-1.2,0-1.3c-0.2-0.2-1.8-0.1-2.7-0.1c-0.9,0-1.8,0-2,0
				C68.6,38.1,67.7,38,67.5,38.2z M70.2,25.2c0.5,0,1.4,0,1.5,0.2c0.1,0.2,0.1,1.9,0,2.5c-0.1,1.5,0,2.3-0.1,3.5
				c0,0.6-0.2,1.1,0.3,1c0.7-0.2,1.6-0.5,2.3-0.7c0.1,0,0.9-0.4,1-0.4c0.1,0,0.4,0.6,0.4,0.8c-0.1,0.3-1.7,0.8-1.9,0.9
				c-0.2,0.1-1.9,0.6-2,0.8c-0.1,0.1-0.1,0.7-0.1,0.9c0,0.3-0.1,0.8-0.1,1.2c0,0.2,0,1,0.1,1.2c0.1,0.1,1.8,0.2,1.9,0.1
				c0.2-0.1,0.1-0.4,0.2-0.5c0.3-0.2,0.5-0.1,1.1-0.1c0.5,0,0.9-0.1,1.1,0.1c0.1,0.1,0,2.2,0,3c0,2.3-0.1,4.6-0.1,7.5
				c0,0.1,0,0.5,0,0.8c0,0.1-2,0.1-2.1,0c-0.2-0.2,0-0.8-0.2-0.9c-0.2-0.2-1.1,0-1.7,0c-0.6,0-1.1,0-1.8,0c-0.5,0-2.2-0.1-2.5,0.1
				c-0.3,0.2,0,0.8-0.2,0.9c-0.2,0.2-0.6,0.1-1.1,0.1c-0.2,0-1-0.1-1-0.1c-0.2-0.2-0.1-1.7-0.1-2.5c0-2.8,0.1-5.5,0.1-8.5
				c0-0.4-0.3-0.7,0.4-0.7c0.2,0,1.7-0.1,1.9,0c0.2,0.1,0,0.6,0.1,0.6c0.2,0.1,0.5,0.1,0.9,0.1c0.4,0,0.9,0.1,1.1-0.1
				c0.1-0.1,0-1.3,0-2c-0.1-2.6,0-4.5-0.1-7.5c0-0.3,0-1.9,0.1-2.1C69.7,25.2,69.7,25.2,70.2,25.2z"/>
			<path d="M43.3,25.8c0.4,0,1.4-0.1,1.4,0c0.1,0.2,0,1.7,0,2c0,1,0,3.3,0.1,4.4c0,0.5-0.1,2.1,0,2.1c0.2,0.3,1.5,0.1,1.9,0.1
				c2.6-0.1,4.1-0.2,6.3-0.1c0.3,0,1.5-0.1,1.6,0c0.1,0,0.2,0.8,0,1c-0.2,0.2-1.9,0.2-2.3,0.2c-1.8,0-3.1,0.1-5.1,0.1
				c-0.5,0-2-0.2-2.3,0.1c-0.3,0.2-0.2,1.4-0.2,2c0,3.7,0.2,6,0.2,7.8c0,0.5,0,1.9-0.1,2.1c-0.1,0.2-1.7,0.2-2,0
				c-0.1-0.1,0-0.9-0.1-1.3c-0.1-2.3,0-5.5,0-8.6c0-0.8,0-1.8-0.1-2.1c-0.2-0.2-3.4,0-4.1,0c-1.3,0-2.9,0-4.6-0.1
				c-0.6,0-1.1,0.1-1.1-0.5c0,0,0-0.4,0.1-0.5c0.2-0.1,2-0.1,2.3-0.1c2.4,0,4.4-0.2,7.1,0c-0.1,0,0.5,0,0.5,0c0-0.1,0-1.3,0-2.1
				c-0.1-1.6,0-2.8-0.1-4.5c0-0.8-0.1-2,0-2.1C42.6,25.9,43.3,25.8,43.3,25.8z"/>
			<path class="st0" d="M29.5,46.8c-0.1,0.5-0.1,1.5,0,2.2c0,0.5,0,1.3,0.2,1.5c0.3,0.3,1.9,0.1,2.4,0c1.3-0.1,2.6,0,4,0
				c3.8-0.1,7.9-0.1,11.9,0c3.3,0.1,6.6,0,10.2,0c2.8,0,5.6,0.1,8.5,0.1c3.2,0,5.9,0,9.1,0.1c0.4,0,3.3,0.2,3.6-0.2
				c0.3-0.2,0.2-2.4,0.2-2.9c-0.1-2.9-0.1-5.1-0.2-7.9c-0.1-2.5,0.1-6.1,0-9.1c-0.1-3.2,0-6.4,0-9.5c0.1-5.8,0.3-12.7,0.2-18.4
				c0-0.5-0.1-1.5-0.3-1.7c-0.1-0.1-1.3-0.1-1.8-0.1C72.4,0.8,66.8,1,61.8,1c-3.9,0-7.3-0.1-11.1-0.2c-0.9,0-3.1,0.1-4.2,0.1
				c-4.1,0-6.9-0.2-10.6-0.1c-0.9,0-2.2,0.1-3.2,0.1c-0.6,0-2.6-0.2-2.9,0.2c-0.2,0.2,0,1.3,0,1.8c0,1-0.1,2.3-0.1,3.1
				c0.1,5.7,0.2,11.5,0,17.5c-0.2,4.6,0.1,9.4,0,13.9C29.4,40.6,29.4,43.6,29.5,46.8z"/>
		</g>
	</g>
	<rect class="st1" width="109" height="94"/>
</g>
</svg>
