<svg width="141" height="120" viewBox="0 0 141 120" fill="none" xmlns="http://www.w3.org/2000/svg">
<g clip-path="url(#clip0)">
<path d="M4.79158 105.395C4.78316 105.024 4.76526 104.755 4.73368 104.584C4.50211 104.584 4.21684 104.593 3.87789 104.606C3.53895 104.623 3.17579 104.641 2.79053 104.664C2.40526 104.688 2.01158 104.719 1.61053 104.757C1.20947 104.797 0.838947 104.84 0.5 104.885C0.530526 104.717 0.557895 104.546 0.58 104.377C0.603158 104.208 0.614737 104.038 0.614737 103.869C0.614737 103.699 0.603158 103.53 0.58 103.359C0.557895 103.19 0.530526 103.019 0.5 102.85C1.02421 102.864 1.49789 102.88 1.92211 102.895C2.34632 102.912 2.77895 102.922 3.21895 102.93C3.65789 102.938 4.13579 102.946 4.65263 102.954C5.16947 102.961 5.79053 102.965 6.51579 102.965C7.24105 102.965 7.86105 102.961 8.3779 102.954C8.89474 102.946 9.36842 102.938 9.80211 102.931C10.2326 102.923 10.6547 102.912 11.0621 102.896C11.4716 102.881 11.9147 102.865 12.3937 102.851C12.3621 103.02 12.3347 103.19 12.3126 103.358C12.2895 103.529 12.2779 103.698 12.2779 103.867C12.2779 104.037 12.2895 104.206 12.3126 104.376C12.3358 104.545 12.3621 104.716 12.3937 104.884C12.0842 104.839 11.7379 104.796 11.3526 104.757C10.9663 104.719 10.5853 104.689 10.2063 104.664C9.82947 104.642 9.47053 104.623 9.13158 104.606C8.79158 104.592 8.50632 104.584 8.27579 104.584C8.26 104.661 8.24947 104.77 8.24105 104.909C8.23263 105.048 8.22947 105.21 8.22947 105.395V106.62V112.405C8.22947 113.686 8.24526 114.823 8.27579 115.818C8.30632 116.813 8.35263 117.789 8.41474 118.745C8.15263 118.715 7.86632 118.698 7.55895 118.698C7.25053 118.698 6.90316 118.698 6.51789 118.698C6.13263 118.698 5.78526 118.698 5.47684 118.698C5.16842 118.698 4.88316 118.715 4.62105 118.745C4.68316 117.789 4.72842 116.813 4.76 115.818C4.79053 114.823 4.80632 113.686 4.80632 112.405V106.62C4.80316 106.175 4.8 105.765 4.79158 105.395Z" fill="#F8F5F0"/>
<path d="M25.0274 111.029C24.44 111.006 23.8547 110.995 23.2684 110.995C22.6821 110.995 22.0968 111.002 21.5095 111.018C20.9231 111.033 20.3379 111.056 19.7516 111.086V112.405C19.7516 113.686 19.7674 114.823 19.7979 115.818C19.8284 116.813 19.8747 117.789 19.9368 118.745C19.6737 118.715 19.3884 118.698 19.081 118.698C18.7726 118.698 18.4252 118.698 18.04 118.698C17.6547 118.698 17.3074 118.698 16.9989 118.698C16.6905 118.698 16.4052 118.715 16.1421 118.745C16.2042 117.789 16.2505 116.813 16.281 115.818C16.3116 114.823 16.3274 113.686 16.3274 112.405V109.258C16.3274 107.978 16.3116 106.84 16.281 105.845C16.2505 104.851 16.2042 103.852 16.1421 102.85C16.4042 102.88 16.6905 102.908 16.9989 102.93C17.3074 102.953 17.6547 102.964 18.04 102.964C18.4252 102.964 18.7726 102.953 19.081 102.93C19.3895 102.908 19.6737 102.88 19.9368 102.85C19.86 103.852 19.8095 104.842 19.7863 105.822C19.7631 106.802 19.7516 107.932 19.7516 109.213C20.1526 109.228 20.6347 109.239 21.1979 109.247C21.76 109.255 22.4579 109.258 23.2916 109.258C24.1242 109.258 24.8031 109.255 25.3284 109.247C25.8526 109.239 26.3379 109.226 26.7863 109.213C26.7863 107.932 26.7705 106.802 26.74 105.822C26.7084 104.842 26.6621 103.852 26.601 102.85C26.8631 102.88 27.1484 102.908 27.4558 102.93C27.7642 102.953 28.1116 102.964 28.4968 102.964C28.8821 102.964 29.2295 102.953 29.5379 102.93C29.8463 102.908 30.1316 102.88 30.3947 102.85C30.3326 103.852 30.2863 104.85 30.2558 105.845C30.2252 106.84 30.2095 107.978 30.2095 109.258V112.405C30.2095 113.686 30.2252 114.823 30.2558 115.818C30.2863 116.813 30.3326 117.789 30.3947 118.745C30.1326 118.715 29.8463 118.698 29.5379 118.698C29.2295 118.698 28.8821 118.698 28.4968 118.698C28.1116 118.698 27.7642 118.698 27.4558 118.698C27.1474 118.698 26.8631 118.715 26.601 118.745C26.6621 117.789 26.7084 116.813 26.74 115.818C26.7705 114.823 26.7863 113.686 26.7863 112.405V111.086C26.1989 111.072 25.6126 111.052 25.0274 111.029Z" fill="#F8F5F0"/>
<path d="M35.4621 105.845C35.4305 104.851 35.3842 103.852 35.3231 102.85C36.0168 102.864 36.7031 102.887 37.3821 102.918C38.06 102.95 38.7473 102.964 39.441 102.964C40.5831 102.964 41.5968 102.953 42.4842 102.93C43.3716 102.908 43.9695 102.88 44.2779 102.85C44.2158 103.096 44.1852 103.42 44.1852 103.821C44.1852 104.068 44.1926 104.26 44.2073 104.4C44.2231 104.538 44.2463 104.693 44.2768 104.862C43.8284 104.832 43.3389 104.8 42.8073 104.77C42.2747 104.739 41.7579 104.708 41.2558 104.677C40.7547 104.646 40.3042 104.623 39.9031 104.608C39.501 104.593 39.2168 104.585 39.0473 104.585C38.9852 105.434 38.9505 106.274 38.9421 107.108C38.9347 107.941 38.9305 108.782 38.9305 109.63C39.9326 109.614 40.8389 109.592 41.6494 109.56C42.4589 109.531 43.3031 109.492 44.1831 109.444C44.1368 109.708 44.1063 109.908 44.0905 110.046C44.0747 110.185 44.0663 110.332 44.0663 110.486C44.0663 110.61 44.0789 110.737 44.101 110.868C44.1252 110.998 44.1516 111.188 44.1821 111.434C42.4231 111.296 40.6726 111.226 38.9294 111.226C38.9294 111.72 38.9252 112.214 38.9179 112.706C38.9095 113.201 38.9063 113.694 38.9063 114.188C38.9063 115.191 38.9284 116.154 38.9747 117.08C39.8547 117.08 40.7337 117.057 41.6126 117.012C42.4926 116.964 43.3789 116.889 44.2737 116.779C44.2431 116.95 44.2189 117.104 44.2042 117.241C44.1884 117.381 44.1821 117.574 44.1821 117.82C44.1821 118.068 44.1895 118.26 44.2042 118.399C44.22 118.538 44.2431 118.654 44.2737 118.746C43.8568 118.73 43.3442 118.719 42.7347 118.712C42.1252 118.703 41.2884 118.699 40.2242 118.699C39.2821 118.699 38.5189 118.699 37.9326 118.699C37.3621 118.699 36.9031 118.699 36.5558 118.699C36.2084 118.699 35.9463 118.703 35.7695 118.712C35.5916 118.719 35.441 118.731 35.3179 118.746C35.3789 117.79 35.4252 116.814 35.4568 115.819C35.4873 114.824 35.5031 113.687 35.5031 112.406V109.259C35.5084 107.978 35.4926 106.84 35.4621 105.845Z" fill="#F8F5F0"/>
<path d="M65.1959 111.029C64.6085 111.006 64.0233 110.995 63.4369 110.995C62.8506 110.995 62.2654 111.002 61.678 111.018C61.0917 111.033 60.5064 111.056 59.9201 111.086V112.405C59.9201 113.686 59.9359 114.823 59.9664 115.818C59.9969 116.813 60.0433 117.789 60.1054 118.745C59.8422 118.715 59.5569 118.698 59.2485 118.698C58.9401 118.698 58.5927 118.698 58.2075 118.698C57.8222 118.698 57.4748 118.698 57.1664 118.698C56.858 118.698 56.5717 118.715 56.3096 118.745C56.3717 117.789 56.418 116.813 56.4485 115.818C56.479 114.823 56.4948 113.686 56.4948 112.405V109.258C56.4948 107.978 56.479 106.84 56.4485 105.845C56.418 104.851 56.3717 103.852 56.3096 102.85C56.5717 102.88 56.858 102.908 57.1664 102.93C57.4748 102.953 57.8222 102.964 58.2075 102.964C58.5927 102.964 58.9401 102.953 59.2485 102.93C59.5569 102.908 59.8422 102.88 60.1054 102.85C60.0285 103.852 59.978 104.842 59.9548 105.822C59.9317 106.802 59.9201 107.932 59.9201 109.213C60.3211 109.228 60.8033 109.239 61.3664 109.247C61.9285 109.255 62.6264 109.258 63.4601 109.258C64.2927 109.258 64.9706 109.255 65.4959 109.247C66.0201 109.239 66.5054 109.226 66.9538 109.213C66.9538 107.932 66.938 106.802 66.9075 105.822C66.8759 104.842 66.8296 103.852 66.7685 102.85C67.0306 102.88 67.3159 102.908 67.6233 102.93C67.9317 102.953 68.279 102.964 68.6643 102.964C69.0496 102.964 69.3969 102.953 69.7054 102.93C70.0138 102.908 70.299 102.88 70.5611 102.85C70.499 103.852 70.4527 104.85 70.4222 105.845C70.3917 106.84 70.3759 107.978 70.3759 109.258V112.405C70.3759 113.686 70.3917 114.823 70.4222 115.818C70.4527 116.813 70.499 117.789 70.5611 118.745C70.299 118.715 70.0127 118.698 69.7054 118.698C69.3969 118.698 69.0496 118.698 68.6643 118.698C68.279 118.698 67.9317 118.698 67.6233 118.698C67.3148 118.698 67.0306 118.715 66.7685 118.745C66.8296 117.789 66.8759 116.813 66.9075 115.818C66.938 114.823 66.9538 113.686 66.9538 112.405V111.086C66.3675 111.072 65.7811 111.052 65.1959 111.029Z" fill="#F8F5F0"/>
<path d="M74.637 110.833C74.637 109.691 74.8485 108.618 75.2727 107.615C75.6959 106.613 76.2949 105.734 77.0654 104.977C77.837 104.223 78.7696 103.629 79.8654 103.196C80.9601 102.765 82.1791 102.549 83.5212 102.549C84.7559 102.549 85.9054 102.718 86.9685 103.057C88.0338 103.396 88.9591 103.907 89.7464 104.585C90.5327 105.264 91.1538 106.123 91.6096 107.165C92.0643 108.205 92.2917 109.42 92.2917 110.809C92.2917 111.966 92.0717 113.046 91.6317 114.048C91.1917 115.051 90.5822 115.926 89.8043 116.674C89.0254 117.423 88.0959 118.005 87.0159 118.42C85.937 118.837 84.7485 119.046 83.4528 119.046C82.2338 119.046 81.0885 118.895 80.0159 118.594C78.9433 118.293 78.0106 117.808 77.217 117.136C76.4222 116.465 75.7927 115.61 75.3306 114.568C74.8675 113.529 74.637 112.283 74.637 110.833ZM88.497 110.324C88.497 109.321 88.3738 108.423 88.1275 107.628C87.8812 106.833 87.537 106.158 87.097 105.603C86.658 105.048 86.1254 104.619 85.5001 104.318C84.8749 104.017 84.1928 103.867 83.4528 103.867C82.6664 103.867 81.9601 104.056 81.3349 104.434C80.7106 104.812 80.1812 105.325 79.7496 105.972C79.318 106.619 78.9896 107.38 78.7664 108.252C78.5422 109.124 78.4306 110.053 78.4306 111.039C78.4306 112.273 78.5622 113.315 78.8243 114.163C79.0864 115.012 79.4412 115.694 79.8885 116.21C80.337 116.728 80.8527 117.103 81.4401 117.332C82.0264 117.565 82.6433 117.679 83.2906 117.679C83.9854 117.679 84.6485 117.533 85.2812 117.239C85.9138 116.948 86.4654 116.499 86.9359 115.898C87.4054 115.297 87.7843 114.533 88.0696 113.607C88.3538 112.684 88.497 111.588 88.497 110.324Z" fill="#F8F5F0"/>
<path d="M103.605 119.046C102.618 119.046 101.697 118.942 100.84 118.734C99.9841 118.526 99.2389 118.179 98.6073 117.694C97.9736 117.206 97.4768 116.582 97.1147 115.819C96.7515 115.056 96.5705 114.127 96.5705 113.032C96.5705 112.415 96.5736 111.863 96.582 111.377C96.5894 110.892 96.5936 110.439 96.5936 110.024C96.5936 109.607 96.5978 109.206 96.6062 108.82C96.6136 108.435 96.6178 108.034 96.6178 107.616C96.6178 106.366 96.6094 105.356 96.5947 104.585C96.5789 103.815 96.5568 103.236 96.5262 102.851C96.8347 102.881 97.1515 102.908 97.4747 102.931C97.7989 102.954 98.1136 102.965 98.4231 102.965C98.7315 102.965 99.0473 102.954 99.3715 102.931C99.6957 102.908 100.01 102.881 100.319 102.851C100.164 104.346 100.073 105.739 100.041 107.026C100.01 108.316 99.9947 109.623 99.9947 110.95C99.9947 112.354 100.096 113.486 100.296 114.35C100.496 115.215 100.794 115.881 101.187 116.352C101.58 116.822 102.062 117.135 102.633 117.29C103.203 117.444 103.867 117.52 104.623 117.52C105.549 117.52 106.274 117.29 106.798 116.826C107.322 116.364 107.72 115.747 107.989 114.975C108.26 114.204 108.425 113.321 108.487 112.325C108.549 111.331 108.58 110.293 108.58 109.214C108.58 108.148 108.564 107.087 108.534 106.032C108.503 104.976 108.457 103.915 108.395 102.852C108.61 102.882 108.819 102.91 109.02 102.932C109.22 102.955 109.405 102.966 109.575 102.966C109.775 102.966 109.968 102.955 110.154 102.932C110.339 102.91 110.53 102.882 110.733 102.852C110.701 103.191 110.67 103.645 110.64 104.217C110.608 104.787 110.577 105.446 110.547 106.195C110.516 106.943 110.488 107.768 110.466 108.671C110.443 109.573 110.432 110.527 110.432 111.528C110.432 114.214 109.853 116.138 108.697 117.301C107.539 118.464 105.841 119.046 103.605 119.046Z" fill="#F8F5F0"/>
<path d="M120.89 103.983C120.18 103.983 119.601 104.192 119.154 104.609C118.705 105.026 118.482 105.511 118.482 106.067C118.482 106.638 118.656 107.105 119.002 107.467C119.35 107.83 119.785 108.157 120.31 108.451C120.834 108.743 121.397 109.026 121.998 109.295C122.6 109.566 123.162 109.897 123.687 110.29C124.212 110.683 124.647 111.161 124.994 111.725C125.341 112.288 125.515 113.009 125.515 113.888C125.515 114.659 125.367 115.366 125.075 116.006C124.782 116.646 124.365 117.194 123.826 117.649C123.285 118.105 122.642 118.452 121.894 118.69C121.145 118.93 120.308 119.049 119.383 119.049C118.551 119.049 117.805 118.96 117.151 118.783C116.495 118.606 115.997 118.386 115.658 118.123C115.812 117.582 115.943 117.09 116.052 116.642C116.159 116.195 116.251 115.71 116.33 115.185H116.768C116.831 115.525 116.946 115.843 117.116 116.145C117.285 116.446 117.501 116.711 117.763 116.943C118.025 117.175 118.342 117.357 118.712 117.488C119.082 117.618 119.498 117.683 119.962 117.683C120.887 117.683 121.57 117.452 122.01 116.99C122.448 116.527 122.668 115.971 122.668 115.323C122.668 114.737 122.499 114.258 122.16 113.889C121.821 113.518 121.396 113.192 120.887 112.906C120.379 112.62 119.823 112.342 119.221 112.073C118.62 111.802 118.064 111.475 117.556 111.089C117.046 110.703 116.622 110.229 116.283 109.665C115.943 109.102 115.774 108.381 115.774 107.501C115.774 106.699 115.917 105.99 116.202 105.373C116.487 104.756 116.87 104.239 117.347 103.822C117.825 103.407 118.378 103.09 119.001 102.874C119.626 102.658 120.286 102.55 120.98 102.55C121.813 102.55 122.541 102.65 123.166 102.851C123.792 103.05 124.327 103.329 124.775 103.683C124.636 104.038 124.516 104.381 124.416 104.713C124.315 105.045 124.187 105.465 124.034 105.973H123.687C123.195 104.647 122.262 103.983 120.89 103.983Z" fill="#F8F5F0"/>
<path d="M130.957 105.845C130.925 104.851 130.879 103.852 130.818 102.85C131.512 102.864 132.199 102.887 132.877 102.918C133.556 102.95 134.242 102.964 134.936 102.964C136.078 102.964 137.092 102.953 137.979 102.93C138.866 102.908 139.464 102.88 139.773 102.85C139.711 103.096 139.68 103.42 139.68 103.821C139.68 104.068 139.687 104.26 139.702 104.4C139.718 104.538 139.741 104.693 139.772 104.862C139.323 104.832 138.834 104.8 138.303 104.77C137.771 104.739 137.254 104.708 136.752 104.677C136.251 104.646 135.8 104.623 135.399 104.608C134.997 104.593 134.713 104.585 134.543 104.585C134.481 105.434 134.446 106.274 134.438 107.108C134.431 107.941 134.426 108.782 134.426 109.63C135.428 109.614 136.335 109.592 137.145 109.56C137.956 109.531 138.799 109.492 139.679 109.444C139.633 109.708 139.602 109.908 139.586 110.046C139.571 110.185 139.562 110.332 139.562 110.486C139.562 110.61 139.575 110.737 139.597 110.868C139.621 110.998 139.647 111.188 139.678 111.434C137.919 111.296 136.168 111.226 134.425 111.226C134.425 111.72 134.421 112.214 134.414 112.706C134.405 113.201 134.402 113.694 134.402 114.188C134.402 115.191 134.424 116.154 134.471 117.08C135.351 117.08 136.23 117.057 137.108 117.012C137.988 116.964 138.875 116.889 139.77 116.779C139.739 116.95 139.715 117.104 139.7 117.241C139.684 117.381 139.678 117.574 139.678 117.82C139.678 118.068 139.685 118.26 139.7 118.399C139.716 118.538 139.739 118.654 139.77 118.746C139.354 118.73 138.84 118.719 138.231 118.712C137.621 118.703 136.784 118.699 135.72 118.699C134.778 118.699 134.015 118.699 133.428 118.699C132.858 118.699 132.399 118.699 132.052 118.699C131.704 118.699 131.442 118.703 131.265 118.712C131.087 118.719 130.937 118.731 130.814 118.746C130.875 117.79 130.921 116.814 130.953 115.819C130.983 114.824 130.999 113.687 130.999 112.406V109.259C131.002 107.978 130.987 106.84 130.957 105.845Z" fill="#F8F5F0"/>
<path d="M7.64849 92.0413C7.79165 92.2371 7.96217 92.4097 8.16954 92.5697C8.37059 92.7276 8.61059 92.8571 8.88428 92.956C9.15796 93.0571 9.46217 93.1066 9.79796 93.1066C10.1464 93.1066 10.459 93.0423 10.7369 92.9255C11.0148 92.8023 11.2506 92.6413 11.4453 92.4381C11.6411 92.2329 11.7885 91.9897 11.8969 91.7129C12.0011 91.435 12.0506 91.135 12.0506 90.8202C12.0506 90.3371 11.9295 89.955 11.6843 89.6729C11.4359 89.3855 11.1316 89.1487 10.7611 88.9613C10.3916 88.7697 9.99586 88.6013 9.57059 88.4413C9.14638 88.2834 8.74744 88.0876 8.38112 87.8497C8.01059 87.6129 7.70323 87.3129 7.46112 86.9455C7.2127 86.5792 7.08849 86.0834 7.08849 85.4623C7.08849 85.0223 7.16638 84.6213 7.32533 84.256C7.48323 83.896 7.70849 83.5876 8.00954 83.3223C8.31059 83.0581 8.66849 82.8539 9.08954 82.7076C9.50744 82.5571 9.98533 82.4834 10.5085 82.4834C11.0095 82.4834 11.4474 82.5487 11.8127 82.6666C12.1832 82.7897 12.5527 83.0634 12.8685 83.3097C12.7748 83.4908 12.6969 83.6781 12.6338 83.8771C12.5685 84.0781 12.5074 84.3287 12.4432 84.6339H12.2538C12.2011 84.4876 12.1001 84.2423 12.0127 84.0687C11.9222 83.896 11.8043 83.7381 11.6506 83.5876C11.499 83.4413 11.3159 83.3181 11.1064 83.2171C10.8969 83.1171 10.6422 83.0666 10.3495 83.0666C10.0569 83.0666 9.78533 83.1118 9.53902 83.2087C9.28954 83.3034 9.07481 83.4413 8.89059 83.6097C8.70744 83.7823 8.56533 83.9918 8.46638 84.2339C8.36744 84.475 8.31691 84.7392 8.31691 85.0223C8.31691 85.5139 8.43902 85.9055 8.68638 86.1887C8.93375 86.4708 9.24112 86.7129 9.60744 86.9087C9.97796 87.1002 10.3738 87.2729 10.799 87.4266C11.2232 87.5771 11.6201 87.7634 11.9885 87.9813C12.3559 88.2055 12.6685 88.4887 12.9116 88.8339C13.1548 89.1855 13.2801 89.6444 13.2801 90.2234C13.2801 90.7066 13.1948 91.1655 13.0201 91.5887C12.8474 92.0266 12.599 92.395 12.2674 92.7192C11.9327 93.0423 11.5295 93.2887 11.0506 93.4613C10.5759 93.6339 10.0295 93.7202 9.42217 93.7202C8.76849 93.7202 8.24323 93.6339 7.83586 93.4613C7.43165 93.2887 7.09481 93.0876 6.82007 92.8697C6.91691 92.6297 6.98217 92.4087 7.01796 92.2181C7.05375 92.0223 7.08849 91.7718 7.11796 91.4655H7.30849C7.39059 91.6529 7.50638 91.8497 7.64849 92.0413Z" fill="#F8F5F0"/>
<path d="M21.6558 88.6161L19.9063 84.6108L18.1916 88.6161L17.8831 89.3582C17.5505 90.1719 17.2484 90.9477 16.98 91.6814C16.7063 92.4193 16.501 93.0277 16.361 93.5172C16.1821 93.495 15.9895 93.4845 15.7789 93.4845C15.5673 93.4845 15.3758 93.495 15.1979 93.5172C16.0463 91.675 16.8789 89.8498 17.6873 88.0319C18.4958 86.215 19.3116 84.3656 20.1284 82.4824H20.4263C20.681 83.0929 20.9558 83.754 21.2452 84.4603C21.541 85.1719 21.84 85.8898 22.1452 86.615C22.4505 87.3393 22.7526 88.054 23.0579 88.7698C23.361 89.4856 23.6484 90.1487 23.9168 90.7656C24.1831 91.3803 24.4263 91.9245 24.6389 92.4077C24.8579 92.8908 25.0337 93.2614 25.1695 93.5161C25.0221 93.494 24.8842 93.4835 24.7526 93.4835H24.3358H23.9158C23.7852 93.4835 23.6442 93.494 23.4989 93.5161C23.4263 93.274 23.3273 92.9814 23.1979 92.6403C23.0716 92.2993 22.9316 91.9393 22.781 91.5708L21.6558 88.6161ZM17.3221 89.3393C17.32 89.3477 17.3147 89.354 17.3147 89.3582L17.3221 89.3393Z" fill="#F8F5F0"/>
<path d="M89.2726 88.6161L87.5253 84.6108L85.8074 88.6161L85.5 89.3582C85.1653 90.1719 84.8642 90.9477 84.5937 91.6814C84.321 92.4193 84.1189 93.0277 83.981 93.5172C83.7989 93.495 83.6042 93.4845 83.3968 93.4845C83.1853 93.4845 82.9926 93.495 82.8126 93.5172C83.6621 91.675 84.4958 89.8498 85.3021 88.0319C86.1116 86.215 86.9232 84.3656 87.7453 82.4824H88.0432C88.2958 83.0929 88.5674 83.754 88.8631 84.4603C89.1589 85.1719 89.4568 85.8898 89.761 86.615C90.0653 87.3393 90.3705 88.054 90.6768 88.7698C90.9768 89.4856 91.2674 90.1487 91.5347 90.7656C91.801 91.3803 92.041 91.9245 92.2589 92.4077C92.4758 92.8908 92.6505 93.2614 92.7874 93.5161C92.6389 93.494 92.4989 93.4835 92.3684 93.4835H91.9526H91.5358C91.4042 93.4835 91.2642 93.494 91.1189 93.5161C91.0442 93.274 90.9421 92.9814 90.8179 92.6403C90.6916 92.2993 90.5537 91.9393 90.4 91.5708L89.2726 88.6161ZM85.5074 89.3393C85.5074 89.3477 85.5 89.354 85.5 89.3582L85.5074 89.3393Z" fill="#F8F5F0"/>
<path d="M62.1547 88.6161L60.4074 84.6108L58.6884 88.6161L58.381 89.3582C58.0484 90.1719 57.7474 90.9477 57.4758 91.6814C57.2032 92.4193 56.9958 93.0277 56.8621 93.5172C56.6821 93.495 56.4863 93.4845 56.2758 93.4845C56.0663 93.4845 55.8726 93.495 55.6926 93.5172C56.5453 91.675 57.3737 89.8498 58.1811 88.0319C58.9905 86.215 59.8063 84.3656 60.6253 82.4824H60.9253C61.1779 83.0929 61.4484 83.754 61.7463 84.4603C62.0368 85.1719 62.3358 85.8898 62.641 86.615C62.9484 87.3393 63.2516 88.054 63.5568 88.7698C63.86 89.4856 64.1463 90.1487 64.4126 90.7656C64.6842 91.3803 64.9253 91.9245 65.1389 92.4077C65.3516 92.8908 65.5305 93.2614 65.6663 93.5161C65.5189 93.494 65.38 93.4835 65.2484 93.4835H64.8337H64.4126C64.2821 93.4835 64.1432 93.494 63.9958 93.5161C63.9232 93.274 63.8232 92.9814 63.6989 92.6403C63.5737 92.2993 63.4337 91.9393 63.2821 91.5708L62.1547 88.6161ZM58.3895 89.3393C58.3842 89.3477 58.3832 89.354 58.381 89.3582L58.3895 89.3393Z" fill="#F8F5F0"/>
<path d="M28.7316 83.5095C28.4569 83.5095 28.1716 83.5095 27.8706 83.5179C27.5727 83.5232 27.2737 83.5369 26.9758 83.5506C26.6769 83.5643 26.3821 83.5811 26.1074 83.6053C25.8274 83.6285 25.36 83.6495 25.1379 83.6822C25.1885 83.4906 25.2158 83.3274 25.2158 83.1801C25.2158 83.0632 25.1885 82.898 25.1379 82.6885C25.8316 82.7106 26.7295 82.7295 27.3906 82.7443C28.0548 82.7632 28.7316 82.7706 29.4243 82.7706C30.119 82.7706 30.7948 82.7622 31.4558 82.7443C32.1179 82.7295 32.9821 82.7116 33.6769 82.6885C33.6232 82.898 33.599 83.0664 33.599 83.1937C33.599 83.3306 33.6243 83.4895 33.6769 83.6811C33.4558 83.6485 33.02 83.6274 32.7411 83.6043C32.4632 83.5801 32.1758 83.5632 31.8748 83.5495C31.5748 83.5358 31.2748 83.5222 30.9748 83.5169C30.6748 83.5085 30.3906 83.5085 30.12 83.5085C30.0864 84.5916 30.0716 85.6779 30.0716 86.7695V89.4811C30.0716 90.1779 30.0864 90.8569 30.1127 91.5306C30.1358 92.199 30.1643 92.8653 30.1979 93.5169C29.9548 93.4948 29.6979 93.4843 29.4253 93.4843C29.1495 93.4843 28.8948 93.4948 28.6537 93.5169C28.6853 92.8653 28.7158 92.199 28.74 91.5306C28.7653 90.8558 28.7779 90.1779 28.7779 89.4811V86.7695C28.7758 85.6779 28.7643 84.5927 28.7316 83.5095Z" fill="#F8F5F0"/>
<path d="M43.8021 85.8635C43.6063 85.2266 43.3347 84.7056 42.9842 84.2877C42.6347 83.8719 42.2284 83.5677 41.7579 83.3666C41.2852 83.1677 40.7747 83.0666 40.2273 83.0666C39.6863 83.0666 39.1821 83.1677 38.7105 83.3666C38.2431 83.5677 37.8284 83.8719 37.4821 84.2877C37.1337 84.7056 36.8579 85.2266 36.6652 85.8635C36.4684 86.4961 36.3716 87.2529 36.3716 88.1287C36.3716 88.9982 36.4694 89.7529 36.6652 90.3877C36.8589 91.0245 37.1337 91.5477 37.4821 91.9624C37.8284 92.3782 38.2431 92.6866 38.7105 92.8814C39.1821 93.0824 39.6873 93.1835 40.2273 93.1835C40.7758 93.1835 41.2852 93.0824 41.7579 92.8814C42.2284 92.6856 42.6347 92.3772 42.9842 91.9624C43.3347 91.5466 43.6073 91.0245 43.8021 90.3877C43.9989 89.7519 44.0968 88.9982 44.0968 88.1287C44.0968 87.2529 43.9979 86.4961 43.8021 85.8635ZM35.3863 85.7393C35.641 85.0403 35.9989 84.4456 36.4621 83.9635C36.9221 83.4803 37.4747 83.1161 38.1179 82.8603C38.76 82.6119 39.4642 82.4824 40.2273 82.4824C40.9979 82.4824 41.7095 82.6119 42.3537 82.8603C42.9916 83.1161 43.5452 83.4803 44.0052 83.9635C44.4684 84.4456 44.8252 85.0393 45.08 85.7393C45.3379 86.4372 45.4652 87.234 45.4652 88.1287C45.4652 89.0214 45.3379 89.8129 45.08 90.514C44.8252 91.2108 44.4684 91.8056 44.0052 92.2866C43.5442 92.7761 42.9916 93.1298 42.3537 93.3677C41.7105 93.6045 40.9989 93.7214 40.2273 93.7214C39.4642 93.7214 38.76 93.6045 38.1179 93.3677C37.4747 93.1287 36.9221 92.7761 36.4621 92.2866C35.9989 91.8056 35.6421 91.2119 35.3863 90.514C35.1273 89.8129 35.0021 89.0214 35.0021 88.1287C35.001 87.234 35.1273 86.4372 35.3863 85.7393Z" fill="#F8F5F0"/>
<path d="M50.0559 88.3064C49.8538 87.9695 49.6253 87.5906 49.3769 87.1716C49.1295 86.7579 48.8727 86.3243 48.598 85.8643C48.3243 85.4043 48.0664 84.9706 47.8169 84.5558C47.5717 84.1422 47.3474 83.7685 47.1527 83.4411C46.9506 83.1085 46.7969 82.858 46.6917 82.6885C46.8401 82.7106 46.9832 82.7295 47.1243 82.7443C47.2685 82.7632 47.4106 82.7706 47.5559 82.7706C47.7064 82.7706 47.8506 82.7622 47.9927 82.7443C48.1359 82.7295 48.2769 82.7116 48.4243 82.6885C48.8959 83.6043 49.3759 84.5022 49.8685 85.3853C50.3559 86.2674 50.8727 87.1885 51.419 88.1411C51.658 87.7632 51.9138 87.3495 52.1769 86.8927C52.4369 86.4464 52.7001 85.9811 52.9622 85.5127C53.2243 85.0401 53.479 84.5611 53.7201 84.0822C53.9611 83.6095 54.1874 83.1401 54.3969 82.6885C54.6611 82.7443 54.8664 82.7706 55.0138 82.7706C55.158 82.7706 55.3622 82.7443 55.6253 82.6885C55.1211 83.459 54.6727 84.1506 54.2717 84.7716C53.8738 85.3906 53.5211 85.9495 53.2159 86.4558C52.9127 86.9579 52.6411 87.418 52.4127 87.819C52.1801 88.2243 51.9832 88.5937 51.8116 88.9169C51.8116 89.3032 51.8169 89.719 51.819 90.1611C51.8295 90.5969 51.8348 91.0348 51.8464 91.4643C51.8559 91.8853 51.8674 92.278 51.8822 92.6422C51.9011 93.0085 51.9169 93.2937 51.9401 93.5179C51.698 93.4958 51.4401 93.4853 51.1685 93.4853C50.8969 93.4853 50.638 93.4958 50.399 93.5179C50.4611 92.9706 50.4969 92.3053 50.5074 91.5316C50.518 90.7527 50.5222 89.9401 50.5222 89.0895C50.4159 88.9106 50.2611 88.6474 50.0559 88.3064Z" fill="#F8F5F0"/>
<path d="M71.8864 86.8329C72.6296 88.2413 73.4033 89.6845 74.2117 91.1645C74.3191 90.9655 74.4696 90.6834 74.6696 90.3097C74.8706 89.936 75.1043 89.5076 75.3622 89.0244C75.6275 88.5413 75.9075 88.0171 76.2075 87.4581C76.5033 86.8929 76.8117 86.3276 77.1191 85.7455C77.4285 85.1666 77.738 84.6023 78.0412 84.0455C78.3485 83.4908 78.6285 82.9666 78.8959 82.4834H79.0991C79.2148 83.496 79.3212 84.4655 79.4222 85.4087C79.5222 86.3466 79.6222 87.2718 79.7296 88.1823C79.8348 89.0887 79.9391 89.9918 80.0443 90.876C80.1485 91.7645 80.2654 92.6423 80.3927 93.5181C80.2654 93.496 80.1401 93.4855 80.0201 93.4855H79.6485H79.2801C79.1591 93.4855 79.0338 93.496 78.9075 93.5181C78.7927 92.1181 78.678 90.7676 78.5612 89.4497C78.4464 88.1381 78.3054 86.7971 78.1359 85.4318H78.1033C77.3812 86.7581 76.6696 88.0739 75.9685 89.376C75.2717 90.6897 74.6064 92.055 73.9749 93.4855H73.8338C73.2043 92.1613 72.5443 90.835 71.8559 89.5097C71.1685 88.1792 70.4759 86.816 69.7812 85.4318H69.7527C69.6801 86.0834 69.5991 86.7897 69.5096 87.5497C69.4212 88.315 69.3391 89.0634 69.2643 89.8055C69.1938 90.5476 69.1275 91.2445 69.078 91.9002C69.0243 92.5602 68.998 93.0929 68.998 93.5181C68.8275 93.496 68.6475 93.4855 68.4475 93.4855C68.2464 93.4855 68.0622 93.496 67.8938 93.5181C68.0338 92.6645 68.1748 91.7687 68.3222 90.8213C68.4675 89.8771 68.6085 88.9255 68.7475 87.9697C68.8833 87.0139 69.0075 86.0697 69.1254 85.1402C69.238 84.2108 69.3391 83.3276 69.4233 82.4834H69.6927C70.4149 83.9771 71.1485 85.4255 71.8864 86.8329Z" fill="#F8F5F0"/>
<path d="M100.892 94.9568C101.154 94.7516 101.355 94.4631 101.494 94.1C101.627 93.7316 101.715 93.2979 101.751 92.7926C101.787 92.2863 101.811 91.7273 101.811 91.1084V86.7705C101.811 86.0789 101.792 85.3947 101.766 84.7294C101.742 84.0642 101.712 83.3821 101.682 82.6895C101.82 82.7116 101.95 82.7305 102.074 82.7452C102.202 82.7642 102.329 82.7673 102.455 82.7673C102.577 82.7673 102.703 82.7631 102.833 82.7452C102.955 82.7305 103.086 82.7126 103.225 82.6895C103.192 83.3821 103.164 84.0652 103.14 84.7294C103.113 85.3947 103.098 86.0789 103.098 86.7705C103.098 87.2452 103.1 87.7326 103.105 88.2389C103.113 88.7442 103.118 89.24 103.121 89.7273C103.126 90.2147 103.131 90.6895 103.141 91.1358C103.142 91.5905 103.147 92.0052 103.147 92.3842C103.147 92.8526 103.074 93.2905 102.919 93.681C102.767 94.0737 102.547 94.4231 102.263 94.7294C101.981 95.0337 101.644 95.2768 101.25 95.4452C100.853 95.6221 100.424 95.7084 99.9622 95.7084L99.838 95.2663C100.28 95.2652 100.631 95.161 100.892 94.9568Z" fill="#F8F5F0"/>
<path d="M114.962 84.3601C114.954 83.5495 114.929 82.9937 114.888 82.6885C114.998 82.7106 115.102 82.7295 115.198 82.7443C115.301 82.7632 115.396 82.7706 115.496 82.7706C115.623 82.7706 115.772 82.7443 115.94 82.6885C115.911 83.058 115.88 83.4958 115.848 84.0064C115.82 84.5158 115.795 85.0611 115.777 85.6464C115.755 86.2295 115.735 86.8264 115.719 87.4411C115.698 88.0558 115.683 88.6516 115.671 89.2316C115.662 89.9327 115.561 90.5622 115.368 91.1211C115.176 91.6758 114.904 92.1516 114.551 92.5379C114.196 92.9306 113.758 93.2201 113.24 93.4222C112.725 93.6232 112.238 93.7222 111.567 93.7222C110.089 93.7222 109.017 93.3685 108.346 92.6527C107.676 91.9369 107.341 90.8064 107.341 89.2622C107.341 88.7706 107.306 87.1716 107.306 86.7706C107.306 85.8916 107.296 85.1085 107.28 84.4243C107.262 83.7422 107.241 83.1622 107.221 82.6895C107.339 82.7116 107.466 82.7306 107.603 82.7453C107.742 82.7643 107.869 82.7716 107.988 82.7716C108.098 82.7716 108.205 82.7632 108.306 82.7453C108.411 82.7306 108.516 82.7127 108.626 82.6895C108.604 82.9222 108.585 83.2222 108.566 83.5958C108.543 83.9695 108.525 84.3937 108.507 84.8622C108.485 85.3348 108.471 85.8464 108.461 86.3927C108.452 86.9401 108.445 87.5095 108.445 88.0969C108.445 88.4569 108.452 88.8211 108.461 89.2074C108.471 89.5916 108.507 89.9643 108.566 90.3243C108.626 90.6906 108.718 91.0358 108.854 91.3643C108.987 91.6948 109.175 91.9874 109.422 92.2337C109.668 92.4801 109.978 92.6737 110.352 92.8158C110.727 92.9579 111.193 93.0295 111.74 93.0295C112.282 93.0295 112.737 92.9432 113.109 92.7769C113.479 92.6064 113.781 92.3885 114.016 92.1148C114.256 91.8411 114.442 91.5264 114.571 91.1674C114.703 90.8074 114.802 90.4401 114.86 90.0527C114.92 89.66 114.954 89.2737 114.962 88.8874C114.972 88.4948 114.979 88.139 114.979 87.8127C114.979 86.3201 114.972 85.1674 114.962 84.3601Z" fill="#F8F5F0"/>
<path d="M119.128 94.9568C119.39 94.7516 119.589 94.4631 119.725 94.1C119.862 93.7316 119.947 93.2979 119.983 92.7926C120.02 92.2863 120.042 91.7273 120.042 91.1084V86.7705C120.042 86.0789 120.028 85.3947 120.003 84.7294C119.974 84.0642 119.945 83.3821 119.914 82.6895C120.05 82.7116 120.183 82.7305 120.307 82.7452C120.433 82.7642 120.561 82.7673 120.685 82.7673C120.814 82.7673 120.938 82.7631 121.063 82.7452C121.192 82.7305 121.323 82.7126 121.458 82.6895C121.428 83.3821 121.396 84.0652 121.372 84.7294C121.346 85.3947 121.333 86.0789 121.333 86.7705C121.333 87.2452 121.335 87.7326 121.341 88.2389C121.346 88.7442 121.352 89.24 121.358 89.7273C121.363 90.2147 121.367 90.6895 121.373 91.1358C121.376 91.5905 121.381 92.0052 121.381 92.3842C121.381 92.8526 121.305 93.2905 121.154 93.681C120.998 94.0737 120.78 94.4231 120.5 94.7294C120.214 95.0337 119.876 95.2768 119.482 95.4452C119.087 95.6221 118.661 95.7084 118.197 95.7084L118.072 95.2663C118.515 95.2652 118.864 95.161 119.128 94.9568Z" fill="#F8F5F0"/>
<path d="M132.876 85.8635C132.678 85.2266 132.408 84.7056 132.06 84.2877C131.712 83.8719 131.301 83.5677 130.83 83.3666C130.359 83.1677 129.85 83.0666 129.301 83.0666C128.759 83.0666 128.253 83.1677 127.783 83.3666C127.316 83.5677 126.904 83.8719 126.556 84.2877C126.207 84.7056 125.933 85.2266 125.74 85.8635C125.543 86.4961 125.444 87.2529 125.444 88.1287C125.444 88.9982 125.544 89.7529 125.74 90.3877C125.934 91.0245 126.207 91.5477 126.556 91.9624C126.904 92.3782 127.316 92.6866 127.783 92.8814C128.253 93.0824 128.76 93.1835 129.301 93.1835C129.85 93.1835 130.359 93.0824 130.83 92.8814C131.301 92.6856 131.712 92.3772 132.06 91.9624C132.408 91.5466 132.679 91.0245 132.876 90.3877C133.071 89.7519 133.167 88.9982 133.167 88.1287C133.167 87.2529 133.07 86.4961 132.876 85.8635ZM124.461 85.7393C124.717 85.0403 125.073 84.4456 125.535 83.9635C125.997 83.4803 126.545 83.1161 127.192 82.8603C127.832 82.6119 128.535 82.4824 129.301 82.4824C130.071 82.4824 130.78 82.6119 131.424 82.8603C132.066 83.1161 132.619 83.4803 133.08 83.9635C133.538 84.4456 133.898 85.0393 134.155 85.7393C134.412 86.4372 134.541 87.234 134.541 88.1287C134.541 89.0214 134.412 89.8129 134.155 90.514C133.899 91.2108 133.538 91.8056 133.08 92.2866C132.619 92.7761 132.066 93.1298 131.424 93.3677C130.781 93.6045 130.072 93.7214 129.301 93.7214C128.535 93.7214 127.832 93.6045 127.192 93.3677C126.545 93.1287 125.997 92.7761 125.535 92.2866C125.074 91.8056 124.718 91.2119 124.461 90.514C124.203 89.8129 124.074 89.0214 124.074 88.1287C124.074 87.234 124.202 86.4372 124.461 85.7393Z" fill="#F8F5F0"/>
<path d="M48.3194 3.25542C46.5509 3.28805 45.0899 3.3649 43.4857 3.28805C43.0446 3.26069 41.1678 3.29121 41.172 3.28805C41.1773 3.28279 41.1909 4.31648 41.172 4.7449C41.0994 6.56595 40.9983 7.89227 40.9983 9.4649C40.9983 14.0428 40.9625 18.1323 40.8299 21.9954C40.7646 23.8312 40.7204 27.1912 40.7204 29.1323C40.7204 31.7459 40.913 34.0291 40.8299 37.0133C40.6657 42.9754 41.0899 48.3228 40.9183 54.086C40.8783 55.307 40.8836 56.8417 40.9183 58.2081C40.9362 59.1144 40.7173 62.3165 40.9983 62.5859C41.1857 62.7596 42.9162 62.6723 44.0057 62.6723C50.4236 62.6723 55.0288 63.0133 60.4741 62.8638C62.4899 62.8038 64.8446 62.7123 66.7436 62.7544C71.2267 62.8502 75.3078 62.6765 79.8752 62.7544C81.4183 62.7807 82.9667 62.6681 84.5088 62.6723C88.2973 62.6765 92.613 62.9323 96.8678 62.5859C97.4173 62.5396 97.4246 62.5765 98.4962 62.4996C99.0383 62.4586 100.603 62.4533 100.557 62.4996C100.632 62.4228 100.643 60.6217 100.641 60.1817C100.623 54.487 100.681 48.3007 100.641 43.3628C100.594 36.8712 100.645 27.8481 100.728 22.8512C100.767 20.4775 100.87 18.1133 100.728 14.8712C100.625 12.4744 100.687 8.78911 100.814 6.71753C100.83 6.41542 100.96 3.88805 100.826 3.71016C100.71 3.55648 97.8878 3.53332 96.6952 3.45542C95.052 3.35016 93.3731 3.44069 92.4004 3.42911C89.1667 3.37963 86.3741 3.45542 83.9941 3.45542C82.7425 3.45542 81.4509 3.38384 80.3025 3.45542C77.9499 3.6049 75.3373 3.35542 72.7499 3.45542C70.2288 3.55648 67.6278 3.34595 65.5436 3.36911C60.9362 3.42384 55.4741 3.20069 50.8688 3.28805C49.9678 3.30174 49.1983 3.24174 48.3194 3.25542ZM70.5004 2.327C72.2267 2.30805 74.7973 2.33121 77.2152 2.33963C82.5878 2.36805 89.0352 2.22279 94.7204 2.17227C96.6594 2.15437 97.573 2.24069 99.8741 2.17227C100.54 2.14911 101.531 2.227 101.737 2.39016C102.064 2.65963 101.919 4.69542 101.917 5.62911C101.909 6.82805 101.847 9.3649 101.761 11.0091C101.7 12.2017 101.708 13.8775 101.767 15.3038C101.814 16.5481 101.735 17.2407 101.761 18.4744C101.812 21.1217 101.858 24.1544 101.675 26.3691C101.554 27.8817 101.793 30.6544 101.761 31.8617C101.577 38.5965 101.746 43.7933 101.675 49.4596C101.651 51.5786 101.776 54.0502 101.776 56.9207C101.776 58.0449 101.73 59.2628 101.761 60.4375C101.781 61.2449 101.976 63.5575 101.625 63.9144C101.323 64.2091 97.4425 63.9544 96.6973 63.9586C92.6299 63.987 89.3194 64.0144 86.1404 64.0449C84.3446 64.0638 81.6594 63.9954 79.7183 64.0365C77.8446 64.0775 75.9225 64.1186 74.0404 64.0449C66.7857 63.7628 60.7836 64.4744 53.4436 64.1323C50.0646 63.9733 47.113 64.1144 43.1457 64.1323C42.0025 64.1375 40.073 64.2828 39.8004 64.0449C39.6383 63.9049 39.5604 62.2049 39.6288 61.1259C39.8046 58.3828 39.6204 54.5207 39.6288 51.7733C39.6425 47.3502 39.6857 43.7523 39.713 39.4965C39.7425 35.2691 39.4415 30.387 39.713 26.4554C40.0246 22.0102 39.7783 20.1596 39.852 16.5249C39.8562 16.2291 39.8383 12.9438 39.8857 12.3807C39.9888 11.1491 39.8152 8.65753 39.8857 7.31858C39.9394 6.28911 39.833 4.87227 39.8857 3.36911C39.9004 2.96384 39.9204 2.30279 39.9709 2.25437C40.2573 1.99858 41.7741 2.13648 42.6667 2.17753C44.7109 2.28174 47.3562 2.25437 49.3257 2.33963C50.4015 2.39016 51.1878 2.34595 52.0288 2.30911C52.9099 2.26384 54.1173 2.41858 54.8183 2.43227C56.372 2.45016 57.9109 2.31332 59.3646 2.33963C62.1278 2.39963 64.253 2.23963 66.8299 2.25437C68.072 2.26279 68.6173 2.3449 70.5004 2.327Z" fill="#F8F5F0"/>
<path d="M84.0593 5.36437C84.1993 5.2549 86.5845 5.09069 86.8898 5.45174C87.1856 5.80648 86.954 11.4181 86.9551 12.516C86.9593 14.916 86.9382 15.217 86.9382 17.7096C86.9382 18.8075 86.9414 19.4581 86.9751 20.9844C87.0109 22.4686 86.9456 23.5854 86.9751 24.8475C86.9856 25.3117 86.8467 27.7444 87.054 28.0033C87.1909 28.177 88.3045 28.0854 88.6014 28.0949C89.9351 28.1223 91.1793 28.117 92.634 28.177C93.074 28.1949 94.4456 28.3444 94.6951 28.177C94.833 28.0812 94.7835 24.656 94.7835 23.817C94.7835 21.9317 94.7077 20.2644 94.7835 18.7517C94.8098 18.2465 94.8509 17.956 94.8235 17.4949C94.8056 17.0938 94.7803 16.3296 94.794 15.9412C94.8235 14.3654 94.8235 12.817 94.7835 11.1075C94.7709 10.6486 94.7835 9.97911 94.8572 9.897C95.1372 9.58227 97.3267 9.62858 97.4688 9.76542C97.4498 9.74648 97.5288 10.8591 97.5319 11.0307C97.614 16.1465 97.5614 20.7696 97.6161 24.9338C97.6477 27.1886 97.713 29.3296 97.6161 31.1981C97.5961 31.597 97.6351 32.4675 97.5319 32.4865C97.433 32.5044 96.3067 32.5823 96.2456 32.5823C95.9719 32.5686 95.1951 32.537 94.9561 32.3233C94.5393 31.9538 95.1245 30.076 94.7003 29.5665C94.5719 29.4117 93.6603 29.5065 92.9803 29.4802C88.2698 29.3023 84.2582 29.2938 79.7635 29.4802C78.9824 29.517 77.4267 29.5296 76.6898 29.5254C76.3477 29.5254 76.0835 29.4707 75.9035 29.6538C75.6614 29.9033 76.1088 31.5981 75.7298 31.9717C75.5046 32.1907 73.3688 32.0949 73.2488 31.9717C72.7972 31.5212 73.0319 28.4286 73.0751 27.4212C73.2782 22.2107 73.094 17.4454 73.1593 12.4896C73.1656 11.9012 73.0688 9.89279 73.2488 9.74332C73.514 9.5149 75.993 9.62963 76.0751 9.74332C76.3077 10.0665 76.0867 12.7117 76.0751 13.4317C76.0182 18.0517 76.0298 21.6959 75.8172 26.6475C75.7951 27.2275 75.6477 27.9265 75.8203 28.0686C76.0193 28.2275 76.8435 28.1423 76.6856 28.1507C78.1045 28.0644 80.2456 28.1696 82.5214 28.0644C82.953 28.0454 84.1498 27.9823 84.1498 27.9823C84.2424 27.8865 84.1445 26.2475 84.1445 25.7044C84.1245 21.9559 84.1803 18.1486 84.0582 13.9486C83.9835 11.4981 83.8277 8.06753 83.8845 5.62648C83.8909 5.44753 83.9582 5.44753 84.0593 5.36437Z" fill="#F8F5F0"/>
<path d="M58.1855 14.9986C57.9645 15.2175 58.0508 15.787 58.0539 15.9238C58.0939 17.0807 58.076 17.5817 58.0245 18.5196C57.8939 20.9438 58.0866 20.5986 61.1466 20.5575C62.3676 20.5428 63.5055 20.9217 63.9781 20.3838C64.2024 19.887 64.0708 17.947 64.0634 17.1217C64.0634 17.108 64.2455 15.3228 64.055 15.0986C63.7771 14.7712 59.1139 14.8849 59.0824 14.8912C58.8055 14.9259 58.3539 14.8386 58.1855 14.9986ZM49.5592 14.8902C49.3908 15.1302 49.4055 16.8796 49.4203 17.3849C49.4455 18.0091 49.4866 18.0091 49.5034 18.587C49.5224 19.0565 49.5255 20.2649 49.5592 20.3007C49.7939 20.5386 51.0739 20.4596 51.276 20.4691C51.955 20.4965 55.1939 20.6059 55.3118 20.4691C55.6403 20.0996 55.5939 18.6386 55.5939 17.7502C55.5939 17.108 55.6887 15.168 55.396 14.8902C55.3729 14.8659 53.0739 14.807 53.0739 14.807C52.1655 14.8386 50.8171 14.7344 49.9992 14.7523C49.9171 14.7565 49.6024 14.8354 49.5592 14.8902ZM49.8697 7.67436C49.5213 8.2891 49.6897 10.4344 49.7297 11.8049C49.7445 12.2238 49.6571 13.3459 49.7297 13.4312C49.935 13.6691 51.4413 13.5501 51.7224 13.5649C52.3045 13.5828 55.1645 13.7512 55.3108 13.6049C55.7097 13.1986 55.575 11.1859 55.5655 10.4933C55.5518 9.59647 55.5897 8.10699 55.3139 7.69331C55.2792 7.63752 54.6339 7.62068 54.4518 7.59647C53.7402 7.51962 50.9603 7.52804 50.1592 7.59647C50.1255 7.60068 49.8834 7.64594 49.8697 7.67436ZM58.1413 10.5112C58.1266 10.8944 58.1034 13.2449 58.1413 13.3449C58.2855 13.7038 60.0403 13.4859 60.475 13.4986C60.8508 13.5165 61.5108 13.5038 62.1771 13.5133C62.4803 13.5133 63.9297 13.6502 64.1413 13.4407C64.2571 13.3228 64.2339 12.5838 64.2339 12.4891C64.2339 11.427 64.1992 10.4028 64.2339 9.57436C64.2508 9.21436 64.3939 8.12068 64.2624 7.90278C64.0529 7.60173 62.0613 7.71962 61.3287 7.70489C60.1876 7.68278 58.9213 7.49541 58.3666 7.88383C57.9718 8.16173 58.1855 9.31436 58.1413 10.5112ZM47.4939 5.53225C47.5992 5.52383 48.6234 5.4112 49.2171 5.62489C49.5297 5.73752 49.3666 6.06173 49.6434 6.22068C49.7129 6.26594 50.2824 6.29857 50.5908 6.3112C53.6424 6.43015 57.9497 6.15647 60.9718 6.26173C61.7055 6.28804 63.7455 6.36173 64.0624 6.13857C64.116 6.10173 64.2118 5.63331 64.2329 5.62489C64.3929 5.55647 64.7897 5.57436 64.8803 5.57857C65.1855 5.58383 66.6803 5.50594 66.8908 5.74173C67.1824 6.07015 67.0666 7.10489 67.0666 7.08173C66.9129 11.1533 67.0024 16.0323 66.896 19.868C66.8739 20.5649 66.9781 22.1912 66.8097 22.3554C66.6708 22.4975 64.6845 22.3554 64.4939 22.2733C64.1371 22.1196 64.4718 21.8596 64.1476 21.6712C64.0013 21.5849 61.6181 21.5807 61.3181 21.5849C60.8508 21.5849 58.4718 21.5133 58.3129 21.6712C58.176 21.8091 58.2676 24.2901 58.2266 24.588C58.1813 24.9786 58.3203 25.0691 58.3203 25.0691C58.416 25.1965 59.8571 25.1165 60.2887 25.1017C61.7139 25.0691 64.2603 25.0291 65.8666 25.1017C67.2276 25.1659 68.9476 24.8512 68.8676 25.448C68.8487 25.5933 68.8076 26.5649 68.7245 26.567C68.0003 26.5775 66.7066 26.4765 66.7487 26.4807C64.5213 26.3765 61.1676 26.4912 59.456 26.4807C58.3676 26.4733 58.0455 26.2491 58.0371 27.1154C58.035 27.5396 57.8845 29.3375 58.0539 29.5659C58.2476 29.8249 60.4224 29.8165 61.0287 29.8217C62.7834 29.8533 66.7487 29.8438 68.7255 29.7807C68.8645 29.7754 70.8213 29.6628 70.955 29.7807C71.2003 29.9986 71.0571 31.2565 70.9318 31.3701C70.7581 31.5259 68.4729 31.3701 67.8413 31.3701C64.3276 31.3701 62.4024 31.3512 58.916 31.2838C55.0392 31.2112 51.4266 31.3607 47.1592 31.2838C46.295 31.2702 43.2939 31.3975 42.9539 31.1101C42.8276 31.0059 42.6224 30.0323 42.8708 29.7386C43.1424 29.4207 44.376 29.547 45.1034 29.5659C47.656 29.6312 51.4539 29.7754 54.5413 29.5659C55.6897 29.4933 55.4824 29.3017 55.4824 28.0217C55.4824 27.5038 55.655 26.7965 55.4824 26.5649C55.2634 26.2596 53.2803 26.3912 52.0508 26.3912C49.4992 26.3912 48.1792 26.1407 45.7866 26.3038C45.6466 26.3133 44.8339 26.2723 44.8234 26.268C44.6645 26.2228 44.4655 24.9659 44.7581 24.7596C45.1297 24.4996 46.6139 24.8291 47.2466 24.847C49.0592 24.8923 50.1339 24.9512 52.2908 24.9512C52.6129 24.9512 55.0002 25.0649 55.3139 24.8375C55.5729 24.6565 55.4318 23.8912 55.4676 23.2207C55.4771 23.0344 55.5603 22.0417 55.4192 21.8396C55.2339 21.5807 51.5203 21.6891 50.8518 21.6712C50.4718 21.6628 49.7845 21.6175 49.6455 21.6712C49.2845 21.8186 49.3403 22.2101 49.0855 22.3059C48.6055 22.488 46.9181 22.348 46.8455 22.0786C46.7655 21.7944 46.7445 20.7154 46.7318 20.3007C46.5392 15.7765 46.8139 12.0796 46.8139 7.34173C46.8139 7.40594 46.736 5.70068 46.8139 5.62489C46.9287 5.51015 47.3897 5.54173 47.4939 5.53225Z" fill="#F8F5F0"/>
<path d="M79.1635 43.0395C79.1519 44.6342 79.1982 48.1321 79.2519 50.8479C79.2646 51.5627 79.1224 53.5395 79.2477 53.7216C79.2645 53.7406 80.6172 53.8311 80.7972 53.6806C80.9603 53.5479 80.9898 52.2995 80.9824 51.849C80.9361 49.189 80.7972 46.51 80.7972 43.2132C80.7972 42.4984 80.8677 40.9753 80.7109 40.8069C80.5624 40.6437 79.4898 40.6574 79.3372 40.8069C79.0393 41.109 79.1688 42.6711 79.1635 43.0395ZM78.3098 32.3995C78.5677 32.3858 79.2077 32.4048 79.3382 32.4858C79.4382 32.55 79.2488 33.3795 79.253 33.9437C79.2635 35.4163 79.1561 35.9616 79.253 37.7195C79.2782 38.1384 79.273 39.1953 79.3382 39.2637C79.4267 39.3542 80.253 39.3606 80.6245 39.3521C80.8898 39.3416 80.8098 38.6395 80.894 38.5774C80.954 38.5363 83.1351 38.4458 83.3835 38.6637C83.4656 38.7353 83.3814 40.5269 83.3709 40.6353C83.1824 44.1574 83.2467 49.9142 83.2909 53.8279C83.3014 54.9437 83.474 55.0984 82.173 55.0532C81.9845 55.0479 79.4046 54.8606 79.1824 55.0311C78.9709 55.189 79.113 56.889 79.1319 57.7679C79.1582 58.9616 79.1698 59.69 79.1646 60.2921C79.1624 60.5553 79.253 61.5027 79.1646 61.749C79.1646 61.749 76.9519 61.9269 76.7645 61.7542C76.6551 61.649 76.7782 60.6469 76.7603 60.0048C76.7003 58.0595 76.7688 55.409 76.853 53.6827C77.0067 50.389 76.814 47.3016 76.9351 43.469C76.9561 42.8584 77.0309 40.9584 76.7667 40.7237C76.5751 40.5553 75.2298 40.7184 75.3067 40.6363C75.2319 40.7132 75.3235 42.3258 75.3067 42.6963C75.1877 45.3384 75.3519 50.3258 75.2467 52.6532C75.1456 54.8363 75.473 54.9121 74.6467 54.9721C74.2161 54.9984 72.8172 55.0848 72.5845 54.8858C72.3982 54.7216 72.4846 52.8258 72.5003 51.9658C72.5656 48.2395 72.3088 45.3069 72.4709 41.6711C72.5151 40.81 72.554 39.7353 72.5214 38.9574C72.5214 38.9574 72.5267 38.53 72.5961 38.4837C72.8172 38.3321 74.733 38.3921 74.8761 38.4921C74.9519 38.5479 75.0372 39.2953 75.1372 39.3542C75.293 39.449 76.7803 39.4258 76.853 39.3542C77.0572 39.1448 76.853 37.2479 76.853 36.9479C76.853 35.5679 76.8014 34.6511 76.7667 33.6048C76.7603 33.4227 76.6235 32.6153 76.7667 32.4879C76.9572 32.3037 77.893 32.4227 78.3098 32.3995Z" fill="#F8F5F0"/>
<path d="M87.4772 49.1478C87.3099 49.3268 87.4299 50.7026 87.4299 50.811C87.3773 52.9015 87.2994 54.7752 87.2351 57.1141C87.2109 57.8762 87.2088 59.0878 87.3225 59.1741C87.6299 59.4141 88.752 59.3162 89.073 59.3057C90.0899 59.2699 91.0594 59.311 92.3099 59.3057C92.7204 59.3015 94.7667 59.4552 95.1299 59.0878C95.2941 58.9141 95.2025 58.2268 95.213 57.8857C95.3172 55.2931 95.3057 53.4794 95.272 50.8247C95.272 50.8026 95.2983 49.2941 95.2078 49.2036C94.9036 48.8983 92.8499 49.111 91.7762 49.0804C90.5699 49.0394 89.5088 49.0436 89.1962 49.0615C88.7951 49.0899 87.7057 48.9215 87.4772 49.1478ZM90.8373 32.4857C91.4246 32.4626 92.6151 32.472 92.772 32.7415C92.9004 32.9636 92.8383 35.2004 92.8141 35.9162C92.7246 37.8615 92.7846 38.8899 92.7246 40.3794C92.6962 41.1815 92.4994 41.8331 93.0688 41.6689C93.9562 41.4089 95.133 41.0352 96.0025 40.7173C96.113 40.6762 97.1099 40.1847 97.3162 40.2436C97.4457 40.2847 97.872 40.9952 97.7867 41.2373C97.6741 41.5783 95.6215 42.2162 95.3025 42.352C95.1015 42.4404 92.8699 43.1236 92.7246 43.3836C92.6573 43.5162 92.6457 44.252 92.6299 44.532C92.613 44.8952 92.5573 45.6025 92.5573 46.131C92.5573 46.3489 92.5225 47.4699 92.7246 47.6752C92.852 47.8026 95.0162 47.9204 95.1299 47.8489C95.3551 47.7015 95.2615 47.2741 95.392 47.2099C95.8099 47.0015 96.0499 47.0562 96.8425 47.0562C97.5194 47.0562 98.0383 46.9794 98.2183 47.2478C98.3067 47.3752 98.2162 50.0857 98.2183 51.111C98.2215 54.0636 98.0846 57.0468 98.0457 60.7226C98.0457 60.7899 98.0846 61.4289 98.0425 61.7152C98.0267 61.8468 95.4467 61.8247 95.3551 61.7562C95.0983 61.5562 95.3394 60.7899 95.1299 60.6362C94.8625 60.4394 93.7215 60.6141 92.9257 60.6447C92.0888 60.692 91.5036 60.6731 90.6657 60.6362C90.0172 60.6089 87.8046 60.5078 87.4909 60.7226C87.1372 60.9594 87.4488 61.6889 87.2383 61.8341C86.9509 62.0352 86.4573 61.9478 85.8604 61.9204C85.632 61.9162 84.5699 61.8341 84.5699 61.8341C84.3267 61.6162 84.493 59.6247 84.4878 58.6626C84.4699 55.1015 84.593 51.6394 84.5699 47.7583C84.5688 47.1899 84.2404 46.8289 85.0867 46.8204C85.3446 46.8204 87.3341 46.7068 87.4899 46.8204C87.7057 46.9794 87.5099 47.5404 87.5751 47.5941C87.792 47.7489 88.2351 47.6994 88.692 47.6899C89.2636 47.6762 89.8983 47.791 90.0636 47.5941C90.2246 47.4026 90.0857 45.8762 90.0636 45.0162C89.973 41.6404 90.0751 39.1857 89.9794 35.3173C89.9709 34.9815 90.0067 32.9036 90.1446 32.6626C90.2478 32.4804 90.2951 32.5036 90.8373 32.4857Z" fill="#F8F5F0"/>
<path d="M56.2814 33.2831C56.8161 33.2831 58.0898 33.1968 58.1393 33.3431C58.253 33.6526 58.1309 35.5842 58.1393 35.9168C58.1856 37.2463 58.1698 40.1852 58.2267 41.5831C58.2582 42.2578 58.1467 44.2252 58.2267 44.3294C58.4856 44.6894 60.154 44.5126 60.6498 44.502C63.953 44.4199 65.8972 44.2989 68.7898 44.3568C69.2172 44.3705 70.7193 44.2652 70.8856 44.3663C70.9614 44.4115 71.1161 45.3452 70.8488 45.6263C70.5751 45.9136 68.3561 45.8315 67.9277 45.8242C65.5572 45.7684 63.874 45.9147 61.3182 45.9147C60.6404 45.9147 58.7993 45.6926 58.394 45.9873C58.0351 46.2473 58.1393 47.7599 58.1393 48.5842C58.1393 53.2936 58.3877 56.3231 58.3856 58.6547C58.3856 59.2347 58.4498 61.1094 58.3035 61.3336C58.1709 61.5431 56.0582 61.6389 55.7067 61.2968C55.5793 61.1652 55.6435 60.1315 55.6235 59.6663C55.4972 56.661 55.6804 52.5957 55.6235 48.5968C55.6056 47.5642 55.6846 46.2326 55.453 45.9052C55.2572 45.6357 51.0982 45.8684 50.1667 45.8831C48.4825 45.9052 46.4256 45.8505 44.2456 45.7957C43.5361 45.7768 42.8425 45.9368 42.7877 45.1947C42.7825 45.1494 42.8003 44.6157 42.8751 44.5663C43.0709 44.4484 45.4319 44.4936 45.7803 44.501C48.8488 44.561 51.4825 44.2831 54.8709 44.4599C54.7604 44.4557 55.4572 44.5073 55.5204 44.4147C55.5793 44.3242 55.5319 42.7168 55.4793 41.7505C55.3719 39.641 55.4972 38.0842 55.393 36.002C55.3456 34.9852 55.2656 33.4799 55.393 33.342C55.4172 33.3147 56.194 33.2831 56.2814 33.2831Z" fill="#F8F5F0"/>
<path d="M38.4625 60.2133C38.3583 60.9059 38.3909 62.0859 38.4499 63.0607C38.4846 63.6522 38.3941 64.7596 38.6488 65.0512C38.973 65.4249 41.052 65.1291 41.7541 65.0785C43.3888 64.9501 45.1193 65.1238 46.8825 65.0543C51.7467 64.8691 57.073 64.9543 62.152 65.0964C66.4593 65.2185 70.6657 65.1143 75.2593 65.0543C78.8025 65.0091 82.4972 65.1964 86.2257 65.1407C90.392 65.087 93.7667 65.1775 97.913 65.2543C98.3646 65.2638 102.138 65.4512 102.552 65.0417C102.879 64.727 102.848 61.9354 102.82 61.2649C102.655 57.5743 102.723 54.7554 102.609 51.0385C102.508 47.768 102.777 43.1985 102.638 39.3038C102.499 35.228 102.601 31.068 102.639 27.0385C102.713 19.5301 102.963 10.7343 102.854 3.38276C102.843 2.78907 102.738 1.43118 102.516 1.25434C102.377 1.14171 100.852 1.0775 100.199 1.06697C93.6783 1.0175 86.4962 1.28065 80.0562 1.32697C75.0751 1.36697 70.6267 1.22065 65.8193 1.06697C64.5962 1.02171 61.8604 1.24486 60.353 1.25013C55.1088 1.26907 51.5036 0.958548 46.7309 1.08171C45.6278 1.10802 43.873 1.26381 42.6067 1.18171C41.8415 1.13644 39.2046 0.973285 38.8214 1.3775C38.5899 1.61855 38.7983 3.04907 38.7857 3.72697C38.7636 5.01223 38.6341 6.6796 38.6583 7.66697C38.8078 15.0512 38.8741 22.4217 38.6172 30.2112C38.4162 36.1733 38.8078 42.288 38.5709 48.127C38.4078 52.288 38.3836 56.087 38.4625 60.2133Z" stroke="#F8F5F0" stroke-width="0.466421" stroke-linecap="round"/>
</g>
<defs>
<clipPath id="clip0">
<rect width="140" height="120" fill="white" transform="translate(0.5)"/>
</clipPath>
</defs>
</svg>
