<svg width="109" height="94" viewBox="0 0 109 94" fill="none" xmlns="http://www.w3.org/2000/svg">
<g clip-path="url(#clip0)">
<path d="M3.33283 81.849C3.32629 81.5613 3.3124 81.352 3.28787 81.2196C3.10803 81.2196 2.88649 81.2261 2.62327 81.2367C2.36004 81.2498 2.07801 81.2637 1.77882 81.2817C1.47962 81.2997 1.17389 81.3242 0.862433 81.3536C0.550976 81.3847 0.263226 81.4182 0 81.4534C0.0237067 81.3226 0.0449609 81.1901 0.0621279 81.0585C0.0801122 80.9269 0.0891044 80.7953 0.0891044 80.6637C0.0891044 80.5321 0.0801122 80.4005 0.0621279 80.268C0.0449609 80.1364 0.0237067 80.004 0 79.8724C0.407101 79.8838 0.774963 79.8961 1.1044 79.9075C1.43385 79.9206 1.76983 79.9288 2.11153 79.9345C2.45242 79.941 2.82355 79.9476 3.22493 79.9533C3.62631 79.959 4.10861 79.9623 4.67185 79.9623C5.23509 79.9623 5.71658 79.959 6.11796 79.9533C6.51934 79.9476 6.8872 79.941 7.224 79.9353C7.55834 79.9296 7.88615 79.9206 8.20251 79.9083C8.52051 79.8969 8.86467 79.8846 9.23661 79.8732C9.21209 80.0048 9.19084 80.1364 9.17367 80.2672C9.15569 80.3996 9.14669 80.5313 9.14669 80.6629C9.14669 80.7945 9.15569 80.9261 9.17367 81.0577C9.19165 81.1893 9.21209 81.3218 9.23661 81.4525C8.99628 81.4174 8.72733 81.3839 8.42813 81.3536C8.12812 81.3242 7.8322 81.3005 7.53791 81.2817C7.24525 81.2645 6.9665 81.2498 6.70327 81.2367C6.43923 81.2253 6.21769 81.2196 6.03866 81.2196C6.0264 81.2792 6.01823 81.3634 6.01169 81.4714C6.00515 81.5793 6.0027 81.7051 6.0027 81.849V82.8006V87.2934C6.0027 88.2882 6.01496 89.1711 6.03866 89.9436C6.06237 90.7161 6.09834 91.4739 6.14657 92.217C5.94302 92.1933 5.72067 92.1802 5.48197 92.1802C5.24245 92.1802 4.97268 92.1802 4.67349 92.1802C4.37429 92.1802 4.10453 92.1802 3.86501 92.1802C3.62549 92.1802 3.40395 92.1933 3.2004 92.217C3.24863 91.4739 3.28378 90.7161 3.30831 89.9436C3.33202 89.1711 3.34428 88.2882 3.34428 87.2934V82.8006C3.34183 82.4548 3.33937 82.1368 3.33283 81.849Z" fill="black"/>
<path d="M19.0479 86.2241C18.5918 86.207 18.1372 86.198 17.6819 86.198C17.2266 86.198 16.7721 86.2037 16.3159 86.216C15.8606 86.2274 15.4061 86.2454 14.9507 86.2691V87.2934C14.9507 88.2882 14.963 89.1711 14.9867 89.9436C15.0104 90.7161 15.0464 91.4739 15.0946 92.217C14.8902 92.1933 14.6687 92.1802 14.43 92.1802C14.1905 92.1802 13.9207 92.1802 13.6215 92.1802C13.3223 92.1802 13.0526 92.1802 12.8131 92.1802C12.5735 92.1802 12.352 92.1933 12.1476 92.217C12.1959 91.4739 12.2318 90.7161 12.2555 89.9436C12.2792 89.1711 12.2915 88.2882 12.2915 87.2934V84.8491C12.2915 83.8551 12.2792 82.9714 12.2555 82.1989C12.2318 81.4264 12.1959 80.6506 12.1476 79.8724C12.3512 79.8961 12.5735 79.9173 12.8131 79.9345C13.0526 79.9525 13.3223 79.9615 13.6215 79.9615C13.9207 79.9615 14.1905 79.9525 14.43 79.9345C14.6695 79.9173 14.8902 79.8961 15.0946 79.8724C15.0349 80.6506 14.9957 81.4198 14.9777 82.1809C14.9597 82.942 14.9507 83.8191 14.9507 84.814C15.2622 84.8254 15.6366 84.8344 16.0739 84.841C16.5105 84.8467 17.0525 84.8491 17.6999 84.8491C18.3465 84.8491 18.8738 84.8467 19.2817 84.841C19.6888 84.8344 20.0657 84.8246 20.4139 84.814C20.4139 83.8191 20.4016 82.942 20.3779 82.1809C20.3534 81.4198 20.3174 80.6506 20.27 79.8724C20.4736 79.8961 20.6951 79.9173 20.9338 79.9345C21.1733 79.9525 21.4431 79.9615 21.7423 79.9615C22.0415 79.9615 22.3113 79.9525 22.5508 79.9345C22.7903 79.9173 23.0118 79.8961 23.2162 79.8724C23.168 80.6506 23.132 81.4256 23.1083 82.1989C23.0846 82.9714 23.0723 83.8551 23.0723 84.8491V87.2934C23.0723 88.2882 23.0846 89.1711 23.1083 89.9436C23.132 90.7161 23.168 91.4739 23.2162 92.217C23.0126 92.1933 22.7903 92.1802 22.5508 92.1802C22.3113 92.1802 22.0415 92.1802 21.7423 92.1802C21.4431 92.1802 21.1733 92.1802 20.9338 92.1802C20.6943 92.1802 20.4736 92.1933 20.27 92.217C20.3174 91.4739 20.3534 90.7161 20.3779 89.9436C20.4016 89.1711 20.4139 88.2882 20.4139 87.2934V86.2691C19.9578 86.2576 19.5024 86.2421 19.0479 86.2241Z" fill="black"/>
<path d="M27.1515 82.1989C27.127 81.4264 27.091 80.6506 27.0436 79.8724C27.5823 79.8838 28.1153 79.9018 28.6426 79.9255C29.169 79.95 29.7028 79.9615 30.2416 79.9615C31.1285 79.9615 31.9157 79.9525 32.6049 79.9345C33.294 79.9173 33.7583 79.8961 33.9978 79.8724C33.9496 80.0637 33.9259 80.3154 33.9259 80.6269C33.9259 80.8182 33.9316 80.9678 33.9431 81.0765C33.9553 81.1836 33.9733 81.3038 33.997 81.4354C33.6488 81.4117 33.2687 81.3871 32.8558 81.3634C32.4422 81.3397 32.0408 81.3152 31.6509 81.2915C31.2618 81.2678 30.9119 81.2498 30.6004 81.2376C30.2882 81.2261 30.0674 81.2204 29.9358 81.2204C29.8876 81.8793 29.8606 82.5316 29.8541 83.179C29.8484 83.8265 29.8451 84.4796 29.8451 85.1377C30.6233 85.1254 31.3272 85.1083 31.9566 85.0838C32.5852 85.0609 33.2409 85.0306 33.9243 84.9938C33.8883 85.1982 33.8646 85.3535 33.8523 85.4614C33.8401 85.5693 33.8335 85.683 33.8335 85.8031C33.8335 85.8988 33.8433 85.9977 33.8605 86.0991C33.8793 86.2004 33.8997 86.3476 33.9235 86.5389C32.5575 86.4318 31.198 86.3778 29.8443 86.3778C29.8443 86.7612 29.841 87.1446 29.8353 87.5272C29.8287 87.9114 29.8263 88.294 29.8263 88.6774C29.8263 89.4564 29.8434 90.2044 29.8794 90.9238C30.5628 90.9238 31.2454 90.9058 31.928 90.8706C32.6114 90.8339 33.2997 90.775 33.9946 90.69C33.9709 90.8224 33.9521 90.9426 33.9406 91.0488C33.9284 91.1576 33.9235 91.3072 33.9235 91.4985C33.9235 91.6906 33.9292 91.8402 33.9406 91.9481C33.9529 92.056 33.9709 92.1459 33.9946 92.2178C33.6709 92.2048 33.2727 92.1966 32.7994 92.1909C32.3261 92.1843 31.6762 92.181 30.8498 92.181C30.1181 92.181 29.5255 92.181 29.0701 92.181C28.6271 92.181 28.2706 92.181 28.0009 92.181C27.7311 92.181 27.5276 92.1843 27.3902 92.1909C27.2521 92.1966 27.1352 92.2056 27.0395 92.2178C27.0869 91.4748 27.1229 90.717 27.1474 89.9444C27.1711 89.1719 27.1834 88.2891 27.1834 87.2942V84.85C27.1875 83.8551 27.1752 82.9714 27.1515 82.1989Z" fill="black"/>
<path d="M50.2426 86.2241C49.7865 86.207 49.332 86.198 48.8766 86.198C48.4213 86.198 47.9668 86.2037 47.5106 86.216C47.0553 86.2274 46.6008 86.2454 46.1455 86.2691V87.2934C46.1455 88.2882 46.1577 89.1711 46.1814 89.9436C46.2051 90.7161 46.2411 91.4739 46.2893 92.217C46.085 92.1933 45.8634 92.1802 45.6239 92.1802C45.3844 92.1802 45.1146 92.1802 44.8154 92.1802C44.5162 92.1802 44.2465 92.1802 44.007 92.1802C43.7674 92.1802 43.5451 92.1933 43.3415 92.217C43.3898 91.4739 43.4257 90.7161 43.4494 89.9436C43.4732 89.1711 43.4854 88.2882 43.4854 87.2934V84.8491C43.4854 83.8551 43.4732 82.9714 43.4494 82.1989C43.4257 81.4264 43.3898 80.6506 43.3415 79.8724C43.5451 79.8961 43.7674 79.9173 44.007 79.9345C44.2465 79.9525 44.5162 79.9615 44.8154 79.9615C45.1146 79.9615 45.3844 79.9525 45.6239 79.9345C45.8634 79.9173 46.085 79.8961 46.2893 79.8724C46.2297 80.6506 46.1904 81.4198 46.1724 82.1809C46.1545 82.942 46.1455 83.8191 46.1455 84.814C46.4569 84.8254 46.8313 84.8344 47.2687 84.841C47.7052 84.8467 48.2472 84.8491 48.8946 84.8491C49.5412 84.8491 50.0677 84.8467 50.4756 84.841C50.8827 84.8344 51.2596 84.8246 51.6078 84.814C51.6078 83.8191 51.5956 82.942 51.5718 82.1809C51.5473 81.4198 51.5114 80.6506 51.4639 79.8724C51.6675 79.8961 51.889 79.9173 52.1277 79.9345C52.3672 79.9525 52.637 79.9615 52.9362 79.9615C53.2354 79.9615 53.5052 79.9525 53.7447 79.9345C53.9842 79.9173 54.2057 79.8961 54.4093 79.8724C54.3611 80.6506 54.3251 81.4256 54.3014 82.1989C54.2777 82.9714 54.2654 83.8551 54.2654 84.8491V87.2934C54.2654 88.2882 54.2777 89.1711 54.3014 89.9436C54.3251 90.7161 54.3611 91.4739 54.4093 92.217C54.2057 92.1933 53.9834 92.1802 53.7447 92.1802C53.5052 92.1802 53.2354 92.1802 52.9362 92.1802C52.637 92.1802 52.3672 92.1802 52.1277 92.1802C51.8882 92.1802 51.6675 92.1933 51.4639 92.217C51.5114 91.4739 51.5473 90.7161 51.5718 89.9436C51.5956 89.1711 51.6078 88.2882 51.6078 87.2934V86.2691C51.1525 86.2576 50.6971 86.2421 50.2426 86.2241Z" fill="black"/>
<path d="M57.5745 86.0721C57.5745 85.1851 57.7388 84.3521 58.0683 83.573C58.3969 82.7948 58.8621 82.1122 59.4604 81.5245C60.0597 80.9383 60.7839 80.4773 61.6349 80.1413C62.4851 79.8061 63.4317 79.6385 64.474 79.6385C65.4329 79.6385 66.3256 79.7702 67.1512 80.0334C67.9785 80.2966 68.6971 80.6931 69.3085 81.2195C69.9192 81.7468 70.4015 82.4139 70.7555 83.2232C71.1086 84.0308 71.2852 84.975 71.2852 86.0533C71.2852 86.9517 71.1143 87.7904 70.7726 88.5686C70.4309 89.3477 69.9576 90.027 69.3535 90.6082C68.7486 91.1894 68.0267 91.6415 67.188 91.9644C66.3501 92.2881 65.4272 92.45 64.4209 92.45C63.4742 92.45 62.5848 92.3331 61.7518 92.0993C60.9188 91.8655 60.1945 91.4886 59.5782 90.9671C58.961 90.4455 58.4721 89.7817 58.1133 88.9724C57.7536 88.1656 57.5745 87.1977 57.5745 86.0721ZM68.3382 85.6764C68.3382 84.8982 68.2425 84.2 68.0513 83.5829C67.86 82.9657 67.5927 82.4417 67.251 82.01C66.9101 81.5792 66.4964 81.2465 66.0108 81.0127C65.5253 80.7789 64.9955 80.662 64.4209 80.662C63.8102 80.662 63.2617 80.8092 62.7761 81.1026C62.2914 81.3961 61.8802 81.7942 61.545 82.297C61.2098 82.7997 60.9548 83.3907 60.7815 84.0676C60.6074 84.7445 60.5207 85.4663 60.5207 86.2323C60.5207 87.1904 60.6229 87.9997 60.8264 88.6577C61.03 89.3174 61.3055 89.8471 61.6529 90.2477C62.0011 90.6499 62.4017 90.9409 62.8579 91.1191C63.3132 91.2998 63.7922 91.3889 64.295 91.3889C64.8345 91.3889 65.3495 91.2753 65.8408 91.0472C66.3321 90.8207 66.7605 90.4725 67.1259 90.0057C67.4905 89.539 67.7848 88.9455 68.0063 88.2261C68.227 87.5092 68.3382 86.6582 68.3382 85.6764Z" fill="black"/>
<path d="M80.0714 92.4508C79.3046 92.4508 78.5893 92.3699 77.9239 92.208C77.2593 92.047 76.6805 91.7772 76.19 91.4003C75.6979 91.0218 75.312 90.5371 75.0308 89.9444C74.7488 89.3518 74.6082 88.6307 74.6082 87.7798C74.6082 87.3007 74.6107 86.8724 74.6172 86.4947C74.6229 86.1178 74.6262 85.7663 74.6262 85.4442C74.6262 85.1205 74.6295 84.8091 74.636 84.509C74.6417 84.2099 74.645 83.8984 74.645 83.5739C74.645 82.6035 74.6385 81.8187 74.627 81.2204C74.6147 80.622 74.5976 80.1724 74.5739 79.8732C74.8134 79.8969 75.0594 79.9181 75.3104 79.9353C75.5622 79.9533 75.8066 79.9623 76.047 79.9623C76.2865 79.9623 76.5317 79.9533 76.7835 79.9353C77.0353 79.9181 77.2797 79.8969 77.5192 79.8732C77.3991 81.0348 77.3279 82.1163 77.3034 83.1161C77.2797 84.1175 77.2674 85.1328 77.2674 86.1628C77.2674 87.2533 77.3459 88.1329 77.5012 88.8032C77.6566 89.4752 77.8879 89.9927 78.1936 90.3581C78.4986 90.7235 78.873 90.9663 79.316 91.0864C79.7591 91.2066 80.2749 91.2655 80.8619 91.2655C81.5812 91.2655 82.1437 91.0864 82.5508 90.7267C82.9579 90.3679 83.2669 89.8888 83.4761 89.2888C83.6862 88.6904 83.8146 88.0046 83.8628 87.2312C83.911 86.4587 83.9347 85.6527 83.9347 84.8148C83.9347 83.9875 83.9225 83.1635 83.8988 82.3436C83.8751 81.5236 83.8391 80.6996 83.7909 79.874C83.9584 79.8977 84.1203 79.9189 84.2764 79.9361C84.4318 79.9541 84.5756 79.9631 84.7073 79.9631C84.8626 79.9631 85.013 79.9541 85.1569 79.9361C85.3007 79.9189 85.4495 79.8977 85.6065 79.874C85.5819 80.1372 85.5582 80.4904 85.5345 80.9342C85.51 81.3773 85.4855 81.8891 85.4626 82.4703C85.4381 83.0515 85.4168 83.6924 85.3997 84.393C85.3817 85.0935 85.3727 85.835 85.3727 86.6124C85.3727 88.6978 84.9231 90.1921 84.0255 91.0954C83.1263 91.9987 81.8077 92.4508 80.0714 92.4508Z" fill="black"/>
<path d="M93.4943 80.7527C92.9433 80.7527 92.4937 80.9146 92.1463 81.2383C91.798 81.562 91.6247 81.9389 91.6247 82.3705C91.6247 82.8144 91.7596 83.1765 92.0285 83.4578C92.2983 83.7398 92.6367 83.994 93.0438 84.2221C93.4509 84.4493 93.8883 84.6684 94.3551 84.8777C94.8226 85.0878 95.2592 85.3453 95.6671 85.6502C96.0742 85.956 96.4126 86.3271 96.6816 86.7644C96.9513 87.2018 97.0862 87.7617 97.0862 88.4443C97.0862 89.0435 96.9718 89.5921 96.7445 90.0891C96.5173 90.5861 96.1936 91.012 95.775 91.3652C95.3548 91.7191 94.8553 91.9889 94.2741 92.1736C93.6929 92.36 93.043 92.4524 92.3245 92.4524C91.6778 92.4524 91.0991 92.3837 90.5906 92.2464C90.0813 92.1082 89.6947 91.9374 89.4314 91.7338C89.5508 91.3137 89.653 90.9311 89.7372 90.5837C89.8205 90.2362 89.8917 89.8594 89.953 89.4515H90.2939C90.3421 89.7155 90.432 89.9632 90.5636 90.197C90.6952 90.4308 90.8628 90.6368 91.0664 90.8175C91.2699 90.9973 91.516 91.1387 91.8029 91.2401C92.0907 91.3415 92.4136 91.3921 92.7741 91.3921C93.4926 91.3921 94.0223 91.2123 94.364 90.8534C94.7049 90.4937 94.8758 90.0621 94.8758 89.5594C94.8758 89.104 94.7442 88.7321 94.481 88.4452C94.2177 88.1574 93.8875 87.904 93.4926 87.6816C93.0978 87.4601 92.6662 87.2443 92.1986 87.035C91.7318 86.8249 91.3002 86.5707 90.9053 86.2707C90.5097 85.9715 90.1802 85.6028 89.917 85.1646C89.653 84.7281 89.5213 84.1681 89.5213 83.4847C89.5213 82.8618 89.6325 82.3108 89.8541 81.8318C90.0756 81.3528 90.3723 80.9514 90.7435 80.6277C91.1146 80.3048 91.5438 80.0587 92.0277 79.8911C92.5133 79.7235 93.0259 79.6393 93.5646 79.6393C94.2112 79.6393 94.7769 79.717 95.2625 79.8731C95.748 80.0276 96.1641 80.2443 96.5115 80.5198C96.4036 80.7953 96.3105 81.0617 96.2328 81.3192C96.1543 81.5768 96.0554 81.9029 95.9361 82.2978H95.6671C95.2845 81.2677 94.5602 80.7527 93.4943 80.7527Z" fill="black"/>
<path d="M101.313 82.1989C101.288 81.4264 101.252 80.6506 101.205 79.8724C101.743 79.8838 102.277 79.9018 102.804 79.9255C103.331 79.95 103.864 79.9615 104.403 79.9615C105.29 79.9615 106.077 79.9525 106.766 79.9345C107.455 79.9173 107.919 79.8961 108.159 79.8724C108.111 80.0637 108.087 80.3154 108.087 80.6269C108.087 80.8182 108.093 80.9678 108.104 81.0765C108.116 81.1836 108.134 81.3038 108.158 81.4354C107.81 81.4117 107.43 81.3871 107.018 81.3634C106.604 81.3397 106.203 81.3152 105.813 81.2915C105.424 81.2678 105.074 81.2498 104.762 81.2376C104.45 81.2261 104.229 81.2204 104.098 81.2204C104.049 81.8793 104.022 82.5316 104.016 83.179C104.01 83.8265 104.007 84.4796 104.007 85.1377C104.785 85.1254 105.489 85.1083 106.118 85.0838C106.748 85.0609 107.403 85.0306 108.086 84.9938C108.05 85.1982 108.026 85.3535 108.014 85.4614C108.002 85.5693 107.995 85.683 107.995 85.8031C107.995 85.8988 108.005 85.9977 108.022 86.0991C108.041 86.2004 108.062 86.3476 108.085 86.5389C106.719 86.4318 105.36 86.3778 104.006 86.3778C104.006 86.7612 104.003 87.1446 103.997 87.5272C103.991 87.9114 103.988 88.294 103.988 88.6774C103.988 89.4564 104.005 90.2044 104.041 90.9238C104.725 90.9238 105.407 90.9058 106.09 90.8706C106.773 90.8339 107.462 90.775 108.156 90.69C108.133 90.8224 108.114 90.9426 108.102 91.0488C108.09 91.1576 108.085 91.3072 108.085 91.4985C108.085 91.6906 108.091 91.8402 108.102 91.9481C108.115 92.056 108.133 92.1459 108.156 92.2178C107.834 92.2048 107.435 92.1966 106.961 92.1909C106.488 92.1843 105.838 92.181 105.012 92.181C104.28 92.181 103.687 92.181 103.232 92.181C102.789 92.181 102.433 92.181 102.163 92.181C101.893 92.181 101.689 92.1843 101.552 92.1909C101.414 92.1966 101.297 92.2056 101.201 92.2178C101.249 91.4748 101.285 90.717 101.309 89.9444C101.333 89.1719 101.345 88.2891 101.345 87.2942V84.85C101.348 83.8551 101.336 82.9714 101.313 82.1989Z" fill="black"/>
<path d="M5.55145 71.4795C5.66262 71.6316 5.79505 71.7656 5.95609 71.8899C6.11223 72.0125 6.29862 72.1131 6.51116 72.1899C6.7237 72.2684 6.95995 72.3068 7.22072 72.3068C7.49131 72.3068 7.7341 72.2569 7.94991 72.1662C8.16572 72.0706 8.34884 71.9455 8.50007 71.7877C8.65212 71.6283 8.76656 71.4395 8.85076 71.2245C8.93169 71.0087 8.97011 70.7757 8.97011 70.5313C8.97011 70.156 8.8761 69.8593 8.68563 69.6402C8.49271 69.417 8.25646 69.2331 7.96871 69.0876C7.68178 68.9388 7.37441 68.808 7.04415 68.6838C6.71471 68.5612 6.40489 68.4091 6.12041 68.2244C5.83266 68.0404 5.59396 67.8074 5.40594 67.5221C5.21301 67.2377 5.11655 66.8526 5.11655 66.3703C5.11655 66.0286 5.17704 65.7172 5.30048 65.4335C5.4231 65.1539 5.59804 64.9144 5.83184 64.7084C6.06564 64.5032 6.34358 64.3446 6.67057 64.231C6.9951 64.1141 7.36623 64.0569 7.77252 64.0569C8.16163 64.0569 8.5017 64.1076 8.78537 64.1991C9.07312 64.2948 9.36005 64.5073 9.60529 64.6986C9.53253 64.8392 9.47204 64.9847 9.42299 65.1392C9.37231 65.2954 9.3249 65.4899 9.27503 65.727H9.12789C9.08701 65.6134 9.00854 65.4229 8.94069 65.288C8.87038 65.1539 8.77883 65.0313 8.65948 64.9144C8.54176 64.8008 8.39952 64.7051 8.23684 64.6267C8.07417 64.549 7.87634 64.5098 7.64908 64.5098C7.42182 64.5098 7.21091 64.5449 7.01963 64.6201C6.82589 64.6937 6.65912 64.8008 6.51606 64.9316C6.37382 65.0656 6.26346 65.2283 6.18662 65.4163C6.10978 65.6035 6.07054 65.8087 6.07054 66.0286C6.07054 66.4104 6.16537 66.7145 6.35747 66.9344C6.54958 67.1535 6.78828 67.3415 7.07276 67.4935C7.36051 67.6423 7.66788 67.7764 7.99814 67.8957C8.32758 68.0126 8.63577 68.1573 8.92188 68.3265C9.20718 68.5007 9.44997 68.7206 9.63881 68.9887C9.82764 69.2617 9.92492 69.6181 9.92492 70.0678C9.92492 70.443 9.85871 70.7994 9.72301 71.128C9.58894 71.4681 9.39602 71.7542 9.13851 72.006C8.87856 72.2569 8.56547 72.4482 8.19352 72.5823C7.82484 72.7164 7.40057 72.7834 6.92889 72.7834C6.42124 72.7834 6.01332 72.7164 5.69696 72.5823C5.38305 72.4482 5.12146 72.2921 4.9081 72.1229C4.9833 71.9365 5.03399 71.7648 5.06178 71.6169C5.08957 71.4648 5.11655 71.2703 5.13944 71.0324H5.2874C5.35117 71.1779 5.44109 71.3308 5.55145 71.4795Z" fill="black"/>
<path d="M16.4295 68.8193L15.0709 65.7088L13.7392 68.8193L13.4997 69.3956C13.2414 70.0275 13.0068 70.63 12.7983 71.1998C12.5858 71.7728 12.4264 72.2453 12.3177 72.6255C12.1787 72.6083 12.0291 72.6001 11.8656 72.6001C11.7013 72.6001 11.5525 72.6083 11.4144 72.6255C12.0732 71.1949 12.7199 69.7774 13.3477 68.3656C13.9755 66.9547 14.609 65.5184 15.2434 64.0559H15.4747C15.6726 64.53 15.8859 65.0434 16.1107 65.5919C16.3404 66.1445 16.5726 66.7021 16.8097 67.2653C17.0467 67.8277 17.2813 68.3828 17.5184 68.9387C17.7538 69.4945 17.977 70.0096 18.1855 70.4886C18.3923 70.966 18.5811 71.3886 18.7463 71.7639C18.9163 72.1391 19.0528 72.4268 19.1583 72.6246C19.0438 72.6075 18.9367 72.5993 18.8345 72.5993H18.5108H18.1847C18.0833 72.5993 17.9737 72.6075 17.8609 72.6246C17.8045 72.4366 17.7277 72.2094 17.6271 71.9445C17.529 71.6796 17.4203 71.4001 17.3034 71.114L16.4295 68.8193ZM13.064 69.3809C13.0624 69.3875 13.0583 69.3924 13.0583 69.3956L13.064 69.3809Z" fill="black"/>
<path d="M68.9407 68.8193L67.5837 65.7088L66.2496 68.8193L66.0109 69.3956C65.7509 70.0275 65.5171 70.63 65.307 71.1998C65.0953 71.7728 64.9383 72.2453 64.8312 72.6255C64.6898 72.6083 64.5386 72.6001 64.3775 72.6001C64.2132 72.6001 64.0636 72.6083 63.9238 72.6255C64.5835 71.1949 65.231 69.7774 65.8572 68.3656C66.4858 66.9547 67.1161 65.5184 67.7545 64.0559H67.9859C68.1821 64.53 68.393 65.0434 68.6227 65.5919C68.8524 66.1445 69.0837 66.7021 69.32 67.2653C69.5562 67.8277 69.7933 68.3828 70.0312 68.9387C70.2642 69.4945 70.4898 70.0096 70.6974 70.4886C70.9042 70.966 71.0906 71.3886 71.2598 71.7639C71.4282 72.1391 71.5639 72.4268 71.6702 72.6246C71.5549 72.6075 71.4462 72.5993 71.3449 72.5993H71.022H70.6982C70.5961 72.5993 70.4873 72.6075 70.3745 72.6246C70.3165 72.4366 70.2372 72.2094 70.1407 71.9445C70.0426 71.6796 69.9355 71.4001 69.8162 71.114L68.9407 68.8193ZM66.0166 69.3809C66.0166 69.3875 66.0109 69.3924 66.0109 69.3956L66.0166 69.3809Z" fill="black"/>
<path d="M47.8809 68.8193L46.5239 65.7088L45.189 68.8193L44.9503 69.3956C44.692 70.0275 44.4582 70.63 44.2473 71.1998C44.0356 71.7728 43.8745 72.2453 43.7707 72.6255C43.6309 72.6083 43.4789 72.6001 43.3154 72.6001C43.1527 72.6001 43.0023 72.6083 42.8625 72.6255C43.5246 71.1949 44.168 69.7774 44.795 68.3656C45.4236 66.9547 46.0572 65.5184 46.6932 64.0559H46.9261C47.1223 64.53 47.3324 65.0434 47.5638 65.5919C47.7894 66.1445 48.0216 66.7021 48.2586 67.2653C48.4973 67.8277 48.7328 68.3828 48.9698 68.9387C49.2053 69.4945 49.4276 70.0096 49.6344 70.4886C49.8453 70.966 50.0325 71.3886 50.1985 71.7639C50.3636 72.1391 50.5026 72.4268 50.608 72.6246C50.4936 72.6075 50.3857 72.5993 50.2835 72.5993H49.9614H49.6344C49.5331 72.5993 49.4252 72.6075 49.3107 72.6246C49.2543 72.4366 49.1766 72.2094 49.0802 71.9445C48.9829 71.6796 48.8742 71.4001 48.7565 71.114L47.8809 68.8193ZM44.9569 69.3809C44.9528 69.3875 44.9519 69.3924 44.9503 69.3956L44.9569 69.3809Z" fill="black"/>
<path d="M21.9246 64.853C21.7112 64.853 21.4897 64.853 21.2559 64.8595C21.0246 64.8636 20.7924 64.8742 20.561 64.8848C20.3289 64.8955 20.1 64.9085 19.8866 64.9273C19.6692 64.9453 19.3062 64.9617 19.1337 64.987C19.173 64.8382 19.1942 64.7115 19.1942 64.5971C19.1942 64.5063 19.173 64.378 19.1337 64.2153C19.6725 64.2325 20.3698 64.2472 20.8831 64.2587C21.399 64.2734 21.9246 64.2791 22.4625 64.2791C23.002 64.2791 23.5268 64.2726 24.0402 64.2587C24.5544 64.2472 25.2255 64.2333 25.7651 64.2153C25.7234 64.378 25.7046 64.5088 25.7046 64.6077C25.7046 64.714 25.7242 64.8374 25.7651 64.9862C25.5934 64.9609 25.255 64.9445 25.0383 64.9265C24.8225 64.9077 24.5994 64.8947 24.3656 64.884C24.1326 64.8734 23.8996 64.8628 23.6666 64.8587C23.4336 64.8521 23.2129 64.8521 23.0028 64.8521C22.9767 65.6933 22.9652 66.537 22.9652 67.3847V69.4905C22.9652 70.0316 22.9767 70.5589 22.9971 71.0821C23.0151 71.6012 23.0372 72.1186 23.0633 72.6247C22.8745 72.6075 22.675 72.5993 22.4633 72.5993C22.2491 72.5993 22.0513 72.6075 21.8641 72.6247C21.8886 72.1186 21.9123 71.6012 21.9311 71.0821C21.9508 70.5581 21.9606 70.0316 21.9606 69.4905V67.3847C21.9589 66.537 21.9499 65.6941 21.9246 64.853Z" fill="black"/>
<path d="M33.6283 66.6816C33.4763 66.1871 33.2654 65.7824 32.9932 65.4579C32.7218 65.135 32.4062 64.8987 32.0408 64.7426C31.6738 64.5881 31.2773 64.5096 30.8522 64.5096C30.432 64.5096 30.0405 64.5881 29.6742 64.7426C29.3113 64.8987 28.9892 65.135 28.7202 65.4579C28.4497 65.7824 28.2355 66.1871 28.0859 66.6816C27.933 67.1729 27.8578 67.7607 27.8578 68.4408C27.8578 69.1161 27.9338 69.7022 28.0859 70.1951C28.2363 70.6897 28.4497 71.096 28.7202 71.4181C28.9892 71.741 29.3113 71.9805 29.6742 72.1317C30.0405 72.2878 30.4328 72.3663 30.8522 72.3663C31.2781 72.3663 31.6738 72.2878 32.0408 72.1317C32.4062 71.9797 32.7218 71.7401 32.9932 71.4181C33.2654 71.0952 33.4771 70.6897 33.6283 70.1951C33.7812 69.7014 33.8572 69.1161 33.8572 68.4408C33.8572 67.7607 33.7804 67.1729 33.6283 66.6816ZM27.0926 66.5852C27.2905 66.0424 27.5684 65.5805 27.9281 65.2061C28.2853 64.8309 28.7145 64.548 29.214 64.3494C29.7126 64.1565 30.2595 64.0559 30.8522 64.0559C31.4506 64.0559 32.0032 64.1565 32.5035 64.3494C32.9989 64.548 33.4289 64.8309 33.7861 65.2061C34.1458 65.5805 34.4229 66.0415 34.6207 66.5852C34.821 67.1271 34.9199 67.746 34.9199 68.4408C34.9199 69.134 34.821 69.7488 34.6207 70.2932C34.4229 70.8344 34.1458 71.2963 33.7861 71.6698C33.4281 72.05 32.9989 72.3246 32.5035 72.5094C32.004 72.6933 31.4514 72.7841 30.8522 72.7841C30.2595 72.7841 29.7126 72.6933 29.214 72.5094C28.7145 72.3238 28.2853 72.05 27.9281 71.6698C27.5684 71.2963 27.2913 70.8352 27.0926 70.2932C26.8915 69.7488 26.7943 69.134 26.7943 68.4408C26.7935 67.746 26.8915 67.1271 27.0926 66.5852Z" fill="black"/>
<path d="M38.4849 68.5782C38.328 68.3166 38.1506 68.0223 37.9577 67.6969C37.7656 67.3757 37.5661 67.0389 37.3527 66.6816C37.1402 66.3244 36.9399 65.9876 36.7462 65.6655C36.5557 65.3443 36.3816 65.0541 36.2304 64.7998C36.0734 64.5415 35.954 64.3469 35.8723 64.2153C35.9876 64.2325 36.0987 64.2472 36.2083 64.2587C36.3203 64.2734 36.4306 64.2791 36.5434 64.2791C36.6603 64.2791 36.7723 64.2726 36.8827 64.2587C36.9939 64.2472 37.1034 64.2333 37.2179 64.2153C37.5841 64.9265 37.9569 65.6238 38.3394 66.3097C38.7179 66.9947 39.1193 67.71 39.5436 68.4498C39.7291 68.1564 39.9278 67.8351 40.1321 67.4803C40.3341 67.1337 40.5384 66.7724 40.742 66.4086C40.9455 66.0416 41.1434 65.6696 41.3306 65.2977C41.5178 64.9306 41.6935 64.566 41.8562 64.2153C42.0614 64.2587 42.2208 64.2791 42.3352 64.2791C42.4472 64.2791 42.6058 64.2587 42.8102 64.2153C42.4186 64.8137 42.0704 65.3508 41.7589 65.8331C41.4499 66.3138 41.1761 66.7479 40.939 67.1411C40.7036 67.531 40.4927 67.8882 40.3153 68.1997C40.1346 68.5144 39.9817 68.8013 39.8485 69.0523C39.8485 69.3523 39.8526 69.6752 39.8542 70.0186C39.8624 70.357 39.8665 70.6971 39.8755 71.0306C39.8828 71.3576 39.8918 71.6625 39.9033 71.9453C39.918 72.2298 39.9302 72.4514 39.9482 72.6255C39.7602 72.6083 39.5599 72.6001 39.349 72.6001C39.1381 72.6001 38.937 72.6083 38.7514 72.6255C38.7997 72.2004 38.8275 71.6838 38.8356 71.0829C38.8438 70.478 38.8471 69.8469 38.8471 69.1864C38.7645 69.0474 38.6443 68.843 38.4849 68.5782Z" fill="black"/>
<path d="M55.4385 67.4346C56.0156 68.5283 56.6165 69.6491 57.2443 70.7985C57.3277 70.644 57.4446 70.4249 57.5999 70.1347C57.756 69.8445 57.9375 69.5117 58.1378 69.1365C58.3438 68.7613 58.5612 68.3542 58.7942 67.9201C59.0239 67.4812 59.2634 67.0422 59.5021 66.5901C59.7425 66.1405 59.9828 65.7023 60.2182 65.2699C60.4569 64.8391 60.6744 64.432 60.882 64.0568H61.0398C61.1297 64.8432 61.2123 65.5961 61.2908 66.3285C61.3684 67.0569 61.4461 67.7754 61.5295 68.4826C61.6112 69.1864 61.6921 69.8878 61.7739 70.5745C61.8548 71.2644 61.9456 71.9462 62.0445 72.6263C61.9456 72.6092 61.8483 72.601 61.7551 72.601H61.4665H61.1804C61.0864 72.601 60.9891 72.6092 60.891 72.6263C60.8019 71.5391 60.7128 70.4903 60.6221 69.4668C60.533 68.4482 60.4234 67.4068 60.2918 66.3465H60.2665C59.7057 67.3765 59.1531 68.3984 58.6086 69.4096C58.0675 70.4298 57.5508 71.49 57.0603 72.601H56.9508C56.462 71.5726 55.9494 70.5426 55.4148 69.5134C54.881 68.4801 54.3431 67.4215 53.8035 66.3465H53.7815C53.7251 66.8525 53.6621 67.401 53.5926 67.9913C53.524 68.5856 53.4602 69.1668 53.4022 69.7431C53.3474 70.3194 53.2959 70.8606 53.2575 71.3699C53.2158 71.8824 53.1953 72.2961 53.1953 72.6263C53.0629 72.6092 52.9231 72.601 52.7678 72.601C52.6117 72.601 52.4686 72.6092 52.3378 72.6263C52.4465 71.9634 52.5561 71.2677 52.6705 70.532C52.7833 69.7987 52.8929 69.0597 53.0008 68.3174C53.1062 67.5752 53.2027 66.8419 53.2943 66.1201C53.3817 65.3982 53.4602 64.7124 53.5256 64.0568H53.7349C54.2957 65.2168 54.8654 66.3416 55.4385 67.4346Z" fill="black"/>
<path d="M77.9639 73.7429C78.1675 73.5835 78.3236 73.3595 78.4315 73.0775C78.5353 72.7914 78.6032 72.4546 78.631 72.0622C78.6596 71.669 78.6776 71.2349 78.6776 70.7543V67.3855C78.6776 66.8484 78.6629 66.317 78.6432 65.8004C78.6244 65.2837 78.6007 64.754 78.5778 64.2161C78.6849 64.2333 78.7855 64.248 78.8819 64.2595C78.9817 64.2742 79.0798 64.2766 79.1779 64.2766C79.2727 64.2766 79.3708 64.2733 79.4713 64.2595C79.5662 64.248 79.6683 64.2341 79.7762 64.2161C79.7501 64.754 79.7288 65.2846 79.71 65.8004C79.6888 66.317 79.6773 66.8484 79.6773 67.3855C79.6773 67.7541 79.679 68.1326 79.6831 68.5258C79.6888 68.9182 79.6929 69.3033 79.6953 69.6817C79.6994 70.0602 79.7027 70.4289 79.7109 70.7755C79.7117 71.1287 79.7158 71.4508 79.7158 71.745C79.7158 72.1088 79.6585 72.4489 79.5384 72.7522C79.4206 73.0571 79.2498 73.3285 79.0291 73.5664C78.81 73.8026 78.5484 73.9915 78.2419 74.1222C77.9337 74.2596 77.601 74.3266 77.2421 74.3266L77.1456 73.9833C77.489 73.9825 77.7612 73.9015 77.9639 73.7429Z" fill="black"/>
<path d="M88.8911 65.5135C88.8845 64.884 88.8657 64.4524 88.8338 64.2153C88.9189 64.2325 88.9998 64.2472 89.0742 64.2587C89.1543 64.2734 89.2279 64.2791 89.3055 64.2791C89.4044 64.2791 89.5197 64.2587 89.6505 64.2153C89.6276 64.5023 89.6039 64.8423 89.5794 65.2388C89.5573 65.6345 89.5377 66.0579 89.5238 66.5124C89.5066 66.9653 89.4911 67.4288 89.4788 67.9062C89.4625 68.3836 89.451 68.8463 89.4412 69.2967C89.4347 69.8412 89.3562 70.33 89.2066 70.7641C89.057 71.1949 88.8461 71.5644 88.5714 71.8644C88.2959 72.1693 87.9559 72.3941 87.5537 72.5511C87.1539 72.7072 86.7754 72.7841 86.2547 72.7841C85.107 72.7841 84.274 72.5094 83.7533 71.9535C83.2325 71.3976 82.9726 70.5197 82.9726 69.3204C82.9726 68.9387 82.9456 67.6969 82.9456 67.3855C82.9456 66.7029 82.9374 66.0947 82.9252 65.5633C82.9113 65.0336 82.8949 64.5832 82.8794 64.2161C82.9709 64.2333 83.0698 64.248 83.1761 64.2595C83.284 64.2742 83.3829 64.2799 83.4753 64.2799C83.5603 64.2799 83.6437 64.2734 83.7222 64.2595C83.8031 64.248 83.8849 64.2341 83.9707 64.2161C83.9535 64.3968 83.9388 64.6298 83.9241 64.92C83.9061 65.2102 83.8922 65.5396 83.8783 65.9034C83.8612 66.2705 83.8497 66.6677 83.8424 67.092C83.835 67.5171 83.8301 67.9594 83.8301 68.4155C83.8301 68.6951 83.835 68.9779 83.8424 69.2779C83.8497 69.5763 83.8783 69.8657 83.9241 70.1453C83.9707 70.4298 84.0418 70.6979 84.1473 70.9529C84.2511 71.2096 84.3966 71.4369 84.5887 71.6282C84.78 71.8195 85.0203 71.9699 85.3105 72.0802C85.6024 72.1906 85.9637 72.2462 86.3888 72.2462C86.8098 72.2462 87.1629 72.1791 87.4523 72.05C87.7392 71.9176 87.9739 71.7483 88.1562 71.5358C88.3425 71.3232 88.4872 71.0788 88.587 70.8001C88.69 70.5205 88.7668 70.2352 88.8118 69.9344C88.8584 69.6294 88.8845 69.3294 88.8911 69.0294C88.8984 68.7245 88.9041 68.4482 88.9041 68.1948C88.9041 67.0356 88.8984 66.1405 88.8911 65.5135Z" fill="black"/>
<path d="M92.1266 73.7429C92.3302 73.5835 92.4847 73.3595 92.5901 73.0775C92.6964 72.7914 92.7626 72.4546 92.7904 72.0622C92.819 71.669 92.8362 71.2349 92.8362 70.7543V67.3855C92.8362 66.8484 92.8256 66.317 92.8059 65.8004C92.783 65.2837 92.761 64.754 92.7365 64.2161C92.8427 64.2333 92.9457 64.248 93.0422 64.2595C93.1395 64.2742 93.2392 64.2766 93.3357 64.2766C93.4354 64.2766 93.5319 64.2733 93.6291 64.2595C93.7289 64.248 93.8311 64.2341 93.9357 64.2161C93.9128 64.754 93.8875 65.2846 93.8687 65.8004C93.849 66.317 93.8384 66.8484 93.8384 67.3855C93.8384 67.7541 93.84 68.1326 93.8449 68.5258C93.849 68.9182 93.8531 69.3033 93.858 69.6817C93.8621 70.0602 93.8654 70.4289 93.8695 70.7755C93.8719 71.1287 93.876 71.4508 93.876 71.745C93.876 72.1088 93.8172 72.4489 93.6994 72.7522C93.5785 73.0571 93.4092 73.3285 93.1918 73.5664C92.9694 73.8026 92.707 73.9915 92.4013 74.1222C92.0947 74.2596 91.7637 74.3266 91.4032 74.3266L91.3059 73.9833C91.65 73.9825 91.9214 73.9015 92.1266 73.7429Z" fill="black"/>
<path d="M102.803 66.6816C102.649 66.1871 102.44 65.7824 102.169 65.4579C101.899 65.135 101.58 64.8987 101.214 64.7426C100.848 64.5881 100.453 64.5096 100.027 64.5096C99.6057 64.5096 99.2125 64.5881 98.8479 64.7426C98.4849 64.8987 98.1653 65.135 97.8947 65.4579C97.6241 65.7824 97.4108 66.1871 97.2612 66.6816C97.1083 67.1729 97.0315 67.7607 97.0315 68.4408C97.0315 69.1161 97.1091 69.7022 97.2612 70.1951C97.4116 70.6897 97.6241 71.096 97.8947 71.4181C98.1653 71.741 98.4849 71.9805 98.8479 72.1317C99.2125 72.2878 99.6065 72.3663 100.027 72.3663C100.453 72.3663 100.848 72.2878 101.214 72.1317C101.58 71.9797 101.899 71.7401 102.169 71.4181C102.44 71.0952 102.65 70.6897 102.803 70.1951C102.954 69.7014 103.029 69.1161 103.029 68.4408C103.029 67.7607 102.953 67.1729 102.803 66.6816ZM96.2679 66.5852C96.4666 66.0424 96.7429 65.5805 97.1018 65.2061C97.4606 64.8309 97.8865 64.548 98.3885 64.3494C98.8855 64.1565 99.4316 64.0559 100.027 64.0559C100.624 64.0559 101.175 64.1565 101.676 64.3494C102.174 64.548 102.603 64.8309 102.961 65.2061C103.317 65.5805 103.597 66.0415 103.796 66.5852C103.995 67.1271 104.096 67.746 104.096 68.4408C104.096 69.134 103.995 69.7488 103.796 70.2932C103.597 70.8344 103.317 71.2963 102.961 71.6698C102.603 72.05 102.174 72.3246 101.676 72.5094C101.176 72.6933 100.625 72.7841 100.027 72.7841C99.4316 72.7841 98.8855 72.6933 98.3885 72.5094C97.8865 72.3238 97.4606 72.05 97.1018 71.6698C96.7437 71.2963 96.4674 70.8352 96.2679 70.2932C96.0677 69.7488 95.9671 69.134 95.9671 68.4408C95.9671 67.746 96.0668 67.1271 96.2679 66.5852Z" fill="black"/>
<path d="M37.1364 2.52805C35.763 2.55339 34.6284 2.61307 33.3826 2.55339C33.04 2.53214 31.5825 2.55585 31.5858 2.55339C31.5898 2.54931 31.6005 3.35206 31.5858 3.68478C31.5294 5.099 31.4509 6.12902 31.4509 7.35032C31.4509 10.9055 31.4231 14.0814 31.3201 17.0815C31.2694 18.5072 31.2351 21.1165 31.2351 22.624C31.2351 24.6537 31.3847 26.4268 31.3201 28.7444C31.1926 33.3745 31.522 37.5273 31.3888 42.003C31.3577 42.9512 31.3618 44.1431 31.3888 45.2042C31.4026 45.908 31.2326 48.3948 31.4509 48.604C31.5964 48.7389 32.9403 48.6711 33.7864 48.6711C38.7705 48.6711 42.347 48.9359 46.5757 48.8199C48.1412 48.7733 49.9699 48.7021 51.4446 48.7348C54.9262 48.8092 58.0956 48.6743 61.6426 48.7348C62.841 48.7553 64.0435 48.6678 65.2411 48.6711C68.1832 48.6743 71.5348 48.873 74.839 48.604C75.2657 48.5681 75.2715 48.5967 76.1036 48.537C76.5246 48.5051 77.7394 48.501 77.7043 48.537C77.7623 48.4773 77.7705 47.0786 77.7697 46.7369C77.7549 42.3144 77.8007 37.5101 77.7697 33.6754C77.7329 28.634 77.7721 21.6266 77.8367 17.7461C77.8669 15.9027 77.947 14.0667 77.8367 11.5489C77.7566 9.68747 77.8048 6.8255 77.9037 5.21672C77.916 4.9821 78.0173 3.01935 77.9127 2.8812C77.8228 2.76185 75.6311 2.74387 74.705 2.68337C73.4289 2.60163 72.125 2.67193 71.3697 2.66294C68.8584 2.62451 66.6896 2.68337 64.8413 2.68337C63.8694 2.68337 62.8663 2.62778 61.9745 2.68337C60.1474 2.79945 58.1184 2.60571 56.1091 2.68337C54.1513 2.76185 52.1313 2.59836 50.5127 2.61634C46.9346 2.65885 42.6928 2.48554 39.1163 2.55339C38.4166 2.56402 37.819 2.51743 37.1364 2.52805ZM54.3622 1.80704C55.7028 1.79233 57.6991 1.81031 59.5768 1.81685C63.7492 1.83892 68.7562 1.72611 73.1714 1.68687C74.6772 1.67298 75.3867 1.74001 77.1737 1.68687C77.6912 1.66889 78.4604 1.72938 78.6206 1.85609C78.8741 2.06536 78.7621 3.64635 78.7604 4.37145C78.7539 5.30255 78.7057 7.27266 78.6394 8.54955C78.592 9.47575 78.5978 10.7772 78.6435 11.8848C78.6803 12.8511 78.619 13.389 78.6394 14.3471C78.6787 16.403 78.7146 18.7581 78.5724 20.4781C78.4784 21.6528 78.664 23.806 78.6394 24.7437C78.4964 29.9739 78.6272 34.0097 78.5724 38.4102C78.5536 40.0557 78.6509 41.9752 78.6509 44.2044C78.6509 45.0775 78.6149 46.0233 78.6394 46.9356C78.655 47.5626 78.8062 49.3586 78.5332 49.6357C78.2986 49.8646 75.2854 49.6667 74.7066 49.67C71.5479 49.6921 68.9769 49.7133 66.5082 49.7371C65.1136 49.7518 63.0282 49.6986 61.5208 49.7305C60.0657 49.7624 58.573 49.7943 57.1113 49.7371C51.4773 49.518 46.8161 50.0706 41.1158 49.8049C38.4918 49.6815 36.1996 49.791 33.1185 49.8049C32.2307 49.809 30.7323 49.9218 30.5206 49.7371C30.3947 49.6283 30.3342 48.3081 30.3873 47.4702C30.5239 45.3399 30.3808 42.3406 30.3873 40.207C30.398 36.7719 30.4315 33.9778 30.4527 30.6728C30.4756 27.3898 30.2418 23.5984 30.4527 20.5451C30.6947 17.0929 30.5034 15.6558 30.5607 12.8331C30.5639 12.6034 30.55 10.0521 30.5868 9.61472C30.6669 8.65828 30.532 6.72332 30.5868 5.68349C30.6285 4.88401 30.5459 3.78369 30.5868 2.61634C30.5983 2.30161 30.6138 1.78824 30.653 1.75064C30.8754 1.55199 32.0534 1.65908 32.7466 1.69096C34.3341 1.77189 36.3884 1.75064 37.9179 1.81685C38.7534 1.85609 39.364 1.82176 40.0172 1.79315C40.7014 1.75799 41.639 1.87816 42.1835 1.88879C43.3901 1.90269 44.5852 1.79642 45.7141 1.81685C47.86 1.86345 49.5105 1.73919 51.5116 1.75064C52.4763 1.75718 52.8997 1.82094 54.3622 1.80704Z" fill="black"/>
<path d="M64.892 4.16545C65.0007 4.08043 66.8531 3.95291 67.0902 4.2333C67.3199 4.50879 67.14 8.86673 67.1409 9.71935C67.1441 11.5832 67.1278 11.817 67.1278 13.7528C67.1278 14.6054 67.1302 15.1106 67.1564 16.2959C67.1842 17.4486 67.1335 18.3159 67.1564 19.296C67.1646 19.6565 67.0567 21.5457 67.2177 21.7468C67.324 21.8817 68.1889 21.8106 68.4194 21.8179C69.4551 21.8392 70.4214 21.8351 71.5511 21.8817C71.8928 21.8956 72.958 22.0117 73.1517 21.8817C73.2588 21.8073 73.2204 19.1473 73.2204 18.4957C73.2204 17.0316 73.1615 15.7368 73.2204 14.5621C73.2408 14.1697 73.2727 13.944 73.2515 13.586C73.2376 13.2745 73.218 12.6811 73.2286 12.3794C73.2515 11.1557 73.2515 9.95315 73.2204 8.62558C73.2106 8.26916 73.2204 7.74925 73.2776 7.68548C73.4951 7.44106 75.1954 7.47703 75.3058 7.5833C75.2911 7.56859 75.3524 8.43265 75.3548 8.5659C75.4186 12.5388 75.3777 16.1292 75.4202 19.3631C75.4447 21.1141 75.4954 22.7768 75.4202 24.2278C75.4047 24.5377 75.4349 25.2137 75.3548 25.2284C75.278 25.2423 74.4033 25.3028 74.3559 25.3028C74.1433 25.2922 73.54 25.2677 73.3545 25.1017C73.0308 24.8148 73.4853 23.3564 73.1558 22.9608C73.0561 22.8406 72.3482 22.9142 71.8201 22.8937C68.1619 22.7556 65.0465 22.749 61.5559 22.8937C60.9493 22.9223 59.7411 22.9322 59.1689 22.9289C58.9032 22.9289 58.698 22.8864 58.5582 23.0286C58.3702 23.2224 58.7176 24.5385 58.4233 24.8287C58.2484 24.9987 56.5898 24.9243 56.4966 24.8287C56.1459 24.4788 56.3282 22.0771 56.3617 21.2948C56.5195 17.2483 56.3764 13.5476 56.4271 9.69892C56.432 9.24195 56.3568 7.68221 56.4966 7.56613C56.7026 7.38874 58.6277 7.47785 58.6915 7.56613C58.8721 7.8171 58.7005 9.8714 58.6915 10.4306C58.6473 14.0184 58.6563 16.8485 58.4912 20.6939C58.474 21.1443 58.3596 21.6871 58.4937 21.7975C58.6482 21.9209 59.2882 21.8547 59.1656 21.8613C60.2676 21.7942 61.9303 21.876 63.6977 21.7942C64.0328 21.7795 64.9623 21.7305 64.9623 21.7305C65.0342 21.6561 64.9582 20.3833 64.9582 19.9615C64.9427 17.0504 64.986 14.0936 64.8912 10.8319C64.8331 8.92886 64.7122 6.26472 64.7563 4.369C64.7612 4.23003 64.8135 4.23003 64.892 4.16545Z" fill="black"/>
<path d="M44.7985 11.6478C44.6269 11.8178 44.6939 12.26 44.6964 12.3663C44.7274 13.2647 44.7135 13.6538 44.6735 14.3822C44.5721 16.2648 44.7217 15.9967 47.0981 15.9648C48.0464 15.9534 48.93 16.2477 49.2971 15.8299C49.4712 15.4441 49.369 13.9375 49.3633 13.2966C49.3633 13.286 49.5047 11.8995 49.3568 11.7254C49.141 11.4712 45.5196 11.5595 45.495 11.5644C45.28 11.5914 44.9293 11.5235 44.7985 11.6478ZM38.0994 11.5636C37.9686 11.7499 37.98 13.1086 37.9915 13.501C38.0111 13.9857 38.043 13.9857 38.056 14.4345C38.0707 14.7991 38.0732 15.7376 38.0994 15.7654C38.2817 15.9501 39.2757 15.8888 39.4327 15.8962C39.9599 15.9174 42.4753 16.0024 42.5668 15.8962C42.8219 15.6092 42.7859 14.4746 42.7859 13.7846C42.7859 13.286 42.8595 11.7794 42.6322 11.5636C42.6143 11.5448 40.8289 11.499 40.8289 11.499C40.1234 11.5235 39.0762 11.4426 38.4411 11.4565C38.3773 11.4597 38.1329 11.5211 38.0994 11.5636ZM38.3405 5.95979C38.0699 6.4372 38.2007 8.1032 38.2318 9.16755C38.2432 9.49291 38.1754 10.3643 38.2318 10.4305C38.3912 10.6153 39.561 10.5229 39.7793 10.5344C40.2313 10.5483 42.4524 10.6791 42.566 10.5654C42.8758 10.2499 42.7712 8.68688 42.7639 8.14898C42.7532 7.4525 42.7827 6.29577 42.5685 5.97451C42.5415 5.93118 42.0404 5.9181 41.899 5.8993C41.3464 5.83962 39.1874 5.84616 38.5653 5.8993C38.5392 5.90257 38.3511 5.93772 38.3405 5.95979ZM44.7642 8.16288C44.7528 8.46044 44.7348 10.2859 44.7642 10.3635C44.8762 10.6423 46.2389 10.4731 46.5765 10.4829C46.8684 10.4968 47.3809 10.487 47.8984 10.4943C48.1338 10.4943 49.2595 10.6006 49.4238 10.4379C49.5137 10.3463 49.4957 9.77248 49.4957 9.69891C49.4957 8.87408 49.4688 8.07868 49.4957 7.43533C49.5088 7.15575 49.62 6.3064 49.5178 6.13718C49.3551 5.90339 47.8085 5.99494 47.2395 5.9835C46.3534 5.96633 45.37 5.82082 44.9391 6.12247C44.6326 6.33828 44.7985 7.23341 44.7642 8.16288ZM36.4955 4.29624C36.5772 4.2897 37.3726 4.20223 37.8337 4.36817C38.0765 4.45564 37.9498 4.70742 38.1648 4.83086C38.2187 4.86601 38.661 4.89136 38.9005 4.90117C41.2703 4.99354 44.6154 4.781 46.9624 4.86274C47.5322 4.88318 49.1164 4.9404 49.3625 4.7671C49.4042 4.73849 49.4786 4.37471 49.4949 4.36817C49.6192 4.31504 49.9274 4.32894 49.9977 4.33221C50.2347 4.33629 51.3955 4.2758 51.559 4.45891C51.7855 4.71396 51.6955 5.51754 51.6955 5.49955C51.5762 8.66154 51.6457 12.4505 51.5631 15.4294C51.546 15.9706 51.6269 17.2335 51.4961 17.3611C51.3882 17.4714 49.8456 17.3611 49.6976 17.2973C49.4205 17.178 49.6805 16.976 49.4287 16.8297C49.3151 16.7627 47.4643 16.7594 47.2313 16.7627C46.8684 16.7627 45.0209 16.7071 44.8975 16.8297C44.7912 16.9368 44.8623 18.8636 44.8304 19.0949C44.7953 19.3982 44.9032 19.4685 44.9032 19.4685C44.9776 19.5674 46.0967 19.5053 46.4318 19.4939C47.5387 19.4685 49.5162 19.4374 50.7636 19.4939C51.8206 19.5437 53.1564 19.2993 53.0942 19.7628C53.0795 19.8756 53.0476 20.6301 52.9831 20.6318C52.4206 20.6399 51.416 20.5615 51.4487 20.5647C49.7189 20.4838 47.1144 20.5729 45.7852 20.5647C44.94 20.559 44.6898 20.3849 44.6833 21.0577C44.6816 21.3871 44.5647 22.7834 44.6964 22.9608C44.8468 23.1619 46.5357 23.1553 47.0065 23.1594C48.3693 23.1839 51.4487 23.1766 52.9839 23.1275C53.0918 23.1234 54.6115 23.036 54.7153 23.1275C54.9058 23.2967 54.7946 24.2736 54.6973 24.3619C54.5624 24.4829 52.7877 24.3619 52.2972 24.3619C49.5685 24.3619 48.0733 24.3472 45.3659 24.2949C42.3551 24.2385 39.5496 24.3545 36.2355 24.2949C35.5644 24.2842 33.2338 24.3832 32.9697 24.16C32.8716 24.0791 32.7122 23.3229 32.9051 23.0948C33.116 22.8479 34.0741 22.946 34.639 22.9608C36.6214 23.0114 39.5708 23.1234 41.9685 22.9608C42.8603 22.9043 42.6993 22.7556 42.6993 21.7615C42.6993 21.3593 42.8333 20.81 42.6993 20.6301C42.5292 20.3931 40.9891 20.4953 40.0343 20.4953C38.0528 20.4953 37.0277 20.3007 35.1695 20.4274C35.0608 20.4348 34.4297 20.4029 34.4216 20.3996C34.2981 20.3645 34.1436 19.3884 34.3709 19.2282C34.6594 19.0263 35.8121 19.2821 36.3034 19.296C37.7111 19.3312 38.5457 19.377 40.2207 19.377C40.4708 19.377 42.3249 19.4652 42.5685 19.2887C42.7696 19.1481 42.66 18.5538 42.6878 18.033C42.6952 17.8883 42.7598 17.1175 42.6502 16.9605C42.5063 16.7594 39.6223 16.8436 39.1032 16.8297C38.8081 16.8232 38.2743 16.788 38.1664 16.8297C37.886 16.9442 37.9293 17.2483 37.7315 17.3226C37.3587 17.4641 36.0483 17.3553 35.9919 17.1461C35.9298 16.9254 35.9134 16.0875 35.9036 15.7654C35.754 12.2519 35.9674 9.38091 35.9674 5.70147C35.9674 5.75134 35.9069 4.42703 35.9674 4.36817C36.0565 4.27907 36.4146 4.30359 36.4955 4.29624Z" fill="black"/>
<path d="M61.0899 33.4244C61.0809 34.6629 61.1169 37.3793 61.1586 39.4884C61.1684 40.0435 61.0581 41.5787 61.1553 41.7201C61.1684 41.7348 62.2189 41.8051 62.3587 41.6882C62.4854 41.5852 62.5083 40.6157 62.5025 40.2658C62.4666 38.2001 62.3587 36.1196 62.3587 33.5593C62.3587 33.0042 62.4134 31.8213 62.2916 31.6905C62.1764 31.5638 61.3434 31.5745 61.2248 31.6905C60.9935 31.9252 61.094 33.1383 61.0899 33.4244ZM60.427 25.1614C60.6273 25.1508 61.1243 25.1655 61.2256 25.2284C61.3033 25.2783 61.1562 25.9225 61.1594 26.3606C61.1676 27.5043 61.0842 27.9277 61.1594 29.2929C61.1791 29.6183 61.175 30.439 61.2256 30.4921C61.2943 30.5624 61.936 30.5673 62.2246 30.5608C62.4306 30.5526 62.3685 30.0074 62.4339 29.9591C62.4805 29.9273 64.1743 29.857 64.3672 30.0262C64.431 30.0818 64.3656 31.4731 64.3574 31.5573C64.2111 34.2926 64.2609 38.7633 64.2953 41.8027C64.3034 42.6692 64.4375 42.7894 63.4271 42.7542C63.2808 42.7501 61.2771 42.6046 61.1047 42.737C60.9403 42.8597 61.0507 44.1799 61.0654 44.8625C61.0859 45.7895 61.0949 46.3552 61.0908 46.8228C61.0891 47.0271 61.1594 47.7629 61.0908 47.9541C61.0908 47.9541 59.3724 48.0923 59.2269 47.9582C59.1419 47.8765 59.2376 47.0983 59.2237 46.5996C59.1771 45.0889 59.2302 43.0305 59.2956 41.6899C59.4149 39.132 59.2653 36.7343 59.3594 33.7579C59.3757 33.2838 59.4337 31.8083 59.2286 31.626C59.0798 31.4952 58.0351 31.6219 58.0947 31.5581C58.0367 31.6178 58.1078 32.8702 58.0947 33.1579C58.0024 35.2098 58.1299 39.0829 58.0481 40.8904C57.9697 42.5858 58.2239 42.6447 57.5822 42.6913C57.2478 42.7117 56.1614 42.7787 55.9807 42.6242C55.8361 42.4967 55.9031 41.0244 55.9154 40.3566C55.966 37.4627 55.7666 35.1852 55.8925 32.3617C55.9268 31.693 55.957 30.8584 55.9317 30.2542C55.9317 30.2542 55.9358 29.9224 55.9897 29.8864C56.1614 29.7687 57.6492 29.8153 57.7604 29.8929C57.8192 29.9362 57.8855 30.5167 57.9631 30.5624C58.0841 30.636 59.2392 30.618 59.2956 30.5624C59.4542 30.3998 59.2956 28.9267 59.2956 28.6937C59.2956 27.622 59.2555 26.91 59.2286 26.0974C59.2237 25.956 59.1174 25.329 59.2286 25.2301C59.3765 25.087 60.1033 25.1794 60.427 25.1614Z" fill="black"/>
<path d="M67.5463 38.1682C67.4164 38.3072 67.5096 39.3756 67.5096 39.4598C67.4687 41.0833 67.4082 42.5384 67.3583 44.3548C67.3395 44.9467 67.3379 45.8876 67.4262 45.9546C67.6649 46.141 68.5363 46.065 68.7856 46.0568C69.5753 46.029 70.3282 46.0609 71.2994 46.0568C71.6182 46.0535 73.2073 46.1729 73.4894 45.8876C73.6169 45.7527 73.5458 45.2189 73.5539 44.954C73.6349 42.9406 73.6259 41.5321 73.5997 39.4704C73.5997 39.4533 73.6202 38.2818 73.5499 38.2115C73.3136 37.9745 71.7187 38.1396 70.8849 38.1159C69.9481 38.084 69.1241 38.0873 68.8813 38.1012C68.5698 38.1233 67.7237 37.9925 67.5463 38.1682ZM70.1557 25.2285C70.6119 25.2105 71.5364 25.2178 71.6582 25.4271C71.758 25.5996 71.7097 27.3367 71.6909 27.8926C71.6214 29.4033 71.668 30.202 71.6214 31.3587C71.5994 31.9816 71.4465 32.4876 71.8888 32.3601C72.5779 32.1582 73.4918 31.868 74.167 31.6211C74.2529 31.5892 75.027 31.2074 75.1873 31.2532C75.2878 31.2851 75.6189 31.8369 75.5527 32.0249C75.4652 32.2898 73.8711 32.7852 73.6234 32.8906C73.4673 32.9593 71.7343 33.4898 71.6214 33.6917C71.5691 33.7947 71.5601 34.3662 71.5479 34.5836C71.5348 34.8656 71.4915 35.415 71.4915 35.8253C71.4915 35.9946 71.4645 36.8652 71.6214 37.0246C71.7204 37.1235 73.4011 37.215 73.4894 37.1595C73.6643 37.045 73.5915 36.7131 73.6929 36.6632C74.0174 36.5014 74.2038 36.5439 74.8194 36.5439C75.345 36.5439 75.748 36.4842 75.8878 36.6927C75.9565 36.7916 75.8862 38.8966 75.8878 39.6928C75.8903 41.9858 75.784 44.3025 75.7538 47.1571C75.7538 47.2095 75.784 47.7057 75.7513 47.928C75.739 48.0302 73.7354 48.013 73.6643 47.9599C73.4648 47.8046 73.652 47.2095 73.4894 47.0901C73.2817 46.9372 72.3956 47.0729 71.7776 47.0966C71.1277 47.1334 70.6732 47.1187 70.0225 47.0901C69.5189 47.0688 67.8006 46.9904 67.557 47.1571C67.2823 47.3411 67.5243 47.9076 67.3608 48.0204C67.1376 48.1765 66.7542 48.1087 66.2907 48.0874C66.1133 48.0841 65.2885 48.0204 65.2885 48.0204C65.0996 47.8512 65.2288 46.3045 65.2247 45.5573C65.2108 42.7918 65.3065 40.1032 65.2885 37.0891C65.2877 36.6477 65.0326 36.3673 65.6899 36.3608C65.8901 36.3608 67.4352 36.2725 67.5562 36.3608C67.7237 36.4842 67.5717 36.9199 67.6224 36.9616C67.7908 37.0818 68.1349 37.0434 68.4897 37.036C68.9336 37.0254 69.4265 37.1145 69.5549 36.9616C69.6799 36.8128 69.572 35.6275 69.5549 34.9596C69.4846 32.338 69.5639 30.4317 69.4895 27.4274C69.4829 27.1667 69.5107 25.553 69.6178 25.3658C69.6979 25.2244 69.7347 25.2423 70.1557 25.2285Z" fill="black"/>
<path d="M43.3197 25.8472C43.735 25.8472 44.7242 25.7802 44.7626 25.8938C44.8509 26.1341 44.756 27.6342 44.7626 27.8925C44.7985 28.925 44.7863 31.2074 44.8304 32.293C44.855 32.817 44.7683 34.3448 44.8304 34.4258C45.0315 34.7053 46.3272 34.568 46.7122 34.5598C49.2775 34.4961 50.7873 34.4021 53.0338 34.447C53.3657 34.4576 54.5322 34.3759 54.6613 34.4544C54.7202 34.4895 54.8404 35.2146 54.6327 35.4329C54.4202 35.6561 52.697 35.5923 52.3642 35.5866C50.5233 35.5432 49.2162 35.6569 47.2313 35.6569C46.7049 35.6569 45.2751 35.4844 44.9604 35.7133C44.6816 35.9152 44.7626 37.0899 44.7626 37.73C44.7626 41.3874 44.9555 43.74 44.9539 45.5507C44.9539 46.0012 45.0037 47.4571 44.8901 47.6312C44.7871 47.7939 43.1464 47.8683 42.8734 47.6026C42.7745 47.5004 42.8244 46.6977 42.8088 46.3363C42.7107 44.0024 42.853 40.8454 42.8088 37.7398C42.7949 36.9379 42.8562 35.9038 42.6764 35.6495C42.5243 35.4402 39.2945 35.6209 38.571 35.6323C37.2631 35.6495 35.6657 35.607 33.9728 35.5645C33.4218 35.5498 32.8831 35.674 32.8406 35.0977C32.8365 35.0626 32.8504 34.6481 32.9084 34.6097C33.0605 34.5181 34.8941 34.5533 35.1646 34.559C37.5476 34.6056 39.5929 34.3898 42.2243 34.5271C42.1385 34.5239 42.6797 34.5639 42.7287 34.492C42.7745 34.4217 42.7377 33.1734 42.6968 32.423C42.6134 30.7847 42.7107 29.5757 42.6298 27.9587C42.593 27.1691 42.5309 26.0001 42.6298 25.893C42.6486 25.8717 43.2519 25.8472 43.3197 25.8472Z" fill="black"/>
<path d="M29.4816 46.7615C29.4007 47.2994 29.426 48.2157 29.4718 48.9727C29.4987 49.4321 29.4284 50.2921 29.6263 50.5186C29.8781 50.8088 31.4926 50.579 32.0378 50.5398C33.3073 50.4401 34.6513 50.575 36.0205 50.521C39.7981 50.3771 43.9345 50.4433 47.8788 50.5537C51.2239 50.6485 54.4905 50.5676 58.0579 50.521C60.8096 50.4859 63.6789 50.6314 66.5744 50.588C69.8099 50.5463 72.4307 50.6167 75.6508 50.6763C76.0015 50.6837 78.9321 50.8292 79.2534 50.5112C79.5076 50.2668 79.4831 48.0988 79.4618 47.5781C79.3335 44.7121 79.3858 42.5229 79.2975 39.6364C79.219 37.0965 79.4283 33.5478 79.3204 30.5232C79.2125 27.3579 79.2918 24.1273 79.3212 20.998C79.3784 15.167 79.5722 8.33619 79.488 2.62697C79.479 2.16591 79.398 1.11137 79.2256 0.974039C79.1177 0.88657 77.9331 0.836704 77.4263 0.828529C72.3621 0.790108 66.7845 0.994476 61.7832 1.03044C57.9149 1.06151 54.4602 0.94788 50.7269 0.828529C49.777 0.793378 47.6523 0.966682 46.4817 0.970769C42.4091 0.985484 39.6092 0.74433 35.9028 0.839974C35.0461 0.860411 33.6834 0.981396 32.7 0.917634C32.1057 0.882482 30.0579 0.755774 29.7603 1.06968C29.5805 1.25688 29.7424 2.36783 29.7325 2.89428C29.7154 3.89241 29.6148 5.18729 29.6336 5.95408C29.7497 11.6886 29.8012 17.4126 29.6018 23.4619C29.4456 28.092 29.7497 32.8407 29.5658 37.3752C29.4391 40.6067 29.4203 43.557 29.4816 46.7615Z" stroke="black" stroke-width="0.362222" stroke-linecap="round"/>
</g>
<defs>
<clipPath id="clip0">
<rect width="108.724" height="93.1918" fill="white"/>
</clipPath>
</defs>
</svg>
